<svg width="21" height="21" viewBox="0 0 21 21" fill="none" xmlns="http://www.w3.org/2000/svg">
<path d="M17.7188 3.09082H3.28125C1.6528 3.09082 0.328125 4.41549 0.328125 6.04395V14.9559C0.328125 16.5843 1.6528 17.909 3.28125 17.909H17.7188C19.3472 17.909 20.6719 16.5843 20.6719 14.9559V6.04395C20.6719 4.4155 19.3472 3.09082 17.7188 3.09082ZM16.8464 5.05957L15.9403 5.7749L11.1103 9.58772C10.7494 9.8699 10.2506 9.8699 9.88969 9.58772L5.23029 5.90616L4.15627 5.05957H16.8464ZM17.7188 15.9402H3.28125C2.73843 15.9402 2.29688 15.4987 2.29688 14.9559V6.10611L8.66908 11.1365C9.20721 11.563 9.85689 11.773 10.5 11.773C11.1431 11.773 11.7928 11.563 12.3309 11.1365L18.7031 6.10836V14.9559C18.7031 15.4987 18.2616 15.9402 17.7188 15.9402Z" fill="black"/>
</svg>
