<svg width="22" height="22" viewBox="0 0 22 22" fill="none" xmlns="http://www.w3.org/2000/svg">
<g clip-path="url(#clip0_4309_84375)">
<mask id="mask0_4309_84375" style="mask-type:alpha" maskUnits="userSpaceOnUse" x="0" y="0" width="22" height="22">
<path d="M20.7778 0H1.22222C0.547207 0 0 0.547207 0 1.22222V20.7778C0 21.4528 0.547207 22 1.22222 22H20.7778C21.4528 22 22 21.4528 22 20.7778V1.22222C22 0.547207 21.4528 0 20.7778 0Z" fill="white"/>
</mask>
<g mask="url(#mask0_4309_84375)">
<path d="M20.7778 0H1.22222C0.547207 0 0 0.547207 0 1.22222V20.7778C0 21.4528 0.547207 22 1.22222 22H20.7778C21.4528 22 22 21.4528 22 20.7778V1.22222C22 0.547207 21.4528 0 20.7778 0Z" fill="#0EA25E"/>
<path fill-rule="evenodd" clip-rule="evenodd" d="M11.3054 12.8333L19.861 21.9999H2.44434L11.3054 12.8333Z" fill="#3A8AF8"/>
<path fill-rule="evenodd" clip-rule="evenodd" d="M15.5836 9.16675L17.1113 11.9167V17.4167L11.6113 12.5279L15.5836 9.16675Z" fill="#D3D3D3"/>
<path fill-rule="evenodd" clip-rule="evenodd" d="M22.0002 21.3889V4.27783L17.4169 5.1945L17.1113 17.7223L21.0835 21.3889H22.0002Z" fill="#B5B5B5"/>
<path fill-rule="evenodd" clip-rule="evenodd" d="M18.6387 22H21.9998V21.3889L12.222 11.6111L10.3887 13.75L18.6387 22Z" fill="#F1F1F1"/>
<path fill-rule="evenodd" clip-rule="evenodd" d="M0 21.3889V22H3.36111L18.6389 6.7222L15.2778 6.11108L0 21.3889Z" fill="#FFDF46"/>
<path fill-rule="evenodd" clip-rule="evenodd" d="M13.8491 1.37958C11.8599 3.21811 11.5082 6.16153 13.8491 8.64111C16.802 11.77 16.5013 16.5 17.0962 16.5C17.6914 16.5 17.3948 11.4684 20.3476 8.64111C22.7548 6.33631 22.338 3.21811 20.3483 1.37958C18.3591 -0.459861 15.8389 -0.459861 13.8491 1.37958Z" fill="url(#paint0_linear_4309_84375)"/>
<path fill-rule="evenodd" clip-rule="evenodd" d="M15.584 5.19434C15.584 4.34948 16.2675 3.66626 17.1105 3.66626C17.3113 3.66598 17.5102 3.70529 17.6958 3.78195C17.8813 3.85861 18.05 3.97111 18.192 4.11302C18.3341 4.25492 18.4467 4.42344 18.5236 4.60894C18.6004 4.79443 18.6399 4.99326 18.6398 5.19404C18.6398 6.03859 17.9566 6.72182 17.1105 6.72182C16.91 6.72182 16.7114 6.6823 16.5261 6.60553C16.3409 6.52875 16.1725 6.41623 16.0308 6.27437C15.889 6.13252 15.7766 5.96413 15.6999 5.77881C15.6233 5.5935 15.5839 5.39489 15.584 5.19434Z" fill="#802D27"/>
<path fill-rule="evenodd" clip-rule="evenodd" d="M5.13449 2.83301C5.03671 2.83301 4.80755 2.83851 4.53438 2.8874C3.88843 3.0029 2.99591 3.42517 2.74321 4.30365C2.35241 5.66276 3.3586 6.20267 3.3586 6.20267C3.3586 6.20267 3.71091 6.4074 3.85666 6.44773C4.2936 6.56842 4.75896 6.5122 4.75896 6.5122C4.75896 6.5122 4.57349 7.12026 4.94535 7.54956C5.03396 7.65192 4.9698 7.65559 4.9698 7.65559C4.9698 7.65559 3.34424 7.61404 2.57455 8.42254C1.80516 9.23104 2.22224 9.97537 2.22224 9.97537C2.22224 9.97537 2.62557 10.9483 4.36571 10.9975C6.1138 11.0466 7.19516 10.0221 7.28927 9.24876C7.33694 8.86009 7.28316 8.49587 7.08638 8.17748C6.8951 7.86765 6.56602 7.6009 6.24519 7.34087C6.04566 7.17954 5.90694 7.09642 5.81741 7.00354C5.73277 6.91584 5.71871 6.80279 5.72177 6.71815C5.72574 6.59959 5.78899 6.45445 5.9986 6.21398C6.38146 5.7752 6.47832 5.8299 6.70994 5.50142C6.77899 5.40304 6.83002 5.25942 6.90121 5.04523C6.94399 4.91659 6.93696 4.78306 6.93696 4.6587C6.93721 4.40181 6.8778 4.14836 6.76341 3.91834C6.56174 3.51745 6.21585 3.25712 6.20943 3.23726H6.81566L7.50255 2.83942L5.18552 2.83331H5.13449V2.83301ZM4.63643 3.20579C4.98996 3.20823 5.52102 3.38942 5.8391 4.3342C6.38513 5.95517 5.24174 6.20267 5.24174 6.20267C5.24174 6.20267 3.93121 6.4022 3.69044 4.96059C3.44507 3.49209 4.04274 3.41265 4.27649 3.26781C4.27649 3.26781 4.42438 3.20426 4.63643 3.20579ZM5.3606 7.98162C5.3606 7.98162 6.40346 8.61412 6.50185 9.07826C6.61185 9.5977 6.61888 9.97659 5.8226 10.3909C5.58732 10.5131 5.17482 10.5275 4.9148 10.5284C4.27619 10.5315 3.79341 10.288 3.55507 10.166C3.43132 10.1028 2.74291 9.33798 3.25257 8.65354C3.38091 8.48151 3.52268 8.40542 3.65468 8.31742C3.9358 8.13104 4.2111 8.04426 4.73085 7.99934C4.9038 7.98406 5.13419 7.9969 5.3603 7.98162H5.3606Z" fill="#E8F7F4"/>
</g>
</g>
<defs>
<linearGradient id="paint0_linear_4309_84375" x1="17.1116" y1="0" x2="17.1116" y2="16.5" gradientUnits="userSpaceOnUse">
<stop stop-color="#DD4E40"/>
<stop offset="1" stop-color="#DF473C"/>
</linearGradient>
<clipPath id="clip0_4309_84375">
<rect width="22" height="22" fill="white"/>
</clipPath>
</defs>
</svg>
