<svg width="20" height="20" viewBox="0 0 20 20" fill="none" xmlns="http://www.w3.org/2000/svg">
<g clip-path="url(#clip0_4309_84374)">
<path fill-rule="evenodd" clip-rule="evenodd" d="M17.0858 2.90644C15.2058 1.0332 12.7056 0.00105288 10.042 0C4.55356 0 0.086664 4.44554 0.0844676 9.90983C0.0837354 11.6565 0.542272 13.3615 1.4136 14.8644L0.000976562 20L5.27959 18.6219C6.73395 19.4114 8.37145 19.8275 10.038 19.8282H10.0421C15.5299 19.8282 19.9972 15.3821 19.9994 9.91774C20.0005 7.26966 18.9657 4.77968 17.0858 2.90644ZM10.0421 18.1543H10.0387C8.55364 18.1538 7.09704 17.7567 5.82637 17.0062L5.52413 16.8276L2.39176 17.6455L3.22787 14.6058L3.03106 14.2942C2.2026 12.9827 1.76503 11.4668 1.76568 9.91045C1.76749 5.36875 5.48023 1.67381 10.0454 1.67381C12.2559 1.67465 14.3339 2.53259 15.8965 4.08955C17.4591 5.64652 18.3191 7.71611 18.3183 9.91709C18.3164 14.4591 14.6037 18.1543 10.0421 18.1543ZM14.5818 11.9851C14.3329 11.8612 13.1097 11.2621 12.8816 11.1795C12.6536 11.0968 12.4878 11.0555 12.3219 11.3034C12.156 11.5513 11.6792 12.1091 11.534 12.2744C11.3889 12.4396 11.2438 12.4603 10.995 12.3363C10.7462 12.2124 9.94452 11.9509 8.99417 11.1073C8.25458 10.4507 7.7552 9.63973 7.61007 9.39184C7.46495 9.14393 7.59465 9.00989 7.71919 8.88646C7.8311 8.7755 7.96798 8.59724 8.09239 8.45261C8.21677 8.30802 8.25824 8.20473 8.34116 8.03948C8.42411 7.87421 8.38265 7.72958 8.32044 7.60564C8.25824 7.4817 7.76068 6.26284 7.55332 5.76704C7.35139 5.28417 7.14625 5.3495 6.99353 5.34194C6.84857 5.33476 6.68254 5.33322 6.51669 5.33322C6.35082 5.33322 6.08129 5.39521 5.85321 5.64309C5.62516 5.89101 4.98245 6.4901 4.98245 7.70893C4.98245 8.92776 5.87396 10.1053 5.99837 10.2705C6.12275 10.4358 7.75276 12.9371 10.2486 14.0097C10.8422 14.2648 11.3056 14.4171 11.667 14.5313C12.263 14.7197 12.8054 14.6932 13.2341 14.6294C13.7121 14.5583 14.7061 14.0304 14.9135 13.4519C15.1208 12.8735 15.1208 12.3777 15.0586 12.2744C14.9964 12.1711 14.8305 12.1091 14.5818 11.9851Z" fill="black"/>
</g>
<defs>
<clipPath id="clip0_4309_84374">
<rect width="20" height="20" fill="white"/>
</clipPath>
</defs>
</svg>
