<svg width="469" height="421" viewBox="0 0 469 421" fill="none" xmlns="http://www.w3.org/2000/svg">
<path d="M152.446 187.99C152.446 170.884 145.651 154.478 133.555 142.382C121.459 130.286 105.053 123.49 87.9463 123.49C70.8398 123.49 54.434 130.286 42.3379 142.382C30.2418 154.478 23.4463 170.884 23.4463 187.99L87.9463 187.99H152.446Z" fill="white"/>
<path d="M425.446 193.99C425.446 176.884 418.651 160.478 406.555 148.382C394.459 136.286 378.053 129.49 360.946 129.49C343.84 129.49 327.434 136.286 315.338 148.382C303.242 160.478 296.446 176.884 296.446 193.99L360.946 193.99H425.446Z" fill="white"/>
<path d="M388 191C388 154.665 373.566 119.819 347.874 94.1264C322.181 68.4339 287.335 54 251 54C214.665 54 179.819 68.4339 154.126 94.1264C128.434 119.819 114 154.665 114 191L251 191H388Z" fill="white"/>
<circle cx="246.166" cy="154.076" r="73.4079" fill="#FBC329"/>
<g clip-path="url(#clip0_215_2)">
<path d="M142.691 285.103H94.126C94.126 285.103 94.6911 281.207 99.1057 281.207C103.52 281.207 103.591 283.958 107.043 279.076C110.495 274.194 117.409 275.744 120.234 279.99C123.059 284.236 127.129 276.046 130.281 280.579C133.434 285.103 142.691 285.103 142.691 285.103Z" fill="#DEDEDE"/>
<path d="M350.753 285.103H302.188C302.188 285.103 302.753 281.207 307.168 281.207C311.582 281.207 311.653 283.958 315.105 279.076C318.557 274.194 325.471 275.744 328.296 279.99C331.121 284.236 335.191 276.046 338.344 280.579C341.496 285.103 350.753 285.103 350.753 285.103Z" fill="#DEDEDE"/>
<path opacity="0.5" d="M111.797 249.691C111.797 249.691 176.449 260.246 177.231 259.796C178.005 259.337 186.383 223.788 186.383 223.788C186.383 223.788 132.914 214.332 132.053 214.332C131.182 214.332 119.56 223.486 119.402 224.1C119.244 224.697 111.797 249.691 111.797 249.691Z" fill="#097FAD"/>
<path opacity="0.5" d="M309.022 258.723C310.569 258.879 388.873 257.227 388.873 257.227L382.983 239.5C382.983 239.5 372.126 223.347 366.394 223.642C360.653 223.936 326.543 218.494 320.653 222.508C314.763 226.531 309.497 223.321 306.701 232.933C303.914 242.545 301.734 243.618 303.905 249.414C306.077 255.211 309.022 258.723 309.022 258.723Z" fill="#097FAD"/>
<path d="M90.5753 208.812H106.997C108.404 208.812 109.354 210.223 108.817 211.494L106.971 215.829C105.213 219.956 101.107 222.646 96.5622 222.646H90.5841C89.4149 222.646 88.4654 221.712 88.4654 220.561V210.898C88.4566 209.747 89.4061 208.812 90.5753 208.812Z" fill="#CF283C"/>
<path d="M396.943 218.346C401.277 219.713 406.271 228.14 406.271 228.14C407.466 230.77 406.482 235.044 404.732 234.819L396.284 233.72C394.526 233.495 393.031 231.029 392.539 227.56C391.712 221.729 392.416 216.927 396.943 218.346Z" fill="#EE4036"/>
<path d="M410.816 231.047C408.565 216.426 401.277 213.354 379.739 209.115C355.967 204.435 325.778 189.174 325.778 189.174C325.778 189.174 274.304 164.352 261.689 161.506C249.082 158.66 219.532 161.506 192.027 159.681C165.978 159.88 150.681 167 137.45 177.174C124.219 187.348 101.274 195.082 101.274 195.082L97.1069 195.818C92.8167 196.571 89.6958 200.239 89.6958 204.521V240.806C89.6958 244.915 92.509 248.505 96.5442 249.552L111.613 253.471C112.843 253.679 113.977 252.823 114.118 251.603C115.762 236.757 128.8 225.475 144.343 225.493C160.879 225.51 174.435 238.876 174.426 255.15C174.426 257.001 174.251 258.809 173.917 260.566C173.574 262.374 174.989 264.044 176.862 264.044H315.509C318.199 264.044 320.301 261.716 319.94 259.086C319.764 257.823 319.676 256.534 319.676 255.219C319.624 239.153 332.828 225.83 349.162 225.493C366.086 225.146 379.914 238.548 379.914 255.124C379.914 256.223 379.853 257.304 379.739 258.368C379.405 261.388 381.778 264.035 384.864 264.035H404.803C408.425 264.035 411.37 261.145 411.37 257.572V238.582C411.361 236.065 411.203 233.538 410.816 231.047Z" fill="#52D3F3"/>
<path opacity="0.5" d="M325.813 197.582C325.523 197.427 296.212 181.603 276.775 172.744C257.539 163.971 236.054 164.897 235.13 164.94C232.66 164.888 181.275 163.79 165.468 168.634C149.556 173.514 128.826 195.757 127.947 196.7L127.709 196.959L133.283 222.698L133.881 222.663C150.092 221.763 162.505 226.011 169.767 234.94C175.262 241.688 175.939 248.825 175.939 248.894L175.991 249.509L234.436 250.988L235.113 250.997L235.834 251.014V251.005L317.276 252.571L317.285 251.879C317.69 225.838 326.059 198.638 326.147 198.361L326.314 197.825L325.813 197.582ZM177.257 248.168C176.976 246.238 175.745 240.122 170.901 234.144C165.688 227.698 155.13 220.267 134.4 221.27L129.222 197.375C131.622 194.84 151.226 174.448 165.881 169.949C180.545 165.451 228.159 166.186 234.436 166.307V249.621L177.257 248.168ZM315.905 251.187L235.834 249.647V166.29C239.605 166.186 258.832 166.074 276.186 173.981C294.19 182.191 320.705 196.397 324.644 198.517C323.483 202.444 316.406 227.188 315.905 251.187Z" fill="#097FAD"/>
<path d="M89.792 242.147C88.6579 242.121 87.8579 243.237 88.2799 244.275C89.4579 247.2 91.9898 249.501 95.225 250.34L112.104 254.726C113.476 254.96 114.759 254 114.909 252.633C115.225 249.821 115.902 247.122 116.896 244.578C117.23 243.713 116.597 242.787 115.656 242.77L89.792 242.147Z" fill="#0B0700"/>
<path opacity="0.5" d="M88.271 244.276C89.449 247.2 91.9809 249.501 95.2161 250.34L112.095 254.727C113.467 254.96 114.75 254 114.9 252.633C115.023 251.543 115.199 250.479 115.427 249.432L88.271 244.276Z" fill="#097FAD"/>
<path d="M145.012 200.015L224.714 200.759C224.714 200.759 229.593 200.629 230.252 196.113C230.921 191.597 230.859 172.252 230.859 172.252C230.859 172.252 230.279 168.367 226.499 168.315C224.204 168.281 204.942 166.931 186.217 169.172C170.937 170.997 156.81 177.867 146.093 188.413L140.432 193.984C140.44 193.984 136.625 199.937 145.012 200.015Z" fill="#EAFCFC"/>
<path d="M239.728 174.699V194.987C239.728 197.626 241.785 199.788 244.379 199.892L306.999 202.367C308.441 202.427 309.847 201.787 310.665 200.593C311.79 198.967 311.922 196.285 306.305 192.686C296.546 186.431 271.72 172.908 262.533 171.593C256.686 170.763 249.038 170.399 244.247 170.244C241.785 170.166 239.728 172.182 239.728 174.699Z" fill="#EAFCFC"/>
<path d="M156.818 190.55C156.818 190.55 208.748 184.727 209.865 185.739C210.981 186.752 218.19 203.371 219.509 207.913L158.339 207.342L154.031 200.949L156.818 190.55Z" fill="#B75742"/>
<path d="M157.204 191.536C157.152 191.181 157.02 190.852 156.818 190.558L149.099 198.154C149.099 198.154 143.297 207.204 156.062 207.325L159.569 207.359L157.204 191.536Z" fill="#B75742"/>
<path d="M298.059 210.742L301.33 197.679C301.55 196.805 301.005 195.922 300.117 195.706C299.229 195.49 298.332 196.026 298.112 196.9L294.684 210.595L298.059 210.742Z" fill="#1A1A1A"/>
<path d="M289.61 210.362C290.533 209.791 291.29 209.323 291.791 209.021C291.826 208.995 294.182 207.887 294.226 207.861C294.56 207.74 294.841 207.645 294.903 207.645C295.079 207.645 296.107 207.299 296.186 207.264C296.265 207.23 296.687 207.23 296.872 207.221C297.048 207.212 298.938 206.252 299.254 206.114C299.571 205.967 300.134 205.43 300.134 205.43L301.364 204.738C302.27 204.228 301.452 203.484 301.452 203.484C301.874 203.241 301.997 202.964 301.927 202.679C301.857 202.393 301.611 202.177 301.602 202.117C301.593 202.065 301.707 201.961 301.707 201.961C301.989 201.814 301.997 201.399 301.909 201.182C301.822 200.966 301.47 200.715 301.294 200.698C301.118 200.68 301.092 200.603 301.092 200.603C301.127 200.308 300.643 199.582 300.292 199.573C299.94 199.556 298.586 200.213 298.428 200.205C298.27 200.205 297.962 200.161 297.769 200.257C297.575 200.352 295.896 200.577 295.615 200.706C295.334 200.836 294.718 201.762 294.252 202.177C293.786 202.592 293.312 203.605 293.162 203.873C293.101 203.977 292.802 204.158 292.45 204.331C292.397 204.392 282.129 208.034 276.054 209.816L289.61 210.362Z" fill="#F7A491"/>
<path d="M162.629 202.826C162.629 202.826 170.647 209.107 171.535 210.387C172.194 211.348 169.997 222.145 169.997 222.145C169.997 222.145 166.823 222.24 165.372 221.132C165.372 221.132 166.243 213.666 165.856 213.381C165.478 213.087 156.669 209.237 156.669 209.237L157.223 204.807L162.629 202.826Z" fill="#B75742"/>
<path d="M172.246 181.698L169.451 182.226C169.451 182.226 169.723 183.255 170.954 183.056C172.466 182.823 172.246 181.698 172.246 181.698Z" fill="white"/>
<path d="M262.789 195.535L262.78 195.506H262.838L262.789 195.535Z" fill="#474759"/>
<path d="M262.209 190.385C263.29 190.48 265.321 191.06 265.866 193.976C265.866 193.976 263.281 192.522 261.927 194.157C262.112 193.811 262.209 193.422 262.209 193.007V190.385Z" fill="#3C5059"/>
<path d="M263.896 195.514C265.311 195.514 266.454 194.39 266.445 192.997L266.436 186.612L261.329 186.621L261.337 193.005C261.337 194.39 262.489 195.514 263.896 195.514Z" fill="#FFBEA4"/>
<path d="M266.454 192.088C265.636 192.382 264.784 192.547 263.896 192.547C263.008 192.547 262.155 192.391 261.337 192.088L261.329 187.65L266.436 187.641L266.454 192.088Z" fill="#FC9171"/>
<path d="M255.122 175.149C252.784 175.271 252.081 177.01 252.081 179.337C252.081 181.638 253.426 183.515 255.131 183.689L255.122 175.149Z" fill="#FFBEA4"/>
<path d="M255.122 176.586C255.122 176.465 253.988 176.941 253.864 177.01C253.355 177.313 253.029 177.849 252.906 178.411C252.66 179.588 253.214 180.92 254.128 181.69C254.409 181.932 254.744 182.123 255.104 182.235L255.122 182.244C255.122 182.244 255.122 178.835 255.113 177.313C255.122 176.88 255.122 176.595 255.122 176.586Z" fill="#FCCEAE"/>
<path d="M255.123 177.114C255.035 177.096 254.367 177.321 254.305 177.347C253.593 177.633 253.065 178.195 252.907 178.948C252.881 179.06 252.872 179.164 252.863 179.277C252.837 178.991 252.854 178.706 252.907 178.429C252.995 177.996 253.224 177.598 253.549 177.295C253.901 176.967 254.323 176.759 254.788 176.647C254.832 176.638 255.123 176.595 255.123 176.595" fill="#E9AE85"/>
<path d="M272.661 175.132C274.999 175.253 275.702 176.992 275.702 179.319C275.702 181.621 274.357 183.498 272.652 183.671L272.661 175.132Z" fill="#FFBEA4"/>
<path d="M272.66 176.568C272.66 176.447 273.794 176.923 273.917 176.992C274.427 177.295 274.753 177.831 274.876 178.394C275.122 179.57 274.568 180.903 273.654 181.673C273.372 181.915 273.038 182.105 272.678 182.218L272.66 182.226C272.66 182.226 272.66 178.818 272.669 177.295C272.66 176.862 272.66 176.577 272.66 176.568Z" fill="#FCCEAE"/>
<path d="M272.66 177.087C272.748 177.07 273.416 177.294 273.478 177.32C274.19 177.606 274.717 178.168 274.876 178.921C274.902 179.033 274.911 179.137 274.92 179.25C274.946 178.964 274.928 178.679 274.876 178.402C274.788 177.969 274.559 177.571 274.234 177.269C273.882 176.94 273.46 176.732 272.994 176.62C272.95 176.611 272.66 176.568 272.66 176.568" fill="#E9AE85"/>
<path d="M254.305 182.382C254.314 187.4 258.612 191.466 263.905 191.466C269.206 191.457 273.496 187.382 273.487 182.364C273.479 177.347 271.263 168.176 263.878 168.185C256.107 168.185 254.296 177.355 254.305 182.382Z" fill="#FFBEA4"/>
<path d="M272.591 182.564C272.538 179.925 272.371 177.39 271.624 175.712L272.327 177.269C273.153 178.679 273.487 180.418 273.487 182.356C273.496 187.374 269.206 191.449 263.905 191.458C268.705 191.449 272.687 187.469 272.591 182.564Z" fill="#FC9171"/>
<path d="M255.667 177.001C255.245 178.203 255.201 181.067 255.201 182.581C255.21 187.486 259.105 191.466 263.905 191.457C258.604 191.466 254.305 187.4 254.305 182.373C254.305 180.946 254.454 179.631 254.841 178.471L255.667 177.001Z" fill="#FC9171"/>
<path d="M254.507 174.475C255.061 170.521 256.811 167.571 260.653 166.55V166.516C261.444 166.325 262.332 166.204 263.316 166.178C263.334 166.178 263.343 166.178 263.36 166.178C263.527 166.17 263.703 166.17 263.879 166.17C263.888 166.17 263.888 166.17 263.897 166.17C263.905 166.17 263.905 166.17 263.914 166.17C264.09 166.17 264.266 166.17 264.433 166.178C264.45 166.178 264.459 166.178 264.477 166.178C265.461 166.213 266.349 166.325 267.141 166.516V166.55C270.982 167.562 272.741 170.521 273.286 174.475C273.461 175.133 274.007 177.512 273.62 180.496C273.593 180.695 273.303 180.721 273.242 180.531L272.257 177.096C271.905 177.062 270.006 171.04 270.006 171.04C270.006 171.04 269.998 171.04 269.989 171.049C269.769 169.423 266.165 169.241 264.828 169.275C263.413 169.31 261.98 169.492 260.732 170.184C259.272 170.997 258.402 172.416 257.646 173.843C257.54 173.826 257.444 173.8 257.347 173.774C257.347 173.774 255.879 177.062 255.536 177.096L254.551 180.531C254.49 180.73 254.2 180.704 254.173 180.496C253.787 177.512 254.332 175.133 254.507 174.475Z" fill="#31312F"/>
<path d="M272.485 170.461C271.755 165.564 265.883 164.206 261.628 164.837C260.309 165.036 258.999 165.495 257.962 166.334C257.461 166.741 257.03 167.234 256.696 167.788C256.511 168.09 256.362 168.41 256.239 168.748C256.195 168.878 256.028 169.743 255.949 169.777C255.949 169.777 253.232 170.893 254.445 178.264C254.445 178.264 258.375 178.048 258.375 172.485C258.375 172.676 262.234 173.16 262.604 173.203C264.925 173.515 267.245 173.411 269.54 173.022C270.261 172.901 270.753 173.359 271.193 173.887C271.492 174.25 271.676 174.717 271.606 175.176C271.65 174.89 271.949 174.518 272.063 174.233C272.204 173.878 272.309 173.515 272.397 173.143C272.582 172.269 272.617 171.352 272.485 170.461Z" fill="#31312F"/>
<path d="M257.223 182.418C256.88 182.106 256.651 181.717 256.449 181.31C256.308 181.025 256.176 180.731 256.036 180.437C255.983 180.324 255.895 180.229 255.772 180.177C255.684 180.134 255.614 180.073 255.596 179.978C255.57 179.788 255.552 179.589 255.535 179.39C255.526 179.295 255.579 179.225 255.658 179.182C255.719 179.147 255.79 179.121 255.851 179.096C255.957 179.052 256.036 178.974 256.089 178.871C256.168 178.698 256.256 178.525 256.343 178.352C256.502 178.023 256.713 177.729 257.047 177.538C257.363 177.357 257.689 177.235 258.04 177.158C258.629 177.028 259.227 176.993 259.834 176.976C260.704 176.959 261.574 176.959 262.445 176.959C262.893 176.959 263.35 176.959 263.798 176.959C264.185 176.959 264.581 176.959 264.968 176.959C266.137 176.95 267.315 176.933 268.475 177.054C268.906 177.097 269.337 177.184 269.741 177.339C270.234 177.53 270.603 177.841 270.823 178.326C270.884 178.464 270.955 178.585 271.016 178.724C271.104 178.931 271.236 179.087 271.456 179.165C271.64 179.234 271.667 179.303 271.64 179.502C271.623 179.649 271.605 179.796 271.588 179.952C271.579 180.056 271.544 180.134 271.438 180.177C271.289 180.229 271.192 180.333 271.13 180.471C271.016 180.713 270.902 180.964 270.788 181.206C270.594 181.604 270.392 182.002 270.067 182.323C269.46 182.919 268.73 183.231 267.86 183.118C267.218 183.032 266.629 182.781 266.119 182.383C265.478 181.881 265.02 181.232 264.686 180.506C264.511 180.134 264.379 179.744 264.229 179.364C264.159 179.182 264.053 179.018 263.904 178.888C263.719 178.724 263.464 178.724 263.28 178.888C263.13 179.018 263.025 179.182 262.955 179.364C262.84 179.658 262.735 179.961 262.612 180.246C262.26 181.077 261.776 181.812 261.056 182.383C260.458 182.85 259.772 183.101 259.086 183.144C258.321 183.118 257.732 182.868 257.223 182.418ZM262.383 177.296C262.33 177.296 262.251 177.287 262.242 177.357C262.234 177.4 262.269 177.452 262.304 177.478C262.594 177.711 262.779 178.014 262.893 178.36C262.972 178.611 263.007 178.62 263.245 178.481C263.464 178.352 263.702 178.36 263.93 178.481C263.948 178.49 263.974 178.507 263.992 178.525C264.141 178.62 264.194 178.602 264.256 178.438C264.291 178.352 264.317 178.274 264.344 178.187C264.458 177.91 264.625 177.668 264.871 177.486C264.915 177.452 264.968 177.408 264.933 177.357C264.915 177.322 264.853 177.305 264.809 177.305C264.405 177.305 263.992 177.305 263.587 177.305C263.174 177.296 262.779 177.296 262.383 177.296Z" fill="black"/>
<path d="M270.436 177.209C270.436 177.209 268.256 174.951 265.074 176.854C265.065 176.854 267.913 175.903 270.436 177.209Z" fill="black"/>
<path d="M256.713 176.923C256.713 176.923 258.893 174.665 262.076 176.569C262.076 176.569 259.227 175.617 256.713 176.923Z" fill="black"/>
<path d="M266.982 186.206C266.982 186.206 263.65 189.113 259.421 186.068C259.421 186.059 263.298 187.738 266.982 186.206Z" fill="#EE3D3C"/>
<path d="M266.293 203.466L269.475 200.68C269.739 200.447 270.134 200.438 270.416 200.646L272.956 202.575C273.079 202.67 273.238 202.722 273.396 202.722L289.871 202.973L293.326 203.085C293.238 203.717 293.15 204.357 293.062 204.989C293.115 204.591 293.168 204.193 293.229 203.795C293.203 203.968 293.185 204.141 293.159 204.323C293.036 204.773 292.992 205.222 293.009 205.664C292.71 205.975 292.473 206.356 292.807 206.771C293.256 207.316 292.737 208.103 292.051 207.93L291.348 207.749C291.269 207.731 291.19 207.697 291.119 207.645L289.677 206.684C289.537 206.589 289.361 206.546 289.194 206.563L273.176 208.121C273.027 208.138 272.877 208.103 272.754 208.034L266.442 204.634C265.976 204.401 265.915 203.795 266.293 203.466Z" fill="#FBC199"/>
<path d="M266.294 203.466L269.476 200.68C269.74 200.447 270.135 200.438 270.417 200.646L272.957 202.575C273.08 202.67 273.239 202.722 273.397 202.722L289.872 202.973L293.415 203.085C293.248 203.509 293.177 203.959 293.195 204.435C293.151 204.824 293.107 205.214 293.063 205.603C292.791 205.793 292.518 205.966 292.219 206.113C291.841 206.278 291.454 206.312 291.041 206.312C290.602 206.304 290.153 206.356 289.731 206.486C289.635 206.511 289.538 206.546 289.441 206.581C289.353 206.555 289.265 206.546 289.177 206.555L273.16 208.112C273.01 208.129 272.861 208.095 272.738 208.025L266.425 204.625C265.977 204.4 265.916 203.795 266.294 203.466Z" fill="#FC9171"/>
<path d="M262.751 203.501C264.272 205.041 270.065 207.308 270.065 207.308C270.065 207.308 285.969 207.974 287.182 206.425C287.384 206.166 289.204 203.414 288.395 202.593C286.391 200.551 271.938 200.854 271.938 200.854C272.017 200.75 270.355 198.942 270.188 198.76C268.896 197.298 267.48 195.784 265.898 194.616C264.219 193.379 261.951 192.73 260.368 194.512C257.766 197.419 260.579 201.303 262.751 203.501Z" fill="#B6752A"/>
<path d="M288.393 202.557L289.176 202.678C289.229 202.687 289.273 202.739 289.264 202.791C289.22 203.266 289 205.317 288.165 206.346C288.059 206.476 287.875 206.537 287.708 206.494C287.541 206.45 287.321 206.416 287.171 206.485C287.171 206.485 288.341 203.82 288.393 202.557Z" fill="url(#paint0_linear_215_2)"/>
<path d="M288.736 202.609C288.736 202.609 288.13 205.594 287.444 206.45L287.664 206.485C287.664 206.485 288.578 205.308 288.921 202.635L288.736 202.609Z" fill="#52D3F3"/>
<path d="M268.378 202.497L270.919 204.427C271.042 204.522 271.2 204.574 271.359 204.574L287.834 204.825L293.68 205.015C293.943 205.024 294.181 205.171 294.304 205.404L295.236 207.161C295.324 207.325 295.341 207.524 295.289 207.706L295.078 208.415C294.893 209.029 293.53 209.427 293.214 208.865L292.396 207.42C292.282 207.212 292.062 207.074 291.825 207.057C291.526 207.031 291.332 207.178 291.121 207.368C290.752 207.697 290.365 208.147 290.761 208.623C291.209 209.168 290.691 209.955 290.005 209.782L289.302 209.6C289.223 209.583 289.143 209.548 289.073 209.496L287.631 208.536C287.491 208.441 287.315 208.398 287.148 208.415L271.13 209.972C270.981 209.99 270.831 209.955 270.708 209.886L264.396 206.486C263.948 206.243 263.877 205.647 264.264 205.309L267.446 202.523C267.71 202.298 268.097 202.29 268.378 202.497Z" fill="#FFBEA4"/>
<path d="M260.543 192.019C260.506 192.031 260.518 192.031 260.543 192.019V192.019Z" fill="#F8A264"/>
<path d="M269.741 192.019C269.769 192.029 269.769 192.029 269.741 192.019V192.019Z" fill="#F8A264"/>
<path d="M265.153 192.02C265.125 192.03 265.125 192.03 265.153 192.02V192.02Z" fill="#F8A264"/>
<path d="M265.134 192.02C265.158 192.033 265.171 192.033 265.134 192.02V192.02Z" fill="#F8A264"/>
<path d="M268.001 206.77C268.001 206.77 270.55 194.425 262.902 191.622C255.254 188.819 247.157 211.036 252.59 226.409C252.59 226.409 262.348 218.329 267.122 217.879C267.113 217.879 266.102 212.325 268.001 206.77Z" fill="#52D3F3"/>
<path d="M261.258 195.264C264.317 195.385 267.71 204.036 267.833 204.365L268.255 205.1C268.141 206.13 268.009 206.779 268.009 206.779C267.236 209.046 266.946 211.304 266.875 213.198L264.818 212.013C264.818 212.013 260.897 209.582 258.005 204.798C255.112 200.005 256.669 195.082 261.258 195.264Z" fill="black"/>
<path d="M252.36 223.485C252.185 223.615 252 223.745 251.824 223.883C252.044 224.74 252.29 225.587 252.58 226.409C252.58 226.409 262.339 218.329 267.112 217.879C267.112 217.879 267.024 217.23 266.989 216.979C261.855 218.398 256.721 220.345 252.36 223.485Z" fill="black"/>
<path d="M266.849 194.884L258.541 192.669V191.086C258.541 191.086 264.22 190.325 266.849 194.884Z" fill="url(#paint1_linear_215_2)"/>
<path d="M264.256 205.309L267.438 202.523C267.702 202.29 268.098 202.281 268.379 202.489L270.92 204.418C271.043 204.513 271.201 204.565 271.359 204.565L287.834 204.816L293.68 205.006C293.944 205.015 294.181 205.162 294.305 205.395L295.236 207.152C295.324 207.316 295.342 207.515 295.289 207.697L295.078 208.406C294.894 209.02 293.531 209.418 293.214 208.856L292.203 207.61C292.01 207.377 291.799 207.204 291.474 207.247C291.307 207.264 291.184 207.342 291.052 207.446C290.779 207.645 290.498 207.818 290.19 207.974C289.812 208.138 289.425 208.173 289.012 208.173C288.573 208.164 288.124 208.216 287.702 208.346C287.606 208.372 287.509 208.406 287.412 208.441C287.324 208.415 287.236 208.406 287.148 208.415L271.131 209.972C270.981 209.989 270.832 209.955 270.709 209.886L264.396 206.486C263.948 206.252 263.878 205.646 264.256 205.309Z" fill="#FFBEA4"/>
<path d="M260.774 205.179C262.295 206.719 267.895 210.491 270.568 210.56C272.564 210.612 286.129 209.522 286.876 208.535C287.667 207.497 288.124 205.334 288.054 204.599C287.975 203.708 271.043 204.019 271.043 204.019C271.122 203.916 268.361 200.611 268.203 200.429C266.911 198.967 265.495 197.453 263.913 196.285C262.234 195.048 259.966 194.399 258.383 196.181C255.781 199.097 258.594 202.981 260.774 205.179Z" fill="#DB9F48"/>
<path d="M288.053 204.599L288.844 204.711C288.897 204.72 288.941 204.772 288.932 204.824C288.897 205.299 288.695 207.35 287.86 208.388C287.754 208.518 287.578 208.578 287.402 208.535C287.235 208.492 287.007 208.457 286.866 208.535C286.875 208.535 288.018 205.862 288.053 204.599Z" fill="url(#paint2_linear_215_2)"/>
<path d="M288.396 204.641C288.396 204.641 287.816 207.635 287.139 208.491L287.358 208.526C287.358 208.526 288.255 207.341 288.58 204.667L288.396 204.641Z" fill="#52D3F3"/>
<path d="M258.893 204.106C258.893 204.106 255.42 213.259 258.576 221.954" stroke="black" stroke-width="1.27923" stroke-miterlimit="10"/>
<path d="M259.857 218.77L263.664 212.282L262.963 211.884L259.157 218.372L259.857 218.77Z" fill="#DB9F48"/>
<path d="M253.934 224.359C255.332 222.646 257.398 221.556 259.622 221.374C259.781 221.366 259.781 221.124 259.622 221.132C257.337 221.323 255.2 222.421 253.759 224.186C253.671 224.307 253.838 224.48 253.934 224.359Z" fill="#4A260F"/>
<path d="M240.282 199.72L307.113 202.523C307.113 202.523 301.285 221.712 301.144 222.672C301.003 223.632 279.069 235.407 273.557 235.269C268.045 235.13 255.192 230.588 252.431 229.784C249.662 228.979 242.48 223.468 242.91 220.077C243.341 216.677 240.282 199.72 240.282 199.72Z" fill="#52D3F3"/>
<path opacity="0.6" d="M310.445 196.285L239.754 190.324V194.979C239.754 197.617 241.812 199.78 244.405 199.884L307.025 202.358C308.467 202.419 309.874 201.779 310.691 200.585C311.404 199.555 311.72 198.111 310.445 196.285Z" fill="#C5DDF9"/>
<path opacity="0.7" d="M239.755 190.324V189.658L310.191 195.939L310.446 196.285L239.755 190.324Z" fill="#C5DDF9"/>
<path opacity="0.2" d="M256.027 200.342L262.471 200.602L267.763 192.686L261.504 192.158L256.027 200.342Z" fill="white"/>
<path opacity="0.2" d="M267.464 200.801L272.607 193.092L270.234 192.893L265.012 200.697L267.464 200.801Z" fill="white"/>
<path d="M258.489 208.864H240.554C240.115 208.864 239.754 208.509 239.754 208.077V206.554C239.754 206.121 240.115 205.767 240.554 205.767H258.489C258.928 205.767 259.289 206.121 259.289 206.554V208.077C259.289 208.518 258.928 208.864 258.489 208.864Z" fill="#0B0700"/>
<path d="M338.972 267.201C333.047 261.405 333.021 251.974 338.911 246.143C344.801 240.312 354.384 240.286 360.309 246.083C366.234 251.879 366.261 261.309 360.37 267.141C354.48 272.972 344.898 272.998 338.972 267.201Z" fill="#3D3633"/>
<path d="M368.002 238.461C357.804 228.477 341.311 228.52 331.166 238.564C321.021 248.6 321.065 264.83 331.272 274.814C341.47 284.798 357.962 284.755 368.107 274.71C378.252 264.675 378.208 248.445 368.002 238.461ZM338.973 267.201C333.048 261.404 333.021 251.974 338.911 246.143C344.802 240.312 354.384 240.286 360.309 246.083C366.235 251.879 366.261 261.309 360.371 267.14C354.481 272.972 344.898 272.997 338.973 267.201Z" fill="#404041"/>
<path d="M370.138 236.35C358.753 225.206 340.344 225.258 329.021 236.462C317.698 247.666 317.75 265.782 329.135 276.925C340.52 288.068 358.929 288.016 370.252 276.813C381.575 265.609 381.523 247.493 370.138 236.35ZM337.733 268.429C331.122 261.958 331.087 251.429 337.663 244.923C344.239 238.417 354.938 238.383 361.549 244.863C368.16 251.334 368.195 261.863 361.619 268.369C355.043 274.866 344.344 274.901 337.733 268.429Z" fill="#3D3633"/>
<path d="M355.636 265.048C360.35 261.778 361.478 255.366 358.155 250.726C354.832 246.087 348.316 244.977 343.602 248.247C338.888 251.518 337.76 257.929 341.083 262.569C344.406 267.208 350.921 268.318 355.636 265.048Z" fill="#EFEDEC"/>
<path d="M362.032 244.37C355.149 237.63 344.019 237.665 337.171 244.439C330.322 251.213 330.357 262.166 337.241 268.906C344.124 275.645 355.254 275.61 362.103 268.836C368.951 262.062 368.925 251.109 362.032 244.37ZM338.973 267.201C333.047 261.405 333.021 251.975 338.911 246.143C344.801 240.312 354.384 240.286 360.309 246.083C366.235 251.879 366.261 261.31 360.371 267.141C354.481 272.972 344.898 272.998 338.973 267.201Z" fill="#EFEDEC"/>
<path d="M354.059 260.964C351.632 263.369 347.685 263.377 345.241 260.989C342.797 258.602 342.788 254.717 345.215 252.312C347.641 249.907 351.588 249.898 354.032 252.286C356.476 254.683 356.494 258.567 354.059 260.964Z" fill="black"/>
<path d="M133.803 267.201C127.878 261.405 127.851 251.974 133.741 246.143C139.632 240.312 149.214 240.286 155.139 246.083C161.065 251.879 161.091 261.309 155.201 267.141C149.311 272.972 139.728 272.998 133.803 267.201Z" fill="#3D3633"/>
<path d="M162.839 238.461C152.641 228.477 136.149 228.52 126.004 238.564C115.858 248.6 115.902 264.83 126.109 274.814C136.307 284.798 152.8 284.755 162.945 274.71C173.081 264.675 173.037 248.445 162.839 238.461ZM133.802 267.201C127.876 261.404 127.85 251.974 133.74 246.143C139.63 240.312 149.213 240.286 155.138 246.083C161.063 251.879 161.09 261.309 155.2 267.14C149.309 272.972 139.727 272.997 133.802 267.201Z" fill="#404041"/>
<path d="M164.967 236.35C153.583 225.206 135.174 225.258 123.851 236.462C112.527 247.666 112.58 265.782 123.965 276.925C135.35 288.068 153.759 288.016 165.082 276.813C176.405 265.609 176.352 247.493 164.967 236.35ZM132.563 268.429C125.952 261.958 125.916 251.429 132.492 244.923C139.068 238.417 149.767 238.383 156.378 244.863C162.989 251.334 163.025 261.863 156.449 268.369C149.873 274.866 139.174 274.901 132.563 268.429Z" fill="#3D3633"/>
<path d="M150.483 265.034C155.197 261.764 156.325 255.352 153.002 250.713C149.679 246.073 143.164 244.964 138.45 248.234C133.735 251.504 132.607 257.916 135.93 262.555C139.253 267.194 145.769 268.304 150.483 265.034Z" fill="#EFEDEC"/>
<path d="M156.871 244.37C149.988 237.63 138.858 237.665 132.009 244.439C125.161 251.213 125.196 262.166 132.08 268.906C138.963 275.645 150.093 275.61 156.942 268.836C163.781 262.062 163.755 251.109 156.871 244.37ZM133.803 267.201C127.878 261.405 127.851 251.975 133.741 246.143C139.632 240.312 149.214 240.286 155.139 246.083C161.065 251.879 161.091 261.31 155.201 267.141C149.311 272.972 139.728 272.998 133.803 267.201Z" fill="#EFEDEC"/>
<path d="M148.896 260.964C146.47 263.369 142.522 263.377 140.078 260.989C137.634 258.602 137.626 254.717 140.052 252.312C142.478 249.907 146.426 249.898 148.87 252.286C151.314 254.683 151.322 258.567 148.896 260.964Z" fill="black"/>
<path d="M380.055 248.99C378.771 248.955 377.787 250.063 377.945 251.317C378.13 252.71 378.217 254.129 378.217 255.565C378.217 256.785 378.147 257.987 378.015 259.173C377.646 262.521 380.275 265.462 383.703 265.462H405.822C409.849 265.462 413.101 262.252 413.101 258.299V252.667C413.101 251.066 411.809 249.76 410.183 249.725L380.055 248.99Z" fill="#0B0700"/>
<path opacity="0.5" d="M378.191 257.105C378.156 257.797 378.104 258.49 378.033 259.164C377.664 262.512 380.293 265.454 383.721 265.454H405.84C409.867 265.454 413.119 262.244 413.119 258.291V257.105H378.191Z" fill="#097FAD"/>
<path d="M320.987 257.105C320.978 255.617 321.092 254.155 321.303 252.727C321.558 251.006 320.257 249.448 318.49 249.405L174.277 245.945C172.704 245.91 171.57 247.381 172 248.877C172.748 251.473 173.152 254.215 173.143 257.036C173.143 258.904 172.967 260.739 172.633 262.512C172.282 264.372 173.706 266.085 175.622 266.085H316.74C319.51 266.085 321.602 263.671 321.242 260.972C321.083 259.709 320.995 258.42 320.987 257.105Z" fill="#0B0700"/>
<path opacity="0.5" d="M320.986 257.105C320.986 257.079 320.986 257.053 320.986 257.036H173.143C173.143 258.905 172.967 260.739 172.633 262.512C172.281 264.372 173.705 266.085 175.622 266.085H316.74C319.509 266.085 321.601 263.672 321.241 260.972C321.083 259.709 320.995 258.42 320.986 257.105Z" fill="#097FAD"/>
<path d="M177.204 184.84C177.204 184.84 184.404 185.774 185.679 187.15C190.224 192.064 194.593 204.574 192.677 208.182C191.525 210.344 188.123 201.364 187.314 202.688C185.169 206.209 185.556 198.933 185.556 198.933L177.204 184.84Z" fill="#4A260F"/>
<path d="M165.345 177.555C165.345 177.555 165.143 180.341 157.415 185.696C149.415 191.233 139.674 195.646 139.674 195.646C139.674 195.646 142.786 199.859 145.775 200.715C145.775 200.715 147.903 198.206 149.477 197.713C149.477 197.713 147.094 199.807 147.2 201.762C147.2 201.762 151.499 205.69 157.028 204.47C202.427 194.408 187.385 165.097 187.385 165.097L177.925 175.211L165.345 177.555Z" fill="black"/>
<path d="M187.929 191.527C188.043 195.161 185.204 205.543 185.204 205.543C185.204 205.543 171.613 211.253 170.804 206.927C170.804 206.927 170.065 197.306 166.98 191.795C164.448 187.262 172.465 185.194 175.744 184.917C184.703 184.147 187.797 187.305 187.929 191.527Z" fill="#4A260F"/>
<path d="M168.176 192.427C163.015 189.763 157.89 186.415 154.382 183.084C152.773 181.552 147.384 173.368 147.384 173.368L151.068 169.38C151.068 169.38 156.756 176.111 160.264 178.793C163.209 181.042 169.275 184.529 173.749 184.295L176.404 193.613C176.404 193.604 169.978 193.353 168.176 192.427Z" fill="#4A260F"/>
<path d="M151.068 169.37C150.954 169.162 150.611 169.283 150.303 169.465C149.899 169.699 149.38 170.131 148.862 170.702C148.413 171.187 148.044 171.68 147.771 172.121C147.613 172.381 147.473 172.657 147.393 172.908C147.393 172.917 147.288 173.22 147.376 173.367C147.446 173.497 147.613 173.505 147.851 173.419C148.009 173.358 148.202 173.246 148.413 173.099C148.413 173.099 148.422 173.099 148.422 173.09C148.774 172.839 149.178 172.476 149.582 172.035C149.802 171.801 150.004 171.559 150.18 171.325C150.435 170.988 150.655 170.668 150.804 170.382C150.945 170.131 151.2 169.612 151.068 169.37Z" fill="#FF964A"/>
<path d="M150.814 170.365C150.453 170.036 150.409 169.785 150.312 169.465C150.242 169.249 150.154 168.989 149.926 168.661C149.486 168.038 147.86 165.918 147.385 165.286C147.297 165.165 147.112 165.183 147.042 165.312C146.831 165.719 146.954 166.42 147.192 166.887C147.271 167.06 147.315 167.423 147.209 167.423C145.996 166.48 143.737 164.811 143.473 165.139C143.235 165.434 144.66 166.757 145.688 167.614L145.635 167.657C144.282 166.74 142.497 165.2 142.224 165.589C141.926 166.013 143.323 167.605 144.624 168.522L144.572 168.565C144.563 168.557 144.554 168.557 144.545 168.548C143.306 167.692 141.776 166.697 141.451 167.086C141.293 167.276 142.435 168.418 143.552 169.422C143.904 169.785 143.772 169.846 143.605 169.837C143.526 169.82 143.446 169.803 143.367 169.785C142.576 169.63 142.268 169.725 142.224 169.976C142.198 170.149 143.482 170.434 144.897 171.455C145.6 171.965 146.506 172.216 147.508 172.64C147.789 172.753 148.088 172.9 148.422 173.09C148.774 172.839 149.178 172.476 149.592 172.026C149.811 171.792 150.014 171.55 150.189 171.317C150.444 170.979 150.655 170.659 150.814 170.365Z" fill="#FFBEA4"/>
<path d="M170.171 202.082C170.171 202.082 169.732 205.828 169.23 206.564C168.729 207.299 169.186 208.138 170.039 208.346C170.892 208.545 180.861 208.735 181.635 207.291C182.409 205.846 181.899 202.091 182.303 200.006C182.707 197.912 173.371 202.411 170.171 202.082Z" fill="#4A260F"/>
<path d="M146.734 200.092L227.482 200.879L228.203 226.064C228.203 226.064 218.77 239.569 217.627 239.421C216.493 239.283 192.369 235.459 190.207 235.606C188.044 235.745 169.134 226.617 168.246 226.799C167.358 226.981 161.459 223.866 161.459 223.866L151.859 217.196L142.347 207.558L146.734 200.092Z" fill="#52D3F3"/>
<path d="M160.298 207.904H142.364C141.924 207.904 141.564 207.549 141.564 207.117V205.594C141.564 205.161 141.924 204.807 142.364 204.807H160.298C160.738 204.807 161.098 205.161 161.098 205.594V207.117C161.107 207.549 160.747 207.904 160.298 207.904Z" fill="#0B0700"/>
<path d="M176.117 188.719L176.107 188.69H176.165L176.117 188.719Z" fill="#474759"/>
<path d="M175.527 183.559C176.608 183.654 178.639 184.234 179.184 187.149C179.184 187.149 176.599 185.696 175.246 187.331C175.43 186.985 175.527 186.596 175.527 186.18V183.559Z" fill="#3C5059"/>
<path d="M177.224 188.699C178.639 188.699 179.782 187.574 179.773 186.181L179.764 179.796L174.657 179.805L174.666 186.19C174.666 187.574 175.808 188.699 177.224 188.699Z" fill="#FFBEA4"/>
<path d="M179.773 185.272C178.955 185.566 178.102 185.73 177.215 185.73C176.327 185.73 175.474 185.575 174.656 185.272L174.647 180.834L179.755 180.825L179.773 185.272Z" fill="#FC9171"/>
<path d="M167.623 175.557C167.632 180.575 171.931 184.641 177.223 184.641C182.524 184.633 186.814 180.558 186.806 175.54C186.797 170.522 184.581 161.351 177.197 161.36C169.425 161.369 167.623 170.539 167.623 175.557Z" fill="#FFBEA4"/>
<path d="M185.918 175.747C185.865 173.108 185.698 170.573 184.951 168.895L185.654 170.452C186.48 171.862 186.814 173.601 186.814 175.539C186.823 180.557 182.533 184.632 177.232 184.641C182.032 184.632 186.014 180.652 185.918 175.747Z" fill="#FC9171"/>
<path d="M168.994 170.185C168.573 171.387 168.529 174.251 168.529 175.765C168.537 180.67 172.432 184.65 177.232 184.641C171.931 184.65 167.632 180.584 167.632 175.557C167.632 174.13 167.781 172.815 168.168 171.655L168.994 170.185Z" fill="#FC9171"/>
<path d="M166.533 167.883C167.087 163.929 170.129 160.754 173.97 159.742V159.707C174.762 159.517 175.649 159.396 176.634 159.37C176.652 159.37 176.66 159.37 176.678 159.37C176.845 159.361 177.021 159.361 177.197 159.361C177.206 159.361 177.206 159.361 177.214 159.361C177.223 159.361 177.223 159.361 177.232 159.361C177.408 159.361 177.584 159.361 177.751 159.37C177.768 159.37 177.777 159.37 177.795 159.37C178.779 159.404 179.667 159.517 180.458 159.707V159.742C184.3 160.754 187.043 162.026 187.588 165.979C187.764 166.637 189.531 173.42 187.562 175.505C187.421 175.652 186.621 173.904 186.568 173.714L185.584 170.279C185.232 170.245 183.333 164.223 183.333 164.223C183.333 164.223 183.324 164.223 183.315 164.232C183.096 162.605 179.491 162.424 178.155 162.458C176.74 162.493 175.307 162.675 174.058 163.367C172.599 164.18 171.729 165.599 170.972 167.026C170.867 167.009 170.77 166.983 170.674 166.957C170.674 166.957 169.205 170.245 168.863 170.279L167.992 177.754C167.931 177.953 165.328 177.763 165.364 177.555C166.014 173.082 166.357 168.54 166.533 167.883Z" fill="black"/>
<path d="M185.804 165.651C185.075 162.008 179.202 161.005 174.947 161.472C173.629 161.619 172.319 161.957 171.281 162.588C170.78 162.891 170.349 163.254 170.015 163.67C169.831 163.894 169.681 164.137 169.558 164.379C169.514 164.474 169.347 165.114 169.268 165.14C169.268 165.14 166.806 170.106 168.02 175.583C168.02 175.583 168.916 168.912 171.694 167.147C171.694 167.286 175.554 167.649 175.923 167.684C178.244 167.917 180.565 167.84 182.859 167.554C183.58 167.468 184.073 167.805 184.512 168.203C184.811 168.471 184.996 168.817 184.925 169.163C184.969 168.947 185.268 168.679 185.383 168.462C185.523 168.203 185.629 167.926 185.717 167.649C185.91 166.992 185.936 166.308 185.804 165.651Z" fill="black"/>
<path d="M179.958 180.004L175.228 180.151C175.228 180.151 175.377 181.665 177.461 181.647C180.002 181.63 179.958 180.004 179.958 180.004Z" fill="white"/>
<path d="M184.94 172.692C184.94 172.692 182.443 170.105 178.804 172.286C178.804 172.286 182.065 171.196 184.94 172.692Z" fill="black"/>
<path d="M184.123 174.57C184.123 174.57 182.364 171.984 179.797 174.164C179.797 174.164 182.092 173.074 184.123 174.57Z" fill="black"/>
<path d="M182.937 173.757C182.937 173.757 183.877 173.939 183.948 172.935C183.948 172.935 183.693 173.653 182.937 173.757Z" fill="black"/>
<path d="M183.473 174.034C183.473 174.034 184.413 174.215 184.484 173.212C184.484 173.212 184.238 173.93 183.473 174.034Z" fill="black"/>
<path d="M171.051 171.991C171.051 171.991 170.866 172.917 171.886 172.986C171.886 172.986 171.156 172.744 171.051 171.991Z" fill="black"/>
<path d="M170.796 172.355C170.796 172.355 170.612 173.281 171.631 173.35C171.631 173.35 170.902 173.108 170.796 172.355Z" fill="black"/>
<path d="M169.239 172.364C169.239 172.364 171.736 169.777 175.376 171.957C175.376 171.957 172.114 170.867 169.239 172.364Z" fill="black"/>
<path d="M172.325 174.657C172.781 174.657 173.151 174.142 173.151 173.506C173.151 172.871 172.781 172.356 172.325 172.356C171.869 172.356 171.499 172.871 171.499 173.506C171.499 174.142 171.869 174.657 172.325 174.657Z" fill="black"/>
<path d="M172.66 173.393C172.776 173.393 172.871 173.257 172.871 173.09C172.871 172.922 172.776 172.787 172.66 172.787C172.543 172.787 172.449 172.922 172.449 173.09C172.449 173.257 172.543 173.393 172.66 173.393Z" fill="#EAFCFC"/>
<path d="M176.291 177.692C176.291 178.09 176.757 178.385 176.511 178.385C176.265 178.385 176.062 178.064 176.062 177.667C176.062 177.269 176.265 176.948 176.511 176.948C176.757 176.948 176.291 177.303 176.291 177.692Z" fill="black"/>
</g>
<defs>
<linearGradient id="paint0_linear_215_2" x1="289.24" y1="204.546" x2="287.178" y2="204.526" gradientUnits="userSpaceOnUse">
<stop stop-color="#E8E8E9"/>
<stop offset="0.09065" stop-color="#F0F0F0"/>
<stop offset="0.2953" stop-color="#FBFBFB"/>
<stop offset="0.5094" stop-color="white"/>
<stop offset="0.7092" stop-color="#FCFCFC"/>
<stop offset="0.8507" stop-color="#F3F3F3"/>
<stop offset="0.9737" stop-color="#E3E4E4"/>
<stop offset="1" stop-color="#DFE0E0"/>
</linearGradient>
<linearGradient id="paint1_linear_215_2" x1="266.848" y1="192.96" x2="258.542" y2="192.96" gradientUnits="userSpaceOnUse">
<stop stop-color="#E8E8E9"/>
<stop offset="0.09065" stop-color="#F0F0F0"/>
<stop offset="0.2953" stop-color="#FBFBFB"/>
<stop offset="0.5094" stop-color="white"/>
<stop offset="0.7092" stop-color="#FCFCFC"/>
<stop offset="0.8507" stop-color="#F3F3F3"/>
<stop offset="0.9737" stop-color="#E3E4E4"/>
<stop offset="1" stop-color="#DFE0E0"/>
</linearGradient>
<linearGradient id="paint2_linear_215_2" x1="288.934" y1="206.577" x2="286.872" y2="206.577" gradientUnits="userSpaceOnUse">
<stop stop-color="#E8E8E9"/>
<stop offset="0.09065" stop-color="#F0F0F0"/>
<stop offset="0.2953" stop-color="#FBFBFB"/>
<stop offset="0.5094" stop-color="white"/>
<stop offset="0.7092" stop-color="#FCFCFC"/>
<stop offset="0.8507" stop-color="#F3F3F3"/>
<stop offset="0.9737" stop-color="#E3E4E4"/>
<stop offset="1" stop-color="#DFE0E0"/>
</linearGradient>
<clipPath id="clip0_215_2">
<rect width="324.814" height="126.715" fill="white" transform="translate(88.3066 159.351)"/>
</clipPath>
</defs>
</svg>
