<svg width="469" height="423" viewBox="0 0 469 423" fill="none" xmlns="http://www.w3.org/2000/svg">
<path d="M156 190.5C156 173.394 149.204 156.988 137.108 144.892C125.012 132.796 108.606 126 91.5 126C74.3935 126 57.9877 132.796 45.8916 144.892C33.7955 156.988 27 173.394 27 190.5L91.5 190.5H156Z" fill="white"/>
<path d="M429 196.5C429 179.394 422.204 162.988 410.108 150.892C398.012 138.796 381.606 132 364.5 132C347.394 132 330.988 138.796 318.892 150.892C306.796 162.988 300 179.394 300 196.5L364.5 196.5H429Z" fill="white"/>
<path d="M388 191C388 154.665 373.566 119.819 347.874 94.1264C322.181 68.4339 287.335 54 251 54C214.665 54 179.819 68.4339 154.126 94.1264C128.434 119.819 114 154.665 114 191L251 191H388Z" fill="white"/>
<g clip-path="url(#clip0_109_45817)">
<path d="M233.461 144.621C233.461 144.621 170.805 138.252 169 193.332C169 193.332 179.154 204.037 201.753 198.032L220.1 204.446L250.438 155.638L233.461 144.615V144.621Z" fill="#263238"/>
<path d="M310.062 147.699C310.062 147.699 309.913 147.712 309.634 147.712C309.355 147.705 308.946 147.705 308.413 147.673C307.355 147.621 305.823 147.51 303.947 147.251C300.214 146.738 294.987 145.595 289.911 142.732C287.392 141.291 285.204 139.557 283.457 137.753C281.711 135.941 280.387 134.078 279.484 132.41C278.575 130.741 278.036 129.293 277.751 128.268C277.582 127.761 277.517 127.352 277.452 127.086C277.394 126.813 277.368 126.67 277.374 126.664C277.407 126.658 277.55 127.222 277.874 128.229C278.199 129.228 278.77 130.65 279.692 132.293C280.607 133.935 281.938 135.76 283.678 137.538C285.418 139.317 287.586 141.018 290.079 142.446C295.098 145.277 300.272 146.452 303.986 147.023C305.849 147.309 307.375 147.458 308.426 147.549C308.926 147.595 309.329 147.627 309.64 147.653C309.919 147.679 310.062 147.699 310.062 147.712V147.699Z" fill="#263238"/>
<path d="M318.534 242.399C318.353 242.444 304.096 237.913 304.096 237.913L299.616 241.451L311.841 246.762C311.841 246.762 317.236 247.379 319.826 248.904C322.41 250.43 318.541 242.399 318.541 242.399H318.534Z" fill="#263238"/>
<path d="M316.34 243.282C316.34 243.282 316.366 243.425 316.431 243.678C316.846 245.165 318.879 250.475 327.312 253.54C337.193 257.123 358.734 258.123 362.311 257.565C369.232 256.474 375.691 251.079 375.419 249.729" fill="#263238"/>
<path d="M375.425 249.722C375.185 251.916 361.765 252.254 345.451 250.475C329.136 248.696 316.106 245.47 316.34 243.275C316.58 241.081 329.999 240.743 346.314 242.522C362.629 244.301 375.659 247.528 375.425 249.722Z" fill="#455A64"/>
<path d="M354.702 248.196C355.786 247.106 357.325 246.456 356.52 245.191C356.299 245.619 355.215 245.606 354.839 245.937C354.462 246.268 353.417 245.872 352.904 245.742C352.268 245.574 351.924 244.937 351.962 244.36C352.001 243.782 352.333 243.256 352.664 242.756C353.339 241.737 354.053 240.737 354.806 239.763C355.079 239.406 355.364 239.036 355.429 238.614C355.494 238.192 355.267 237.699 354.793 237.575C354.371 237.465 353.936 237.673 353.573 237.88C351.956 238.796 350.372 239.958 349.781 241.561C349.411 242.568 349.463 243.678 349.009 244.665C348.561 245.651 347.262 246.495 346.171 246.022C345.503 245.729 345.185 245.054 345.009 244.418C344.834 243.782 344.737 243.107 344.295 242.574C343.854 242.042 342.919 241.756 342.354 242.185C341.387 242.912 342.62 244.509 341.796 245.359C341.445 245.723 340.815 245.788 340.296 245.645C339.777 245.502 339.348 245.184 338.952 244.859C336.232 242.646 334.232 239.77 333.246 236.64C333.122 236.238 333.005 235.829 332.739 235.485C332.473 235.141 332.019 234.874 331.545 234.926C330.798 235.011 330.46 235.803 330.46 236.465C330.46 238.328 331.824 239.951 333.135 241.432C334.641 243.126 336.148 244.827 337.647 246.521L339.699 248.891L348.515 250.832L354.481 249.599L354.709 248.196H354.702Z" fill="#F08910"/>
<g opacity="0.6">
<path d="M354.702 248.196C355.786 247.106 357.325 246.456 356.52 245.191C356.299 245.619 355.215 245.606 354.839 245.937C354.462 246.268 353.417 245.872 352.904 245.742C352.268 245.574 351.924 244.937 351.962 244.36C352.001 243.782 352.333 243.256 352.664 242.756C353.339 241.737 354.053 240.737 354.806 239.763C355.079 239.406 355.364 239.036 355.429 238.614C355.494 238.192 355.267 237.699 354.793 237.575C354.371 237.465 353.936 237.673 353.573 237.88C351.956 238.796 350.372 239.958 349.781 241.561C349.411 242.568 349.463 243.678 349.009 244.665C348.561 245.651 347.262 246.495 346.171 246.022C345.503 245.729 345.185 245.054 345.009 244.418C344.834 243.782 344.737 243.107 344.295 242.574C343.854 242.042 342.919 241.756 342.354 242.185C341.387 242.912 342.62 244.509 341.796 245.359C341.445 245.723 340.815 245.788 340.296 245.645C339.777 245.502 339.348 245.184 338.952 244.859C336.232 242.646 334.232 239.77 333.246 236.64C333.122 236.238 333.005 235.829 332.739 235.485C332.473 235.141 332.019 234.874 331.545 234.926C330.798 235.011 330.46 235.803 330.46 236.465C330.46 238.328 331.824 239.951 333.135 241.432C334.641 243.126 336.148 244.827 337.647 246.521L339.699 248.891L348.515 250.832L354.481 249.599L354.709 248.196H354.702Z" fill="#FFEF98"/>
</g>
<path d="M357.201 251.644C357.396 250.456 358.474 249.417 359.811 249.131C360.259 249.034 360.746 249.014 361.148 248.813C361.551 248.612 361.83 248.131 361.57 247.794C361.317 247.463 360.759 247.489 360.304 247.554C359.272 247.703 358.246 247.852 357.214 247.995C358.045 247.164 358.876 246.327 359.701 245.496C360.032 245.165 360.376 244.717 360.136 244.327C359.908 243.957 359.305 243.944 358.831 244.028C357.208 244.314 355.727 245.145 354.747 246.301C353.871 247.339 353.371 248.638 352.261 249.482C351.254 250.248 349.794 250.527 348.508 250.209C347.223 249.891 346.145 248.982 345.742 247.865C345.574 247.391 345.502 246.866 345.126 246.495C344.418 245.788 342.977 246.093 342.353 246.859C341.737 247.625 341.724 248.638 341.808 249.579C338.971 245.885 335.809 242.029 331.077 240.399C330.246 240.114 329.343 239.899 328.46 240.036C327.584 240.172 326.74 240.737 326.597 241.503C326.435 242.399 327.214 243.217 328.064 243.743C329.681 244.743 331.661 245.178 333.407 245.996C335.154 246.814 337.049 248.034 336.939 249.761C336.939 249.761 345.457 251.053 349.677 251.163C353.897 251.274 357.195 251.624 357.195 251.624L357.201 251.644Z" fill="#F08910"/>
<g opacity="0.8">
<path d="M357.201 251.644C357.396 250.456 358.474 249.417 359.811 249.131C360.259 249.034 360.746 249.014 361.148 248.813C361.551 248.612 361.83 248.131 361.57 247.794C361.317 247.463 360.759 247.489 360.304 247.554C359.272 247.703 358.246 247.852 357.214 247.995C358.045 247.164 358.876 246.327 359.701 245.496C360.032 245.164 360.376 244.716 360.136 244.327C359.908 243.957 359.305 243.944 358.831 244.028C357.208 244.314 355.727 245.145 354.747 246.301C353.871 247.339 353.371 248.638 352.261 249.482C351.254 250.248 349.794 250.527 348.508 250.209C347.223 249.891 346.145 248.982 345.742 247.865C345.574 247.391 345.502 246.865 345.126 246.495C344.418 245.788 342.977 246.093 342.353 246.859C341.737 247.625 341.724 248.638 341.808 249.579C338.971 245.885 335.809 242.029 331.077 240.399C330.246 240.114 329.343 239.899 328.46 240.036C327.584 240.172 326.74 240.737 326.597 241.503C326.435 242.399 327.214 243.217 328.064 243.743C329.681 244.742 331.661 245.177 333.407 245.995C335.154 246.813 337.049 248.034 336.939 249.761C336.939 249.761 345.457 251.053 349.677 251.163C353.897 251.274 357.195 251.624 357.195 251.624L357.201 251.644Z" fill="#FFEF98"/>
</g>
<path d="M325.994 256.98C325.987 257.019 325.507 256.98 324.767 256.773C324.027 256.565 323.027 256.143 322.053 255.461C321.086 254.78 320.346 253.987 319.891 253.364C319.437 252.741 319.242 252.3 319.274 252.28C319.365 252.215 320.346 253.871 322.248 255.182C324.131 256.519 326.026 256.87 325.994 256.974V256.98Z" fill="#263238"/>
<path d="M324.384 258.512C324.377 258.551 323.897 258.512 323.157 258.305C322.417 258.097 321.417 257.675 320.443 256.993C319.476 256.312 318.736 255.519 318.281 254.896C317.827 254.273 317.632 253.832 317.664 253.812C317.755 253.747 318.736 255.403 320.638 256.714C322.52 258.051 324.416 258.402 324.384 258.506V258.512Z" fill="#263238"/>
<path d="M381.469 252.053C381.469 252.053 381.43 252.241 381.307 252.553C381.184 252.871 380.969 253.313 380.677 253.845C380.093 254.91 379.119 256.305 377.782 257.604C376.438 258.896 375.016 259.831 373.932 260.376C373.393 260.655 372.939 260.85 372.621 260.96C372.302 261.077 372.121 261.129 372.114 261.11C372.095 261.058 372.783 260.766 373.822 260.162C374.86 259.565 376.237 258.623 377.548 257.357C378.86 256.085 379.846 254.741 380.47 253.722C381.099 252.702 381.417 252.021 381.469 252.047V252.053Z" fill="#263238"/>
<path d="M384.586 253.39C384.625 253.403 384.488 253.858 384.157 254.539C383.826 255.221 383.268 256.123 382.495 256.993C381.723 257.863 380.905 258.532 380.268 258.954C379.632 259.376 379.204 259.564 379.184 259.525C379.126 259.434 380.749 258.487 382.242 256.773C383.755 255.072 384.488 253.338 384.586 253.39Z" fill="#263238"/>
<path d="M368.952 210.614L374.983 208.945C374.983 208.945 379.963 209.698 381.248 208.744C382.534 207.789 381.923 207.238 381.923 207.238C384.637 206.212 383.67 205.011 383.67 205.011C383.67 205.011 386.364 204.803 386.416 202.68C386.442 201.44 376.139 199.389 376.139 199.389C376.139 199.389 376.236 198.058 377.288 197.305C378.34 196.551 384.416 198.012 386.28 197.441C388.143 196.876 388.013 195.039 388.013 195.039C388.013 195.039 375.262 192.448 372.581 193.565C369.893 194.682 357.006 200.057 355.039 202.661L359.324 211.6C359.324 211.6 359.584 211.737 361.72 212.314C363.856 212.899 368.965 210.62 368.965 210.62L368.952 210.614Z" fill="#FFBF9D"/>
<path d="M362.025 208.406C362.025 208.354 362.518 208.367 363.395 208.244C364.265 208.12 365.53 207.841 366.92 207.114C367.614 206.751 368.329 206.27 369.01 205.66C369.354 205.361 369.679 205.011 369.991 204.641C370.309 204.264 370.614 203.842 371.023 203.453C371.412 203.069 372.016 202.732 372.646 202.758C373.243 202.764 373.801 202.881 374.373 202.998C375.515 203.232 376.632 203.621 377.775 203.453C378.515 203.355 379.229 203.063 379.755 202.596C380.287 202.154 380.612 201.427 380.339 200.973L380.501 201.096C376.872 200.219 373.633 199.83 371.347 199.492C370.283 199.336 369.393 199.207 368.66 199.103C368.036 198.999 367.692 198.934 367.699 198.902C367.699 198.869 368.049 198.876 368.679 198.921C369.309 198.966 370.231 199.044 371.386 199.155C373.691 199.401 376.944 199.713 380.631 200.57L380.735 200.596L380.794 200.693C381.047 201.102 381.008 201.602 380.852 201.998C380.696 202.401 380.43 202.738 380.118 203.018C379.495 203.576 378.677 203.907 377.84 204.017C377.197 204.108 376.561 204.043 375.957 203.939C375.379 203.81 374.808 203.673 374.249 203.55C373.698 203.433 373.146 203.316 372.639 203.31C372.152 203.284 371.73 203.517 371.367 203.849C371.003 204.18 370.698 204.589 370.361 204.972C370.023 205.355 369.679 205.712 369.309 206.023C368.582 206.653 367.822 207.127 367.089 207.484C365.621 208.198 364.303 208.419 363.408 208.477C362.505 208.529 362.012 208.445 362.012 208.419L362.025 208.406Z" fill="#FF9A6C"/>
<path d="M374.353 203.42C374.496 203.472 374.204 204.673 373.548 206.043C372.893 207.413 372.14 208.393 372.01 208.315C371.873 208.231 372.406 207.14 373.042 205.803C373.685 204.465 374.204 203.368 374.353 203.42Z" fill="#FF9A6C"/>
<path d="M381.352 206.984C381.319 207.14 379.651 206.939 377.599 206.712C375.541 206.478 373.873 206.309 373.879 206.147C373.879 205.998 375.587 205.92 377.664 206.153C379.742 206.381 381.384 206.829 381.358 206.978L381.352 206.984Z" fill="#FF9A6C"/>
<path d="M384.449 205.121C384.43 205.277 382.294 205.095 379.684 204.725C377.074 204.355 374.977 203.933 374.996 203.777C375.016 203.621 377.152 203.803 379.762 204.173C382.372 204.543 384.469 204.965 384.449 205.121Z" fill="#FF9A6C"/>
<path d="M375.892 196.454C376.042 196.454 376.159 197.233 376.042 198.181C375.931 199.129 375.633 199.856 375.483 199.823C375.334 199.791 375.38 199.031 375.483 198.116C375.594 197.2 375.73 196.454 375.886 196.454H375.892Z" fill="#FF9A6C"/>
<path d="M304.251 199.376L321.91 208.744L356.383 202.057L361.279 212.191C361.279 212.191 329.772 225.994 320.975 226.149C312.178 226.299 296.182 215.931 296.182 215.931L304.245 199.376H304.251Z" fill="#FFBF9D"/>
<path d="M346.832 209.211C346.832 209.211 342.645 208.4 341.885 211.529C341.126 214.658 344.885 215.444 344.885 215.444C344.885 215.444 344.19 217.606 347.813 218.735C351.429 219.865 352.136 215.937 352.136 215.937C352.136 215.937 355.538 217.054 355.798 214.859C356.181 211.607 353.539 211.347 353.539 211.347C353.539 211.347 356.149 208.166 351.883 206.907C347.618 205.647 346.832 209.211 346.832 209.211ZM351.357 208.283C353.818 208.802 352.201 211.873 352.201 211.873C352.201 211.873 354.986 212.509 354.435 214.152C353.883 215.794 351.143 214.723 351.143 214.723C351.143 214.723 352.149 217.528 348.773 217.56C345.398 217.593 346.793 214.691 346.793 214.691C346.793 214.691 344.054 214.944 343.476 212.34C342.892 209.737 347.624 210.51 347.624 210.51C347.767 208.302 348.89 207.764 351.357 208.283Z" fill="#FF725E"/>
<g opacity="0.3">
<path d="M346.832 209.211C346.832 209.211 342.645 208.4 341.885 211.529C341.126 214.658 344.885 215.444 344.885 215.444C344.885 215.444 344.19 217.606 347.813 218.735C351.429 219.865 352.136 215.937 352.136 215.937C352.136 215.937 355.538 217.054 355.798 214.859C356.181 211.607 353.539 211.347 353.539 211.347C353.539 211.347 356.149 208.166 351.883 206.907C347.618 205.647 346.832 209.211 346.832 209.211ZM351.357 208.283C353.818 208.802 352.201 211.873 352.201 211.873C352.201 211.873 354.986 212.509 354.435 214.152C353.883 215.794 351.143 214.723 351.143 214.723C351.143 214.723 352.149 217.528 348.773 217.56C345.398 217.593 346.793 214.691 346.793 214.691C346.793 214.691 344.054 214.944 343.476 212.34C342.892 209.737 347.624 210.51 347.624 210.51C347.767 208.302 348.89 207.764 351.357 208.283Z" fill="black"/>
</g>
<path d="M346.898 208.4C346.898 208.4 342.711 207.582 341.951 210.711C341.191 213.84 344.95 214.626 344.95 214.626C344.95 214.626 344.256 216.788 347.878 217.917C351.494 219.047 352.209 215.119 352.209 215.119C352.209 215.119 355.61 216.236 355.87 214.042C356.253 210.789 353.611 210.529 353.611 210.529C353.611 210.529 356.221 207.348 351.955 206.089C347.69 204.829 346.904 208.393 346.904 208.393L346.898 208.4ZM351.423 207.472C353.89 207.997 352.267 211.068 352.267 211.068C352.267 211.068 355.052 211.704 354.5 213.34C353.948 214.983 351.209 213.912 351.209 213.912C351.209 213.912 352.215 216.716 348.839 216.755C345.463 216.794 346.859 213.879 346.859 213.879C346.859 213.879 344.119 214.132 343.542 211.536C342.957 208.932 347.69 209.705 347.69 209.705C347.82 207.497 348.956 206.959 351.423 207.478V207.472Z" fill="#FF725E"/>
<path d="M348.801 179.374C348.801 179.374 344.587 180.036 344.944 183.236C345.301 186.437 349.099 185.892 349.099 185.892C349.099 185.892 349.19 188.158 352.975 187.989C356.76 187.82 356.085 183.879 356.085 183.879C356.085 183.879 359.662 183.769 359.156 181.62C358.409 178.432 355.832 179.088 355.832 179.088C355.832 179.088 357.202 175.206 352.761 175.478C348.32 175.744 348.801 179.367 348.801 179.367V179.374ZM352.735 176.959C355.228 176.608 354.754 180.049 354.754 180.049C354.754 180.049 357.585 179.692 357.63 181.425C357.675 183.159 354.728 183.087 354.728 183.087C354.728 183.087 356.63 185.379 353.469 186.567C350.307 187.749 350.625 184.541 350.625 184.541C350.625 184.541 348.138 185.716 346.704 183.464C345.269 181.211 349.982 180.328 349.982 180.328C349.365 178.205 350.235 177.316 352.735 176.965V176.959Z" fill="#FF725E"/>
<g opacity="0.3">
<path d="M348.8 179.374C348.8 179.374 344.587 180.036 344.944 183.236C345.301 186.437 349.099 185.892 349.099 185.892C349.099 185.892 349.19 188.158 352.975 187.989C356.76 187.82 356.084 183.879 356.084 183.879C356.084 183.879 359.662 183.769 359.155 181.62C358.409 178.432 355.831 179.088 355.831 179.088C355.831 179.088 357.201 175.206 352.76 175.478C348.32 175.744 348.8 179.367 348.8 179.367V179.374ZM352.734 176.959C355.227 176.608 354.753 180.049 354.753 180.049C354.753 180.049 357.584 179.692 357.63 181.425C357.675 183.159 354.728 183.087 354.728 183.087C354.728 183.087 356.63 185.379 353.468 186.567C350.306 187.749 350.624 184.541 350.624 184.541C350.624 184.541 348.138 185.716 346.703 183.464C345.268 181.211 349.982 180.328 349.982 180.328C349.365 178.205 350.235 177.316 352.734 176.965V176.959Z" fill="black"/>
</g>
<path d="M348.586 178.595C348.586 178.595 344.373 179.257 344.73 182.458C345.087 185.658 348.885 185.113 348.885 185.113C348.885 185.113 348.976 187.379 352.761 187.21C356.546 187.041 355.877 183.107 355.877 183.107C355.877 183.107 359.454 182.996 358.948 180.848C358.201 177.66 355.624 178.316 355.624 178.316C355.624 178.316 356.994 174.433 352.553 174.706C348.112 174.972 348.586 178.595 348.586 178.595ZM352.521 176.18C355.02 175.829 354.54 179.27 354.54 179.27C354.54 179.27 357.37 178.913 357.416 180.646C357.461 182.373 354.514 182.308 354.514 182.308C354.514 182.308 356.416 184.607 353.261 185.788C350.099 186.976 350.417 183.763 350.417 183.763C350.417 183.763 347.931 184.938 346.496 182.691C345.061 180.445 349.774 179.556 349.774 179.556C349.145 177.439 350.028 176.543 352.521 176.186V176.18Z" fill="#FF725E"/>
<path d="M342.211 194.779C342.211 194.779 339.549 194.896 339.393 196.824C339.231 198.752 339.977 201.907 344.6 202.596C349.216 203.284 349.774 197.532 349.774 197.532C349.774 197.532 348.443 194.519 342.211 194.779Z" fill="#E0E0E0"/>
<g opacity="0.21">
<path d="M344.833 199.979C347.391 200.096 348.91 198.992 349.669 198.181C349.747 197.785 349.78 197.538 349.78 197.538C349.78 197.538 348.442 194.526 342.216 194.785C342.216 194.785 339.555 194.902 339.399 196.83C339.399 196.96 339.399 197.097 339.379 197.226C340.353 198.291 342.21 199.856 344.839 199.979H344.833Z" fill="#263238"/>
</g>
<path d="M342.723 193.52L341.964 196.85C341.964 196.85 343.288 198.415 345.223 198.304C347.158 198.194 347.151 197.473 347.151 197.473L347.95 194.059C347.95 194.059 346.242 192.806 344.366 192.754C342.49 192.702 342.73 193.513 342.73 193.513L342.723 193.52Z" fill="#E0E0E0"/>
<path d="M328.331 217.229C328.331 217.229 326.643 219.287 327.973 220.69C329.304 222.092 332.154 223.644 335.745 220.657C339.335 217.671 335.42 213.425 335.42 213.425C335.42 213.425 332.284 212.412 328.324 217.223L328.331 217.229Z" fill="#E0E0E0"/>
<g opacity="0.21">
<path d="M333.953 218.735C335.744 216.911 335.939 215.041 335.842 213.931C335.595 213.606 335.433 213.418 335.433 213.418C335.433 213.418 332.297 212.405 328.337 217.223C328.337 217.223 326.649 219.281 327.98 220.683C328.077 220.767 328.181 220.858 328.265 220.962C329.707 220.949 332.109 220.605 333.959 218.729L333.953 218.735Z" fill="#263238"/>
</g>
<path d="M327.733 216.009L329.713 218.801C329.713 218.801 331.765 218.853 332.972 217.347C334.18 215.834 333.635 215.353 333.635 215.353L331.622 212.484C331.622 212.484 329.551 212.925 328.266 214.289C326.974 215.652 327.74 216.016 327.74 216.016L327.733 216.009Z" fill="#E0E0E0"/>
<path d="M358.207 217.08C358.207 217.08 360.012 218.352 361.083 217.171C362.161 215.989 363.271 213.542 360.59 210.75C357.909 207.958 354.637 211.451 354.637 211.451C354.637 211.451 353.994 214.106 358.207 217.08Z" fill="#E0E0E0"/>
<g opacity="0.21">
<path d="M359.116 212.354C358.019 211.334 356.519 210.867 355.032 211.081C354.786 211.295 354.636 211.451 354.636 211.451C354.636 211.451 353.994 214.107 358.207 217.08C358.207 217.08 360.012 218.352 361.083 217.171C361.155 217.093 361.226 217.002 361.297 216.911C361.194 215.165 360.408 213.522 359.11 212.354H359.116Z" fill="#263238"/>
</g>
<path d="M357.234 217.67L359.415 215.866C359.344 214.84 358.831 213.892 358.013 213.262C356.688 212.36 356.331 212.834 356.331 212.834L354.078 214.671C354.396 215.697 354.981 216.619 355.766 217.339C356.98 218.3 357.227 217.664 357.227 217.664L357.234 217.67Z" fill="#E0E0E0"/>
<path d="M347.697 239.388C347.697 239.388 343.107 241.212 340.042 235.401C336.978 229.584 337.439 224.144 341.601 222.91C345.762 221.67 347.125 223.754 347.976 225.261C348.826 226.767 350.865 230.13 351.235 233.175C351.423 234.889 350.475 238.537 347.697 239.394V239.388Z" fill="#AE7461"/>
<path opacity="0.3" d="M347.626 237.707C348.515 237.304 349.249 236.622 349.709 235.759L349.69 235.791L349.722 235.746L349.794 235.636C349.839 235.564 349.872 235.473 349.904 235.395L349.943 235.33L349.911 235.382C350.177 234.616 350.242 233.798 350.106 233C350.054 232.519 349.937 232.052 349.755 231.61C349.573 231.169 349.229 230.805 348.794 230.604C348.294 230.416 347.729 230.468 347.275 230.753C346.827 231.039 346.483 231.455 346.288 231.954C346.1 232.409 346.022 232.896 345.853 233.357C345.717 233.831 345.392 234.233 344.964 234.473C344.594 234.642 344.165 234.616 343.782 234.753C343.107 235.025 342.737 235.752 342.912 236.46C343.087 237.103 343.691 237.538 344.308 237.778C345.386 238.193 346.58 238.167 347.638 237.713L347.626 237.707Z" fill="#6F4439"/>
<path opacity="0.3" d="M342.919 223.573C341.952 223.716 341.062 224.177 340.394 224.878L340.413 224.845L340.381 224.891L340.29 224.988C340.244 225.066 340.173 225.124 340.121 225.189L340.082 225.254L340.114 225.202C339.647 225.858 339.348 226.618 339.251 227.416C339.166 227.884 339.147 228.364 339.205 228.838C339.264 229.318 339.491 229.753 339.855 230.071C340.283 230.39 340.835 230.493 341.348 230.351C341.854 230.201 342.302 229.89 342.627 229.468C342.932 229.085 343.14 228.637 343.419 228.234C343.685 227.819 344.101 227.52 344.587 227.41C344.983 227.351 345.392 227.494 345.801 227.462C346.522 227.384 347.08 226.793 347.113 226.066C347.119 225.397 346.665 224.819 346.133 224.417C345.211 223.735 344.062 223.436 342.925 223.586L342.919 223.573Z" fill="#6F4439"/>
<path opacity="0.3" d="M343.665 231.182C343.483 231.182 343.302 231.221 343.133 231.292L342.081 231.649C341.808 231.74 341.503 231.87 341.412 232.156C341.36 232.344 341.425 232.545 341.588 232.656C341.743 232.766 341.938 232.805 342.12 232.753H342.075C342.652 232.727 343.211 232.552 343.698 232.24C343.84 232.162 343.957 232.052 344.055 231.916C344.146 231.779 344.165 231.61 344.107 231.455C344.022 231.292 343.853 231.182 343.665 231.182Z" fill="#6F4439"/>
<path d="M339.211 225.754C339.211 225.754 339.101 226.098 338.958 226.663C338.588 228.137 338.627 229.682 339.068 231.13C339.237 231.688 339.387 232.012 339.367 232.025C339.315 231.961 339.276 231.883 339.244 231.805C339.14 231.597 339.056 231.383 338.978 231.162C338.478 229.701 338.439 228.124 338.867 226.637C338.932 226.416 339.01 226.195 339.101 225.981C339.127 225.897 339.166 225.825 339.218 225.754H339.211Z" fill="white"/>
<path d="M340.451 224.196C340.451 224.196 340.347 224.404 340.152 224.605C339.964 224.806 339.789 224.936 339.75 224.91C339.711 224.884 339.853 224.702 340.048 224.501C340.243 224.3 340.425 224.17 340.451 224.196Z" fill="white"/>
<path d="M341.555 236.395C341.12 236.128 340.808 235.7 340.691 235.2C340.847 235.388 340.99 235.59 341.113 235.804C341.275 235.992 341.418 236.187 341.555 236.395Z" fill="white"/>
<path d="M353.617 195.078C353.617 195.078 350.021 193.39 351.741 188.385C353.468 183.38 356.915 180.659 359.934 182.412C362.953 184.172 362.479 186.119 362.07 187.45C361.654 188.781 360.804 191.832 359.22 193.722C358.317 194.78 355.656 196.228 353.617 195.072V195.078Z" fill="#AE7461"/>
<path opacity="0.3" d="M354.558 194.105C355.285 194.41 356.09 194.462 356.85 194.254H356.818H356.863L356.967 194.235C357.038 194.222 357.103 194.189 357.168 194.163L357.227 194.15H357.175C357.772 193.891 358.285 193.482 358.681 192.962C358.934 192.67 359.142 192.345 359.304 191.988C359.46 191.638 359.486 191.235 359.363 190.865C359.2 190.469 358.856 190.164 358.441 190.054C358.025 189.943 357.59 189.976 357.194 190.138C356.824 190.274 356.493 190.502 356.129 190.658C355.772 190.839 355.363 190.872 354.98 190.748C354.682 190.625 354.461 190.359 354.162 190.21C353.63 189.963 353 190.145 352.682 190.638C352.403 191.092 352.474 191.69 352.682 192.183C353.033 193.04 353.701 193.728 354.552 194.098L354.558 194.105Z" fill="#6F4439"/>
<path opacity="0.3" d="M360.265 183.555C359.648 183.068 358.888 182.802 358.103 182.789H358.135H358.09H357.986C357.915 182.802 357.843 182.789 357.772 182.802L357.713 182.815H357.765C357.123 182.893 356.512 183.139 355.986 183.516C355.662 183.724 355.376 183.977 355.123 184.269C354.876 184.568 354.74 184.944 354.759 185.334C354.805 185.762 355.052 186.145 355.422 186.366C355.792 186.58 356.22 186.671 356.642 186.632C357.032 186.6 357.415 186.476 357.804 186.418C358.194 186.34 358.603 186.424 358.934 186.645C359.187 186.846 359.33 187.164 359.57 187.385C360.012 187.768 360.667 187.768 361.115 187.385C361.511 187.022 361.602 186.437 361.544 185.898C361.44 184.983 360.979 184.139 360.265 183.555Z" fill="#6F4439"/>
<path opacity="0.3" d="M356.214 188.19C356.11 188.086 355.993 188.002 355.857 187.937L355.065 187.515C354.863 187.405 354.617 187.294 354.403 187.398C354.266 187.47 354.182 187.619 354.201 187.775C354.221 187.924 354.305 188.06 354.441 188.138L354.416 188.112C354.747 188.437 355.162 188.664 355.61 188.781C355.733 188.82 355.863 188.833 355.993 188.813C356.123 188.794 356.233 188.71 356.292 188.593C356.344 188.45 356.311 188.294 356.214 188.184V188.19Z" fill="#6F4439"/>
<path d="M356.941 182.581C356.941 182.581 356.675 182.704 356.273 182.931C355.208 183.522 354.318 184.399 353.708 185.457C353.474 185.859 353.364 186.132 353.351 186.126C353.364 186.061 353.384 185.989 353.41 185.931C353.474 185.755 353.552 185.587 353.643 185.424C354.228 184.327 355.13 183.431 356.24 182.866C356.402 182.782 356.578 182.704 356.753 182.646C356.818 182.613 356.883 182.594 356.948 182.587L356.941 182.581Z" fill="white"/>
<path d="M358.539 182.452C358.539 182.452 358.357 182.503 358.136 182.503C357.915 182.503 357.74 182.471 357.734 182.432C357.727 182.393 357.915 182.38 358.143 182.38C358.37 182.38 358.545 182.419 358.545 182.445L358.539 182.452Z" fill="white"/>
<path d="M351.987 189.826C351.903 189.424 351.987 189.002 352.215 188.664C352.189 188.859 352.15 189.054 352.091 189.242C352.072 189.437 352.039 189.631 351.987 189.826Z" fill="white"/>
<path d="M338.64 195.312C336.537 196.442 333.907 195.656 332.778 193.546C331.648 191.443 332.434 188.814 334.544 187.684C336.641 186.554 339.25 187.333 340.393 189.424C341.536 191.521 340.763 194.15 338.666 195.299C338.66 195.299 338.647 195.306 338.64 195.312Z" fill="#FF9A6C"/>
<g opacity="0.5">
<path d="M338.639 195.313C336.536 196.442 333.907 195.657 332.777 193.547C331.647 191.443 332.433 188.814 334.543 187.684C336.64 186.555 339.25 187.334 340.392 189.424C341.535 191.521 340.762 194.15 338.665 195.3C338.659 195.3 338.646 195.306 338.639 195.313Z" fill="#FF725E"/>
</g>
<path d="M338.238 194.572C336.134 195.702 333.505 194.916 332.375 192.806C331.246 190.703 332.031 188.073 334.141 186.944C336.238 185.814 338.848 186.593 339.99 188.684C341.133 190.781 340.361 193.41 338.264 194.559C338.257 194.559 338.244 194.566 338.238 194.572Z" fill="#FF9A6C"/>
<g opacity="0.3">
<path d="M337.393 193.027C336.166 193.689 334.634 193.241 333.972 192.014C333.309 190.787 333.757 189.255 334.984 188.593C336.211 187.93 337.744 188.378 338.406 189.605C339.068 190.832 338.614 192.358 337.393 193.027Z" fill="white"/>
</g>
<path d="M336.958 192.202C335.744 192.443 334.764 192.15 334.777 191.553C334.355 190.774 334.647 189.794 335.426 189.372C336.205 188.95 337.186 189.242 337.608 190.021C338.03 190.8 337.744 191.774 336.965 192.196C336.965 192.196 336.965 192.196 336.958 192.196V192.202Z" fill="#FF9A6C"/>
<path d="M361.875 197.779C363.783 196.838 366.101 197.623 367.043 199.532C367.984 201.441 367.198 203.758 365.29 204.7C363.381 205.641 361.063 204.855 360.122 202.947C359.181 201.038 359.966 198.72 361.875 197.779Z" fill="#FF9A6C"/>
<g opacity="0.5">
<path d="M361.875 197.779C363.783 196.838 366.101 197.623 367.043 199.532C367.984 201.441 367.198 203.758 365.29 204.7C363.381 205.641 361.063 204.855 360.122 202.947C359.181 201.038 359.966 198.72 361.875 197.779Z" fill="#FF725E"/>
</g>
<path d="M365.063 203.992C363.193 204.999 360.856 204.297 359.849 202.421C358.843 200.551 359.544 198.214 361.42 197.208C363.284 196.208 365.608 196.896 366.621 198.753C367.64 200.616 366.952 202.96 365.089 203.973C365.082 203.973 365.076 203.979 365.069 203.986L365.063 203.992Z" fill="#FF9A6C"/>
<g opacity="0.3">
<path d="M361.103 199.993C361.46 198.811 362.706 198.136 363.888 198.493C365.069 198.85 365.745 200.097 365.387 201.278C365.03 202.46 363.784 203.135 362.602 202.778C361.421 202.421 360.746 201.175 361.103 199.993Z" fill="white"/>
</g>
<path d="M363.927 201.889C363.232 202.265 362.362 202.006 361.992 201.311C361.615 200.616 361.875 199.746 362.57 199.376C363.264 199 364.128 199.259 364.504 199.954C364.881 200.649 364.628 201.519 363.933 201.895L363.927 201.889Z" fill="#FF9A6C"/>
<path d="M326.552 225.066C326.357 227.13 327.143 229.169 328.675 230.564C330.129 231.941 332.154 232.525 334.115 232.129C334.284 228.39 331.395 225.221 327.662 225.053C327.292 225.033 326.922 225.053 326.552 225.092V225.072V225.066Z" fill="#455A64"/>
<path d="M328.24 226.487C328.305 226.435 329.473 227.954 331.168 229.577C332.862 231.2 334.42 232.323 334.368 232.388C333.985 232.219 333.622 231.999 333.297 231.733C331.655 230.544 330.181 229.129 328.935 227.532C328.649 227.221 328.415 226.87 328.233 226.487H328.24Z" fill="#263238"/>
<path d="M340.574 173.849C339.185 175.388 338.601 177.491 338.99 179.523C339.334 181.497 340.613 183.172 342.424 184.029C344.794 181.133 344.372 176.868 341.477 174.498C341.191 174.265 340.886 174.05 340.561 173.869L340.574 173.849Z" fill="#455A64"/>
<path d="M341.081 176.004C341.165 176.004 341.191 177.92 341.587 180.231C341.983 182.542 342.548 184.379 342.477 184.399C342.269 184.035 342.113 183.639 342.009 183.237C341.399 181.302 341.068 179.289 341.022 177.264C340.983 176.842 341.003 176.42 341.087 176.011L341.081 176.004Z" fill="#263238"/>
<path d="M380.833 210.426C378.717 208.79 375.951 208.244 373.374 208.945C370.868 209.588 368.823 211.406 367.901 213.821C371.881 216.593 377.353 215.619 380.126 211.64C380.392 211.257 380.632 210.848 380.833 210.426Z" fill="#455A64"/>
<path d="M378.132 211.295C378.145 211.406 375.685 211.613 372.737 212.367C369.79 213.12 367.491 214.029 367.446 213.925C367.9 213.62 368.394 213.379 368.913 213.211C370.127 212.717 371.374 212.315 372.646 212.003C373.919 211.678 375.211 211.451 376.516 211.308C377.054 211.23 377.593 211.224 378.132 211.295Z" fill="#263238"/>
<path d="M337.256 206.881C337.243 207.802 335.809 208.53 334.056 208.504C332.303 208.478 330.894 207.705 330.907 206.79C330.875 207.14 330.868 207.497 330.888 207.848C330.875 208.77 332.283 209.542 334.036 209.568C335.789 209.601 337.224 208.874 337.237 207.945C337.263 207.588 337.269 207.231 337.256 206.881Z" fill="#455A64"/>
<path d="M334.088 206.212C335.491 206.231 336.672 206.731 337.081 207.406C337.192 207.25 337.25 207.069 337.256 206.88C337.269 205.959 335.861 205.186 334.108 205.16C332.355 205.128 330.92 205.855 330.901 206.79C330.901 206.978 330.953 207.16 331.056 207.322C331.491 206.66 332.686 206.192 334.088 206.218V206.212Z" fill="#263238"/>
<path d="M355.974 198.662C356.338 199.013 356.091 199.863 355.423 200.558C354.754 201.252 353.91 201.532 353.546 201.181C353.676 201.324 353.813 201.46 353.962 201.583C354.325 201.934 355.169 201.661 355.838 200.967C356.507 200.272 356.754 199.422 356.39 199.065C356.26 198.922 356.117 198.785 355.968 198.656L355.974 198.662Z" fill="#455A64"/>
<path d="M354.52 199.681C355.059 199.123 355.702 198.837 356.124 198.922C356.104 198.818 356.052 198.727 355.974 198.655C355.611 198.305 354.767 198.577 354.098 199.272C353.429 199.967 353.183 200.817 353.553 201.174C353.631 201.246 353.722 201.291 353.825 201.311C353.722 200.889 353.981 200.233 354.52 199.675V199.681Z" fill="#263238"/>
<path d="M360.862 165.87C361.109 166.59 360.206 167.551 358.843 168.019C357.48 168.486 356.175 168.285 355.928 167.577C355.999 167.856 356.097 168.136 356.207 168.402C356.454 169.122 357.759 169.317 359.122 168.85C360.485 168.382 361.388 167.415 361.141 166.701C361.063 166.422 360.972 166.142 360.856 165.87H360.862Z" fill="#455A64"/>
<path d="M358.233 166.24C359.324 165.863 360.375 165.915 360.875 166.324C360.914 166.175 360.908 166.019 360.862 165.87C360.616 165.149 359.311 164.954 357.947 165.422C356.584 165.889 355.682 166.857 355.928 167.577C355.98 167.72 356.071 167.85 356.194 167.941C356.344 167.305 357.136 166.616 358.227 166.24H358.233Z" fill="#263238"/>
<path d="M363.642 218.956L354.657 226.201C354.377 226.422 354.325 226.825 354.527 227.117C355.104 227.948 355.994 228.74 357.273 229.447C363.765 233.038 367.842 226.305 366.94 222.384C366.648 221.124 365.752 219.839 364.453 218.93C364.207 218.755 363.875 218.774 363.642 218.963V218.956Z" fill="#FF725E"/>
<path opacity="0.3" d="M363.642 218.956L354.657 226.201C354.377 226.422 354.325 226.825 354.527 227.117C355.104 227.948 355.994 228.74 357.273 229.447C363.765 233.038 367.842 226.305 366.94 222.384C366.648 221.124 365.752 219.839 364.453 218.93C364.207 218.755 363.875 218.774 363.642 218.963V218.956Z" fill="black"/>
<path d="M363.161 218.521L354.176 225.766C353.897 225.987 353.845 226.39 354.046 226.682C354.624 227.513 355.513 228.305 356.792 229.012C363.284 232.603 367.361 225.87 366.459 221.949C366.167 220.689 365.271 219.404 363.972 218.495C363.726 218.32 363.395 218.339 363.161 218.528V218.521Z" fill="#FF725E"/>
<path opacity="0.3" d="M362.408 219.385C362.642 219.047 365.57 220.099 365.557 222.546C365.544 224.987 364.855 226.812 363.771 226.87C362.687 226.929 361.33 224.936 361.278 223.111C361.226 221.287 362.129 219.787 362.408 219.385Z" fill="black"/>
<path opacity="0.3" d="M355.111 225.637C355.13 225.163 357.597 223.812 359.233 224.117C360.876 224.423 362.771 227.13 362.7 227.85C362.629 228.597 359.571 228.993 358.045 228.474C356.519 227.954 355.078 226.338 355.104 225.637H355.111Z" fill="black"/>
<path d="M358.104 224.896C357.909 224.689 356.02 225.935 356.442 226.364C356.864 226.792 358.526 225.344 358.104 224.896Z" fill="#FF725E"/>
<path d="M360.545 225.903C360.811 225.825 361.739 227.844 361.051 227.876C360.363 227.902 360.285 225.981 360.545 225.903Z" fill="#FF725E"/>
<path d="M359.434 225.332C359.759 225.396 359.467 228.032 358.577 227.941C357.688 227.85 359.11 225.267 359.434 225.332Z" fill="#FF725E"/>
<path d="M362.298 222.299C362.136 221.799 364.564 221.202 364.635 221.728C364.706 222.254 362.512 222.968 362.298 222.299Z" fill="#FF725E"/>
<path d="M362.278 221.332C362.55 221.553 363.79 220.553 363.433 220.242C363.076 219.93 362.005 221.112 362.278 221.332Z" fill="#FF725E"/>
<path d="M362.155 223.325C362.135 223.527 364.31 224.026 364.239 223.598C364.174 223.169 362.207 222.825 362.155 223.325Z" fill="#FF725E"/>
<path d="M361.869 224.15C361.629 224.533 362.94 225.987 363.278 225.682C363.616 225.371 362.207 223.605 361.869 224.15Z" fill="#FF725E"/>
<path d="M361.369 220.281C361.369 220.281 361.323 220.346 361.22 220.456C361.122 220.567 360.973 220.723 360.791 220.911C360.421 221.287 359.889 221.787 359.272 222.307C358.655 222.826 358.064 223.255 357.629 223.553C357.409 223.703 357.233 223.819 357.104 223.897C356.98 223.975 356.909 224.014 356.902 224.014C356.902 224.014 356.967 223.962 357.084 223.871C357.214 223.774 357.389 223.651 357.591 223.508C358.019 223.196 358.597 222.761 359.214 222.242C359.83 221.729 360.369 221.236 360.746 220.865C360.927 220.69 361.077 220.547 361.194 220.43C361.298 220.327 361.362 220.275 361.362 220.275L361.369 220.281Z" fill="white"/>
<path d="M276.419 167.135C276.419 167.135 285.469 174.329 288.345 178.802C291.221 183.281 314.243 198.96 313.924 199.512C313.606 200.064 299.856 222.767 299.856 222.767L292.215 218.91L276.419 167.934" fill="#23ABE0"/>
<path d="M244.257 251.014C244.257 251.014 227.092 278.1 225.358 288.416L244.257 296.154V251.014Z" fill="#23ABE0"/>
<path d="M232.857 163.39C232.857 164.071 229.624 172.576 229.624 172.576L212.777 191.124L245.277 244.048L248.51 252.046L298.539 249.151C298.539 249.151 291.391 211.204 290.884 204.907C290.371 198.61 276.42 167.129 276.42 167.129L259.573 168.999L254.639 167.298L232.857 163.383V163.39Z" fill="#23ABE0"/>
<path d="M243.219 251.274C242.589 251.021 239.317 261.947 233.76 281.93C228.202 301.913 232.007 342.742 232.007 342.742H318.281C318.281 342.742 312.574 297.537 305.121 275.555C297.766 253.865 298.155 240.231 296.519 240.374C294.883 240.517 243.219 251.268 243.219 251.268V251.274Z" fill="#263238"/>
<path d="M293.371 220.774C293.371 220.774 293.351 220.728 293.325 220.631C293.299 220.514 293.267 220.371 293.228 220.203C293.15 219.82 293.033 219.261 292.864 218.547C292.527 217.112 292.001 215.048 291.15 212.555C290.306 210.068 289.19 207.127 287.567 204.057C285.859 201.031 283.756 197.824 281.367 194.604C276.595 188.138 271.57 182.834 267.649 179.328C265.701 177.556 264.013 176.257 262.851 175.355C262.273 174.933 261.819 174.602 261.481 174.361C261.338 174.258 261.221 174.167 261.131 174.095C261.053 174.037 261.014 173.998 261.014 173.998C261.014 173.998 261.059 174.017 261.144 174.069C261.247 174.134 261.364 174.212 261.514 174.31C261.858 174.543 262.332 174.855 262.922 175.257C264.11 176.134 265.831 177.4 267.804 179.159C271.778 182.626 276.855 187.924 281.633 194.416C284.028 197.655 286.132 200.869 287.833 203.927C289.456 207.03 290.553 209.99 291.371 212.496C292.196 215.009 292.689 217.086 292.988 218.534C293.137 219.255 293.234 219.82 293.293 220.203C293.319 220.378 293.338 220.521 293.358 220.638C293.371 220.735 293.371 220.787 293.371 220.787V220.774Z" fill="#263238"/>
<path d="M212.777 191.131C212.777 191.131 209.602 194.792 210.764 203.044C211.926 211.295 225.359 248.684 225.359 248.684L254.807 238.751L239.2 207.725L228.384 194.169L212.77 191.131H212.777Z" fill="#23ABE0"/>
<path d="M292.215 212.854C292.215 212.854 292.169 212.756 292.111 212.561C292.046 212.328 291.968 212.049 291.877 211.711C291.663 210.919 291.384 209.861 291.04 208.575C290.319 205.933 289.274 202.297 287.963 198.337C286.645 194.37 285.32 190.832 284.32 188.281C283.834 187.047 283.425 186.028 283.126 185.268C283.003 184.944 282.892 184.671 282.808 184.444C282.736 184.256 282.704 184.152 282.717 184.145C282.73 184.145 282.782 184.236 282.866 184.411C282.97 184.632 283.093 184.892 283.243 185.21C283.567 185.905 284.009 186.924 284.541 188.183C285.599 190.709 286.969 194.247 288.287 198.22C289.599 202.193 290.618 205.849 291.274 208.51C291.605 209.841 291.851 210.919 292.007 211.672C292.079 212.016 292.131 212.302 292.182 212.535C292.221 212.737 292.234 212.841 292.221 212.841L292.215 212.854Z" fill="#263238"/>
<path d="M225.358 248.677C225.358 248.677 225.404 248.651 225.495 248.619C225.599 248.58 225.735 248.528 225.904 248.463C226.287 248.327 226.826 248.138 227.514 247.892C228.942 247.398 230.994 246.691 233.578 245.801C238.791 244.029 246.146 241.523 254.761 238.595L254.671 238.816C252.152 233.856 249.392 228.409 246.497 222.709C244.965 219.683 243.465 216.729 242.024 213.873C241.329 212.425 240.511 211.094 239.765 209.744C239.005 208.406 238.252 207.101 237.505 205.835C236.012 203.31 234.519 200.947 232.948 198.869C232.156 197.837 231.344 196.876 230.487 196.026C229.637 195.169 228.702 194.487 227.761 193.909C225.878 192.747 223.982 192.04 222.275 191.624C220.567 191.202 219.048 191.072 217.808 191.059C216.568 191.04 215.607 191.17 214.958 191.241C214.646 191.293 214.406 191.326 214.224 191.358C214.056 191.384 213.971 191.39 213.971 191.384C213.971 191.384 214.056 191.358 214.218 191.319C214.4 191.28 214.64 191.235 214.952 191.17C215.601 191.079 216.562 190.923 217.808 190.923C219.055 190.917 220.587 191.027 222.32 191.436C224.047 191.838 225.975 192.533 227.884 193.702C228.838 194.279 229.799 194.974 230.669 195.838C231.539 196.695 232.363 197.662 233.169 198.701C234.759 200.791 236.265 203.154 237.771 205.68C238.525 206.946 239.278 208.251 240.037 209.588C240.784 210.932 241.615 212.276 242.309 213.717C243.757 216.574 245.257 219.527 246.789 222.553C249.678 228.259 252.431 233.706 254.943 238.673L255.028 238.835L254.852 238.894C246.224 241.776 238.856 244.237 233.629 245.983C231.033 246.84 228.975 247.515 227.54 247.989C226.845 248.21 226.3 248.385 225.917 248.508C225.741 248.56 225.605 248.606 225.495 248.638C225.397 248.664 225.352 248.677 225.352 248.671L225.358 248.677Z" fill="#263238"/>
<path d="M253.269 184.665C253.223 184.749 247.919 182.1 241.427 178.75C234.928 175.4 229.696 172.615 229.735 172.537C229.78 172.453 235.078 175.102 241.583 178.452C248.081 181.802 253.314 184.587 253.275 184.665H253.269Z" fill="#263238"/>
<path d="M259.663 169.434C259.754 169.427 260.039 172.232 260.306 175.692C260.565 179.159 260.702 181.97 260.611 181.977C260.52 181.983 260.234 179.185 259.968 175.718C259.708 172.258 259.572 169.44 259.663 169.434Z" fill="#263238"/>
<path d="M267.512 181.093C267.512 181.093 267.44 181.126 267.304 181.171C267.148 181.223 266.947 181.288 266.687 181.373C266.142 181.541 265.35 181.801 264.324 182.152C262.279 182.853 259.345 183.937 255.774 185.417C252.203 186.897 247.996 188.761 243.387 190.974C242.244 191.559 240.972 191.955 239.881 192.675C239.349 193.039 238.875 193.513 238.68 194.13C238.466 194.733 238.544 195.422 238.791 196.032C239.316 197.278 240.414 198.226 241.374 199.291C241.861 199.817 242.355 200.349 242.855 200.888C243.329 201.446 243.803 202.005 244.283 202.569C246.166 204.848 247.906 207.159 249.457 209.471C251.035 211.769 252.444 214.061 253.749 216.261C256.332 220.683 258.442 224.779 260.137 228.259C261.825 231.739 263.117 234.595 263.98 236.575C264.402 237.556 264.733 238.322 264.967 238.861C265.071 239.107 265.149 239.309 265.214 239.458C265.266 239.594 265.292 239.666 265.285 239.666C265.285 239.666 265.246 239.601 265.181 239.471C265.11 239.322 265.019 239.127 264.902 238.887C264.655 238.348 264.305 237.595 263.857 236.627C262.954 234.667 261.63 231.83 259.916 228.363C258.196 224.902 256.073 220.819 253.476 216.417C252.171 214.223 250.756 211.944 249.185 209.652C247.633 207.348 245.899 205.049 244.03 202.777C243.556 202.219 243.082 201.661 242.608 201.109C242.115 200.576 241.621 200.044 241.134 199.518C240.186 198.466 239.063 197.506 238.485 196.155C238.213 195.487 238.122 194.714 238.369 194.019C238.596 193.312 239.141 192.786 239.699 192.403C240.855 191.65 242.121 191.26 243.251 190.689C247.873 188.494 252.093 186.651 255.677 185.196C259.26 183.742 262.214 182.69 264.272 182.028C265.305 181.697 266.11 181.457 266.655 181.308C266.915 181.236 267.122 181.184 267.278 181.139C267.421 181.1 267.492 181.087 267.492 181.093H267.512Z" fill="#263238"/>
<path opacity="0.3" d="M253.411 204.31C254.656 204.31 255.664 203.301 255.664 202.057C255.664 200.813 254.656 199.804 253.411 199.804C252.167 199.804 251.159 200.813 251.159 202.057C251.159 203.301 252.167 204.31 253.411 204.31Z" fill="black"/>
<path opacity="0.3" d="M274.511 195.584C275.755 195.584 276.764 194.576 276.764 193.332C276.764 192.087 275.755 191.079 274.511 191.079C273.267 191.079 272.258 192.087 272.258 193.332C272.258 194.576 273.267 195.584 274.511 195.584Z" fill="black"/>
<path opacity="0.3" d="M267.512 223.903C267.512 225.143 266.505 226.156 265.259 226.156C264.012 226.156 263.006 225.15 263.006 223.903C263.006 222.657 264.012 221.65 265.259 221.65C266.505 221.65 267.512 222.657 267.512 223.903Z" fill="black"/>
<path opacity="0.3" d="M286.138 218.982C287.382 218.982 288.391 217.974 288.391 216.73C288.391 215.485 287.382 214.477 286.138 214.477C284.894 214.477 283.885 215.485 283.885 216.73C283.885 217.974 284.894 218.982 286.138 218.982Z" fill="black"/>
<path d="M301.907 251.78C301.946 251.689 302.615 251.917 303.452 252.137C304.283 252.365 304.978 252.514 304.965 252.611C304.959 252.702 304.225 252.702 303.361 252.468C302.498 252.235 301.868 251.865 301.907 251.78Z" fill="#FF9A6C"/>
<path d="M230.007 247.113C230.117 247.697 239.596 261.136 247.179 261.136C254.761 261.136 292.13 249.937 292.13 249.937L287.807 238.355L250.412 243.977L248.568 240.854L230.007 247.113Z" fill="#FFBF9D"/>
<path d="M287.813 238.355C288.008 238.192 294.948 235.193 298.778 234.356C302.609 233.518 305.115 233.869 307.64 235.206C310.166 236.543 315.697 238.05 316.898 239.277C317.807 240.211 316.976 241.835 315.275 241.666C313.574 241.503 307.036 240.043 306.9 240.056C306.874 240.056 306.835 240.127 306.803 240.231C306.51 241.068 306.764 242.003 307.413 242.614L311.84 246.762C311.84 246.762 311.905 248.619 310.678 248.963C309.451 249.307 308.458 249.833 308.458 249.833C308.458 249.833 307.958 252.339 306.023 252.553C304.082 252.767 298.2 250.885 297.915 250.846C297.629 250.807 292.137 249.93 292.137 249.93L287.813 238.348V238.355Z" fill="#FFBF9D"/>
<path d="M304.095 248.859C304.134 248.768 305.076 249.138 306.27 249.45C307.465 249.768 308.465 249.904 308.458 250.008C308.458 250.099 307.413 250.105 306.186 249.781C304.952 249.463 304.057 248.943 304.095 248.865V248.859Z" fill="#FF9A6C"/>
<path d="M295.792 250.19C297.889 251.17 299.992 252.144 302.089 253.125C302.537 253.332 303.031 253.547 303.518 253.449C304.245 253.3 304.654 252.54 304.959 251.859" fill="#FFBF9D"/>
<path d="M234.377 111.147C240.895 106.148 247.478 105.272 255.814 105.395C260.515 105.467 261.242 102.772 264.598 103.785C267.955 104.798 270.947 106.7 272.876 109.609C275.167 113.062 277.057 116.912 277.381 121.041C277.712 125.281 278.043 129.546 277.589 133.772C277.589 133.818 277.582 133.857 277.576 133.902C276.836 140.55 271.603 145.815 264.981 146.744L262.313 147.12C256.314 147.133 250.231 147.133 244.44 145.595C238.642 144.049 235.909 159.579 233.721 154.028C226.32 135.259 227.781 116.211 234.377 111.154V111.147Z" fill="#263238"/>
<path d="M258.417 107.193L254.087 106.551L237.233 112.64C234.825 112.686 232.851 114.568 232.689 116.971L233.994 163.786L254.749 176.874V184.028L260.066 182.256L257.625 176.16C257.645 171.751 257.599 166.149 257.599 166.149C257.599 166.149 264.766 162.987 271.992 152.457C275.751 146.984 274.2 135.272 274.407 126.462C274.596 118.535 268.188 107.531 258.404 107.187L258.417 107.193Z" fill="#FFBF9D"/>
<path d="M268.155 137.246C268.11 138.142 267.318 138.836 266.383 138.804C265.455 138.771 264.734 138.025 264.779 137.135C264.825 136.246 265.617 135.545 266.552 135.577C267.487 135.61 268.207 136.356 268.162 137.246H268.155Z" fill="#263238"/>
<path d="M271.298 130.773C271.071 130.974 269.876 129.923 268.058 129.767C266.247 129.591 264.838 130.403 264.656 130.169C264.566 130.065 264.819 129.682 265.429 129.312C266.033 128.942 267.046 128.618 268.175 128.722C269.305 128.825 270.22 129.325 270.727 129.799C271.246 130.273 271.402 130.689 271.291 130.78L271.298 130.773Z" fill="#263238"/>
<path d="M259.17 144.647C259.17 144.543 260.313 144.446 262.163 144.374C262.631 144.368 263.079 144.309 263.183 144.004C263.319 143.68 263.17 143.16 262.994 142.608C262.657 141.453 262.3 140.239 261.93 138.966C260.462 133.779 259.443 129.533 259.657 129.475C259.865 129.416 261.228 133.571 262.689 138.759C263.04 140.037 263.377 141.252 263.695 142.42C263.825 142.959 264.072 143.582 263.78 144.257C263.624 144.595 263.26 144.816 262.962 144.868C262.657 144.933 262.397 144.913 262.163 144.907C260.32 144.848 259.177 144.757 259.177 144.653L259.17 144.647Z" fill="#263238"/>
<path d="M257.632 166.136C257.632 166.136 248.744 165.941 240.44 159.916C240.44 159.916 244.336 169.427 257.593 169.343L257.625 166.136H257.632Z" fill="#FF9A6C"/>
<path d="M270.882 124.391C270.538 124.807 269.175 124.391 267.545 124.391C265.909 124.333 264.533 124.696 264.208 124.268C264.065 124.06 264.28 123.645 264.883 123.248C265.474 122.852 266.467 122.528 267.591 122.547C268.714 122.573 269.688 122.937 270.259 123.352C270.843 123.774 271.031 124.196 270.882 124.398V124.391Z" fill="#263238"/>
<path d="M247.978 135.947C247.9 136.837 248.595 137.635 249.524 137.733C250.452 137.83 251.263 137.187 251.341 136.298C251.419 135.408 250.725 134.61 249.796 134.512C248.868 134.415 248.056 135.058 247.978 135.954V135.947Z" fill="#263238"/>
<path d="M246.738 129.292C246.939 129.526 248.264 128.637 250.082 128.734C251.9 128.799 253.185 129.805 253.393 129.591C253.497 129.5 253.302 129.091 252.743 128.637C252.192 128.189 251.237 127.728 250.108 127.676C248.978 127.624 248.004 127.994 247.433 128.397C246.855 128.799 246.641 129.189 246.745 129.292H246.738Z" fill="#263238"/>
<path d="M248.017 123.508C248.355 123.937 249.776 123.58 251.464 123.645C253.152 123.658 254.568 124.073 254.918 123.658C255.074 123.456 254.866 123.028 254.262 122.606C253.665 122.184 252.652 121.82 251.49 121.794C250.328 121.768 249.309 122.093 248.699 122.489C248.082 122.885 247.868 123.3 248.011 123.508H248.017Z" fill="#263238"/>
<path d="M234.254 139.154C234.338 138.174 233.403 135.772 232.455 135.538C229.91 134.915 225.242 134.714 224.626 141.264C223.788 150.217 234.221 149.055 234.26 148.795C234.293 148.594 233.968 142.53 234.26 139.154H234.254Z" fill="#FFBF9D"/>
<path d="M230.826 145.452C230.787 145.419 230.657 145.549 230.384 145.64C230.118 145.731 229.664 145.776 229.216 145.556C228.3 145.121 227.644 143.543 227.755 141.926C227.807 141.108 228.053 140.349 228.398 139.732C228.735 139.102 229.196 138.687 229.683 138.648C230.17 138.583 230.475 138.901 230.566 139.161C230.663 139.42 230.592 139.596 230.637 139.615C230.663 139.641 230.845 139.485 230.806 139.109C230.787 138.927 230.702 138.706 230.508 138.512C230.306 138.317 230.001 138.2 229.664 138.2C228.969 138.18 228.287 138.758 227.904 139.433C227.482 140.109 227.19 140.959 227.132 141.881C227.021 143.692 227.787 145.465 229.047 145.958C229.664 146.179 230.202 146.042 230.495 145.854C230.793 145.659 230.858 145.465 230.826 145.445V145.452Z" fill="#FF9A6C"/>
<path d="M232.085 135.804L234.292 138.239C244.433 129.13 264.416 106.148 263.299 107.524C263.299 107.524 256.645 104.538 249.289 105.551C241.934 106.563 227.93 109.79 227.872 118.425C227.813 127.066 232.092 135.804 232.092 135.804H232.085Z" fill="#263238"/>
<path d="M274.946 114.964C274.187 113.302 275.018 111.296 276.433 110.076C277.848 108.855 279.731 108.245 281.562 107.699C283.393 107.154 285.282 106.622 286.794 105.505C289.787 103.285 290.579 99.2661 290.164 95.7019C289.365 88.8917 284.918 82.7371 279.01 78.7444C273.102 74.7582 265.864 72.7846 258.618 72.1808C243.55 70.9279 229.982 76.1411 218.438 85.3729C216.543 86.8856 215.355 89.2163 215.244 91.5535C215.16 93.4102 216.251 95.1112 217.38 96.6303C220.854 101.311 224.931 104.544 229.709 108.05L228.365 115.698L274.94 114.958L274.946 114.964Z" fill="#23ABE0"/>
<path d="M285.899 92.4041C285.899 92.4041 285.756 92.6313 285.425 92.9689C285.094 93.313 284.581 93.7739 283.906 94.2868C283.224 94.7997 282.38 95.3515 281.426 95.9358C280.472 96.5201 279.414 97.1368 278.355 97.8575C277.297 98.5781 276.356 99.3572 275.629 100.182C274.895 101.006 274.376 101.863 274.051 102.629C273.395 104.174 273.519 105.265 273.447 105.252C273.434 105.252 273.382 104.992 273.402 104.512C273.421 104.038 273.525 103.343 273.83 102.538C274.135 101.74 274.655 100.837 275.395 99.9804C276.135 99.1169 277.096 98.3184 278.167 97.5848C279.238 96.8512 280.309 96.2409 281.27 95.6761C282.231 95.1113 283.082 94.5854 283.77 94.105C285.153 93.1442 285.86 92.3716 285.906 92.4105L285.899 92.4041Z" fill="#263238"/>
<path d="M278.569 84.7627C278.608 84.8211 277.505 85.4638 275.972 86.8012C275.589 87.1388 275.174 87.5089 274.765 87.9438C274.33 88.3593 273.927 88.8463 273.479 89.3526C272.629 90.3914 271.778 91.6054 271.025 92.9558C270.285 94.3191 269.727 95.689 269.305 96.9615C269.117 97.6042 268.922 98.2144 268.805 98.7987C268.656 99.3765 268.565 99.9284 268.487 100.428C268.182 102.441 268.234 103.713 268.162 103.713C268.136 103.713 268.123 103.395 268.11 102.824C268.097 102.538 268.097 102.188 268.13 101.779C268.156 101.37 268.169 100.902 268.253 100.396C268.318 99.8829 268.396 99.3246 268.532 98.7338C268.636 98.1365 268.825 97.5198 269.013 96.8641C269.428 95.5656 269.987 94.1698 270.74 92.787C271.506 91.4107 272.382 90.1901 273.252 89.1449C273.707 88.6385 274.129 88.1451 274.577 87.7361C274.999 87.3011 275.427 86.9376 275.83 86.6129C276.213 86.2689 276.602 86.0092 276.933 85.769C277.258 85.5223 277.556 85.334 277.803 85.1912C278.297 84.8925 278.569 84.7367 278.582 84.7627H278.569Z" fill="#263238"/>
<path d="M261.677 81.283C261.677 81.283 261.683 81.5816 261.631 82.114C261.579 82.6463 261.514 83.4124 261.443 84.3602C261.3 86.256 261.19 88.8788 261.287 91.7743C261.391 94.6698 261.683 97.2796 261.956 99.1624C262.092 100.104 262.216 100.863 262.3 101.389C262.384 101.915 262.423 102.207 262.397 102.214C262.371 102.214 262.293 101.935 262.17 101.415C262.04 100.896 261.884 100.143 261.716 99.2013C261.378 97.3251 261.047 94.7023 260.943 91.7873C260.846 88.8723 260.995 86.2365 261.203 84.3408C261.307 83.3929 261.411 82.6268 261.501 82.101C261.592 81.5751 261.651 81.283 261.677 81.2895V81.283Z" fill="#263238"/>
<path d="M250.653 77.9457C250.653 77.9457 250.685 78.3157 250.679 78.9909C250.666 79.6596 250.666 80.6269 250.679 81.8215C250.705 84.2106 250.867 87.5151 251.341 91.1313C251.815 94.7474 252.503 97.987 253.087 100.305C253.379 101.467 253.626 102.402 253.808 103.044C253.983 103.687 254.074 104.051 254.054 104.057C254.035 104.064 253.899 103.72 253.684 103.083C253.464 102.447 253.178 101.519 252.853 100.363C252.211 98.0519 251.477 94.8123 250.997 91.1767C250.523 87.5411 250.399 84.2171 250.432 81.8215C250.445 80.6204 250.484 79.6531 250.536 78.9844C250.581 78.3157 250.62 77.9457 250.646 77.9457H250.653Z" fill="#263238"/>
<path d="M229.839 85.5742C229.839 85.5742 230.105 85.8079 230.534 86.2754C230.969 86.7363 231.573 87.4245 232.3 88.2944C233.76 90.0278 235.689 92.4949 237.636 95.3514C239.577 98.2145 241.168 100.915 242.239 102.908C242.778 103.908 243.193 104.72 243.466 105.291C243.739 105.862 243.882 106.18 243.862 106.193C243.843 106.206 243.661 105.901 243.349 105.356C243.005 104.752 242.564 103.967 242.031 103.025C240.908 101.065 239.292 98.3962 237.357 95.5397C235.416 92.6896 233.527 90.2096 232.118 88.4438C231.436 87.5998 230.871 86.8986 230.436 86.3598C230.04 85.8664 229.826 85.5872 229.846 85.5742H229.839Z" fill="#263238"/>
<path d="M228.729 130.065C226.255 121.599 227.554 115.704 229.177 109.667C229.177 109.667 249.218 97.7082 265.734 101.487C265.734 101.487 276.05 103.558 277.381 108.914L277.673 127.15C277.673 127.15 276.55 119.937 261.527 119.366C246.504 118.795 228.729 130.072 228.729 130.072V130.065Z" fill="#23ABE0"/>
<path d="M243.926 143.515C244.054 143.07 244.492 142.675 245.041 142.397C246.14 141.845 247.693 141.771 248.8 142.216C249.907 142.662 250.493 143.602 250.229 144.492C249.557 145.019 248.56 145.385 247.475 145.456C247.306 145.465 247.137 145.475 246.967 145.475C246.152 145.474 245.328 145.321 244.719 144.976C244.118 144.63 243.764 144.07 243.918 143.52L243.926 143.515Z" fill="#FF8880"/>
<path d="M268.421 143.515C268.549 143.07 268.987 142.675 269.536 142.397C270.634 141.845 272.188 141.771 273.295 142.216C274.402 142.662 274.988 143.602 274.724 144.492C274.051 145.019 273.055 145.385 271.97 145.456C271.801 145.465 271.632 145.475 271.462 145.475C270.647 145.474 269.823 145.321 269.214 144.976C268.613 144.63 268.259 144.07 268.413 143.52L268.421 143.515Z" fill="#FF8880"/>
<path d="M255.714 153.299C255.898 153.114 257.066 154.395 258.993 154.31C260.925 154.229 262.162 152.843 262.336 153.009C262.429 153.071 262.257 153.531 261.696 154.077C261.144 154.612 260.152 155.182 258.973 155.232C257.793 155.283 256.83 154.8 256.309 154.311C255.773 153.819 255.628 153.37 255.724 153.298L255.714 153.299Z" fill="#263238"/>
<path d="M276.959 108.979C276.959 108.979 276.855 108.823 276.692 108.518C276.608 108.369 276.524 108.174 276.381 107.96C276.238 107.745 276.076 107.505 275.9 107.232C275.134 106.174 273.758 104.804 271.681 103.72C269.616 102.616 266.902 101.798 263.832 101.383C260.761 100.961 257.32 100.903 253.769 101.383C251.99 101.617 250.276 101.974 248.64 102.396C247.004 102.818 245.459 103.344 243.978 103.831C241.031 104.824 238.408 105.824 236.22 106.707C234.033 107.583 232.286 108.343 231.072 108.862C230.488 109.109 230.027 109.31 229.676 109.459C229.358 109.596 229.183 109.66 229.183 109.647C229.183 109.635 229.339 109.55 229.65 109.394C229.994 109.232 230.449 109.011 231.02 108.739C232.215 108.18 233.955 107.388 236.129 106.479C238.304 105.57 240.921 104.545 243.875 103.532C245.348 103.032 246.9 102.5 248.549 102.071C250.198 101.643 251.925 101.273 253.717 101.039C257.3 100.558 260.774 100.623 263.87 101.065C266.967 101.5 269.707 102.35 271.791 103.499C273.888 104.629 275.264 106.051 276.011 107.142C276.18 107.421 276.335 107.667 276.472 107.895C276.602 108.115 276.679 108.317 276.757 108.472C276.9 108.791 276.972 108.959 276.965 108.959L276.959 108.979Z" fill="#263238"/>
</g>
<defs>
<clipPath id="clip0_109_45817">
<rect width="219" height="270.749" fill="white" transform="translate(169 72)"/>
</clipPath>
</defs>
</svg>
