<svg width="308" height="303" viewBox="0 0 308 303" fill="none" xmlns="http://www.w3.org/2000/svg">
<path d="M262.213 302.198C262.213 302.299 212.257 302.385 150.655 302.385C89.0519 302.385 39.0747 302.299 39.0747 302.198C39.0747 302.097 89.0231 302.011 150.655 302.011C212.286 302.011 262.213 302.104 262.213 302.198Z" fill="#263238"/>
<path d="M213.538 214.128C202.423 206.366 199.905 191.956 200.344 178.999C200.416 176.841 200.179 174.554 201.207 172.662C202.236 170.769 204.639 169.467 206.574 170.374C208.178 171.129 208.876 173 209.775 174.546C210.975 176.606 212.734 178.285 214.847 179.388C216.221 180.107 217.926 180.539 219.286 179.791C221.156 178.762 221.372 176.194 221.358 174.036C221.358 170.021 221.334 166.012 221.286 162.007C221.157 159.857 221.375 157.7 221.933 155.619C222.602 153.576 224.092 151.684 226.128 151.108C228.163 150.533 230.703 151.72 231.163 153.82C231.243 154.71 231.264 155.604 231.228 156.496C231.286 157.396 231.703 158.381 232.545 158.655C233.386 158.928 234.264 158.302 234.912 157.669C237.127 155.511 238.638 152.698 240.041 149.921C241.444 147.144 242.818 144.288 244.832 141.921C246.846 139.554 249.631 137.677 252.746 137.497C255.861 137.317 259.105 139.231 259.882 142.252C260.659 145.274 258.897 148.36 257.004 150.813C254.149 154.455 250.784 157.665 247.012 160.345C246.276 160.747 245.688 161.375 245.336 162.137C244.868 163.575 246.228 165.014 247.645 165.467C249.249 166 250.99 165.834 252.681 166.036C254.371 166.237 256.17 166.971 256.81 168.554C257.688 170.755 255.846 173.057 254.041 174.568C250.415 177.589 246.298 179.967 241.868 181.597C240.285 182.172 238.624 182.683 237.343 183.791C236.063 184.899 235.3 186.834 236.07 188.352C236.84 189.87 238.818 190.352 240.48 190.042C242.142 189.733 243.616 188.841 245.199 188.244C248.156 187.129 251.969 187.33 253.832 189.884C254.409 190.764 254.775 191.765 254.899 192.81C255.024 193.855 254.905 194.915 254.551 195.906C253.831 197.878 252.723 199.685 251.292 201.222C246.581 206.852 240.458 211.129 233.552 213.617C226.696 215.991 220.344 216.639 213.531 214.142" fill="#E9C33D"/>
<path d="M256.717 139.274C256.717 139.274 256.652 139.346 256.508 139.475L255.868 140.044C255.307 140.547 254.479 141.281 253.436 142.252C250.479 144.998 247.732 147.963 245.221 151.122C243.616 153.115 241.954 155.374 240.185 157.827C238.415 160.281 236.588 162.928 234.775 165.741C232.842 168.707 231.072 171.776 229.473 174.935C228.638 176.582 227.904 178.302 227.149 180.057L224.919 185.417C221.979 192.167 219.419 199.077 217.25 206.114C215.503 211.871 214.299 217.779 213.653 223.761C213.235 227.798 213.167 231.863 213.452 235.912C213.567 237.351 213.675 238.451 213.775 239.199C213.819 239.559 213.847 239.847 213.876 240.055V240.35C213.845 240.257 213.823 240.16 213.811 240.063C213.775 239.854 213.732 239.573 213.675 239.214C213.545 238.494 213.408 237.358 213.279 235.919C212.932 231.863 212.956 227.784 213.351 223.732C213.957 217.725 215.135 211.789 216.869 206.006C219.02 198.95 221.573 192.022 224.516 185.258L226.804 179.92C227.559 178.172 228.3 176.438 229.142 174.784C230.752 171.616 232.537 168.539 234.487 165.568C236.329 162.691 238.185 160.086 239.933 157.655C241.681 155.223 243.372 152.95 244.969 150.964C247.506 147.814 250.289 144.869 253.292 142.159C254.357 141.202 255.206 140.482 255.781 140L256.451 139.461C256.533 139.389 256.622 139.327 256.717 139.274Z" fill="#263238"/>
<path d="M229.235 174.769C229.134 174.473 229.064 174.167 229.027 173.856C228.912 173.259 228.782 172.417 228.631 171.323C228.322 169.165 228.005 166.208 227.667 162.935C227.329 159.662 226.948 156.698 226.631 154.561C226.466 153.497 226.322 152.64 226.221 152.043C226.142 151.738 226.101 151.424 226.099 151.108C226.223 151.396 226.312 151.698 226.365 152.007C226.523 152.597 226.703 153.446 226.905 154.518C227.315 156.676 227.717 159.611 228.056 162.892C228.394 166.172 228.681 169.05 228.904 171.287C229.012 172.295 229.106 173.151 229.178 173.834C229.234 174.143 229.253 174.456 229.235 174.769Z" fill="#263238"/>
<path d="M256.918 169.604C256.568 169.68 256.212 169.724 255.853 169.734C255.134 169.798 254.112 169.885 252.846 170.028C250.314 170.302 246.832 170.805 243.012 171.525C239.192 172.244 235.76 173.057 233.293 173.683C232.063 174 231.07 174.287 230.415 174.482C230.066 174.606 229.704 174.693 229.336 174.741C229.669 174.573 230.015 174.436 230.372 174.331C231.048 174.093 232.027 173.762 233.25 173.41C235.703 172.69 239.134 171.834 242.969 171.1C246.217 170.479 249.494 170.023 252.789 169.734C254.062 169.626 255.091 169.582 255.81 169.568C256.18 169.543 256.551 169.555 256.918 169.604Z" fill="#263238"/>
<path d="M217.221 205.502C217.145 205.398 217.082 205.285 217.034 205.164L216.559 204.164C216.149 203.294 215.595 202.006 214.934 200.431C213.596 197.265 211.891 192.834 210.078 187.913C208.265 182.992 206.596 178.561 205.33 175.359C204.711 173.805 204.2 172.532 203.819 171.582L203.416 170.554C203.36 170.435 203.321 170.309 203.301 170.18C203.378 170.284 203.44 170.397 203.488 170.518L203.963 171.518C204.366 172.388 204.927 173.676 205.589 175.251C206.927 178.417 208.632 182.848 210.445 187.769C212.257 192.69 213.926 197.121 215.193 200.323C215.811 201.877 216.322 203.15 216.696 204.1C216.862 204.51 216.998 204.819 217.106 205.128C217.162 205.247 217.201 205.373 217.221 205.502Z" fill="#263238"/>
<path d="M253.969 193.654C253.853 193.72 253.73 193.771 253.602 193.805L252.537 194.165L248.602 195.438C245.278 196.517 240.688 198.057 235.653 199.754C230.617 201.452 226.005 202.963 222.66 203.97C220.991 204.481 219.631 204.869 218.689 205.128L217.603 205.409C217.476 205.449 217.346 205.476 217.214 205.488C217.329 205.422 217.453 205.371 217.581 205.337L218.646 204.977L222.581 203.704C225.905 202.625 230.494 201.085 235.53 199.387C240.566 197.69 245.17 196.179 248.515 195.172C250.192 194.661 251.544 194.272 252.494 194.013L253.58 193.733C253.706 193.693 253.837 193.666 253.969 193.654Z" fill="#263238"/>
<path d="M238.976 19.1474L235.271 20.4711L233.681 15.6295C230.761 6.70171 221.451 1.96082 212.898 4.97513C204.344 7.98944 199.79 17.7806 202.711 26.7084L204.301 31.55L200.581 32.8809C199.163 33.431 198.011 34.5065 197.366 35.8838C196.72 37.2611 196.63 38.8343 197.114 40.2764L207.423 71.7792C207.637 72.4931 207.992 73.1567 208.468 73.7305C208.943 74.3044 209.529 74.7768 210.191 75.1197C210.853 75.4626 211.577 75.6691 212.32 75.7267C213.063 75.7844 213.81 75.6921 214.516 75.4554L252.911 61.7219C254.348 61.1728 255.516 60.0877 256.169 58.6951C256.823 57.3024 256.911 55.7106 256.415 54.2545L246.098 22.7517C245.879 22.0398 245.518 21.3794 245.038 20.81C244.557 20.2405 243.967 19.7737 243.302 19.4373C242.638 19.1009 241.912 18.9019 241.169 18.8521C240.426 18.8023 239.68 18.9027 238.976 19.1474ZM209.711 24.1833C208.923 21.8619 209.065 19.3258 210.105 17.1064C211.146 14.8869 213.005 13.1563 215.293 12.2771C216.423 11.8905 217.619 11.7355 218.811 11.8213C220.002 11.9071 221.163 12.2319 222.226 12.7764C223.289 13.3209 224.231 14.074 224.997 14.9906C225.762 15.9072 226.335 16.9686 226.681 18.1115L228.264 22.9531L211.293 29.0249L209.711 24.1833ZM231.293 52.1394L233.926 60.1824C233.974 60.3436 233.959 60.5173 233.882 60.6674C233.806 60.8174 233.675 60.9323 233.516 60.9881L229.825 62.3046C229.678 62.3453 229.521 62.3276 229.387 62.2552C229.253 62.1828 229.152 62.0613 229.106 61.9161L226.451 53.9091C224.988 53.8294 223.583 53.3044 222.426 52.4044C221.269 51.5044 220.414 50.2724 219.977 48.8733C219.351 47.0237 219.465 45.0037 220.295 43.2363C221.125 41.4689 222.607 40.0912 224.43 39.3915C225.33 39.084 226.283 38.9608 227.231 39.0294C228.18 39.0979 229.105 39.3567 229.952 39.7904C230.798 40.224 231.549 40.8237 232.159 41.5536C232.769 42.2835 233.225 43.1287 233.501 44.0389C233.964 45.4601 234.003 46.9855 233.612 48.4281C233.221 49.8708 232.417 51.168 231.3 52.161L231.293 52.1394Z" fill="#E9C33D"/>
<path d="M235.106 20.3848C235.106 20.4855 228.235 23.0682 219.689 26.1401C211.142 29.2119 204.171 31.6795 204.135 31.6076C204.099 31.5356 211.006 28.9314 219.559 25.8523C228.113 22.7732 235.07 20.2913 235.106 20.3848Z" fill="#263238"/>
<path d="M243.264 21.7085C243.296 21.7709 243.322 21.8359 243.343 21.9027C243.401 22.0466 243.465 22.2337 243.552 22.4639C243.739 22.989 243.998 23.7156 244.321 24.6221L247.084 32.6651C248.235 36.075 249.609 40.1181 251.134 44.6072C251.854 46.8589 252.702 49.2042 253.494 51.6718C253.917 52.9433 254.1 54.2827 254.033 55.6213C253.972 56.3175 253.774 56.9947 253.451 57.6141C253.105 58.2313 252.643 58.7761 252.091 59.2183C250.979 60.0297 249.746 60.6586 248.436 61.0816L244.731 62.4125L237.717 64.9232L225.84 69.1533L217.818 71.9734L215.66 72.6928L215.085 72.8799C215.023 72.9072 214.958 72.9242 214.89 72.9302C214.89 72.9302 214.948 72.9302 215.07 72.8439L215.631 72.6209L217.79 71.8079L225.768 68.8728L237.624 64.5563L244.624 62.024L248.328 60.6859C249.601 60.2802 250.799 59.6703 251.875 58.8802C252.389 58.4698 252.819 57.9642 253.141 57.391C253.446 56.8182 253.63 56.1889 253.681 55.5422C253.747 54.2524 253.571 52.9617 253.163 51.7365C252.386 49.2905 251.566 46.9237 250.825 44.6719C249.328 40.1757 247.947 36.1182 246.854 32.7082C245.76 29.2982 244.839 26.5573 244.206 24.6293C243.904 23.6869 243.674 22.9531 243.487 22.4207L243.314 21.8452C243.292 21.8016 243.276 21.7558 243.264 21.7085Z" fill="#263238"/>
<path d="M223.005 11.7879C223.005 11.7879 222.624 11.6009 221.919 11.3131C220.914 10.927 219.851 10.713 218.775 10.68C217.18 10.6253 215.593 10.9251 214.128 11.5577C212.346 12.3454 210.823 13.6196 209.732 15.2339C208.635 16.8436 208.046 18.7458 208.042 20.6942C208.057 22.2911 208.299 23.8777 208.761 25.4063C209.135 26.7156 209.524 27.7587 209.783 28.4853C209.935 28.8544 210.061 29.2343 210.157 29.622C209.952 29.2769 209.781 28.9132 209.646 28.5357C209.351 27.8163 208.927 26.7947 208.509 25.4782C207.997 23.9336 207.718 22.3211 207.682 20.6942C207.663 18.6722 208.266 16.6932 209.409 15.0252C210.537 13.352 212.123 12.0384 213.977 11.2412C215.488 10.6051 217.124 10.3245 218.761 10.421C219.86 10.4771 220.94 10.733 221.948 11.1764C222.217 11.3007 222.477 11.445 222.725 11.6081C222.827 11.653 222.922 11.7137 223.005 11.7879Z" fill="#263238"/>
<path d="M223.336 39.9383C223.451 39.8687 223.571 39.8085 223.696 39.7584C224.056 39.5959 224.429 39.4636 224.811 39.3628C225.417 39.1838 226.043 39.0775 226.674 39.0462C227.533 39.0001 228.392 39.1298 229.199 39.4275C231.041 40.075 232.732 41.9526 233.566 44.4633C233.966 45.8107 233.966 47.2454 233.566 48.5927C233.122 50.0551 232.327 51.3865 231.25 52.4703L231.293 52.2761C232.25 54.9019 233.293 57.7508 234.372 60.7219L234.437 60.9018L234.257 60.9665L232.609 61.5133L229.012 62.7147L228.833 62.7722L228.775 62.5924C227.789 59.614 226.71 56.8371 225.897 54.1106L226.056 54.2329C224.649 54.1161 223.308 53.5882 222.2 52.7149C221.197 51.9424 220.374 50.9604 219.79 49.8373C219.262 48.8414 219 47.7266 219.027 46.6C219.06 45.4485 219.348 44.3187 219.869 43.2914C220.39 42.2641 221.132 41.3647 222.041 40.6577C222.416 40.3538 222.836 40.111 223.286 39.9383C222.88 40.1794 222.486 40.4411 222.106 40.7224C221.107 41.5676 220.342 42.655 219.883 43.8806C219.49 44.8048 219.305 45.8047 219.344 46.8084C219.383 47.8122 219.643 48.795 220.106 49.6862C220.681 50.7666 221.484 51.7092 222.459 52.4488C223.516 53.2788 224.795 53.7792 226.135 53.8876H226.257L226.293 53.9955C227.084 56.6717 228.171 59.4702 229.171 62.4629L228.933 62.3478L232.53 61.1464L234.171 60.5924L234.055 60.837C232.984 57.8659 231.948 55.0098 230.998 52.384V52.2761L231.084 52.1898C232.13 51.1509 232.91 49.875 233.358 48.4704C233.739 47.1816 233.739 45.8098 233.358 44.5209C232.573 42.1037 230.955 40.2692 229.199 39.6217C228.422 39.3221 227.593 39.1826 226.761 39.2117C226.139 39.2259 225.521 39.3104 224.919 39.4635C223.847 39.7296 223.343 39.9742 223.336 39.9383Z" fill="#263238"/>
<path d="M201.099 247.66L129.238 247.329C125.088 247.306 121.117 245.637 118.196 242.688C115.276 239.74 113.646 235.752 113.663 231.602L114.425 51.4559C114.434 49.3999 114.847 47.3657 115.643 45.4696C116.438 43.5736 117.599 41.8528 119.059 40.4056C120.52 38.9585 122.251 37.8133 124.154 37.0357C126.058 36.2581 128.096 35.8632 130.152 35.8736L202.006 36.2045C206.156 36.2255 210.128 37.8927 213.049 40.8399C215.971 43.7872 217.604 47.7736 217.588 51.9236L216.826 232.063C216.817 234.12 216.404 236.154 215.609 238.051C214.814 239.948 213.653 241.67 212.193 243.118C210.732 244.567 209.001 245.713 207.098 246.492C205.194 247.271 203.156 247.668 201.099 247.66Z" fill="#455A64"/>
<path d="M201.898 42.3986H187.97C187.516 42.4071 187.067 42.5049 186.651 42.6867C186.234 42.8684 185.858 43.1304 185.542 43.4577C185.227 43.7851 184.979 44.1714 184.813 44.5945C184.647 45.0176 184.566 45.4693 184.575 45.9237V48.4488C184.583 48.9029 184.502 49.3542 184.336 49.777C184.17 50.1997 183.922 50.5855 183.607 50.9122C183.291 51.239 182.914 51.5003 182.498 51.6813C182.081 51.8622 181.633 51.9592 181.179 51.9667L154.029 51.8444C153.11 51.8199 152.239 51.4319 151.606 50.7656C150.974 50.0993 150.631 49.2091 150.655 48.2906V45.7655C150.678 44.8481 150.337 43.959 149.705 43.2929C149.074 42.6268 148.205 42.2379 147.288 42.2116H142.389L130.195 42.154C127.294 42.1368 124.505 43.2695 122.438 45.3041C120.371 47.3388 119.195 50.1096 119.166 53.0099L118.447 228.847C118.44 230.286 118.717 231.712 119.262 233.044C119.806 234.376 120.608 235.587 121.62 236.609C122.633 237.631 123.837 238.444 125.164 239.001C126.491 239.558 127.914 239.847 129.353 239.854L201.063 240.185C202.503 240.192 203.93 239.915 205.263 239.37C206.596 238.825 207.808 238.023 208.831 237.009C209.854 235.996 210.667 234.791 211.224 233.463C211.781 232.136 212.071 230.711 212.078 229.272L212.797 53.4343C212.814 50.5259 211.676 47.7296 209.632 45.6602C207.588 43.5908 204.806 42.4177 201.898 42.3986Z" fill="white"/>
<path d="M192.251 216.725L138.928 216.495C138.374 216.495 137.928 215.891 137.936 215.157L137.993 201.208C137.993 200.488 138.446 199.869 139 199.869L192.323 200.114C192.63 200.167 192.904 200.337 193.089 200.587C193.274 200.838 193.355 201.15 193.315 201.459L193.265 215.394C193.265 216.135 192.805 216.732 192.251 216.725Z" fill="#E9C33D"/>
<path d="M149.564 94.0881L131.061 94.0042L131.046 97.3997L149.549 97.4837L149.564 94.0881Z" fill="#E9C33D"/>
<path opacity="0.1" d="M149.564 94.0881L131.061 94.0042L131.046 97.3997L149.549 97.4837L149.564 94.0881Z" fill="black"/>
<path d="M203.804 114.936C203.95 114.922 204.092 114.888 204.229 114.836C204.428 114.758 204.601 114.625 204.728 114.454C204.856 114.282 204.932 114.078 204.948 113.864C204.948 112.721 204.948 111.052 204.948 108.908C204.948 107.836 204.948 106.634 204.948 105.311C204.948 104.987 204.948 104.649 204.948 104.311C204.995 103.983 204.924 103.649 204.747 103.368C204.648 103.234 204.519 103.124 204.37 103.048C204.222 102.972 204.058 102.931 203.891 102.929H202.768H192.373L132.202 102.706C132.048 102.704 131.896 102.738 131.758 102.807C131.62 102.876 131.501 102.977 131.411 103.102C131.237 103.384 131.17 103.718 131.223 104.045C131.223 104.764 131.223 105.483 131.223 106.203C131.223 107.642 131.223 109.08 131.223 110.519C131.223 111.239 131.223 111.958 131.223 112.677C131.194 113.012 131.194 113.35 131.223 113.685C131.261 113.828 131.332 113.961 131.429 114.074C131.526 114.186 131.648 114.274 131.785 114.332C131.926 114.388 132.078 114.415 132.231 114.411H135.892L151.87 114.498L178.92 114.663L197.157 114.807L202.114 114.864H203.402C203.696 114.864 203.84 114.864 203.84 114.864H203.402H202.114H197.157H178.92L151.87 114.778L135.892 114.713H132.231C132.029 114.721 131.828 114.687 131.641 114.613C131.451 114.532 131.283 114.409 131.148 114.253C131.014 114.097 130.916 113.913 130.864 113.713C130.822 113.525 130.808 113.331 130.821 113.138V112.605C130.821 111.886 130.821 111.167 130.821 110.447C130.821 109.008 130.821 107.57 130.821 106.131C130.821 105.411 130.821 104.692 130.821 103.973C130.807 103.781 130.807 103.589 130.821 103.397C130.848 103.185 130.929 102.985 131.058 102.814C131.182 102.641 131.346 102.5 131.537 102.403C131.727 102.307 131.938 102.258 132.152 102.26L192.323 102.591L202.718 102.663H203.84C204.038 102.663 204.233 102.711 204.408 102.803C204.584 102.894 204.734 103.026 204.848 103.188C205.05 103.501 205.132 103.877 205.078 104.246C205.078 104.584 205.078 104.922 205.078 105.246C205.078 106.555 205.078 107.757 205.078 108.843C205.078 111.001 205.027 112.656 205.013 113.807C204.995 114.028 204.915 114.24 204.781 114.417C204.647 114.594 204.466 114.729 204.258 114.807C204.121 114.891 203.965 114.936 203.804 114.936Z" fill="#E0E0E0"/>
<path d="M170.46 106.318H136.619V109.49H170.46V106.318Z" fill="#E9C33D"/>
<path opacity="0.2" d="M170.46 106.318H136.619V109.49H170.46V106.318Z" fill="white"/>
<path d="M149.438 125.065L130.935 124.981L130.92 128.376L149.422 128.46L149.438 125.065Z" fill="#E9C33D"/>
<path opacity="0.1" d="M149.438 125.065L130.935 124.981L130.92 128.376L149.422 128.46L149.438 125.065Z" fill="black"/>
<path d="M203.337 145.914C203.482 145.896 203.626 145.87 203.768 145.835C203.969 145.771 204.154 145.665 204.311 145.523C204.467 145.382 204.591 145.208 204.675 145.015C204.788 144.724 204.833 144.412 204.804 144.101C204.804 143.756 204.804 143.382 204.804 142.964C204.804 142.13 204.804 141.18 204.804 140.087V135.519C204.839 135.188 204.766 134.855 204.596 134.569C204.418 134.276 204.139 134.058 203.812 133.957C203.453 133.894 203.088 133.874 202.725 133.9H192.373L132.411 133.677C132.088 133.678 131.777 133.796 131.535 134.009C131.292 134.222 131.136 134.515 131.094 134.835C131.094 135.519 131.094 136.274 131.094 136.993C131.094 138.432 131.094 139.871 131.094 141.31C131.094 142.029 131.094 142.749 131.094 143.468C131.067 143.804 131.082 144.142 131.137 144.475C131.227 144.767 131.412 145.02 131.662 145.195C131.928 145.363 132.24 145.444 132.554 145.425H133.554H135.633L151.554 145.504L178.51 145.669L196.682 145.813L201.625 145.871H196.682H178.51L151.54 145.842L135.619 145.785H132.49C132.101 145.808 131.714 145.704 131.389 145.49C131.062 145.263 130.823 144.93 130.713 144.547C130.648 144.182 130.629 143.809 130.655 143.439C130.655 142.72 130.655 142 130.655 141.281C130.655 139.842 130.655 138.403 130.655 136.965C130.655 136.245 130.655 135.526 130.655 134.806C130.708 134.395 130.908 134.017 131.219 133.743C131.531 133.469 131.931 133.317 132.346 133.317L192.308 133.648L202.661 133.727C203.046 133.704 203.433 133.73 203.812 133.806C204.185 133.929 204.501 134.185 204.696 134.526C204.883 134.843 204.963 135.21 204.927 135.576C204.927 135.914 204.927 136.245 204.927 136.576C204.927 137.878 204.927 139.072 204.927 140.173C204.927 141.274 204.927 142.202 204.927 143.051C204.927 143.461 204.927 143.842 204.927 144.195C204.953 144.516 204.901 144.84 204.776 145.137C204.682 145.336 204.547 145.512 204.38 145.653C204.212 145.795 204.016 145.898 203.804 145.957C203.647 145.97 203.489 145.956 203.337 145.914Z" fill="#E0E0E0"/>
<path d="M149.298 157.387L130.796 157.303L130.78 160.698L149.283 160.782L149.298 157.387Z" fill="#E9C33D"/>
<path opacity="0.1" d="M149.298 157.387L130.796 157.303L130.78 160.698L149.283 160.782L149.298 157.387Z" fill="black"/>
<path d="M203.193 178.223C203.338 178.205 203.482 178.179 203.625 178.143C203.825 178.08 204.009 177.974 204.165 177.834C204.321 177.694 204.446 177.522 204.531 177.33C204.644 177.04 204.688 176.727 204.66 176.417C204.66 176.064 204.66 175.697 204.66 175.273C204.66 174.446 204.66 173.489 204.66 172.395V167.827C204.695 167.496 204.622 167.163 204.452 166.877C204.27 166.59 203.992 166.376 203.668 166.273C203.31 166.207 202.945 166.185 202.581 166.208H192.229L132.267 165.985C131.944 165.986 131.633 166.104 131.391 166.317C131.148 166.53 130.992 166.824 130.95 167.144C130.95 167.863 130.95 168.582 130.95 169.302C130.95 170.741 130.95 172.18 130.95 173.618C130.95 174.338 130.95 175.057 130.95 175.777C130.923 176.11 130.938 176.446 130.993 176.777C131.079 177.07 131.265 177.324 131.518 177.496C131.783 177.668 132.096 177.749 132.411 177.726H135.54L151.46 177.812L178.417 177.978L196.589 178.122L201.531 178.179H196.589H178.417L151.46 178.1L135.54 178.035H132.411C132.021 178.062 131.634 177.958 131.31 177.741C130.982 177.514 130.744 177.181 130.634 176.798C130.569 176.433 130.55 176.06 130.576 175.69C130.576 174.971 130.576 174.251 130.576 173.532C130.576 172.093 130.576 170.654 130.576 169.216C130.576 168.496 130.576 167.777 130.576 167.021C130.627 166.611 130.826 166.233 131.136 165.958C131.446 165.684 131.846 165.533 132.259 165.532L192.222 165.863L202.574 165.942C202.96 165.919 203.347 165.945 203.725 166.021C204.099 166.144 204.414 166.4 204.61 166.741C204.796 167.058 204.877 167.425 204.84 167.791C204.84 168.129 204.84 168.467 204.84 168.791C204.84 170.093 204.84 171.287 204.84 172.388C204.84 173.489 204.84 174.417 204.84 175.266C204.84 175.676 204.84 176.057 204.84 176.41C204.868 176.731 204.816 177.055 204.689 177.352C204.596 177.551 204.461 177.727 204.293 177.868C204.126 178.01 203.929 178.113 203.718 178.172C203.549 178.23 203.369 178.247 203.193 178.223Z" fill="#E0E0E0"/>
<path d="M169.737 138.192L135.897 138.039L135.883 141.211L169.723 141.365L169.737 138.192Z" fill="#E9C33D"/>
<path opacity="0.2" d="M169.737 138.192L135.897 138.039L135.883 141.211L169.723 141.365L169.737 138.192Z" fill="white"/>
<path d="M138.957 172.352C138.936 172.642 138.83 172.918 138.653 173.148C138.476 173.378 138.235 173.551 137.961 173.645C137.687 173.739 137.39 173.751 137.11 173.679C136.829 173.606 136.575 173.453 136.38 173.238C136.186 173.023 136.058 172.755 136.014 172.469C135.97 172.182 136.011 171.888 136.133 171.625C136.254 171.361 136.45 171.139 136.696 170.986C136.942 170.832 137.228 170.755 137.518 170.762C137.919 170.785 138.295 170.964 138.564 171.262C138.834 171.559 138.975 171.951 138.957 172.352Z" fill="#E9C33D"/>
<path d="M143.54 172.374C143.554 172.577 143.526 172.78 143.458 172.972C143.39 173.163 143.284 173.339 143.145 173.488C143.006 173.636 142.839 173.755 142.652 173.836C142.466 173.917 142.265 173.959 142.061 173.959C141.858 173.959 141.657 173.917 141.47 173.836C141.284 173.755 141.116 173.636 140.978 173.488C140.839 173.339 140.732 173.163 140.664 172.972C140.597 172.78 140.569 172.577 140.583 172.374C140.569 172.171 140.597 171.967 140.664 171.776C140.732 171.584 140.839 171.408 140.978 171.26C141.116 171.111 141.284 170.993 141.47 170.911C141.657 170.83 141.858 170.789 142.061 170.789C142.265 170.789 142.466 170.83 142.652 170.911C142.839 170.993 143.006 171.111 143.145 171.26C143.284 171.408 143.39 171.584 143.458 171.776C143.526 171.967 143.554 172.171 143.54 172.374Z" fill="#E9C33D"/>
<path d="M148.13 172.395C148.108 172.685 148.003 172.961 147.826 173.191C147.648 173.421 147.408 173.594 147.133 173.688C146.859 173.783 146.563 173.794 146.282 173.722C146.001 173.65 145.747 173.496 145.553 173.281C145.358 173.066 145.231 172.799 145.187 172.512C145.143 172.225 145.184 171.932 145.305 171.668C145.426 171.404 145.622 171.182 145.868 171.029C146.115 170.875 146.401 170.798 146.691 170.805C147.091 170.83 147.466 171.01 147.735 171.307C148.004 171.604 148.145 171.995 148.13 172.395Z" fill="#E9C33D"/>
<path d="M152.712 172.417C152.691 172.706 152.585 172.983 152.408 173.213C152.231 173.443 151.99 173.616 151.716 173.71C151.442 173.804 151.146 173.816 150.865 173.744C150.584 173.671 150.33 173.518 150.135 173.303C149.941 173.088 149.813 172.82 149.769 172.533C149.725 172.247 149.766 171.953 149.888 171.69C150.009 171.426 150.205 171.204 150.451 171.05C150.697 170.897 150.983 170.819 151.273 170.827C151.673 170.851 152.048 171.031 152.317 171.328C152.586 171.626 152.728 172.016 152.712 172.417Z" fill="#E9C33D"/>
<path d="M157.295 172.431C157.275 172.721 157.17 172.999 156.994 173.23C156.818 173.46 156.577 173.634 156.303 173.73C156.029 173.825 155.732 173.838 155.451 173.766C155.169 173.695 154.915 173.542 154.72 173.327C154.524 173.112 154.396 172.844 154.352 172.557C154.307 172.27 154.348 171.976 154.469 171.712C154.59 171.448 154.786 171.226 155.033 171.072C155.279 170.919 155.566 170.841 155.856 170.849C156.255 170.873 156.628 171.052 156.897 171.347C157.166 171.643 157.309 172.032 157.295 172.431Z" fill="#E9C33D"/>
<path d="M161.885 172.453C161.865 172.741 161.761 173.017 161.587 173.248C161.412 173.478 161.174 173.652 160.902 173.749C160.629 173.845 160.335 173.86 160.054 173.792C159.773 173.723 159.519 173.574 159.322 173.362C159.125 173.151 158.994 172.887 158.945 172.602C158.897 172.317 158.932 172.024 159.048 171.759C159.163 171.494 159.354 171.269 159.596 171.111C159.838 170.953 160.121 170.869 160.41 170.87C160.815 170.885 161.198 171.06 161.474 171.357C161.751 171.654 161.898 172.048 161.885 172.453Z" fill="#E9C33D"/>
<path d="M166.467 172.474C166.481 172.677 166.454 172.881 166.386 173.072C166.318 173.264 166.211 173.44 166.073 173.588C165.934 173.737 165.766 173.856 165.58 173.937C165.393 174.018 165.192 174.06 164.989 174.06C164.786 174.06 164.584 174.018 164.398 173.937C164.211 173.856 164.044 173.737 163.905 173.588C163.766 173.44 163.66 173.264 163.592 173.072C163.524 172.881 163.496 172.677 163.51 172.474C163.496 172.272 163.524 172.068 163.592 171.876C163.66 171.685 163.766 171.509 163.905 171.361C164.044 171.212 164.211 171.093 164.398 171.012C164.584 170.931 164.786 170.889 164.989 170.889C165.192 170.889 165.393 170.931 165.58 171.012C165.766 171.093 165.934 171.212 166.073 171.361C166.211 171.509 166.318 171.685 166.386 171.876C166.454 172.068 166.481 172.272 166.467 172.474Z" fill="#E9C33D"/>
<path d="M171.05 172.496C171.03 172.784 170.927 173.061 170.752 173.291C170.577 173.521 170.339 173.695 170.067 173.792C169.795 173.889 169.5 173.904 169.219 173.835C168.939 173.766 168.684 173.617 168.487 173.406C168.29 173.194 168.159 172.93 168.11 172.645C168.062 172.36 168.097 172.067 168.213 171.802C168.329 171.538 168.519 171.312 168.761 171.154C169.003 170.996 169.286 170.913 169.575 170.913C169.98 170.928 170.363 171.103 170.639 171.4C170.916 171.697 171.063 172.091 171.05 172.496Z" fill="#E9C33D"/>
<path d="M175.632 172.518C175.613 172.807 175.508 173.085 175.332 173.316C175.155 173.547 174.915 173.721 174.641 173.816C174.366 173.912 174.07 173.924 173.789 173.853C173.507 173.781 173.253 173.628 173.057 173.413C172.862 173.198 172.734 172.931 172.689 172.644C172.645 172.357 172.686 172.063 172.807 171.799C172.928 171.535 173.124 171.312 173.37 171.158C173.617 171.005 173.903 170.927 174.194 170.935C174.592 170.959 174.966 171.138 175.235 171.434C175.504 171.729 175.646 172.118 175.632 172.518Z" fill="#E9C33D"/>
<g opacity="0.2">
<path d="M138.957 172.352C138.936 172.642 138.83 172.918 138.653 173.148C138.476 173.378 138.235 173.551 137.961 173.645C137.687 173.739 137.39 173.751 137.11 173.679C136.829 173.606 136.575 173.453 136.38 173.238C136.186 173.023 136.058 172.755 136.014 172.469C135.97 172.182 136.011 171.888 136.133 171.625C136.254 171.361 136.45 171.139 136.696 170.986C136.942 170.832 137.228 170.755 137.518 170.762C137.919 170.785 138.295 170.964 138.564 171.262C138.834 171.559 138.975 171.951 138.957 172.352Z" fill="white"/>
<path d="M143.54 172.374C143.554 172.577 143.526 172.78 143.458 172.972C143.39 173.163 143.284 173.339 143.145 173.488C143.006 173.636 142.839 173.755 142.652 173.836C142.466 173.917 142.265 173.959 142.061 173.959C141.858 173.959 141.657 173.917 141.47 173.836C141.284 173.755 141.116 173.636 140.978 173.488C140.839 173.339 140.732 173.163 140.664 172.972C140.596 172.78 140.569 172.577 140.583 172.374C140.569 172.171 140.596 171.967 140.664 171.776C140.732 171.584 140.839 171.408 140.978 171.26C141.116 171.111 141.284 170.993 141.47 170.911C141.657 170.83 141.858 170.789 142.061 170.789C142.265 170.789 142.466 170.83 142.652 170.911C142.839 170.993 143.006 171.111 143.145 171.26C143.284 171.408 143.39 171.584 143.458 171.776C143.526 171.967 143.554 172.171 143.54 172.374Z" fill="white"/>
<path d="M148.13 172.395C148.108 172.685 148.003 172.961 147.825 173.191C147.648 173.421 147.408 173.594 147.133 173.688C146.859 173.783 146.563 173.794 146.282 173.722C146.001 173.65 145.747 173.496 145.553 173.281C145.358 173.066 145.231 172.799 145.187 172.512C145.143 172.225 145.184 171.932 145.305 171.668C145.426 171.404 145.622 171.182 145.868 171.029C146.115 170.875 146.401 170.798 146.691 170.805C147.091 170.83 147.466 171.01 147.735 171.307C148.003 171.604 148.145 171.995 148.13 172.395Z" fill="white"/>
<path d="M152.712 172.417C152.691 172.706 152.585 172.983 152.408 173.213C152.231 173.443 151.99 173.616 151.716 173.71C151.442 173.804 151.146 173.816 150.865 173.744C150.584 173.671 150.33 173.518 150.135 173.303C149.941 173.088 149.813 172.82 149.769 172.533C149.725 172.247 149.766 171.953 149.888 171.689C150.009 171.426 150.205 171.204 150.451 171.05C150.697 170.897 150.983 170.819 151.273 170.827C151.673 170.851 152.048 171.031 152.317 171.328C152.586 171.626 152.728 172.016 152.712 172.417Z" fill="white"/>
<path d="M157.295 172.431C157.275 172.721 157.17 172.999 156.994 173.23C156.818 173.46 156.577 173.634 156.303 173.73C156.029 173.825 155.732 173.838 155.451 173.766C155.169 173.695 154.915 173.542 154.72 173.327C154.524 173.112 154.396 172.844 154.352 172.557C154.307 172.27 154.348 171.976 154.469 171.712C154.59 171.448 154.786 171.226 155.033 171.072C155.279 170.919 155.566 170.841 155.856 170.849C156.255 170.873 156.628 171.052 156.897 171.347C157.166 171.643 157.309 172.032 157.295 172.431Z" fill="white"/>
<path d="M161.885 172.453C161.865 172.741 161.761 173.017 161.587 173.248C161.412 173.478 161.174 173.652 160.902 173.749C160.629 173.845 160.335 173.86 160.054 173.792C159.773 173.723 159.519 173.574 159.322 173.362C159.125 173.151 158.994 172.887 158.945 172.602C158.896 172.317 158.932 172.024 159.048 171.759C159.163 171.494 159.354 171.269 159.596 171.111C159.838 170.953 160.121 170.869 160.41 170.87C160.815 170.885 161.198 171.06 161.474 171.357C161.751 171.653 161.898 172.048 161.885 172.453Z" fill="white"/>
<path d="M166.467 172.474C166.481 172.677 166.454 172.881 166.386 173.072C166.318 173.264 166.211 173.44 166.073 173.588C165.934 173.737 165.766 173.856 165.58 173.937C165.393 174.018 165.192 174.06 164.989 174.06C164.785 174.06 164.584 174.018 164.398 173.937C164.211 173.856 164.044 173.737 163.905 173.588C163.766 173.44 163.66 173.264 163.592 173.072C163.524 172.881 163.496 172.677 163.51 172.474C163.496 172.272 163.524 172.068 163.592 171.876C163.66 171.685 163.766 171.509 163.905 171.36C164.044 171.212 164.211 171.093 164.398 171.012C164.584 170.931 164.785 170.889 164.989 170.889C165.192 170.889 165.393 170.931 165.58 171.012C165.766 171.093 165.934 171.212 166.073 171.36C166.211 171.509 166.318 171.685 166.386 171.876C166.454 172.068 166.481 172.272 166.467 172.474Z" fill="white"/>
<path d="M171.05 172.496C171.03 172.784 170.927 173.061 170.752 173.291C170.577 173.521 170.339 173.695 170.067 173.792C169.795 173.889 169.5 173.904 169.219 173.835C168.939 173.766 168.684 173.617 168.487 173.406C168.29 173.194 168.159 172.93 168.11 172.645C168.062 172.36 168.097 172.067 168.213 171.802C168.329 171.538 168.519 171.312 168.761 171.154C169.003 170.996 169.286 170.913 169.575 170.913C169.98 170.928 170.363 171.103 170.639 171.4C170.916 171.697 171.063 172.091 171.05 172.496Z" fill="white"/>
<path d="M175.632 172.518C175.613 172.807 175.508 173.085 175.332 173.316C175.155 173.547 174.915 173.721 174.641 173.816C174.366 173.912 174.07 173.924 173.789 173.853C173.507 173.781 173.253 173.628 173.057 173.413C172.862 173.198 172.734 172.931 172.689 172.644C172.645 172.357 172.686 172.063 172.807 171.799C172.928 171.535 173.124 171.312 173.37 171.158C173.617 171.005 173.903 170.927 174.194 170.935C174.592 170.959 174.966 171.138 175.235 171.434C175.504 171.729 175.646 172.118 175.632 172.518Z" fill="white"/>
</g>
<path d="M169.122 68.6641C169.622 68.4441 170.046 68.0819 170.341 67.6227C170.637 67.1635 170.79 66.6275 170.784 66.0815C170.802 65.7265 170.748 65.3715 170.625 65.038C170.502 64.7045 170.313 64.3996 170.068 64.1418C169.823 63.8839 169.529 63.6786 169.202 63.5383C168.876 63.398 168.524 63.3256 168.169 63.3256C167.813 63.3256 167.461 63.398 167.135 63.5383C166.808 63.6786 166.514 63.8839 166.269 64.1418C166.024 64.3996 165.835 64.7045 165.712 65.038C165.589 65.3715 165.535 65.7265 165.554 66.0815C165.543 66.633 165.695 67.1753 165.992 67.6401C166.289 68.1049 166.717 68.4712 167.223 68.6929C163.194 69.2972 163.374 73.6712 163.374 73.6712L172.899 73.7144C172.899 73.7144 173.122 69.2612 169.122 68.6641Z" fill="#E9C33D"/>
<path opacity="0.1" d="M169.122 68.6641C169.622 68.4441 170.046 68.0819 170.341 67.6227C170.637 67.1635 170.79 66.6275 170.784 66.0815C170.802 65.7265 170.748 65.3715 170.625 65.038C170.502 64.7045 170.313 64.3996 170.068 64.1418C169.823 63.8839 169.529 63.6786 169.202 63.5383C168.876 63.398 168.524 63.3256 168.169 63.3256C167.813 63.3256 167.461 63.398 167.135 63.5383C166.808 63.6786 166.514 63.8839 166.269 64.1418C166.024 64.3996 165.835 64.7045 165.712 65.038C165.589 65.3715 165.535 65.7265 165.554 66.0815C165.543 66.633 165.695 67.1753 165.992 67.6401C166.289 68.1049 166.717 68.4712 167.223 68.6929C163.194 69.2972 163.374 73.6712 163.374 73.6712L172.899 73.7144C172.899 73.7144 173.122 69.2612 169.122 68.6641Z" fill="black"/>
<path d="M184.599 76.5355L150.651 76.3814L150.633 80.4388L184.581 80.5929L184.599 76.5355Z" fill="#E9C33D"/>
<path opacity="0.2" d="M184.599 76.5355L150.651 76.3814L150.633 80.4388L184.581 80.5929L184.599 76.5355Z" fill="white"/>
<path d="M59.7936 97.5627H59.4555L58.4771 97.6347C57.9476 97.6665 57.4211 97.7362 56.9016 97.8433C56.5651 97.8906 56.2314 97.9554 55.9017 98.0375L54.7866 98.3469C52.8887 98.9292 51.098 99.816 49.4845 100.973C47.3529 102.52 45.5729 104.501 44.2617 106.786C43.491 108.102 42.8777 109.505 42.4344 110.965C41.9685 112.552 41.7003 114.19 41.6358 115.843C41.593 116.711 41.6074 117.581 41.679 118.447C41.679 118.886 41.8013 119.325 41.8588 119.771C41.9073 120.22 41.9914 120.665 42.1106 121.102C42.7575 123.989 44.0701 126.684 45.9437 128.974C47.8173 131.263 50.2 133.083 52.9017 134.288C54.8571 135.132 56.953 135.603 59.0814 135.677C61.2797 135.798 63.4802 135.482 65.5561 134.749L66.1892 134.511H66.2755L66.3474 134.555L75.4191 139.159L75.153 139.389C74.1818 136.382 73.2465 133.468 72.3401 130.67V130.562L72.4192 130.483C74.6199 128.266 76.2535 125.552 77.1817 122.569C78.0223 119.843 78.2677 116.967 77.9011 114.138C77.575 111.623 76.7665 109.195 75.5199 106.987C74.4453 105.09 73.059 103.388 71.4192 101.951C70.0664 100.814 68.569 99.8609 66.9661 99.1167C65.7533 98.5936 64.4902 98.1958 63.1964 97.9296L61.7576 97.6922L60.7145 97.6131L60.0814 97.5699H59.8656C59.9373 97.562 60.0097 97.562 60.0814 97.5699H60.7217L61.7648 97.6131L63.2036 97.8217C64.5135 98.0684 65.7938 98.4518 67.0237 98.9656C68.6541 99.701 70.1785 100.652 71.5559 101.793C73.2259 103.223 74.6415 104.926 75.7429 106.829C77.0249 109.061 77.8582 111.522 78.1961 114.073C78.593 116.946 78.3648 119.872 77.527 122.648C76.5928 125.693 74.9339 128.465 72.6926 130.727L72.7358 130.54C73.6422 133.339 74.5846 136.252 75.563 139.252L75.6997 139.691L75.2896 139.483L66.2179 134.886H66.3762L65.7287 135.123C63.6129 135.867 61.3717 136.19 59.1318 136.073C56.9575 135.99 54.8178 135.502 52.8226 134.634C49.0167 133.004 45.8503 130.171 43.8084 126.569C42.8688 124.906 42.1826 123.112 41.7725 121.246C41.6602 120.798 41.5761 120.344 41.5207 119.886C41.4632 119.433 41.3696 118.987 41.3481 118.541C41.1534 115.981 41.4239 113.407 42.1466 110.944C42.601 109.464 43.2314 108.043 44.0243 106.714C45.3668 104.408 47.1838 102.415 49.3551 100.865C50.995 99.7051 52.8158 98.8251 54.7434 98.2606L55.8729 97.9728C56.2053 97.8957 56.5415 97.8357 56.88 97.7929C57.4049 97.6958 57.9364 97.638 58.4699 97.6203L59.4555 97.5843C59.5676 97.5692 59.6806 97.562 59.7936 97.5627Z" fill="#E9C33D"/>
<path d="M63.8942 114.339H62.5633L59.6857 110.296V107.642C59.6857 107.642 57.6282 107.512 57.8728 110.987C58.1174 114.462 57.8728 113.577 57.8728 113.577C57.8728 113.577 53.506 113.577 53.1463 113.972C52.7866 114.368 52.765 118.584 52.7146 120.936C52.6871 121.503 52.8498 122.063 53.177 122.527C53.5041 122.991 53.977 123.333 54.5204 123.497C54.6727 123.54 54.8299 123.561 54.988 123.562C56.0815 123.562 61.6425 122.677 61.6425 122.677H63.9374L63.8942 114.339Z" fill="#E9C33D"/>
<path d="M67.6999 113.627L66.8798 122.72H64.6064V113.814L67.6999 113.627Z" fill="#E9C33D"/>
<path d="M94.8143 298.752V292.601L83.7858 292.522L83.6923 301.824L84.3758 301.874C87.4188 302.068 99.8574 302.356 101.9 301.723C104.174 301.018 94.8143 298.752 94.8143 298.752Z" fill="#E9C33D"/>
<path d="M102.159 301.147C102.159 301.248 98.0301 301.334 92.9439 301.334C87.8577 301.334 83.7283 301.248 83.7283 301.147C83.7283 301.047 87.8577 300.96 92.9439 300.96C98.0301 300.96 102.159 301.047 102.159 301.147Z" fill="#263238"/>
<path d="M95.0086 300.011C94.915 299.96 95.0086 299.637 95.2316 299.291C95.4546 298.946 95.7567 298.802 95.8287 298.874C95.9006 298.946 95.7495 299.219 95.5337 299.514C95.3179 299.809 95.1021 300.061 95.0086 300.011Z" fill="#263238"/>
<path d="M95.7136 300.414C95.6129 300.414 95.6632 300.011 95.8791 299.629C96.0949 299.248 96.3826 299.018 96.4618 299.076C96.5409 299.133 96.4114 299.457 96.21 299.795C96.0086 300.133 95.8071 300.45 95.7136 300.414Z" fill="#263238"/>
<path d="M87.0519 301.119C87.0088 301.119 86.8433 300.989 86.6059 300.716C86.3161 300.364 85.9933 300.042 85.6419 299.752C85.2963 299.476 84.8847 299.295 84.4477 299.227C84.1096 299.183 83.8937 299.227 83.8722 299.183C83.8506 299.14 84.0592 298.989 84.4549 298.96C84.9771 298.949 85.4864 299.123 85.8937 299.45C86.2752 299.761 86.597 300.138 86.8433 300.565C87.0088 300.881 87.0951 301.09 87.0519 301.119Z" fill="#263238"/>
<path d="M95.0445 298.853C95.0949 298.939 94.9078 299.155 94.5913 299.27C94.2748 299.385 93.9942 299.342 93.9798 299.27C93.9654 299.198 94.1884 299.047 94.4618 298.946C94.7352 298.845 94.987 298.766 95.0445 298.853Z" fill="#263238"/>
<path d="M94.8719 298.255C94.8719 298.363 94.5841 298.45 94.21 298.457C93.8359 298.464 93.541 298.378 93.5482 298.277C93.5554 298.176 93.8503 298.083 94.21 298.076C94.5697 298.068 94.8575 298.155 94.8719 298.255Z" fill="#263238"/>
<path d="M121.972 298.752V292.601L110.943 292.522L110.85 301.73L111.533 301.781C114.576 301.975 127.022 302.356 129.058 301.723C131.331 301.018 121.972 298.752 121.972 298.752Z" fill="#E9C33D"/>
<path d="M129.317 301.162C129.317 301.263 125.195 301.349 120.101 301.349C115.008 301.349 110.893 301.263 110.893 301.162C110.893 301.061 115.015 300.975 120.101 300.975C125.188 300.975 129.317 301.061 129.317 301.162Z" fill="#263238"/>
<path d="M122.166 300.011C122.08 299.96 122.166 299.637 122.389 299.291C122.612 298.946 122.914 298.802 122.986 298.874C123.058 298.946 122.907 299.219 122.691 299.514C122.476 299.809 122.26 300.061 122.166 300.011Z" fill="#263238"/>
<path d="M122.871 300.414C122.778 300.414 122.821 300.011 123.044 299.629C123.267 299.248 123.547 299.018 123.627 299.076C123.706 299.133 123.569 299.457 123.368 299.795C123.166 300.133 122.972 300.45 122.871 300.414Z" fill="#263238"/>
<path d="M114.209 301.119C114.166 301.119 114.008 300.989 113.763 300.716C113.474 300.364 113.151 300.042 112.799 299.752C112.454 299.476 112.042 299.295 111.605 299.227C111.274 299.183 111.051 299.227 111.03 299.183C111.008 299.14 111.217 298.989 111.612 298.96C112.135 298.949 112.644 299.123 113.051 299.45C113.435 299.759 113.757 300.137 114.001 300.565C114.166 300.881 114.253 301.09 114.209 301.119Z" fill="#263238"/>
<path d="M122.202 298.853C122.253 298.939 122.065 299.155 121.749 299.27C121.432 299.385 121.152 299.342 121.137 299.27C121.123 299.198 121.346 299.047 121.619 298.946C121.893 298.845 122.145 298.766 122.202 298.853Z" fill="#263238"/>
<path d="M122.044 298.255C122.044 298.363 121.756 298.45 121.382 298.457C121.008 298.464 120.72 298.378 120.727 298.277C120.735 298.176 121.022 298.083 121.382 298.076C121.742 298.068 122.044 298.155 122.044 298.255Z" fill="#263238"/>
<path d="M162.604 116.095C162.316 115.8 161.604 115.944 161.604 115.944C161.675 115.529 161.675 115.106 161.604 114.692C161.474 114.289 160.568 114.368 160.568 114.368C160.526 114.029 160.526 113.686 160.568 113.346C160.575 113.271 160.559 113.196 160.522 113.13C160.484 113.064 160.428 113.012 160.359 112.98C159.931 112.805 159.47 112.721 159.007 112.735C158.453 112.339 160.698 109.195 161.532 108.188C162.367 107.181 162.215 106.397 161.474 106.397C160.964 106.397 158.345 109.419 157.539 110.433C156.734 111.447 154.597 114.267 154.525 112.016C154.453 109.764 153.547 108.066 152.978 107.778C152.41 107.49 151.806 108.167 152.115 108.793C152.387 109.504 152.556 110.25 152.619 111.008C152.697 111.613 152.67 112.226 152.539 112.821C152.301 113.929 151.976 115.016 151.568 116.073H151.511C151.511 116.073 135.813 131.13 134.677 132.202C133.662 133.166 113.26 131.058 109.166 130.627C107.775 130.423 106.371 130.327 104.965 130.339C103.188 130.418 102.872 130.67 101.102 130.691C96.6326 130.741 92.1736 131.133 87.7641 131.864C85.7675 132.203 83.9025 133.085 82.3725 134.412C80.8426 135.739 79.7064 137.46 79.0881 139.389C74.9659 152.266 65.628 182.748 63.9806 199.869C62.7357 202.127 61.6118 204.449 60.6137 206.826C59.4555 209.977 59.7361 210.085 60.1246 210.157C61.1749 210.351 62.3691 204.697 62.8151 206.064C63.2612 207.43 60.549 212.804 61.6497 212.963C63.0885 213.164 64.2324 207.207 64.3691 206.733C64.5057 206.258 65.2179 206.409 65.0885 206.855C64.8798 207.488 62.8583 214.2 64.2683 214.416C65.0453 214.531 65.1316 213.114 65.1316 213.114C65.1316 213.114 66.5704 206.689 67.2251 206.819C67.8798 206.948 67.1819 210.74 66.851 212.006C66.5201 213.272 66.9805 213.912 67.6567 213.603C68.1172 213.387 69.2179 209.538 69.52 208.286C69.8222 207.035 70.5775 203.567 71.5919 205.574C72.6062 207.581 74.1458 208.747 74.7789 208.776C74.9215 208.759 75.056 208.7 75.165 208.607C75.2739 208.513 75.3524 208.389 75.3903 208.251C75.4283 208.112 75.4239 207.966 75.3777 207.83C75.3315 207.694 75.2457 207.575 75.1314 207.488C74.5868 206.956 74.1195 206.351 73.7429 205.689C73.4073 205.174 73.1639 204.605 73.0235 204.006C72.7336 202.813 72.5649 201.593 72.5199 200.366L72.4048 199.646C74.0163 191.668 78.6565 168.252 85.3541 153.295L88.1023 158.95L89.2965 163.137L81.9729 181.215L113.21 180.805L108.548 162.863L114.21 144.159C120.332 144.295 136.051 144.526 138.669 143.339C141.964 141.9 159.007 120.375 159.007 120.375C160.118 119.512 161.182 118.59 162.194 117.613C162.194 117.613 163.23 116.742 162.604 116.095Z" fill="#FFBE9D"/>
<path d="M80.5989 167.856C81.5053 164.762 86.1599 149.468 86.1599 149.468C86.1599 149.468 88.4476 161.935 87.8433 163.439C87.2874 164.726 86.6307 165.967 85.8793 167.151C80.5989 175.187 81.2895 179.208 81.2895 179.208L113.195 178.237C113.267 173.777 110.627 163.403 110.08 161.748C109.533 160.094 111.353 154.676 111.353 154.676C111.353 154.676 114.951 151.015 114.821 149.13C114.753 147.437 114.543 145.752 114.195 144.094L133.619 144.813L133.008 131.648L105.109 128.857C104.138 131.598 95.3539 130.253 95.3539 130.253C85.8721 130.569 85.2822 132.31 81.3399 135.375C77.3975 138.439 70.8725 164.741 70.8725 164.741L80.5989 167.856Z" fill="#E9C33D"/>
<path d="M99.4617 164.741C98.9088 164.84 98.3456 164.869 97.7855 164.827C96.7423 164.827 95.3107 164.755 93.7352 164.597C92.1597 164.439 90.7353 164.216 89.7209 164.014C89.1616 163.942 88.6132 163.802 88.0879 163.597C88.6503 163.597 89.2115 163.65 89.7641 163.755C90.7857 163.885 92.2029 164.065 93.7712 164.223C95.3395 164.381 96.7639 164.489 97.7927 164.561C98.3534 164.568 98.9123 164.628 99.4617 164.741Z" fill="#263238"/>
<path d="M101.649 162.029C101.096 162.3 100.511 162.5 99.9077 162.626C97.0375 163.38 94.0764 163.731 91.1094 163.669C90.4954 163.689 89.8814 163.631 89.2821 163.496C89.888 163.42 90.4988 163.389 91.1094 163.403C92.2389 163.367 93.7928 163.288 95.505 163.086C97.2172 162.885 98.7423 162.597 99.8214 162.367C100.421 162.207 101.032 162.094 101.649 162.029Z" fill="#263238"/>
<path d="M112.382 149.928C112.368 150.477 112.293 151.022 112.159 151.554C111.972 152.554 111.684 153.921 111.318 155.417C110.951 156.914 110.598 158.295 110.282 159.23C110.154 159.766 109.966 160.285 109.72 160.777C109.761 160.23 109.862 159.69 110.023 159.165C110.296 158.043 110.605 156.748 110.951 155.331C111.296 153.914 111.627 152.619 111.9 151.497C111.998 150.956 112.159 150.43 112.382 149.928Z" fill="#263238"/>
<path d="M80.937 166.021C79.2727 165.764 77.6302 165.382 76.0234 164.878C74.3817 164.494 72.7706 163.989 71.2034 163.367C72.8669 163.628 74.5091 164.01 76.117 164.511C77.7591 164.893 79.3703 165.398 80.937 166.021Z" fill="#263238"/>
<path d="M114.54 143.936C114.269 143.982 113.992 143.982 113.72 143.936C112.969 143.859 112.231 143.682 111.526 143.41C110.349 142.968 109.278 142.285 108.381 141.404C107.484 140.523 106.781 139.464 106.318 138.295C105.805 137.01 105.587 135.626 105.677 134.245C105.709 133.106 106.05 131.997 106.663 131.037C107.094 130.39 107.738 129.914 108.483 129.691C108.682 129.636 108.888 129.61 109.095 129.612C109.238 129.612 109.31 129.612 109.31 129.612C109.31 129.612 109.008 129.612 108.526 129.806C107.843 130.059 107.263 130.532 106.879 131.152C105.9 132.691 105.627 135.504 106.67 138.13C107.156 139.368 107.916 140.48 108.893 141.382C109.694 142.12 110.616 142.714 111.62 143.137C112.561 143.509 113.541 143.777 114.54 143.936Z" fill="#263238"/>
<path d="M131.31 144.554C131.13 142.348 131.072 140.134 131.137 137.921C131.081 135.711 131.148 133.499 131.339 131.296C131.519 133.499 131.576 135.711 131.511 137.921C131.572 140.134 131.504 142.349 131.31 144.554Z" fill="#263238"/>
<path d="M104.922 129.663C105.001 128.058 105.167 126.245 105.167 126.245C105.167 126.245 109.138 125.807 109.375 121.706C109.613 117.605 109.375 108.145 109.375 108.145L102.181 104.462L94.1956 110.742L95.4258 131.245L102.749 131.713C103.309 131.728 103.852 131.521 104.26 131.137C104.667 130.753 104.905 130.222 104.922 129.663Z" fill="#FFBE9D"/>
<path d="M105.634 118.461C105.634 118.461 105.634 118.541 105.569 118.634C105.516 118.702 105.447 118.756 105.368 118.791C105.289 118.826 105.202 118.841 105.116 118.836C104.656 118.836 104.21 118.303 104.052 117.684C103.976 117.385 103.976 117.071 104.052 116.771C104.066 116.64 104.113 116.515 104.189 116.407C104.264 116.299 104.365 116.211 104.483 116.152C104.58 116.112 104.689 116.112 104.785 116.152C104.857 116.188 104.915 116.246 104.951 116.318C105.001 116.44 104.951 116.519 104.951 116.512C104.951 116.505 104.951 116.44 104.879 116.368C104.841 116.316 104.786 116.281 104.724 116.267C104.661 116.254 104.596 116.264 104.541 116.296C104.452 116.349 104.379 116.424 104.328 116.514C104.276 116.603 104.248 116.704 104.246 116.807C104.185 117.074 104.185 117.352 104.246 117.62C104.39 118.181 104.778 118.634 105.123 118.677C105.191 118.686 105.26 118.682 105.325 118.663C105.391 118.644 105.452 118.613 105.505 118.569C105.591 118.512 105.62 118.454 105.634 118.461Z" fill="#EB996E"/>
<path d="M111.843 105.929C111.289 104.045 109.282 103.109 107.454 102.591C104.67 101.8 101.663 101.455 98.9437 102.455C96.2244 103.455 92.9583 105.21 92.9583 108.21C91.354 108.08 90.4331 109.483 89.8001 111.224C89.3953 112.285 89.1528 113.401 89.0807 114.534C88.8792 118.461 87.7785 123.886 85.2318 126.763C83.793 128.368 81.8003 129.476 80.9802 131.476C80.2607 133.209 80.6348 135.267 79.9658 137.022C79.3687 138.569 78.0522 139.67 77.0882 141.015C76.106 142.541 75.5281 144.292 75.4085 146.103C75.289 147.914 75.6318 149.725 76.4047 151.367C77.1832 152.967 78.2793 154.392 79.6262 155.554C80.9731 156.717 82.5426 157.593 84.2391 158.13C87.5994 159.152 91.1829 159.187 94.5625 158.23C97.099 157.624 99.4651 156.451 101.483 154.799C103.548 153.112 104.966 150.764 105.498 148.151C106.008 145.216 105.188 142.231 104.577 139.31C102.663 130.08 103.21 129.598 105.627 121.03C105.685 120.879 105.713 120.72 105.757 120.569C105.8 120.418 105.821 120.346 105.85 120.231C105.919 119.893 105.955 119.548 105.958 119.202C105.605 119.334 105.222 119.362 104.853 119.283C104.485 119.204 104.147 119.021 103.879 118.756C103.61 118.474 103.423 118.125 103.337 117.745C103.25 117.365 103.269 116.969 103.39 116.598C103.559 116.193 103.812 115.828 104.132 115.527C104.452 115.226 104.831 114.995 105.246 114.85C106.044 114.519 106.9 114.346 107.685 113.98C109.346 113.188 110.497 111.548 111.282 109.829C111.926 108.637 112.125 107.255 111.843 105.929Z" fill="#263238"/>
<path d="M105.922 118.656C106.074 118.88 106.2 119.122 106.296 119.375C106.512 119.828 106.8 120.469 107.116 121.21L107.174 121.346H107.023L106.303 121.411C105.807 121.411 105.39 121.505 104.9 121.497C104.858 121.488 104.818 121.468 104.786 121.439C104.753 121.41 104.728 121.373 104.713 121.332C104.692 121.266 104.692 121.196 104.713 121.13C104.73 121.034 104.752 120.937 104.778 120.843L104.908 120.332C104.973 119.991 105.074 119.658 105.21 119.339C105.196 119.687 105.146 120.031 105.059 120.368L104.958 120.879C104.922 121.051 104.857 121.318 104.958 121.296C105.318 121.296 105.828 121.217 106.303 121.188L107.023 121.123L106.929 121.282C106.62 120.562 106.361 119.886 106.21 119.418C106.077 119.179 105.98 118.923 105.922 118.656Z" fill="#E9C33D"/>
<path d="M81.2895 179.208L113.195 178.237L127.08 232.437L124.526 294.608H107.656L109.72 233.761L97.3826 196.028L99.2818 297.018L82.2319 297.27L80.4406 202.344C80.3615 199.704 79.4982 193.754 79.8219 191.136L81.2895 179.208Z" fill="#263238"/>
<path d="M101.627 196.798C101.105 196.831 100.581 196.799 100.066 196.704C99.102 196.589 97.7855 196.388 96.3395 196.1C94.8935 195.812 93.5985 195.481 92.6633 195.215C92.1634 195.105 91.6797 194.931 91.2245 194.697C91.2245 194.589 93.5697 195.15 96.4474 195.733C99.325 196.316 101.641 196.69 101.627 196.798Z" fill="#455A64"/>
<path d="M124.353 291.198C124.353 291.299 120.533 291.385 115.821 291.385C111.109 291.385 107.282 291.299 107.282 291.198C107.282 291.097 111.102 291.011 115.821 291.011C120.54 291.011 124.353 291.09 124.353 291.198Z" fill="#455A64"/>
<path d="M99.1308 294.392C99.1308 294.5 95.4186 294.579 90.8432 294.579C86.2678 294.579 82.5628 294.5 82.5628 294.392C82.5628 294.284 86.275 294.205 90.8432 294.205C95.4114 294.205 99.1308 294.291 99.1308 294.392Z" fill="#455A64"/>
<path d="M96.9294 294.133C96.8287 294.133 96.3826 272.069 95.9294 244.854C95.4762 217.639 95.21 195.56 95.3035 195.56C95.397 195.56 95.8575 217.617 96.3035 244.847C96.7495 272.076 97.0373 294.133 96.9294 294.133Z" fill="#455A64"/>
<path d="M122.087 291.198C122.079 291.1 122.079 291.001 122.087 290.903V290.04C122.087 289.263 122.145 288.148 122.188 286.731C122.288 283.853 122.432 279.673 122.612 274.551C123.001 264.249 123.547 250.048 124.145 234.372C124.145 234.221 124.145 234.077 124.145 233.948V233.998C120.368 218.891 116.95 205.179 114.468 195.258L111.591 183.525C111.26 182.151 111.008 181.079 110.828 180.33C110.742 179.978 110.684 179.705 110.634 179.496C110.606 179.402 110.589 179.306 110.584 179.208C110.621 179.299 110.65 179.393 110.67 179.489C110.728 179.69 110.8 179.964 110.9 180.309C111.094 181.028 111.375 182.122 111.735 183.489C112.454 186.265 113.469 190.265 114.735 195.193C117.238 205.107 120.691 218.783 124.519 233.912V233.962C124.519 234.092 124.519 234.243 124.519 234.387C123.878 250.062 123.296 264.256 122.871 274.558C122.648 279.688 122.461 283.839 122.332 286.731C122.26 288.169 122.202 289.263 122.166 290.04C122.166 290.407 122.123 290.695 122.116 290.903C122.117 291.002 122.107 291.101 122.087 291.198Z" fill="#455A64"/>
<path d="M116.584 232.682C115.372 233.08 114.124 233.357 112.857 233.509C111.303 233.775 109.979 233.962 109.382 233.991V233.847C109.577 233.905 109.677 233.941 109.677 233.969C109.677 233.998 109.555 233.969 109.354 233.969H108.922L109.354 233.84C109.915 233.674 111.238 233.401 112.792 233.12C114.039 232.85 115.308 232.703 116.584 232.682Z" fill="#455A64"/>
<path d="M116.289 234.746C115.166 234.798 114.042 234.747 112.929 234.595C111.805 234.572 110.686 234.449 109.584 234.228C111.832 234.045 114.095 234.22 116.289 234.746Z" fill="#455A64"/>
<path opacity="0.2" d="M81.1528 180.352C81.5307 180.837 82.0066 181.237 82.5495 181.526C83.0925 181.815 83.6902 181.986 84.3038 182.028C85.5888 182.18 86.8886 182.156 88.167 181.956C96.4042 181.043 105.131 180.201 113.195 178.237C102.757 178.82 91.7281 178.625 81.2895 179.208L81.1816 180.1" fill="black"/>
<g opacity="0.2">
<path d="M91.9079 195.064L97.7927 217.898L97.3826 196.028L91.9079 195.064Z" fill="black"/>
</g>
</svg>
