<svg width="308" height="303" viewBox="0 0 308 303" fill="none" xmlns="http://www.w3.org/2000/svg">
<path d="M234.09 239.737C234.09 239.737 264.778 216.427 273.602 176.758C282.426 137.089 268.937 88.9708 243.364 64.702C217.848 40.3733 171.76 56.7323 151.302 77.1061C130.844 97.4799 130.844 97.42 130.844 97.42C130.844 97.42 111.285 108.805 85.7123 107.847C60.1396 106.828 37.3208 144.04 31.307 173.282C25.2932 202.525 39.6814 241.235 39.6814 241.235L234.09 239.737Z" fill="#FFF9E1"/>
<path d="M248.09 245.474C248.09 245.474 269.487 233.379 275.047 205.332C280.607 177.285 256.458 151.634 254.155 137.611C251.853 123.587 256.963 106.175 235.566 92.6186C214.168 79.0626 176.091 83.9124 161.657 80.5234C147.224 77.1928 130.488 53.9957 101.677 59.3129C72.866 64.6302 44.9537 80.5818 43.6059 115.407C42.2018 150.232 52.9287 151.167 42.2018 170.04C31.5312 188.913 27.319 201.943 32.4297 221.284C37.5404 240.624 48.2111 245.942 48.2111 245.942L248.09 245.474Z" fill="#FDFFFD"/>
<path d="M210.697 233.236V191.394C210.697 191.394 211.146 180.105 205.25 176.847C199.298 173.59 174.366 175.331 174.366 175.331V233.18H210.697V233.236Z" fill="black"/>
<path d="M166.504 136.184C166.504 136.184 168.02 148.877 168.582 149.888C169.143 150.955 169.143 150.955 169.143 150.955L172.063 152.921C172.063 152.921 166.504 160.84 159.653 162.076C152.803 163.368 153.364 159.268 153.364 159.268L154.431 157.077L153.027 145.002C153.027 145.058 165.493 139.329 166.504 136.184Z" fill="#FF9D8C"/>
<path d="M175.713 153.988L171.165 152.022C171.165 152.022 168.245 156.796 161.506 159.548C154.768 162.3 154.656 160.727 154.319 159.548C153.982 158.369 154.431 157.133 154.431 157.133L153.926 153.089L151.23 153.988L141.909 229.641L165.943 230.821L175.713 153.988Z" fill="white"/>
<path d="M153.476 153.145C153.476 153.145 151.848 156.908 150.332 165.726C148.816 174.543 147.412 189.427 147.075 199.649C146.738 209.871 146.513 233.235 146.513 233.235C146.513 233.235 116.527 233.235 116.19 233.235C115.853 233.235 113.776 221.721 113.776 221.721C113.776 221.721 127.028 210.376 127.702 208.523C128.151 207.287 127.926 184.316 129.892 173.757C131.857 163.198 134.44 161.064 139.775 158.424C145.334 155.672 153.476 153.145 153.476 153.145Z" fill="#094404"/>
<path d="M137.697 219.925C137.866 219.925 137.978 219.813 137.978 219.645C137.978 218.802 138.146 207.008 138.259 195.606C138.427 184.205 138.54 172.41 138.54 171.568C138.54 171.399 138.427 171.287 138.259 171.287C138.09 171.287 137.978 171.399 137.978 171.568C137.978 172.41 137.81 184.205 137.697 195.606C137.529 207.008 137.416 218.802 137.416 219.645C137.416 219.813 137.529 219.925 137.697 219.925Z" fill="#8593B6"/>
<path d="M198.118 217.06L198.343 233.236H163.022C163.022 233.236 161.506 219.532 162.068 218.24C162.685 216.948 198.118 217.06 198.118 217.06Z" fill="#094404"/>
<path d="M158.811 149.551C157.351 150.731 155.386 151.629 153.869 152.191L153.027 145.002C153.027 145.002 162.349 140.733 165.549 137.532C164.876 141.183 163.247 146.013 158.811 149.551Z" fill="#8E9BBB"/>
<path d="M142.133 112.595C142.133 112.595 139.719 116.752 139.213 121.919C138.764 127.03 139.213 140.172 143.369 145.732C147.524 151.293 156.284 149.664 160.215 146.294C163.865 143.205 167.402 139.779 168.357 133.039C169.312 126.3 166.392 113.494 158.137 110.854C149.882 108.215 142.133 112.595 142.133 112.595Z" fill="#FF9D8C"/>
<path d="M131.633 225.934C131.633 225.934 132.026 225.934 132.643 225.934C132.812 225.934 132.98 225.934 133.093 225.934C133.71 225.934 134.44 225.878 135.17 225.878C135.339 225.878 135.507 225.878 135.676 225.878C136.406 225.878 137.023 225.934 137.641 225.934C137.753 225.934 137.922 225.934 138.09 225.934C138.146 225.934 138.203 225.934 138.259 225.934C138.596 225.878 138.652 225.822 139.045 225.654C139.494 225.429 145.896 224.025 151.118 224.025C156.284 224.025 160.945 224.418 161.731 223.744C162.517 223.126 162.966 216.555 158.53 216.162L153.083 218.24C153.083 218.24 140.673 216.78 136.069 220.15C131.52 223.463 131.633 225.934 131.633 225.934Z" fill="#FF9D8C"/>
<path d="M137.641 225.879C137.753 225.879 137.922 225.879 138.09 225.879C138.202 225.711 138.427 225.374 138.539 225.261C139.943 223.801 143.312 222.903 144.548 222.622C144.66 222.566 144.716 222.509 144.716 222.341C144.716 222.229 144.604 222.172 144.436 222.172C142.639 222.622 138.82 223.689 137.753 225.542C137.809 225.598 137.697 225.767 137.641 225.879Z" fill="#223A7A"/>
<path d="M135.226 225.878C135.395 225.878 135.563 225.878 135.732 225.878C137.248 223.07 139.775 222.284 142.863 221.273L143.032 221.217C143.144 221.161 143.2 221.048 143.144 220.936C143.088 220.824 142.976 220.767 142.863 220.824L142.695 220.88C139.438 221.891 136.799 222.733 135.226 225.878Z" fill="#223A7A"/>
<path d="M132.643 225.935C132.812 225.935 132.98 225.935 133.149 225.935C134.103 223.969 137.136 220.712 141.235 219.926C141.347 219.926 141.403 219.813 141.403 219.701C141.403 219.589 141.291 219.532 141.179 219.532C136.967 220.319 133.598 223.745 132.643 225.935Z" fill="#223A7A"/>
<path d="M165.606 127.31C165.606 127.31 163.023 126.074 161.226 122.648C159.429 119.222 159.653 116.133 159.653 116.133C159.653 116.133 156.396 115.628 151.511 117.088C146.626 118.548 140.842 120.514 135.957 117.706C131.071 114.898 131.071 110.461 133.486 108.607C136.181 106.529 141.46 107.821 141.46 107.821C141.46 107.821 139.438 105.855 140.505 104.676C141.628 103.496 145.615 105.013 145.615 105.013C145.615 105.013 150.5 101.137 159.71 101.587C168.919 102.036 173.355 108.495 173.86 115.684C174.366 122.873 171.783 130.118 171.783 130.118L165.606 127.31Z" fill="black"/>
<path d="M146.85 129.051C147.356 130.343 147.356 131.859 147.468 133.207C147.58 134.274 147.749 135.51 146.794 136.24C146.345 136.577 144.099 137.532 145.278 138.262C145.727 138.543 146.457 138.487 146.906 138.431C147.243 138.431 147.58 138.374 147.917 138.374C148.254 138.374 148.647 138.262 148.984 138.262C149.209 138.262 149.265 138.543 149.096 138.655C148.535 139.048 147.636 139.161 146.963 139.161C146.289 139.161 145.839 139.161 145.222 138.824C144.829 138.655 144.492 138.374 144.436 137.925C144.379 137.42 144.773 136.97 145.109 136.689C145.559 136.353 146.064 136.184 146.513 135.903C147.131 135.454 147.075 134.724 147.019 134.05C146.906 132.421 146.513 130.792 146.401 129.107C146.401 128.883 146.794 128.883 146.85 129.051Z" fill="#8E9BBB"/>
<path d="M142.077 132.926C142.246 133.881 142.976 134.611 143.65 134.499C144.38 134.386 144.773 133.488 144.604 132.477C144.436 131.522 143.706 130.792 143.032 130.904C142.358 131.073 141.909 131.971 142.077 132.926Z" fill="#223A7A"/>
<path d="M151.006 132.139C151.174 133.206 151.904 133.937 152.69 133.824C153.476 133.712 153.926 132.757 153.757 131.69C153.589 130.623 152.859 129.893 152.073 130.005C151.286 130.117 150.837 131.072 151.006 132.139Z" fill="#223A7A"/>
<path d="M144.155 128.884C143.593 128.996 143.088 128.884 142.526 128.94C142.414 128.94 142.246 128.996 142.133 128.996C142.021 128.996 142.302 128.996 142.189 128.996H142.133C142.077 128.996 142.021 128.996 141.909 129.052C141.796 129.108 141.684 129.108 141.572 129.165C141.459 129.165 141.347 129.221 141.235 129.221C141.179 129.221 141.122 129.221 141.066 129.221C141.122 129.221 141.122 129.221 141.179 129.221H140.954C140.617 129.165 140.449 128.771 140.561 128.491C140.561 128.378 140.617 128.322 140.673 128.266C140.673 128.21 140.729 128.21 140.729 128.154L140.673 128.21C140.673 128.154 140.729 128.154 140.729 128.097C140.786 128.041 140.786 127.985 140.842 127.985C140.898 127.929 140.954 127.929 140.954 127.873C141.122 127.76 141.291 127.704 141.459 127.648C141.796 127.592 142.133 127.536 142.47 127.536C142.807 127.536 143.144 127.592 143.481 127.592C143.762 127.648 144.099 127.704 144.323 127.929C144.492 128.041 144.604 128.266 144.604 128.491C144.548 128.659 144.379 128.884 144.155 128.884Z" fill="#223A7A"/>
<path d="M150.388 127.367C150.444 127.311 150.556 127.311 150.613 127.255C150.669 127.199 150.837 127.142 150.725 127.199C150.781 127.199 150.837 127.142 150.893 127.142C151.118 127.03 151.343 126.974 151.567 126.918C152.073 126.805 152.634 126.749 153.196 126.805C153.757 126.862 154.319 127.03 154.824 127.311C154.88 127.367 154.993 127.423 155.049 127.479C155.105 127.536 155.105 127.592 155.161 127.648C155.161 127.648 155.161 127.592 155.105 127.592C155.273 127.704 155.329 127.873 155.329 128.041C155.329 128.209 155.217 128.378 155.105 128.434C154.936 128.546 154.712 128.49 154.543 128.434C154.656 128.434 154.712 128.434 154.824 128.434C154.656 128.434 154.543 128.49 154.375 128.434C154.375 128.434 154.206 128.378 154.319 128.434C154.431 128.434 154.15 128.434 154.15 128.434C154.094 128.434 153.926 128.434 154.15 128.434C154.094 128.434 154.094 128.434 154.038 128.434C153.926 128.434 153.869 128.434 153.757 128.378C153.364 128.322 152.971 128.322 152.634 128.322C152.297 128.322 151.904 128.322 151.567 128.322C151.399 128.322 151.286 128.322 151.118 128.322C151.062 128.322 151.006 128.322 151.118 128.322C151.062 128.322 151.062 128.322 151.006 128.322C150.949 128.322 150.893 128.378 150.837 128.378C150.613 128.49 150.276 128.266 150.219 128.041C150.051 127.76 150.107 127.479 150.388 127.367Z" fill="#223A7A"/>
<path d="M147.58 143.486C147.075 142.419 146.064 141.632 144.941 141.127C145.896 141.015 150.5 140.621 151.68 141.239C152.971 141.969 151.455 144.946 148.76 145.115C148.479 145.115 148.198 145.115 147.973 145.058C147.973 144.553 147.861 143.991 147.58 143.486Z" fill="#223A7A"/>
<path d="M168.862 137.251C168.862 137.251 168.413 139.048 165.718 141.126C163.022 143.204 159.148 144.721 159.148 144.721L158.811 143.373C158.811 143.373 162.798 141.632 164.651 139.722C166.504 137.813 166.729 136.745 166.729 136.745L168.862 137.251Z" fill="#DEE1EB"/>
<path d="M158.362 142.418C156.228 142.305 154.992 143.99 154.88 145.114C154.712 146.237 155.779 147.473 158.193 146.349C161.169 145.001 160.552 142.53 158.362 142.418Z" fill="#223A7A"/>
<path d="M167.178 123.94C167.178 123.94 166.223 117.256 161.787 112.707C153.252 104.057 146.008 104.563 146.008 104.563C146.008 104.563 146.064 103.327 148.816 102.429C151.399 101.53 152.522 102.036 152.522 102.036C152.522 102.036 159.541 102.597 165.493 109.168C171.446 115.74 172.063 124.108 172.063 124.108L167.178 123.94Z" fill="#DEE1EB"/>
<path d="M167.796 123.154C173.411 122.199 176.499 126.58 176.724 131.017C176.949 135.454 173.748 138.768 169.48 138.431C159.822 137.644 160.945 124.277 167.796 123.154Z" fill="white"/>
<path d="M170.603 134.106C172.063 134.106 173.355 133.376 174.029 132.084C174.815 130.68 174.703 128.939 173.86 127.703C173.804 127.591 173.692 127.591 173.579 127.647C173.467 127.703 173.467 127.872 173.523 127.928C174.309 129.051 174.366 130.624 173.692 131.859C173.018 133.039 171.895 133.713 170.491 133.713C169.2 133.657 168.133 133.095 167.459 132.084C166.673 130.905 166.504 129.276 167.01 127.984C167.515 126.636 168.863 125.738 170.154 125.906C170.266 125.906 170.379 125.85 170.379 125.738C170.379 125.625 170.323 125.513 170.21 125.513C168.75 125.344 167.178 126.299 166.616 127.816C166.055 129.276 166.28 131.017 167.122 132.309C167.908 133.432 169.087 134.106 170.491 134.162C170.491 134.106 170.547 134.106 170.603 134.106Z" fill="#818FB3"/>
<path d="M174.646 152.359C174.646 152.359 191.605 156.515 197.557 163.255C203.509 169.995 206.261 203.244 206.373 209.366C206.485 215.544 202.218 218.071 199.635 219.813C197.052 221.554 185.821 224.699 176.724 225.148C167.683 225.597 159.092 225.148 159.092 225.148C159.092 225.148 159.148 223.182 157.744 220.262C156.452 217.566 154.824 217.004 154.824 217.004L162.629 214.196C162.629 214.196 163.977 189.765 166.111 177.914C168.469 164.434 174.646 152.359 174.646 152.359Z" fill="#094404"/>
<path d="M146.513 210.377C146.569 210.377 146.569 210.377 146.626 210.377C146.794 210.321 146.85 210.153 146.794 209.984C145.222 206.39 143.537 199.369 142.639 194.427L142.583 194.034C142.302 192.573 141.965 190.776 142.639 189.54C142.976 188.923 143.818 187.518 144.548 186.171C145.334 184.766 146.12 183.475 146.289 183.081C146.682 182.295 145.39 180.273 143.537 177.521C143.032 176.791 142.583 176.117 142.358 175.668C141.684 174.544 142.133 173.477 142.639 172.242L142.807 171.849C143.256 170.725 143.818 169.546 144.323 168.479C144.548 168.029 144.716 167.58 144.941 167.131C145.222 166.513 145.503 165.895 145.783 165.277C147.412 161.627 149.096 157.808 151.286 154.157C151.343 154.044 151.343 153.876 151.174 153.764C151.062 153.707 150.893 153.708 150.781 153.876C148.591 157.583 146.906 161.346 145.222 165.053C144.941 165.671 144.66 166.288 144.379 166.906C144.155 167.355 143.986 167.805 143.762 168.254C143.256 169.377 142.695 170.501 142.246 171.68L142.077 172.073C141.572 173.309 141.01 174.601 141.796 176.005C142.077 176.454 142.526 177.128 143.032 177.858C143.986 179.318 146.008 182.351 145.727 182.857C145.503 183.25 144.773 184.542 143.986 185.89C143.2 187.238 142.414 188.586 142.077 189.26C141.291 190.664 141.628 192.629 141.965 194.146L142.021 194.539C142.358 196.336 144.155 205.547 146.233 210.209C146.345 210.321 146.401 210.377 146.513 210.377Z" fill="#8593B6"/>
<path d="M163.079 211.387C163.135 211.387 163.247 211.387 163.303 211.331C164.651 209.983 170.996 198.975 171.445 196.897C171.726 195.774 171.052 192.909 170.435 190.101C169.929 187.967 169.424 185.72 169.592 185.102C169.817 184.204 171.445 182.856 173.018 181.564C174.927 179.991 176.892 178.419 177.285 176.959C177.735 175.33 177.342 164.996 177.117 158.2C177.005 155.728 176.949 153.819 176.949 153.145C176.949 152.976 176.836 152.864 176.668 152.864C176.499 152.864 176.387 152.976 176.387 153.145C176.387 153.819 176.443 155.785 176.555 158.256C176.78 164.602 177.173 175.274 176.78 176.846C176.443 178.138 174.478 179.711 172.737 181.171C170.996 182.575 169.368 183.923 169.143 184.99C168.975 185.72 169.424 187.798 169.985 190.213C170.547 192.797 171.221 195.774 170.996 196.785C170.547 198.807 164.258 209.646 162.966 210.938C162.854 211.05 162.854 211.219 162.966 211.331C162.966 211.331 163.022 211.387 163.079 211.387Z" fill="#8593B6"/>
<path d="M185.933 206.558C186.102 206.558 186.214 206.389 186.214 206.221C185.989 204.761 182.789 175.668 182.62 173.421C182.62 173.252 182.452 173.14 182.339 173.14C182.171 173.14 182.059 173.309 182.059 173.421C182.227 175.668 185.428 204.761 185.652 206.221C185.652 206.446 185.765 206.558 185.933 206.558Z" fill="#8593B6"/>
<path d="M162.798 214.477C162.854 214.477 162.854 214.477 162.91 214.477C163.64 214.196 166.785 213.129 170.772 211.781C178.858 209.085 189.864 205.322 191.998 204.255C192.11 204.199 192.166 204.03 192.11 203.862C192.054 203.75 191.885 203.693 191.717 203.75C189.639 204.817 178.184 208.692 170.603 211.276C166.616 212.624 163.416 213.691 162.686 213.972C162.517 214.028 162.461 214.196 162.517 214.365C162.573 214.421 162.686 214.477 162.798 214.477Z" fill="#8593B6"/>
<path d="M166.673 226.047C173.748 226.047 187.506 224.755 197.95 221.048C198.119 220.992 198.175 220.824 198.119 220.711C198.062 220.543 197.894 220.487 197.782 220.543C184.586 225.205 166.111 225.991 162.686 225.261C162.517 225.205 162.405 225.317 162.349 225.485C162.293 225.654 162.405 225.766 162.573 225.822C163.303 225.935 164.763 226.047 166.673 226.047Z" fill="#8593B6"/>
<path d="M41.6746 185.158L63.9115 229.135L128.657 229.584L108.666 184.484L41.6746 185.158Z" fill="#F6F7FA"/>
<path d="M171.614 229.302V225.764H129.723L110.463 183.472H43.4152L41.7306 185.101H107.15L127.196 229.246C127.196 229.302 171.614 229.19 171.614 229.302Z" fill="#D9DEE8"/>
<path d="M127.197 229.585C127.253 229.585 127.253 229.585 127.309 229.585C127.477 229.529 127.533 229.36 127.421 229.192L107.318 184.878H41.6746C41.5061 184.878 41.3938 184.99 41.3938 185.159C41.3938 185.327 41.5061 185.44 41.6746 185.44H106.981L126.972 229.416C126.972 229.529 127.084 229.585 127.197 229.585Z" fill="white"/>
<path d="M174.534 232.673H251.577V249.747H174.534V232.673Z" fill="#596B9B"/>
<path d="M36.3959 232.673H174.983V249.747H36.3959V232.673Z" fill="#7A89AF"/>
<path d="M174.534 232.674H174.983H251.577V235.82H174.983H174.534H36.3958V232.674H174.534Z" fill="#BDC4D7"/>
<path d="M171.165 229.304H255.283V233.46H171.165V229.304Z" fill="#6F7FA9"/>
<path d="M33.0267 229.304H171.614V233.46H33.0267V229.304Z" fill="#9CA6C3"/>
<path d="M193.963 139.667H221.198C222.882 139.667 224.23 138.319 224.23 136.634V123.042C224.23 121.357 222.882 120.009 221.198 120.009H194.019C192.335 120.009 190.987 121.357 190.987 123.042V136.634C190.931 138.319 192.279 139.667 193.963 139.667Z" fill="white"/>
<path d="M183.182 129.838L193.402 125.513V134.162L183.182 129.838Z" fill="white"/>
<path d="M214.01 131.692C212.987 131.692 212.157 130.862 212.157 129.838C212.157 128.815 212.987 127.985 214.01 127.985C215.034 127.985 215.863 128.815 215.863 129.838C215.863 130.862 215.034 131.692 214.01 131.692Z" fill="black"/>
<path d="M207.552 131.692C206.529 131.692 205.699 130.862 205.699 129.838C205.699 128.815 206.529 127.985 207.552 127.985C208.576 127.985 209.406 128.815 209.406 129.838C209.406 130.862 208.576 131.692 207.552 131.692Z" fill="black"/>
<path d="M201.151 131.692C200.128 131.692 199.298 130.862 199.298 129.838C199.298 128.815 200.128 127.985 201.151 127.985C202.174 127.985 203.004 128.815 203.004 129.838C203.004 130.862 202.174 131.692 201.151 131.692Z" fill="black"/>
<path d="M55.5444 78.2226H118.324C122.367 78.2226 125.624 81.4801 125.624 85.524V115.291C125.624 119.335 122.367 122.592 118.324 122.592H112.709C112.54 125.288 112.933 129.332 115.18 134.443C107.936 131.073 103.724 126.075 101.59 122.592H55.5444C51.5013 122.592 48.2444 119.335 48.2444 115.291V85.524C48.2444 81.4801 51.5013 78.2226 55.5444 78.2226Z" fill="#FBC70E"/>
<path d="M82.3297 92.4323H113.439C114.281 92.4323 115.011 91.7584 115.011 90.8597C115.011 90.0173 114.337 89.2871 113.439 89.2871H82.3297C81.4874 89.2871 80.7574 89.9611 80.7574 90.8597C80.7574 91.7022 81.4874 92.4323 82.3297 92.4323Z" fill="#C87916"/>
<path d="M59.9805 101.475H114.056C114.562 101.475 115.011 101.026 115.011 100.52C115.011 100.015 114.562 99.5653 114.056 99.5653H59.9805C59.4751 99.5653 59.0259 100.015 59.0259 100.52C59.0259 101.026 59.4751 101.475 59.9805 101.475Z" fill="#CE7D17"/>
<path d="M59.9805 106.698H114.056C114.562 106.698 115.011 106.249 115.011 105.743C115.011 105.238 114.562 104.788 114.056 104.788H59.9805C59.4751 104.788 59.0259 105.238 59.0259 105.743C59.0259 106.305 59.4751 106.698 59.9805 106.698Z" fill="#CE7D17"/>
<path d="M71.7728 112.315H114.056C114.562 112.315 115.011 111.865 115.011 111.36C115.011 110.854 114.562 110.405 114.056 110.405H71.7728C71.2674 110.405 70.8182 110.854 70.8182 111.36C70.8182 111.922 71.2674 112.315 71.7728 112.315Z" fill="#CE7D17"/>
<path d="M60.4298 92.4323H75.3105C76.1528 92.4323 76.8828 91.7584 76.8828 90.8597C76.8828 90.0173 76.209 89.2871 75.3105 89.2871H60.4298C59.5875 89.2871 58.8575 89.9611 58.8575 90.8597C58.8575 91.7022 59.5875 92.4323 60.4298 92.4323Z" fill="#C87916"/>
<path d="M78.2919 204.92C78.2919 205.626 78.2919 205.64 77.5883 205.642C77.3492 205.643 77.3229 205.77 77.2644 205.936C76.5609 207.951 74.103 208.767 72.3032 207.586C71.1039 206.798 70.562 205.344 70.9649 203.988C71.3591 202.662 72.6221 201.715 74.0459 201.676C75.4588 201.637 76.7795 202.516 77.2417 203.831C77.3265 204.074 77.4172 204.176 77.6922 204.166C78.2911 204.146 78.2911 204.162 78.2911 204.741V204.92H78.2919ZM75.6745 204.904C75.6723 204.064 74.9915 203.4 74.1329 203.4C73.2729 203.4 72.5848 204.072 72.5892 204.904C72.5936 205.732 73.2927 206.416 74.1359 206.419C74.9827 206.42 75.6767 205.737 75.6745 204.904Z" fill="#136034"/>
<path d="M88.7831 207.997C88.59 208.542 88.4269 208.988 88.2748 209.438C88.1973 209.667 88.1037 209.877 87.817 209.878C87.537 209.879 87.4295 209.683 87.349 209.45C87.0623 208.623 86.7735 207.797 86.4678 206.977C86.3596 206.689 86.3881 206.491 86.7077 206.381C87.0375 206.269 87.1669 206.337 87.2942 206.707C87.4558 207.178 87.6145 207.651 87.8478 208.128C87.9969 207.696 88.1505 207.263 88.2939 206.829C88.378 206.577 88.4774 206.349 88.8043 206.358C89.118 206.367 89.1912 206.609 89.2694 206.84C89.4186 207.278 89.5663 207.718 89.7455 208.251C89.9444 207.661 90.1192 207.172 90.2713 206.678C90.3649 206.371 90.5426 206.271 90.8497 206.373C91.1657 206.478 91.2096 206.676 91.1028 206.965C90.7978 207.798 90.5046 208.635 90.2128 209.473C90.1353 209.693 90.0234 209.874 89.763 209.88C89.4808 209.886 89.3667 209.691 89.2884 209.459C89.1363 209.005 88.9754 208.552 88.7831 207.997Z" fill="#136034"/>
<path d="M80.4777 205.65C79.9278 205.65 79.3764 205.643 78.8257 205.655C78.6319 205.659 78.5719 205.605 78.5807 205.415C78.5961 205.069 78.5829 204.721 78.5866 204.374C78.5873 204.298 78.5529 204.162 78.6707 204.173C79.0429 204.208 78.9551 203.958 78.969 203.758C78.9932 203.423 79.2155 203.267 79.6506 203.272C80.074 203.275 80.2839 203.437 80.3081 203.785C80.3212 203.964 80.24 204.181 80.5735 204.165C80.7783 204.156 80.8419 204.103 80.8507 203.899C80.869 203.424 81.0635 203.262 81.5432 203.272C82.0047 203.28 82.1158 203.467 82.2299 203.892C82.3667 204.403 82.3433 204.907 82.3637 205.418C82.3725 205.621 82.3067 205.686 82.0975 205.68C81.5586 205.668 81.0196 205.676 80.4792 205.676C80.4777 205.668 80.4777 205.659 80.4777 205.65Z" fill="#136034"/>
<path d="M78.2187 208.537C78.2187 208.928 78.2194 209.215 78.2187 209.503C78.2172 209.802 78.0373 209.895 77.7616 209.888C77.5028 209.881 77.3411 209.792 77.3426 209.508C77.3455 208.583 77.3455 207.658 77.3411 206.734C77.339 206.449 77.4962 206.358 77.7587 206.356C78.0286 206.353 78.2194 206.429 78.2187 206.736C78.218 207.022 78.2187 207.31 78.2187 207.698C78.6187 207.253 78.9632 206.875 79.3003 206.491C79.47 206.297 79.6411 206.242 79.8671 206.416C80.1581 206.642 80.1969 206.799 79.9468 207.07C79.6674 207.373 79.3756 207.664 79.0685 207.941C78.9105 208.084 78.9266 208.164 79.0743 208.298C79.3771 208.578 79.6608 208.878 79.9526 209.17C80.1662 209.384 80.1603 209.577 79.9183 209.779C79.6835 209.974 79.4904 209.97 79.293 209.733C79.1314 209.538 78.9559 209.353 78.7847 209.163C78.6173 208.978 78.4498 208.792 78.2187 208.537Z" fill="#136034"/>
<path d="M94.077 208.635C94.077 208.886 94.0799 209.138 94.077 209.389C94.0719 209.853 93.7304 210.037 93.315 209.796C93.2506 209.761 93.2411 209.677 93.1132 209.722C92.259 210.022 91.5365 209.569 91.4582 208.705C91.3778 207.806 92.2414 207.16 93.0854 207.496C93.1848 207.536 93.2221 207.526 93.296 207.459C93.4825 207.29 93.7179 207.323 93.919 207.4C94.107 207.473 94.0777 207.676 94.0777 207.844C94.077 208.107 94.077 208.37 94.077 208.635ZM92.7555 208.194C92.5186 208.202 92.3182 208.403 92.3168 208.615C92.3168 208.844 92.5369 209.045 92.7819 209.024C93.0473 209.002 93.187 208.834 93.1739 208.592C93.1614 208.352 93.0035 208.204 92.7555 208.194Z" fill="#136034"/>
<path d="M84.8502 208.603C85.0264 208.226 85.1866 207.906 85.3263 207.578C85.4528 207.279 85.6561 207.263 85.9171 207.387C86.1738 207.509 86.2323 207.675 86.1066 207.94C85.6707 208.862 85.2465 209.788 84.8312 210.719C84.709 210.993 84.5511 211.088 84.2615 210.96C83.9821 210.838 83.8732 210.644 84.0523 210.393C84.4999 209.766 84.3536 209.213 83.9017 208.663C83.7269 208.45 83.6157 208.19 83.4614 207.96C83.2793 207.689 83.3854 207.521 83.6384 207.378C83.8988 207.23 84.067 207.303 84.2066 207.548C84.4012 207.888 84.6147 208.217 84.8502 208.603Z" fill="#136034"/>
<path d="M82.0332 209.956C81.3414 209.952 80.8448 209.753 80.6101 209.181C80.4009 208.674 80.4324 208.168 80.8222 207.735C81.1878 207.328 81.8328 207.182 82.3747 207.368C82.8347 207.525 83.1389 207.995 83.0614 208.434C83.0117 208.716 82.8596 208.89 82.5451 208.889C82.2511 208.887 81.9564 208.887 81.6624 208.891C81.5973 208.892 81.5015 208.853 81.473 208.944C81.4394 209.047 81.5359 209.09 81.6076 209.128C81.8657 209.266 82.1385 209.229 82.3908 209.135C82.6914 209.022 82.8325 209.154 82.9181 209.402C83.0051 209.659 82.8406 209.786 82.6278 209.858C82.4069 209.931 82.1743 209.961 82.0332 209.956ZM81.4065 208.451C81.6281 208.451 81.8204 208.452 82.0105 208.45C82.1166 208.449 82.208 208.421 82.2073 208.294C82.2073 208.186 82.1473 208.111 82.042 208.087C81.7407 208.023 81.5308 208.125 81.4065 208.451Z" fill="#136034"/>
<path d="M95.4058 208.889C95.5996 209.212 95.8431 209.278 96.3075 209.156C96.4252 209.125 96.5408 209.053 96.6614 209.109C96.8194 209.183 96.8801 209.328 96.8984 209.49C96.9137 209.639 96.8355 209.736 96.7097 209.81C96.2892 210.054 95.3582 209.984 94.9516 209.674C94.5377 209.36 94.36 208.753 94.5194 208.206C94.7571 207.399 95.8965 207.007 96.5993 207.496C96.8991 207.706 97.0497 207.994 97.0329 208.361C97.0161 208.712 96.8457 208.88 96.4793 208.887C96.1283 208.895 95.778 208.889 95.4058 208.889ZM95.7334 208.466C95.8797 208.392 96.1495 208.579 96.1678 208.28C96.1795 208.104 96.0069 208.06 95.8475 208.066C95.6464 208.074 95.446 208.167 95.4284 208.348C95.4087 208.549 95.6339 208.396 95.7334 208.466Z" fill="#136034"/>
<path d="M85.9025 206.092C85.1807 206.092 84.6798 205.599 84.6871 204.894C84.6944 204.222 85.2144 203.7 85.8864 203.693C86.5643 203.685 87.1304 204.232 87.1348 204.897C87.1406 205.579 86.6111 206.092 85.9025 206.092Z" fill="#ED2C2D"/>
<path d="M92.1917 206.093C91.4801 206.095 90.9814 205.616 90.9777 204.932C90.9748 204.226 91.4758 203.705 92.1698 203.693C92.8521 203.682 93.4122 204.221 93.4166 204.892C93.4203 205.588 92.9054 206.092 92.1917 206.093Z" fill="#136034"/>
<path d="M89.0222 206.089C88.2953 206.088 87.8097 205.605 87.8127 204.888C87.8141 204.221 88.3385 203.7 89.0157 203.693C89.7075 203.686 90.2457 204.212 90.2457 204.899C90.2472 205.61 89.7513 206.091 89.0222 206.089Z" fill="#D6AB0A"/>
<path d="M82.6519 204.917C82.6519 204.739 82.6628 204.56 82.6489 204.382C82.6336 204.183 82.7133 204.126 82.9042 204.173C83.2055 204.246 83.3517 204.499 83.3576 204.934C83.362 205.272 83.2888 205.548 82.9042 205.648C82.7191 205.695 82.6299 205.663 82.6489 205.453C82.6643 205.275 82.6519 205.095 82.6519 204.917Z" fill="#136034"/>
<path d="M73.0601 204.856C73.0667 204.283 73.5274 203.838 74.1139 203.838C74.7136 203.837 75.2167 204.339 75.2028 204.924C75.1875 205.524 74.7195 205.937 74.0627 205.929C73.436 205.922 73.0528 205.512 73.0601 204.856Z" fill="#D6AB0A"/>
</svg>
