<svg width="469" height="423" viewBox="0 0 469 423" fill="none" xmlns="http://www.w3.org/2000/svg">
<path d="M156 190.5C156 173.394 149.204 156.988 137.108 144.892C125.012 132.796 108.606 126 91.5 126C74.3935 126 57.9877 132.796 45.8916 144.892C33.7955 156.988 27 173.394 27 190.5L91.5 190.5H156Z" fill="white"/>
<path d="M429 196.5C429 179.394 422.204 162.988 410.108 150.892C398.012 138.796 381.606 132 364.5 132C347.394 132 330.988 138.796 318.892 150.892C306.796 162.988 300 179.394 300 196.5L364.5 196.5H429Z" fill="white"/>
<path d="M388 191C388 154.665 373.566 119.819 347.874 94.1264C322.181 68.4339 287.335 54 251 54C214.665 54 179.819 68.4339 154.126 94.1264C128.434 119.819 114 154.665 114 191L251 191H388Z" fill="white"/>
<path d="M388 219C388 182.665 373.566 147.819 347.874 122.126C322.181 96.4339 287.335 82 251 82C214.665 82 179.819 96.4339 154.126 122.126C128.434 147.819 114 182.665 114 219L251 219H388Z" fill="#F7FFE0"/>
<g clip-path="url(#clip0_109_11707)">
<path d="M348.888 271.772H400.331C400.331 271.772 399.732 267.645 395.056 267.645C390.38 267.645 390.305 270.559 386.648 265.388C382.991 260.216 375.668 261.859 372.676 266.356C369.683 270.854 365.371 262.179 362.033 266.98C358.694 271.772 348.888 271.772 348.888 271.772Z" fill="#EBAB23"/>
<path d="M128.495 271.772H179.938C179.938 271.772 179.34 267.645 174.664 267.645C169.987 267.645 169.913 270.559 166.256 265.388C162.599 260.216 155.276 261.859 152.283 266.356C149.29 270.854 144.979 262.179 141.64 266.98C138.301 271.772 128.495 271.772 128.495 271.772Z" fill="#EBAB23"/>
<path opacity="0.5" d="M381.611 234.261C381.611 234.261 313.129 245.441 312.3 244.965C311.48 244.479 302.606 206.823 302.606 206.823C302.606 206.823 359.243 196.807 360.156 196.807C361.078 196.807 373.388 206.502 373.556 207.153C373.724 207.785 381.611 234.261 381.611 234.261Z" fill="#FEB546"/>
<path opacity="0.5" d="M172.699 243.828C171.06 243.993 88.1151 242.243 88.1151 242.243L94.3543 223.466C94.3543 223.466 105.855 206.356 111.927 206.668C118.008 206.979 154.139 201.215 160.379 205.467C166.618 209.728 172.196 206.328 175.157 216.51C178.109 226.691 180.419 227.828 178.118 233.968C175.818 240.108 172.699 243.828 172.699 243.828Z" fill="#FEB546"/>
<path d="M64.8718 214.512C67.2557 199.025 74.9756 195.771 97.7908 191.281C122.971 186.323 154.95 170.157 154.95 170.157C154.95 170.157 209.473 143.865 222.836 140.85C236.19 137.835 269.035 138.697 296.627 138.917C324.219 139.127 340.423 146.669 354.438 157.447C368.453 168.224 392.758 176.416 392.758 176.416L397.172 177.195C401.716 177.993 405.022 181.878 405.022 186.415V224.849C405.022 229.202 402.042 233.005 397.768 234.114L381.807 238.266C380.503 238.486 379.302 237.578 379.153 236.286C377.411 220.56 363.601 208.61 347.137 208.629C329.621 208.647 315.261 222.806 315.27 240.044C315.27 242.005 315.457 243.92 315.81 245.78C316.174 247.696 314.674 249.464 312.691 249.464H165.826C162.977 249.464 160.751 246.999 161.133 244.213C161.319 242.875 161.412 241.51 161.412 240.117C161.468 223.099 147.481 208.986 130.179 208.629C112.253 208.262 97.6045 222.457 97.6045 240.016C97.6045 241.18 97.6697 242.325 97.7908 243.453C98.1447 246.651 95.6303 249.455 92.3617 249.455H71.2414C67.4047 249.455 64.2851 246.394 64.2851 242.61V222.494C64.2944 219.827 64.4621 217.151 64.8718 214.512Z" fill="#006F41"/>
<path d="M404.091 190.96H386.696C385.206 190.96 384.2 192.454 384.768 193.801L386.724 198.393C388.586 202.764 392.935 205.614 397.749 205.614H404.082C405.32 205.614 406.326 204.624 406.326 203.405V193.169C406.335 191.95 405.33 190.96 404.091 190.96Z" fill="#CF283C"/>
<path d="M79.5663 201.059C74.9754 202.507 69.686 211.433 69.686 211.433C68.4195 214.219 69.4625 218.746 71.3156 218.508L80.2647 217.344C82.1272 217.106 83.7103 214.494 84.2318 210.819C85.1072 204.642 84.3622 199.556 79.5663 201.059Z" fill="#EE4036"/>
<path opacity="0.5" d="M154.912 179.065C155.22 178.9 186.267 162.139 206.856 152.755C227.232 143.462 249.991 144.443 250.969 144.488C253.586 144.433 308.016 143.27 324.76 148.402C341.615 153.57 363.573 177.131 364.504 178.13L364.756 178.405L358.852 205.669L358.219 205.632C341.047 204.679 327.898 209.179 320.206 218.636C314.386 225.784 313.669 233.345 313.669 233.418L313.613 234.069L251.705 235.636L250.987 235.645L250.224 235.663V235.654L163.955 237.313L163.945 236.58C163.517 208.995 154.652 180.183 154.559 179.89L154.382 179.322L154.912 179.065ZM312.272 232.648C312.57 230.605 313.873 224.125 319.005 217.793C324.527 210.966 335.711 203.094 357.669 204.157L363.154 178.845C360.612 176.16 339.845 154.56 324.322 149.795C308.789 145.029 258.354 145.808 251.705 145.936V234.188L312.272 232.648ZM165.407 235.846L250.224 234.215V145.918C246.229 145.808 225.863 145.689 207.48 154.065C188.409 162.762 160.323 177.81 156.151 180.055C157.38 184.215 164.877 210.425 165.407 235.846Z" fill="#FEB546"/>
<path d="M404.92 226.269C406.121 226.242 406.968 227.424 406.521 228.524C405.274 231.621 402.592 234.059 399.165 234.948L381.285 239.594C379.832 239.841 378.473 238.824 378.314 237.376C377.979 234.398 377.262 231.539 376.21 228.844C375.856 227.928 376.527 226.947 377.523 226.929L404.92 226.269Z" fill="#EAB054"/>
<path opacity="0.5" d="M406.531 228.524C405.283 231.621 402.601 234.059 399.174 234.948L381.294 239.594C379.842 239.841 378.482 238.824 378.324 237.376C378.193 236.221 378.007 235.094 377.765 233.985L406.531 228.524Z" fill="#FEB546"/>
<path d="M346.429 181.64L262.004 182.429C262.004 182.429 256.835 182.291 256.137 177.507C255.429 172.724 255.494 152.232 255.494 152.232C255.494 152.232 256.109 148.118 260.113 148.063C262.544 148.026 282.947 146.596 302.782 148.97C318.967 150.904 333.932 158.18 345.283 169.351L351.281 175.253C351.271 175.253 355.313 181.558 346.429 181.64Z" fill="#EAFCFC"/>
<path d="M246.099 154.825V176.315C246.099 179.11 243.919 181.401 241.172 181.511L174.841 184.132C173.314 184.196 171.824 183.518 170.958 182.254C169.766 180.531 169.626 177.69 175.576 173.878C185.913 167.252 212.211 152.928 221.942 151.535C228.135 150.655 236.237 150.271 241.312 150.106C243.919 150.023 246.099 152.158 246.099 154.825Z" fill="#EAFCFC"/>
<path d="M333.923 171.615C333.923 171.615 278.915 165.447 277.732 166.519C276.55 167.591 268.913 185.196 267.517 190.007L332.312 189.402L336.875 182.63L333.923 171.615Z" fill="#B75742"/>
<path d="M333.513 172.659C333.569 172.283 333.709 171.935 333.923 171.624L342.099 179.67C342.099 179.67 348.245 189.255 334.724 189.384L331.008 189.42L333.513 172.659Z" fill="#B75742"/>
<path d="M184.311 193.004L180.847 179.166C180.614 178.24 181.192 177.306 182.132 177.076C183.073 176.847 184.022 177.415 184.255 178.341L187.887 192.848L184.311 193.004Z" fill="#1A1A1A"/>
<path d="M193.26 192.6C192.283 191.996 191.482 191.501 190.951 191.18C190.914 191.153 188.418 189.98 188.371 189.952C188.017 189.824 187.719 189.723 187.654 189.723C187.468 189.723 186.379 189.356 186.295 189.32C186.211 189.283 185.764 189.283 185.568 189.274C185.382 189.265 183.38 188.247 183.045 188.101C182.709 187.945 182.113 187.377 182.113 187.377L180.81 186.644C179.851 186.103 180.717 185.315 180.717 185.315C180.27 185.058 180.139 184.765 180.214 184.463C180.288 184.16 180.549 183.931 180.558 183.867C180.568 183.812 180.447 183.702 180.447 183.702C180.149 183.546 180.139 183.106 180.232 182.877C180.326 182.648 180.698 182.382 180.884 182.364C181.07 182.346 181.098 182.263 181.098 182.263C181.061 181.952 181.573 181.182 181.946 181.173C182.318 181.154 183.752 181.851 183.92 181.842C184.088 181.842 184.414 181.796 184.618 181.897C184.823 181.997 186.602 182.236 186.9 182.373C187.198 182.511 187.85 183.491 188.343 183.931C188.837 184.371 189.34 185.443 189.498 185.727C189.563 185.837 189.88 186.03 190.252 186.213C190.308 186.277 201.185 190.135 207.62 192.023L193.26 192.6Z" fill="#F7A491"/>
<path d="M327.767 184.618C327.767 184.618 319.274 191.272 318.334 192.628C317.635 193.645 319.963 205.082 319.963 205.082C319.963 205.082 323.325 205.183 324.862 204.01C324.862 204.01 323.94 196.101 324.349 195.799C324.75 195.487 334.081 191.409 334.081 191.409L333.494 186.717L327.767 184.618Z" fill="#B75742"/>
<path d="M317.579 162.239L320.541 162.798C320.541 162.798 320.252 163.889 318.948 163.678C317.347 163.431 317.579 162.239 317.579 162.239Z" fill="white"/>
<path d="M221.672 176.894L221.682 176.865H221.623L221.672 176.894Z" fill="#474759"/>
<path d="M222.287 171.44C221.141 171.541 218.99 172.155 218.413 175.243C218.413 175.243 221.151 173.704 222.585 175.436C222.389 175.069 222.287 174.657 222.287 174.217V171.44Z" fill="#3C5059"/>
<path d="M220.499 176.874C219 176.874 217.789 175.683 217.798 174.207L217.808 167.444L223.218 167.453L223.209 174.217C223.209 175.683 221.989 176.874 220.499 176.874Z" fill="#FFBEA4"/>
<path d="M217.789 173.245C218.655 173.557 219.558 173.731 220.499 173.731C221.439 173.731 222.343 173.566 223.209 173.245L223.218 168.544L217.807 168.535L217.789 173.245Z" fill="#FC9171"/>
<path d="M229.792 155.302C232.269 155.43 233.014 157.272 233.014 159.737C233.014 162.175 231.59 164.163 229.783 164.347L229.792 155.302Z" fill="#FFBEA4"/>
<path d="M229.792 156.823C229.792 156.695 230.994 157.199 231.124 157.272C231.664 157.593 232.009 158.161 232.139 158.757C232.4 160.003 231.813 161.414 230.845 162.23C230.547 162.487 230.193 162.688 229.811 162.807L229.792 162.816C229.792 162.816 229.792 159.206 229.802 157.593C229.792 157.135 229.792 156.832 229.792 156.823Z" fill="#FCCEAE"/>
<path d="M229.792 157.382C229.886 157.364 230.593 157.602 230.658 157.629C231.413 157.932 231.971 158.528 232.139 159.325C232.167 159.444 232.176 159.554 232.186 159.673C232.214 159.371 232.195 159.068 232.139 158.775C232.046 158.317 231.804 157.895 231.459 157.574C231.087 157.226 230.64 157.006 230.146 156.887C230.1 156.878 229.792 156.832 229.792 156.832" fill="#E9AE85"/>
<path d="M211.214 155.283C208.737 155.411 207.992 157.253 207.992 159.719C207.992 162.156 209.417 164.145 211.224 164.328L211.214 155.283Z" fill="#FFBEA4"/>
<path d="M211.215 156.804C211.215 156.676 210.013 157.18 209.883 157.253C209.343 157.574 208.998 158.142 208.868 158.738C208.607 159.984 209.194 161.396 210.162 162.211C210.46 162.468 210.814 162.669 211.196 162.788L211.215 162.798C211.215 162.798 211.215 159.187 211.205 157.574C211.215 157.116 211.215 156.813 211.215 156.804Z" fill="#FCCEAE"/>
<path d="M211.215 157.354C211.121 157.336 210.414 157.574 210.349 157.601C209.594 157.904 209.036 158.499 208.868 159.297C208.84 159.416 208.831 159.526 208.821 159.645C208.793 159.343 208.812 159.04 208.868 158.747C208.961 158.289 209.203 157.867 209.548 157.546C209.92 157.198 210.367 156.978 210.861 156.859C210.907 156.85 211.215 156.804 211.215 156.804" fill="#E9AE85"/>
<path d="M230.659 162.963C230.649 168.278 226.096 172.586 220.49 172.586C214.874 172.576 210.33 168.26 210.339 162.945C210.349 157.63 212.695 147.916 220.518 147.925C228.75 147.925 230.668 157.639 230.659 162.963Z" fill="#FFBEA4"/>
<path d="M211.289 163.156C211.345 160.361 211.522 157.675 212.313 155.898L211.568 157.547C210.693 159.041 210.339 160.883 210.339 162.936C210.33 168.251 214.874 172.567 220.49 172.576C215.405 172.567 211.187 168.352 211.289 163.156Z" fill="#FC9171"/>
<path d="M229.215 157.263C229.662 158.537 229.709 161.57 229.709 163.174C229.699 168.37 225.574 172.586 220.49 172.576C226.105 172.586 230.659 168.278 230.659 162.954C230.659 161.442 230.5 160.049 230.091 158.821L229.215 157.263Z" fill="#FC9171"/>
<path d="M230.444 154.587C229.858 150.399 228.005 147.274 223.935 146.193V146.156C223.097 145.954 222.156 145.826 221.113 145.799C221.095 145.799 221.086 145.799 221.067 145.799C220.89 145.789 220.704 145.789 220.517 145.789C220.508 145.789 220.508 145.789 220.499 145.789C220.49 145.789 220.49 145.789 220.48 145.789C220.294 145.789 220.108 145.789 219.931 145.799C219.912 145.799 219.903 145.799 219.884 145.799C218.841 145.835 217.901 145.954 217.063 146.156V146.193C212.993 147.265 211.131 150.399 210.553 154.587C210.367 155.284 209.79 157.804 210.199 160.965C210.227 161.176 210.535 161.204 210.6 161.002L211.643 157.364C212.015 157.327 214.027 150.949 214.027 150.949C214.027 150.949 214.036 150.949 214.045 150.958C214.278 149.235 218.096 149.043 219.512 149.079C221.011 149.116 222.529 149.308 223.851 150.042C225.397 150.903 226.319 152.406 227.12 153.918C227.232 153.9 227.334 153.872 227.437 153.845C227.437 153.845 228.992 157.327 229.355 157.364L230.398 161.002C230.463 161.213 230.77 161.185 230.798 160.965C231.208 157.804 230.631 155.284 230.444 154.587Z" fill="#31312F"/>
<path d="M211.401 150.335C212.174 145.148 218.394 143.709 222.901 144.378C224.298 144.589 225.686 145.075 226.785 145.963C227.316 146.394 227.772 146.917 228.126 147.503C228.321 147.824 228.48 148.163 228.61 148.52C228.656 148.658 228.833 149.574 228.917 149.611C228.917 149.611 231.795 150.793 230.51 158.601C230.51 158.601 226.347 158.372 226.347 152.479C226.347 152.681 222.259 153.194 221.868 153.24C219.409 153.57 216.951 153.46 214.52 153.047C213.757 152.919 213.235 153.405 212.77 153.964C212.453 154.349 212.258 154.844 212.332 155.329C212.285 155.027 211.969 154.633 211.848 154.33C211.699 153.955 211.587 153.57 211.494 153.176C211.298 152.25 211.261 151.279 211.401 150.335Z" fill="#31312F"/>
<path d="M227.567 163.001C227.93 162.671 228.172 162.258 228.386 161.828C228.535 161.525 228.675 161.214 228.824 160.902C228.88 160.783 228.973 160.682 229.104 160.627C229.197 160.581 229.271 160.517 229.29 160.416C229.318 160.215 229.336 160.004 229.355 159.793C229.364 159.692 229.308 159.619 229.225 159.573C229.159 159.536 229.085 159.509 229.02 159.482C228.908 159.436 228.824 159.353 228.768 159.243C228.684 159.06 228.591 158.877 228.498 158.693C228.331 158.345 228.107 158.034 227.753 157.832C227.418 157.64 227.073 157.511 226.701 157.429C226.077 157.291 225.444 157.255 224.801 157.236C223.879 157.218 222.957 157.218 222.035 157.218C221.561 157.218 221.076 157.218 220.601 157.218C220.192 157.218 219.773 157.218 219.363 157.218C218.124 157.209 216.876 157.19 215.647 157.319C215.191 157.365 214.735 157.456 214.306 157.621C213.785 157.823 213.394 158.153 213.161 158.666C213.096 158.813 213.021 158.941 212.956 159.087C212.863 159.307 212.723 159.472 212.49 159.555C212.295 159.628 212.267 159.701 212.295 159.912C212.313 160.068 212.332 160.224 212.351 160.389C212.36 160.499 212.397 160.581 212.509 160.627C212.667 160.682 212.77 160.792 212.835 160.939C212.956 161.195 213.077 161.461 213.198 161.718C213.403 162.139 213.617 162.561 213.962 162.9C214.604 163.532 215.377 163.862 216.299 163.743C216.979 163.651 217.603 163.385 218.143 162.964C218.823 162.432 219.307 161.745 219.661 160.975C219.847 160.581 219.987 160.169 220.145 159.766C220.22 159.573 220.331 159.399 220.49 159.262C220.685 159.087 220.955 159.087 221.151 159.262C221.309 159.399 221.421 159.573 221.495 159.766C221.616 160.077 221.728 160.398 221.859 160.7C222.231 161.58 222.743 162.359 223.507 162.964C224.14 163.459 224.866 163.725 225.593 163.77C226.403 163.743 227.027 163.477 227.567 163.001ZM222.101 157.575C222.157 157.575 222.24 157.566 222.25 157.64C222.259 157.685 222.222 157.74 222.184 157.768C221.877 158.015 221.682 158.336 221.561 158.703C221.477 158.968 221.439 158.977 221.188 158.831C220.955 158.693 220.704 158.703 220.462 158.831C220.443 158.84 220.415 158.858 220.397 158.877C220.238 158.977 220.182 158.959 220.117 158.785C220.08 158.693 220.052 158.611 220.024 158.519C219.903 158.226 219.726 157.969 219.465 157.777C219.419 157.74 219.363 157.694 219.4 157.64C219.419 157.603 219.484 157.585 219.53 157.585C219.959 157.585 220.397 157.585 220.825 157.585C221.263 157.575 221.682 157.575 222.101 157.575Z" fill="black"/>
<path d="M213.57 157.483C213.57 157.483 215.88 155.091 219.251 157.107C219.26 157.107 216.243 156.099 213.57 157.483Z" fill="black"/>
<path d="M228.107 157.181C228.107 157.181 225.797 154.789 222.426 156.805C222.426 156.805 225.443 155.797 228.107 157.181Z" fill="black"/>
<path d="M217.23 167.014C217.23 167.014 220.76 170.093 225.239 166.867C225.239 166.858 221.132 168.636 217.23 167.014Z" fill="#EE3D3C"/>
<path d="M217.957 185.296L214.586 182.345C214.306 182.097 213.887 182.088 213.589 182.308L210.898 184.352C210.768 184.453 210.6 184.508 210.432 184.508L192.981 184.773L189.321 184.893C189.414 185.562 189.508 186.24 189.601 186.909C189.545 186.487 189.489 186.066 189.424 185.644C189.452 185.827 189.47 186.011 189.498 186.203C189.629 186.68 189.675 187.156 189.657 187.623C189.973 187.953 190.225 188.357 189.871 188.796C189.396 189.374 189.945 190.208 190.672 190.025L191.417 189.832C191.5 189.814 191.584 189.777 191.659 189.722L193.186 188.705C193.335 188.604 193.521 188.558 193.698 188.577L210.665 190.226C210.823 190.244 210.982 190.208 211.112 190.134L217.798 186.533C218.292 186.286 218.357 185.644 217.957 185.296Z" fill="#FBC199"/>
<path d="M217.957 185.296L214.586 182.345C214.306 182.097 213.887 182.088 213.589 182.308L210.898 184.352C210.768 184.453 210.6 184.508 210.432 184.508L192.981 184.773L189.228 184.893C189.405 185.342 189.48 185.818 189.461 186.322C189.508 186.735 189.554 187.147 189.601 187.559C189.89 187.761 190.178 187.944 190.495 188.1C190.895 188.274 191.305 188.311 191.743 188.311C192.208 188.302 192.683 188.357 193.13 188.494C193.233 188.522 193.335 188.558 193.438 188.595C193.531 188.567 193.624 188.558 193.717 188.567L210.684 190.217C210.842 190.235 211.001 190.199 211.131 190.125L217.817 186.524C218.292 186.286 218.357 185.644 217.957 185.296Z" fill="#FC9171"/>
<path d="M221.71 185.333C220.099 186.964 213.962 189.365 213.962 189.365C213.962 189.365 197.116 190.071 195.831 188.43C195.617 188.156 193.689 185.241 194.546 184.371C196.669 182.208 211.978 182.529 211.978 182.529C211.895 182.419 213.655 180.503 213.831 180.311C215.2 178.762 216.7 177.159 218.376 175.921C220.155 174.611 222.557 173.924 224.233 175.811C226.99 178.891 224.01 183.005 221.71 185.333Z" fill="#B6752A"/>
<path d="M194.546 184.333L193.717 184.462C193.661 184.471 193.614 184.526 193.624 184.581C193.67 185.085 193.903 187.257 194.788 188.347C194.899 188.485 195.095 188.549 195.272 188.503C195.449 188.457 195.682 188.42 195.84 188.494C195.84 188.494 194.601 185.671 194.546 184.333Z" fill="url(#paint0_linear_109_11707)"/>
<path d="M194.183 184.388C194.183 184.388 194.825 187.55 195.552 188.457L195.319 188.494C195.319 188.494 194.35 187.247 193.987 184.415L194.183 184.388Z" fill="#126034"/>
<path d="M215.749 184.27L213.058 186.314C212.928 186.414 212.76 186.469 212.593 186.469L195.141 186.735L188.949 186.937C188.669 186.946 188.418 187.102 188.288 187.349L187.3 189.21C187.207 189.384 187.189 189.594 187.245 189.787L187.468 190.538C187.664 191.189 189.107 191.611 189.442 191.015L190.308 189.484C190.429 189.265 190.662 189.118 190.914 189.1C191.23 189.072 191.435 189.228 191.659 189.43C192.05 189.778 192.459 190.254 192.04 190.758C191.565 191.336 192.115 192.17 192.841 191.986L193.586 191.794C193.67 191.776 193.754 191.739 193.828 191.684L195.356 190.667C195.505 190.566 195.691 190.52 195.868 190.538L212.835 192.188C212.993 192.206 213.151 192.17 213.282 192.096L219.968 188.495C220.443 188.238 220.517 187.606 220.108 187.248L216.737 184.298C216.457 184.059 216.047 184.05 215.749 184.27Z" fill="#FFBEA4"/>
<path d="M224.053 173.172C224.086 173.183 224.075 173.183 224.053 173.172V173.172Z" fill="#F8A264"/>
<path d="M214.306 173.171C214.279 173.18 214.279 173.18 214.306 173.171V173.171Z" fill="#F8A264"/>
<path d="M219.168 173.172C219.195 173.181 219.195 173.181 219.168 173.172V173.172Z" fill="#F8A264"/>
<path d="M219.186 173.172C219.163 173.184 219.152 173.184 219.186 173.172V173.172Z" fill="#F8A264"/>
<path d="M216.15 188.797C216.15 188.797 213.45 175.72 221.551 172.751C229.653 169.782 238.23 193.315 232.475 209.6C232.475 209.6 222.138 201.041 217.081 200.564C217.091 200.564 218.162 194.681 216.15 188.797Z" fill="#126034"/>
<path d="M223.293 176.609C220.052 176.737 216.457 185.901 216.327 186.249L215.88 187.028C216.001 188.119 216.141 188.806 216.141 188.806C216.96 191.207 217.267 193.599 217.342 195.606L219.521 194.351C219.521 194.351 223.674 191.775 226.738 186.708C229.802 181.631 228.154 176.416 223.293 176.609Z" fill="#0D4F28"/>
<path d="M232.717 206.502C232.903 206.64 233.098 206.777 233.285 206.924C233.052 207.831 232.791 208.729 232.484 209.6C232.484 209.6 222.147 201.041 217.091 200.564C217.091 200.564 217.184 199.877 217.221 199.611C222.659 201.114 228.098 203.176 232.717 206.502Z" fill="#0D4F28"/>
<path d="M217.37 176.206L226.17 173.86V172.183C226.17 172.183 220.154 171.376 217.37 176.206Z" fill="url(#paint1_linear_109_11707)"/>
<path d="M220.117 187.249L216.746 184.298C216.467 184.05 216.048 184.041 215.75 184.261L213.059 186.305C212.928 186.406 212.761 186.461 212.593 186.461L195.142 186.726L188.949 186.928C188.67 186.937 188.418 187.093 188.288 187.34L187.301 189.201C187.208 189.375 187.189 189.586 187.245 189.778L187.468 190.53C187.664 191.18 189.107 191.602 189.443 191.006L190.513 189.686C190.718 189.439 190.942 189.256 191.286 189.302C191.463 189.32 191.594 189.402 191.733 189.512C192.022 189.723 192.32 189.906 192.646 190.071C193.046 190.245 193.456 190.282 193.894 190.282C194.359 190.273 194.834 190.328 195.281 190.465C195.384 190.493 195.486 190.53 195.589 190.566C195.682 190.539 195.775 190.53 195.868 190.539L212.835 192.188C212.993 192.207 213.152 192.17 213.282 192.097L219.968 188.495C220.443 188.248 220.518 187.606 220.117 187.249Z" fill="#FFBEA4"/>
<path d="M223.805 187.111C222.194 188.742 216.262 192.738 213.431 192.811C211.317 192.866 196.948 191.711 196.157 190.666C195.318 189.567 194.834 187.276 194.909 186.497C194.992 185.553 212.928 185.883 212.928 185.883C212.844 185.773 215.768 182.272 215.936 182.08C217.305 180.531 218.804 178.927 220.48 177.69C222.259 176.379 224.661 175.692 226.338 177.58C229.094 180.668 226.114 184.783 223.805 187.111Z" fill="#DB9F48"/>
<path d="M194.909 186.496L194.071 186.615C194.015 186.625 193.968 186.68 193.978 186.735C194.015 187.239 194.229 189.411 195.114 190.51C195.225 190.648 195.412 190.712 195.598 190.666C195.775 190.62 196.017 190.584 196.166 190.666C196.157 190.666 194.946 187.834 194.909 186.496Z" fill="url(#paint2_linear_109_11707)"/>
<path d="M194.546 186.542C194.546 186.542 195.16 189.713 195.877 190.62L195.645 190.657C195.645 190.657 194.695 189.401 194.35 186.57L194.546 186.542Z" fill="#126034"/>
<path d="M225.798 185.974C225.798 185.974 229.476 195.67 226.133 204.88" stroke="#0D4F28" stroke-width="1.35504" stroke-miterlimit="10"/>
<path d="M224.776 201.508L220.744 194.636L221.486 194.214L225.518 201.087L224.776 201.508Z" fill="#DB9F48"/>
<path d="M231.05 207.428C229.569 205.614 227.381 204.459 225.025 204.266C224.857 204.257 224.857 204.001 225.025 204.01C227.446 204.211 229.709 205.375 231.236 207.245C231.329 207.373 231.152 207.556 231.05 207.428Z" fill="#4A260F"/>
<path d="M245.512 181.329L174.72 184.298C174.72 184.298 180.894 204.625 181.043 205.642C181.192 206.659 204.426 219.131 210.265 218.985C216.103 218.838 229.718 214.027 232.642 213.175C235.575 212.322 243.184 206.485 242.727 202.892C242.271 199.291 245.512 181.329 245.512 181.329Z" fill="#006F41"/>
<path opacity="0.6" d="M171.19 177.691L246.07 171.377V176.307C246.07 179.102 243.891 181.393 241.144 181.503L174.813 184.124C173.285 184.188 171.796 183.51 170.929 182.245C170.175 181.155 169.84 179.624 171.19 177.691Z" fill="#C5DDF9"/>
<path opacity="0.7" d="M246.07 171.377V170.671L171.46 177.324L171.19 177.691L246.07 171.377Z" fill="#C5DDF9"/>
<path opacity="0.2" d="M228.833 181.989L222.007 182.264L216.401 173.879L223.032 173.32L228.833 181.989Z" fill="white"/>
<path opacity="0.2" d="M216.718 182.475L211.27 174.31L213.785 174.099L219.316 182.365L216.718 182.475Z" fill="white"/>
<path d="M226.226 191.015H245.223C245.689 191.015 246.07 190.64 246.07 190.181V188.568C246.07 188.11 245.689 187.734 245.223 187.734H226.226C225.76 187.734 225.378 188.11 225.378 188.568V190.181C225.378 190.649 225.76 191.015 226.226 191.015Z" fill="#EAB054"/>
<path d="M140.972 252.809C147.248 246.669 147.276 236.68 141.037 230.504C134.798 224.327 124.647 224.299 118.371 230.439C112.095 236.579 112.067 246.568 118.306 252.745C124.545 258.922 134.695 258.949 140.972 252.809Z" fill="#3D3633"/>
<path d="M110.223 222.366C121.025 211.79 138.495 211.836 149.241 222.476C159.988 233.106 159.941 250.298 149.13 260.874C138.327 271.449 120.858 271.403 110.111 260.764C99.3647 250.133 99.4113 232.941 110.223 222.366ZM140.972 252.809C147.249 246.669 147.277 236.68 141.037 230.504C134.798 224.327 124.648 224.299 118.371 230.439C112.095 236.579 112.067 246.568 118.306 252.745C124.545 258.922 134.696 258.949 140.972 252.809Z" fill="#404041"/>
<path d="M107.96 220.129C120.019 208.326 139.519 208.381 151.513 220.248C163.508 232.116 163.452 251.306 151.392 263.109C139.333 274.913 119.833 274.858 107.839 262.99C95.8445 251.123 95.9004 231.933 107.96 220.129ZM142.285 254.11C149.288 247.255 149.325 236.102 142.359 229.211C135.394 222.319 124.061 222.283 117.058 229.147C110.055 236.002 110.018 247.155 116.983 254.046C123.949 260.928 135.282 260.965 142.285 254.11Z" fill="#3D3633"/>
<path d="M123.321 250.528C118.327 247.064 117.133 240.272 120.653 235.358C124.173 230.444 131.074 229.268 136.068 232.732C141.061 236.196 142.256 242.988 138.736 247.902C135.216 252.817 128.315 253.992 123.321 250.528Z" fill="#EFEDEC"/>
<path d="M116.546 228.625C123.837 221.486 135.627 221.523 142.881 228.698C150.135 235.874 150.098 247.476 142.806 254.615C135.515 261.754 123.726 261.717 116.471 254.541C109.217 247.366 109.245 235.764 116.546 228.625ZM140.972 252.809C147.248 246.669 147.276 236.68 141.037 230.504C134.798 224.327 124.647 224.3 118.371 230.44C112.094 236.58 112.067 246.569 118.306 252.745C124.545 258.922 134.695 258.949 140.972 252.809Z" fill="#EFEDEC"/>
<path d="M124.992 246.202C127.562 248.75 131.743 248.759 134.332 246.229C136.921 243.7 136.93 239.585 134.36 237.038C131.79 234.49 127.609 234.481 125.02 237.01C122.431 239.549 122.413 243.663 124.992 246.202Z" fill="black"/>
<path d="M358.302 252.809C364.579 246.669 364.607 236.68 358.368 230.504C352.128 224.327 341.978 224.299 335.701 230.439C329.425 236.579 329.397 246.568 335.636 252.745C341.875 258.922 352.026 258.949 358.302 252.809Z" fill="#3D3633"/>
<path d="M327.544 222.366C338.346 211.79 355.816 211.836 366.562 222.476C377.309 233.106 377.262 250.298 366.45 260.874C355.648 271.449 338.178 271.403 327.432 260.764C316.695 250.133 316.741 232.941 327.544 222.366ZM358.302 252.809C364.579 246.669 364.607 236.68 358.367 230.504C352.128 224.327 341.978 224.299 335.701 230.439C329.425 236.579 329.397 246.568 335.636 252.745C341.875 258.922 352.026 258.949 358.302 252.809Z" fill="#404041"/>
<path d="M325.29 220.129C337.35 208.326 356.85 208.381 368.844 220.248C380.838 232.116 380.782 251.306 368.723 263.109C356.663 274.913 337.163 274.858 325.169 262.99C313.175 251.123 313.231 231.933 325.29 220.129ZM359.615 254.11C366.618 247.255 366.655 236.102 359.69 229.211C352.724 222.319 341.391 222.283 334.388 229.147C327.385 236.002 327.348 247.155 334.314 254.046C341.279 260.928 352.612 260.965 359.615 254.11Z" fill="#3D3633"/>
<path d="M340.634 250.514C335.64 247.05 334.445 240.258 337.965 235.344C341.485 230.43 348.387 229.254 353.38 232.718C358.374 236.182 359.569 242.974 356.049 247.888C352.529 252.802 345.627 253.978 340.634 250.514Z" fill="#EFEDEC"/>
<path d="M333.867 228.625C341.158 221.486 352.947 221.523 360.202 228.698C367.456 235.874 367.419 247.476 360.127 254.615C352.836 261.754 341.046 261.717 333.792 254.541C326.547 247.366 326.575 235.764 333.867 228.625ZM358.302 252.809C364.579 246.669 364.606 236.68 358.367 230.504C352.128 224.327 341.978 224.3 335.701 230.44C329.425 236.58 329.397 246.569 335.636 252.745C341.875 258.922 352.026 258.949 358.302 252.809Z" fill="#EFEDEC"/>
<path d="M342.313 246.202C344.883 248.75 349.065 248.759 351.653 246.229C354.242 243.7 354.252 239.585 351.681 237.038C349.111 234.49 344.93 234.481 342.341 237.01C339.752 239.549 339.743 243.663 342.313 246.202Z" fill="black"/>
<path d="M97.4555 233.518C98.8151 233.481 99.858 234.654 99.6904 235.983C99.4949 237.459 99.4017 238.962 99.4017 240.483C99.4017 241.775 99.4762 243.049 99.6159 244.304C100.007 247.851 97.2227 250.967 93.5909 250.967H70.1611C65.8961 250.967 62.4505 247.567 62.4505 243.379V237.413C62.4505 235.717 63.8194 234.334 65.5422 234.297L97.4555 233.518Z" fill="#EAB054"/>
<path opacity="0.5" d="M99.4298 242.114C99.4671 242.847 99.523 243.58 99.5975 244.295C99.9886 247.842 97.2042 250.957 93.5724 250.957H70.1426C65.8776 250.957 62.4321 247.558 62.4321 243.37V242.114H99.4298Z" fill="#FEB546"/>
<path d="M160.025 242.115C160.034 240.538 159.913 238.99 159.689 237.478C159.419 235.654 160.798 234.004 162.669 233.959L315.428 230.293C317.095 230.256 318.296 231.814 317.84 233.4C317.049 236.149 316.62 239.054 316.63 242.041C316.63 244.021 316.816 245.964 317.17 247.842C317.542 249.813 316.034 251.627 314.004 251.627H164.522C161.589 251.627 159.373 249.07 159.755 246.211C159.922 244.873 160.015 243.508 160.025 242.115Z" fill="#EAB054"/>
<path opacity="0.5" d="M160.024 242.115C160.024 242.087 160.024 242.06 160.024 242.041H316.629C316.629 244.021 316.816 245.964 317.17 247.842C317.542 249.813 316.034 251.627 314.003 251.627H164.522C161.589 251.627 159.373 249.07 159.754 246.211C159.922 244.873 160.015 243.508 160.024 242.115Z" fill="#FEB546"/>
<path d="M312.328 165.566C312.328 165.566 304.701 166.556 303.35 168.013C298.536 173.218 293.908 186.47 295.938 190.291C297.158 192.582 300.762 183.07 301.618 184.472C303.891 188.202 303.481 180.495 303.481 180.495L312.328 165.566Z" fill="#4A260F"/>
<path d="M324.89 157.85C324.89 157.85 325.104 160.801 333.29 166.474C341.764 172.339 352.082 177.012 352.082 177.012C352.082 177.012 348.785 181.475 345.619 182.383C345.619 182.383 343.365 179.725 341.699 179.203C341.699 179.203 344.222 181.42 344.11 183.491C344.11 183.491 339.557 187.652 333.699 186.36C285.611 175.702 301.544 144.654 301.544 144.654L311.564 155.367L324.89 157.85Z" fill="black"/>
<path d="M300.967 172.65C300.846 176.499 303.854 187.496 303.854 187.496C303.854 187.496 318.25 193.544 319.107 188.962C319.107 188.962 319.889 178.772 323.158 172.934C325.84 168.132 317.347 165.942 313.874 165.649C304.384 164.833 301.106 168.178 300.967 172.65Z" fill="#4A260F"/>
<path d="M321.891 173.604C327.358 170.781 332.787 167.235 336.502 163.706C338.206 162.084 343.915 153.415 343.915 153.415L340.013 149.19C340.013 149.19 333.988 156.32 330.272 159.161C327.153 161.544 320.727 165.237 315.987 164.989L313.175 174.859C313.175 174.85 319.982 174.584 321.891 173.604Z" fill="#4A260F"/>
<path d="M340.013 149.18C340.134 148.96 340.497 149.089 340.823 149.281C341.252 149.529 341.801 149.987 342.35 150.592C342.825 151.105 343.217 151.627 343.505 152.095C343.673 152.369 343.822 152.663 343.906 152.928C343.906 152.938 344.017 153.258 343.924 153.414C343.85 153.552 343.673 153.561 343.421 153.469C343.254 153.405 343.049 153.286 342.825 153.13C342.825 153.13 342.816 153.13 342.816 153.121C342.444 152.855 342.015 152.47 341.587 152.003C341.354 151.755 341.14 151.499 340.954 151.251C340.684 150.894 340.451 150.555 340.292 150.253C340.143 149.987 339.873 149.437 340.013 149.18Z" fill="#FF964A"/>
<path d="M340.283 150.235C340.665 149.886 340.711 149.621 340.814 149.281C340.888 149.052 340.982 148.777 341.224 148.429C341.689 147.769 343.412 145.524 343.915 144.855C344.008 144.727 344.204 144.745 344.278 144.883C344.502 145.313 344.371 146.056 344.12 146.551C344.036 146.734 343.989 147.119 344.101 147.119C345.386 146.12 347.779 144.351 348.059 144.699C348.31 145.011 346.802 146.413 345.712 147.32L345.768 147.366C347.202 146.395 349.093 144.764 349.381 145.176C349.698 145.625 348.217 147.311 346.839 148.283L346.895 148.328C346.904 148.319 346.913 148.319 346.923 148.31C348.236 147.403 349.856 146.349 350.201 146.761C350.368 146.963 349.158 148.173 347.975 149.236C347.603 149.621 347.742 149.685 347.919 149.676C348.003 149.657 348.087 149.639 348.171 149.621C349.009 149.456 349.335 149.556 349.381 149.822C349.409 150.005 348.05 150.308 346.55 151.389C345.805 151.93 344.846 152.196 343.785 152.645C343.487 152.764 343.17 152.92 342.816 153.121C342.444 152.856 342.015 152.471 341.577 151.994C341.345 151.747 341.131 151.49 340.944 151.243C340.674 150.885 340.451 150.546 340.283 150.235Z" fill="#FFBEA4"/>
<path d="M319.777 183.831C319.777 183.831 320.243 187.799 320.774 188.578C321.304 189.357 320.82 190.246 319.917 190.466C319.014 190.677 308.453 190.878 307.634 189.348C306.814 187.817 307.355 183.84 306.926 181.632C306.498 179.414 316.388 184.179 319.777 183.831Z" fill="#4A260F"/>
<path d="M344.604 181.723L259.071 182.557L258.307 209.234C258.307 209.234 268.299 223.539 269.51 223.383C270.711 223.237 296.264 219.186 298.555 219.342C300.846 219.488 320.876 209.82 321.817 210.013C322.757 210.205 329.006 206.906 329.006 206.906L339.175 199.84L349.251 189.631L344.604 181.723Z" fill="#006F41"/>
<path d="M330.235 189.997H349.232C349.698 189.997 350.08 189.622 350.08 189.164V187.551C350.08 187.092 349.698 186.717 349.232 186.717H330.235C329.77 186.717 329.388 187.092 329.388 187.551V189.164C329.378 189.622 329.76 189.997 330.235 189.997Z" fill="#EAB054"/>
<path d="M313.482 169.674L313.491 169.645H313.433L313.482 169.674Z" fill="#474759"/>
<path d="M314.106 164.21C312.961 164.311 310.809 164.925 310.232 168.013C310.232 168.013 312.97 166.473 314.404 168.205C314.208 167.839 314.106 167.426 314.106 166.986V164.21Z" fill="#3C5059"/>
<path d="M312.308 169.654C310.809 169.654 309.598 168.463 309.607 166.987L309.617 160.224L315.027 160.233L315.018 166.996C315.018 168.463 313.807 169.654 312.308 169.654Z" fill="#FFBEA4"/>
<path d="M309.608 166.024C310.474 166.336 311.377 166.51 312.318 166.51C313.258 166.51 314.162 166.345 315.028 166.024L315.037 161.323L309.627 161.314L309.608 166.024Z" fill="#FC9171"/>
<path d="M322.478 155.733C322.468 161.049 317.915 165.356 312.309 165.356C306.693 165.347 302.149 161.03 302.158 155.715C302.168 150.4 304.514 140.686 312.337 140.695C320.569 140.704 322.478 150.418 322.478 155.733Z" fill="#FFBEA4"/>
<path d="M303.099 155.935C303.155 153.139 303.332 150.454 304.123 148.677L303.378 150.326C302.503 151.82 302.149 153.662 302.149 155.715C302.14 161.03 306.684 165.346 312.299 165.355C307.215 165.346 302.996 161.131 303.099 155.935Z" fill="#FC9171"/>
<path d="M321.025 150.042C321.472 151.316 321.519 154.35 321.519 155.953C321.509 161.15 317.384 165.365 312.299 165.356C317.915 165.365 322.468 161.058 322.468 155.733C322.468 154.221 322.31 152.828 321.9 151.6L321.025 150.042Z" fill="#FC9171"/>
<path d="M323.633 147.605C323.046 143.417 319.824 140.053 315.754 138.981V138.944C314.916 138.743 313.976 138.615 312.933 138.587C312.914 138.587 312.905 138.587 312.886 138.587C312.709 138.578 312.523 138.578 312.337 138.578C312.328 138.578 312.328 138.578 312.318 138.578C312.309 138.578 312.309 138.578 312.3 138.578C312.113 138.578 311.927 138.578 311.75 138.587C311.732 138.587 311.722 138.587 311.704 138.587C310.661 138.624 309.72 138.743 308.882 138.944V138.981C304.813 140.053 301.907 141.4 301.33 145.589C301.143 146.285 299.272 153.47 301.358 155.678C301.507 155.834 302.354 153.983 302.41 153.781L303.453 150.143C303.825 150.106 305.837 143.728 305.837 143.728C305.837 143.728 305.846 143.728 305.855 143.737C306.088 142.014 309.906 141.822 311.322 141.859C312.821 141.895 314.339 142.088 315.661 142.821C317.207 143.682 318.129 145.185 318.93 146.697C319.042 146.679 319.144 146.652 319.247 146.624C319.247 146.624 320.802 150.106 321.165 150.143L322.087 158.061C322.152 158.272 324.908 158.07 324.871 157.85C324.182 153.112 323.819 148.301 323.633 147.605Z" fill="black"/>
<path d="M303.22 145.24C303.993 141.382 310.213 140.319 314.721 140.814C316.117 140.97 317.505 141.327 318.604 141.996C319.135 142.317 319.591 142.702 319.945 143.142C320.14 143.38 320.299 143.636 320.429 143.893C320.476 143.994 320.653 144.672 320.736 144.7C320.736 144.7 323.344 149.96 322.059 155.761C322.059 155.761 321.109 148.695 318.166 146.826C318.166 146.972 314.078 147.357 313.687 147.394C311.228 147.641 308.77 147.559 306.34 147.256C305.576 147.165 305.054 147.522 304.589 147.944C304.272 148.228 304.077 148.594 304.151 148.961C304.105 148.732 303.788 148.448 303.667 148.219C303.518 147.944 303.406 147.65 303.313 147.357C303.108 146.661 303.08 145.937 303.22 145.24Z" fill="black"/>
<path d="M309.413 160.444L314.423 160.599C314.423 160.599 314.264 162.203 312.057 162.185C309.366 162.166 309.413 160.444 309.413 160.444Z" fill="white"/>
<path d="M304.133 152.699C304.133 152.699 306.777 149.959 310.633 152.268C310.633 152.268 307.178 151.113 304.133 152.699Z" fill="black"/>
<path d="M304.999 154.688C304.999 154.688 306.861 151.948 309.58 154.257C309.58 154.257 307.15 153.102 304.999 154.688Z" fill="black"/>
<path d="M306.255 153.826C306.255 153.826 305.259 154.018 305.185 152.955C305.185 152.955 305.455 153.716 306.255 153.826Z" fill="black"/>
<path d="M305.688 154.119C305.688 154.119 304.691 154.312 304.617 153.249C304.617 153.249 304.878 154.009 305.688 154.119Z" fill="black"/>
<path d="M318.846 151.956C318.846 151.956 319.042 152.937 317.961 153.01C317.961 153.01 318.734 152.753 318.846 151.956Z" fill="black"/>
<path d="M319.116 152.342C319.116 152.342 319.312 153.322 318.232 153.396C318.232 153.396 319.004 153.139 319.116 152.342Z" fill="black"/>
<path d="M320.764 152.351C320.764 152.351 318.119 149.611 314.264 151.92C314.264 151.92 317.719 150.765 320.764 152.351Z" fill="black"/>
<path d="M317.496 154.78C317.012 154.78 316.62 154.234 316.62 153.561C316.62 152.888 317.012 152.342 317.496 152.342C317.979 152.342 318.371 152.888 318.371 153.561C318.371 154.234 317.979 154.78 317.496 154.78Z" fill="black"/>
<path d="M317.142 153.441C317.018 153.441 316.918 153.298 316.918 153.121C316.918 152.944 317.018 152.8 317.142 152.8C317.265 152.8 317.365 152.944 317.365 153.121C317.365 153.298 317.265 153.441 317.142 153.441Z" fill="#EAFCFC"/>
<path d="M313.296 157.996C313.296 158.418 312.802 158.73 313.063 158.73C313.324 158.73 313.538 158.39 313.538 157.969C313.538 157.547 313.324 157.208 313.063 157.208C312.802 157.208 313.296 157.584 313.296 157.996Z" fill="black"/>
</g>
<defs>
<linearGradient id="paint0_linear_109_11707" x1="193.649" y1="186.44" x2="195.833" y2="186.419" gradientUnits="userSpaceOnUse">
<stop stop-color="#E8E8E9"/>
<stop offset="0.09065" stop-color="#F0F0F0"/>
<stop offset="0.2953" stop-color="#FBFBFB"/>
<stop offset="0.5094" stop-color="white"/>
<stop offset="0.7092" stop-color="#FCFCFC"/>
<stop offset="0.8507" stop-color="#F3F3F3"/>
<stop offset="0.9737" stop-color="#E3E4E4"/>
<stop offset="1" stop-color="#DFE0E0"/>
</linearGradient>
<linearGradient id="paint1_linear_109_11707" x1="217.371" y1="174.167" x2="226.169" y2="174.167" gradientUnits="userSpaceOnUse">
<stop stop-color="#E8E8E9"/>
<stop offset="0.09065" stop-color="#F0F0F0"/>
<stop offset="0.2953" stop-color="#FBFBFB"/>
<stop offset="0.5094" stop-color="white"/>
<stop offset="0.7092" stop-color="#FCFCFC"/>
<stop offset="0.8507" stop-color="#F3F3F3"/>
<stop offset="0.9737" stop-color="#E3E4E4"/>
<stop offset="1" stop-color="#DFE0E0"/>
</linearGradient>
<linearGradient id="paint2_linear_109_11707" x1="193.976" y1="188.591" x2="196.16" y2="188.591" gradientUnits="userSpaceOnUse">
<stop stop-color="#E8E8E9"/>
<stop offset="0.09065" stop-color="#F0F0F0"/>
<stop offset="0.2953" stop-color="#FBFBFB"/>
<stop offset="0.5094" stop-color="white"/>
<stop offset="0.7092" stop-color="#FCFCFC"/>
<stop offset="0.8507" stop-color="#F3F3F3"/>
<stop offset="0.9737" stop-color="#E3E4E4"/>
<stop offset="1" stop-color="#DFE0E0"/>
</linearGradient>
<clipPath id="clip0_109_11707">
<rect width="344.136" height="134" fill="white" transform="matrix(-1 0 0 1 406.212 138.847)"/>
</clipPath>
</defs>
</svg>
