<svg width="469" height="423" viewBox="0 0 469 423" fill="none" xmlns="http://www.w3.org/2000/svg">
<path d="M156 190.5C156 173.394 149.204 156.988 137.108 144.892C125.012 132.796 108.606 126 91.5 126C74.3935 126 57.9877 132.796 45.8916 144.892C33.7955 156.988 27 173.394 27 190.5L91.5 190.5H156Z" fill="white"/>
<path d="M429 196.5C429 179.394 422.204 162.988 410.108 150.892C398.012 138.796 381.606 132 364.5 132C347.394 132 330.988 138.796 318.892 150.892C306.796 162.988 300 179.394 300 196.5L364.5 196.5H429Z" fill="white"/>
<path d="M388 191C388 154.665 373.566 119.819 347.874 94.1264C322.181 68.4339 287.335 54 251 54C214.665 54 179.819 68.4339 154.126 94.1264C128.434 119.819 114 154.665 114 191L251 191H388Z" fill="white"/>
<g filter="url(#filter0_d_109_65932)">
<g clip-path="url(#clip0_109_65932)">
<circle cx="251" cy="191" r="114" fill="#FFF7DD"/>
<path d="M437.091 195.133H-170.021V357.995H437.091V195.133Z" fill="#F5F5F5"/>
<path d="M441.295 188.369H-177.741V208.182H441.295V188.369Z" fill="#E0E0E0"/>
<path d="M404.819 234.744H245.135V284.059H404.819V234.744Z" fill="#EBEBEB"/>
<path d="M324.976 263.528C327.251 263.528 329.096 261.684 329.096 259.408C329.096 257.133 327.251 255.288 324.976 255.288C322.701 255.288 320.856 257.133 320.856 259.408C320.856 261.684 322.701 263.528 324.976 263.528Z" fill="#E0E0E0"/>
<path d="M404.819 294.464H245.135V343.778H404.819V294.464Z" fill="#EBEBEB"/>
<path d="M18.6303 358.275C18.6303 358.275 18.6163 357.544 18.6022 356.11C18.6022 354.648 18.5882 352.496 18.5741 349.684C18.5601 344.017 18.5319 335.692 18.5038 325.006C18.4616 303.562 18.4194 272.654 18.3491 234.744V234.463H18.6303C74.7925 234.435 147.702 234.407 227.122 234.378H227.502V234.744C227.502 278.49 227.488 320.253 227.474 358.261V358.599H227.136C165.94 358.529 113.771 358.472 76.9018 358.43C58.5091 358.388 43.9272 358.36 33.9294 358.332C28.9657 358.318 25.1268 358.304 22.5254 358.29C21.2458 358.29 20.2756 358.275 19.6006 358.275C18.9397 358.275 18.6163 358.261 18.6163 358.261C18.6163 358.261 18.9678 358.261 19.6287 358.247C20.3037 358.247 21.3021 358.247 22.5957 358.233C25.2112 358.233 29.0641 358.205 34.07 358.191C44.0819 358.163 58.692 358.135 77.1127 358.093C113.94 358.05 166.01 357.994 227.122 357.924L226.785 358.261C226.785 320.253 226.771 278.49 226.757 234.744L227.122 235.11H227.108C147.688 235.081 74.7785 235.053 18.6163 235.025L18.8975 234.744C18.8413 272.57 18.785 303.421 18.7428 324.823C18.7147 335.538 18.6866 343.876 18.6725 349.557C18.6725 352.384 18.6444 354.549 18.6444 356.026C18.6444 357.488 18.6163 358.261 18.6163 358.261L18.6303 358.275Z" fill="#EBEBEB"/>
<path d="M343.289 152.605C343.267 148.941 344.486 145.377 346.747 142.496C348.351 143.72 349.652 145.299 350.546 147.109C351.44 148.92 351.904 150.913 351.901 152.933L351.047 155.319L347.607 157.042L343.289 152.605Z" fill="#B9D769"/>
<path d="M340.888 161.443C338.632 160.309 336.723 158.595 335.361 156.479C333.999 154.363 333.233 151.923 333.144 149.413C337.032 149.179 340.857 150.47 343.797 153.006C344.372 153.508 344.906 154.054 345.393 154.64L340.888 161.443Z" fill="#B9D769"/>
<path d="M343.773 152.87C344.357 153.376 344.898 153.928 345.393 154.519L345.37 154.554L343.479 152.64C343.575 152.719 343.676 152.789 343.773 152.87Z" fill="#B9D769"/>
<path d="M343.863 157.57L342.716 158.955L342.523 158.779L343.492 157.233L343.863 157.57Z" fill="#6CA76C"/>
<path d="M333.145 149.415C333.58 149.392 334.009 149.396 334.436 149.409L343.527 157.325L342.583 158.764L333.246 150.635C333.199 150.233 333.16 149.828 333.145 149.415ZM347.149 153.788L346.008 143.696C346.24 143.354 346.483 143.013 346.75 142.688C347.085 142.95 347.395 143.233 347.7 143.521L348.838 153.598L347.149 153.788Z" fill="#6CA76C"/>
<path d="M339.975 177.52C337.39 177.52 334.867 175.425 334.867 172.837C334.866 171.999 335.091 171.176 335.518 170.454L343.769 156.492C344.429 155.376 345.368 154.452 346.494 153.81C347.621 153.168 348.895 152.831 350.191 152.831C351.488 152.831 352.762 153.169 353.888 153.812C355.014 154.455 355.954 155.38 356.613 156.496L358.699 160.027L359.556 177.52H339.975Z" fill="#F3E4D6"/>
<path d="M354.58 177.52V162.19C354.58 161.738 354.399 161.305 354.076 160.986C353.753 160.666 353.314 160.487 352.858 160.487H347.69C347.233 160.487 346.795 160.666 346.472 160.986C346.149 161.305 345.968 161.738 345.968 162.19V177.52H354.58Z" fill="#4C543F"/>
<path d="M340.8 166.42H342.523V168.142H340.8V166.42Z" fill="#F2F4F7"/>
<path d="M341.758 170.821H343.289V172.352H341.758V170.821Z" fill="#F2F4F7"/>
<path d="M338.312 172.353H340.035V174.075H338.312V172.353Z" fill="#F2F4F7"/>
<path d="M359.556 177.52H354.58L354.58 163.905L357.763 158.381L358.721 160.044L359.556 177.52Z" fill="#E2D5C9"/>
<path d="M350.178 172.852C350.178 171.712 350.495 170.594 351.096 169.613L354.58 163.932V177.52H352.55C351.829 176.953 351.243 176.242 350.834 175.436C350.425 174.63 350.201 173.749 350.178 172.852Z" fill="#3D4232"/>
<path d="M357.036 177.52C354.437 177.52 351.9 175.425 351.9 172.837C351.9 171.999 352.126 171.176 352.555 170.454L358.758 160.017L360.85 156.496C361.513 155.38 362.457 154.455 363.59 153.812C364.722 153.169 366.003 152.831 367.307 152.831C368.611 152.831 369.892 153.169 371.024 153.812C372.156 154.455 373.101 155.38 373.764 156.496L382.059 170.458C382.487 171.179 382.713 172 382.713 172.837C382.713 175.425 380.176 177.52 377.578 177.52H357.036Z" fill="#F3E4D6"/>
<path d="M333.145 177.52H384.437V182.687H333.145V177.52Z" fill="#D7AC7C"/>
<path d="M337.355 182.687H345.967V187.089H337.355V182.687Z" fill="#CEA179"/>
<path d="M371.613 182.687H380.225V187.089H371.613V182.687Z" fill="#CEA179"/>
<path d="M371.613 177.52V162.19C371.613 161.738 371.432 161.305 371.109 160.986C370.786 160.666 370.348 160.487 369.891 160.487H364.723C364.267 160.487 363.828 160.666 363.505 160.986C363.182 161.305 363.001 161.738 363.001 162.19V177.52H371.613Z" fill="#4C543F"/>
<path d="M358.025 166.42H359.556V168.142H358.025V166.42Z" fill="#F2F4F7"/>
<path d="M358.791 170.821H360.513V172.352H358.791V170.821Z" fill="#F2F4F7"/>
<path d="M355.345 172.353H357.068V174.075H355.345V172.353Z" fill="#F2F4F7"/>
<path d="M375.058 166.42H376.781V168.142H375.058V166.42Z" fill="#F2F4F7"/>
<path d="M374.101 170.821H375.823V172.352H374.101V170.821Z" fill="#F2F4F7"/>
<path d="M377.547 172.353H379.269V174.075H377.547V172.353Z" fill="#F2F4F7"/>
<path d="M371.613 182.687H380.225V184.41H371.613V182.687Z" fill="#BC926F"/>
<path d="M337.355 182.687H345.967V184.41H337.355V182.687Z" fill="#BC926F"/>
<path d="M333.047 176.728H335.667C335.126 176.239 334.691 175.645 334.388 174.983C334.085 174.321 333.921 173.604 333.905 172.876C333.904 171.881 334.171 170.904 334.677 170.046L339.599 161.74C337.412 160.475 335.585 158.676 334.288 156.512C332.992 154.348 332.269 151.89 332.189 149.371C332.18 149.146 332.26 148.926 332.412 148.76C332.564 148.594 332.776 148.494 333.001 148.482C336.38 148.289 339.731 149.182 342.562 151.031C342.821 147.749 344.058 144.619 346.114 142.044C346.256 141.871 346.459 141.761 346.682 141.736C346.904 141.711 347.127 141.774 347.304 141.911C348.923 143.143 350.252 144.713 351.196 146.512C352.141 148.312 352.679 150.295 352.771 152.324C354.719 152.948 356.372 154.26 357.418 156.014L358.791 158.325L360.164 156.014C360.905 154.764 361.959 153.727 363.224 153.008C364.489 152.288 365.92 151.909 367.376 151.909C368.832 151.909 370.263 152.288 371.527 153.008C372.792 153.727 373.847 154.764 374.587 156.014L382.904 170.051C383.41 170.907 383.677 171.883 383.677 172.876C383.661 173.604 383.497 174.321 383.194 174.983C382.891 175.645 382.456 176.239 381.915 176.728H384.535C384.763 176.728 384.981 176.818 385.142 176.978C385.303 177.139 385.393 177.357 385.393 177.584V182.719C385.393 182.946 385.303 183.164 385.142 183.324C384.981 183.485 384.763 183.575 384.535 183.575H381.102V186.999C381.102 187.226 381.012 187.443 380.851 187.604C380.69 187.765 380.472 187.855 380.244 187.855H371.663C371.435 187.855 371.217 187.765 371.056 187.604C370.895 187.443 370.805 187.226 370.805 186.999V183.575H346.777V186.999C346.777 187.226 346.687 187.443 346.526 187.604C346.365 187.765 346.146 187.855 345.919 187.855H337.337C337.11 187.855 336.892 187.765 336.731 187.604C336.57 187.443 336.479 187.226 336.479 186.999V183.575H333.047C332.819 183.575 332.601 183.485 332.44 183.324C332.279 183.164 332.189 182.946 332.189 182.719V177.584C332.189 177.357 332.279 177.139 332.44 176.978C332.601 176.818 332.819 176.728 333.047 176.728ZM340.474 160.27L341.761 158.091L334.158 151.45C334.521 153.283 335.272 155.019 336.361 156.54C337.45 158.061 338.852 159.333 340.474 160.27ZM343.134 153.594C340.968 151.707 338.266 150.542 335.404 150.261L342.657 156.595L343 156.014C343.317 155.489 343.691 155.001 344.116 154.559C343.804 154.219 343.476 153.896 343.131 153.589L343.134 153.594ZM344.267 152.31C344.669 152.667 345.052 153.045 345.413 153.443C345.921 153.082 346.468 152.779 347.044 152.538L346.186 144.979C344.949 147.211 344.269 149.707 344.203 152.257C344.223 152.273 344.245 152.287 344.263 152.303L344.267 152.31ZM347.893 144.782L348.72 152.057C349.211 151.962 349.709 151.911 350.209 151.906C350.484 151.906 350.754 151.933 351.024 151.96C350.815 149.285 349.712 146.757 347.893 144.782ZM355.944 156.881C355.355 155.887 354.517 155.063 353.511 154.491C352.505 153.919 351.367 153.618 350.209 153.618C349.052 153.618 347.914 153.919 346.908 154.491C345.902 155.063 345.064 155.887 344.475 156.881L336.157 170.918C335.806 171.511 335.621 172.187 335.621 172.876C335.621 174.89 337.666 176.728 339.912 176.728H345.061V162.177C345.061 161.496 345.332 160.843 345.815 160.361C346.297 159.88 346.952 159.609 347.635 159.609H352.784C353.467 159.609 354.121 159.88 354.604 160.361C355.087 160.843 355.358 161.496 355.358 162.177V164.115L357.794 160.006L355.944 156.881ZM351.84 170.051L353.642 167.011V162.177C353.642 161.95 353.552 161.732 353.391 161.572C353.23 161.411 353.011 161.321 352.784 161.321H347.635C347.407 161.321 347.189 161.411 347.028 161.572C346.867 161.732 346.777 161.95 346.777 162.177V176.728H352.829C352.289 176.239 351.853 175.645 351.55 174.983C351.248 174.321 351.083 173.604 351.068 172.876C351.068 171.883 351.335 170.907 351.84 170.051ZM381.961 172.876C381.961 172.187 381.775 171.511 381.424 170.918L373.107 156.88C372.518 155.886 371.679 155.062 370.674 154.49C369.668 153.918 368.53 153.617 367.372 153.617C366.214 153.617 365.076 153.918 364.071 154.49C363.065 155.062 362.226 155.886 361.637 156.88L353.32 170.918C352.969 171.511 352.784 172.187 352.784 172.876C352.784 174.89 354.829 176.728 357.075 176.728H362.223V162.177C362.223 161.496 362.495 160.843 362.977 160.361C363.46 159.88 364.115 159.609 364.798 159.609H369.947C370.629 159.609 371.284 159.88 371.767 160.361C372.25 160.843 372.521 161.496 372.521 162.177V176.728H377.67C379.916 176.728 381.961 174.893 381.961 172.876ZM363.94 176.728H370.805V162.177C370.805 161.95 370.714 161.732 370.553 161.572C370.392 161.411 370.174 161.321 369.947 161.321H364.798C364.57 161.321 364.352 161.411 364.191 161.572C364.03 161.732 363.94 161.95 363.94 162.177V176.728ZM372.521 186.143H379.386V183.575H372.521V186.143ZM338.196 186.143H345.061V183.575H338.196V186.143ZM333.905 181.863H383.677V178.44H333.905V181.863Z" fill="black"/>
<path d="M340.8 166.42H342.523V168.142H340.8V166.42Z" fill="black"/>
<path d="M341.758 170.821H343.289V172.352H341.758V170.821Z" fill="black"/>
<path d="M338.312 172.353H340.035V174.075H338.312V172.353Z" fill="black"/>
<path d="M358.025 166.42H359.556V168.142H358.025V166.42Z" fill="black"/>
<path d="M358.791 170.821H360.513V172.352H358.791V170.821Z" fill="black"/>
<path d="M355.345 172.353H357.068V174.075H355.345V172.353Z" fill="black"/>
<path d="M375.058 166.42H376.781V168.142H375.058V166.42Z" fill="black"/>
<path d="M374.101 170.821H375.823V172.352H374.101V170.821Z" fill="black"/>
<path d="M377.547 172.353H379.269V174.075H377.547V172.353Z" fill="black"/>
<path d="M326.719 141.901C326.395 141.714 326.01 141.663 325.649 141.76C325.288 141.856 324.98 142.093 324.793 142.416L311.719 165.061L314.161 166.471L327.235 143.826C327.422 143.502 327.473 143.118 327.376 142.757C327.279 142.395 327.043 142.087 326.719 141.901Z" fill="#838383"/>
<path d="M309.976 166.472L312.417 165.062L299.343 142.417C299.251 142.257 299.128 142.116 298.981 142.003C298.834 141.891 298.666 141.808 298.487 141.76C298.309 141.712 298.122 141.7 297.939 141.724C297.755 141.748 297.578 141.808 297.418 141.901C297.094 142.088 296.858 142.396 296.761 142.757C296.664 143.118 296.715 143.503 296.902 143.827L309.976 166.472Z" fill="#838383"/>
<path d="M330.825 162.084C331.06 158.815 330.201 157.361 329.37 156.636C328.147 155.571 326.732 156.063 325.277 154.621C324.089 153.439 324.61 152.716 323.614 151.897C321.91 150.497 319.964 152.337 317.099 151.243C314.864 150.39 315.189 148.95 313.41 148.636C310.916 148.194 309.927 150.963 306.729 150.888C304.647 150.839 304.239 149.749 302.758 150.117C301.136 150.521 301.492 152.256 299.291 153.738C297.485 154.955 296.373 154.375 295.528 155.629C295.008 156.398 295.225 156.921 294.828 158.812C294.605 159.88 294.283 160.925 293.865 161.933" fill="#F5F8F9"/>
<path d="M312.241 158.745C312.375 158.744 312.506 158.704 312.618 158.629C312.729 158.554 312.816 158.448 312.868 158.324C312.919 158.2 312.933 158.063 312.908 157.932C312.882 157.8 312.818 157.678 312.724 157.583L311.299 156.159C311.236 156.096 311.161 156.046 311.078 156.011C310.995 155.977 310.906 155.959 310.817 155.959C310.727 155.959 310.639 155.977 310.556 156.011C310.473 156.046 310.398 156.096 310.334 156.159C310.271 156.223 310.221 156.298 310.186 156.381C310.152 156.463 310.135 156.552 310.135 156.642C310.135 156.731 310.152 156.82 310.186 156.903C310.221 156.986 310.271 157.061 310.334 157.124L311.759 158.545C311.822 158.609 311.897 158.659 311.98 158.693C312.062 158.728 312.151 158.745 312.241 158.745ZM306.784 156.017C306.918 156.016 307.049 155.975 307.161 155.901C307.272 155.826 307.359 155.72 307.411 155.596C307.462 155.472 307.476 155.335 307.451 155.203C307.425 155.071 307.361 154.95 307.267 154.854L305.842 153.431C305.714 153.303 305.541 153.231 305.36 153.231C305.179 153.231 305.005 153.303 304.877 153.431C304.749 153.559 304.678 153.732 304.678 153.913C304.678 154.094 304.749 154.268 304.877 154.396L306.302 155.816C306.365 155.88 306.44 155.93 306.523 155.965C306.605 155.999 306.694 156.017 306.784 156.017ZM299.962 160.109C300.097 160.109 300.228 160.068 300.34 159.993C300.451 159.918 300.538 159.812 300.59 159.688C300.641 159.564 300.655 159.428 300.629 159.296C300.604 159.164 300.54 159.043 300.445 158.947L299.021 157.524C298.893 157.396 298.72 157.324 298.539 157.324C298.358 157.324 298.184 157.396 298.056 157.524C297.928 157.652 297.856 157.825 297.856 158.006C297.856 158.187 297.928 158.361 298.056 158.489L299.48 159.909C299.544 159.973 299.619 160.023 299.701 160.058C299.784 160.092 299.873 160.109 299.962 160.109ZM319.305 162.618C319.44 162.617 319.571 162.577 319.684 162.502C319.796 162.427 319.883 162.321 319.935 162.196C319.986 162.072 320 161.934 319.974 161.802C319.948 161.67 319.883 161.548 319.788 161.453L318.363 160.029C318.234 159.909 318.063 159.843 317.886 159.846C317.71 159.849 317.541 159.921 317.416 160.046C317.291 160.171 317.22 160.34 317.216 160.516C317.213 160.693 317.279 160.864 317.399 160.993L318.823 162.418C318.951 162.546 319.124 162.617 319.305 162.618ZM305.662 162.618C305.797 162.617 305.929 162.577 306.041 162.502C306.153 162.427 306.241 162.321 306.292 162.196C306.344 162.072 306.358 161.934 306.331 161.802C306.305 161.67 306.24 161.548 306.145 161.453L304.721 160.029C304.658 159.964 304.583 159.912 304.5 159.876C304.416 159.84 304.327 159.822 304.236 159.821C304.146 159.82 304.056 159.837 303.972 159.871C303.888 159.906 303.812 159.956 303.748 160.02C303.684 160.084 303.633 160.16 303.599 160.244C303.565 160.328 303.547 160.418 303.548 160.508C303.549 160.599 303.568 160.689 303.603 160.772C303.639 160.855 303.691 160.93 303.756 160.993L305.18 162.418C305.308 162.545 305.482 162.617 305.662 162.618ZM317.698 156.017C317.832 156.016 317.963 155.975 318.075 155.901C318.186 155.826 318.273 155.72 318.325 155.596C318.376 155.472 318.39 155.335 318.364 155.203C318.339 155.071 318.275 154.95 318.181 154.854L316.756 153.431C316.628 153.303 316.455 153.231 316.274 153.231C316.093 153.231 315.919 153.303 315.791 153.431C315.663 153.559 315.592 153.732 315.592 153.913C315.592 154.094 315.663 154.268 315.791 154.396L317.216 155.816C317.279 155.88 317.354 155.93 317.437 155.965C317.519 155.999 317.608 156.017 317.698 156.017ZM327.247 160.109C327.382 160.109 327.513 160.068 327.624 159.993C327.736 159.918 327.823 159.812 327.874 159.688C327.926 159.564 327.94 159.428 327.914 159.296C327.889 159.164 327.825 159.043 327.73 158.947L326.306 157.524C326.243 157.46 326.167 157.41 326.085 157.376C326.002 157.341 325.913 157.324 325.824 157.324C325.734 157.324 325.645 157.341 325.562 157.376C325.48 157.41 325.404 157.46 325.341 157.524C325.278 157.587 325.227 157.662 325.193 157.745C325.159 157.828 325.141 157.916 325.141 158.006C325.141 158.096 325.159 158.184 325.193 158.267C325.227 158.35 325.278 158.425 325.341 158.489L326.765 159.909C326.828 159.973 326.904 160.023 326.986 160.058C327.069 160.092 327.158 160.109 327.247 160.109Z" fill="#E8EDF2"/>
<path d="M321.792 180.538H302.345V183.848C302.345 184.661 302.668 185.441 303.243 186.016C303.818 186.591 304.597 186.914 305.411 186.914H318.726C319.539 186.914 320.319 186.591 320.894 186.016C321.468 185.441 321.792 184.661 321.792 183.848V180.538Z" fill="#FDD79B"/>
<path d="M305.073 180.538V183.848C305.073 184.661 305.396 185.441 305.971 186.016C306.546 186.591 307.326 186.914 308.139 186.914H305.411C304.598 186.914 303.818 186.591 303.243 186.016C302.668 185.441 302.345 184.661 302.345 183.848V180.538H305.073Z" fill="#FCCD7F"/>
<path d="M311.314 183.614H312.822C317.254 183.614 321.541 182.039 324.919 179.171C327.24 177.201 329.044 174.694 330.174 171.867C331.304 169.041 331.725 165.981 331.402 162.954C331.372 162.675 331.24 162.416 331.03 162.228C330.821 162.041 330.55 161.937 330.269 161.937H293.868C293.587 161.937 293.315 162.041 293.106 162.228C292.897 162.416 292.765 162.675 292.735 162.954C292.412 165.981 292.833 169.041 293.962 171.867C295.092 174.694 296.896 177.201 299.216 179.171C302.595 182.04 306.883 183.615 311.314 183.614Z" fill="#E49280"/>
<path d="M292.735 162.954C292.765 162.675 292.897 162.416 293.106 162.228C293.315 162.041 293.587 161.937 293.868 161.937H295.36C295.32 164.691 295.889 167.42 297.027 169.928C298.166 172.435 299.845 174.66 301.945 176.443C305.323 179.311 309.61 180.886 314.041 180.886H315.551C319.842 180.885 324.002 179.408 327.333 176.702C326.606 177.597 325.799 178.422 324.921 179.168C321.543 182.036 317.256 183.61 312.824 183.61H311.316C306.885 183.61 302.598 182.036 299.22 179.168C296.899 177.198 295.095 174.692 293.965 171.866C292.835 169.04 292.413 165.98 292.735 162.954Z" fill="#DD7F66"/>
<path d="M292.735 162.954C292.765 162.675 292.897 162.416 293.106 162.228C293.315 162.041 293.586 161.937 293.867 161.937H330.269C330.55 161.937 330.821 162.041 331.03 162.228C331.239 162.416 331.371 162.675 331.401 162.954C331.515 164.019 331.536 165.092 331.465 166.161V166.169H292.671C292.6 165.097 292.621 164.022 292.735 162.954Z" fill="#FDD79B"/>
<path d="M295.783 166.169H292.671C292.646 165.793 292.633 165.416 292.631 165.037V164.585C292.631 164.442 292.637 164.299 292.644 164.156C292.644 164.096 292.65 164.035 292.653 163.975C292.659 163.858 292.665 163.742 292.674 163.625C292.674 163.57 292.682 163.515 292.686 163.46C292.699 163.292 292.714 163.123 292.732 162.955C292.762 162.676 292.894 162.417 293.103 162.229C293.312 162.042 293.583 161.938 293.864 161.938H295.359C295.339 163.36 295.481 164.78 295.783 166.169Z" fill="#FCCD7F"/>
<path d="M299.963 160.109C299.873 160.109 299.785 160.092 299.702 160.057C299.619 160.023 299.544 159.973 299.481 159.909L298.057 158.486C297.929 158.358 297.857 158.184 297.857 158.003C297.857 157.822 297.929 157.649 298.057 157.521C298.185 157.393 298.358 157.321 298.539 157.321C298.72 157.321 298.894 157.393 299.022 157.521L300.446 158.947C300.541 159.042 300.606 159.164 300.632 159.296C300.658 159.429 300.645 159.566 300.593 159.69C300.541 159.815 300.454 159.922 300.342 159.997C300.23 160.072 300.098 160.112 299.963 160.112V160.109ZM306.784 156.016C306.695 156.017 306.606 155.999 306.523 155.965C306.44 155.93 306.365 155.88 306.302 155.816L304.878 154.393C304.75 154.265 304.678 154.091 304.678 153.911C304.678 153.73 304.75 153.556 304.878 153.428C305.006 153.3 305.179 153.228 305.36 153.228C305.541 153.228 305.715 153.3 305.843 153.428L307.267 154.854C307.362 154.95 307.427 155.071 307.453 155.204C307.479 155.336 307.466 155.473 307.414 155.598C307.363 155.722 307.275 155.829 307.163 155.904C307.051 155.979 306.919 156.019 306.784 156.019V156.016ZM292.059 162.881C292.098 162.519 292.245 162.176 292.48 161.898C292.716 161.62 293.03 161.419 293.381 161.322C293.714 160.462 293.975 159.576 294.163 158.674C294.275 158.136 294.361 157.592 294.419 157.045C294.498 156.352 294.556 155.852 294.964 155.245C295.565 154.356 296.31 154.159 297.029 153.972C297.595 153.823 298.179 153.668 298.912 153.174C299.757 152.605 300.162 152.014 300.505 151.436L296.31 144.169C296.044 143.69 295.976 143.124 296.123 142.595C296.269 142.066 296.618 141.616 297.093 141.342C297.568 141.067 298.132 140.991 298.664 141.128C299.195 141.266 299.651 141.607 299.933 142.078L304.221 149.502C304.445 149.573 304.654 149.662 304.858 149.75C305.361 149.964 305.88 150.186 306.744 150.205C308.151 150.239 309.044 149.653 309.992 149.032C310.992 148.376 312.029 147.698 313.529 147.964C314.662 148.164 315.166 148.767 315.605 149.299C316.009 149.784 316.39 150.242 317.343 150.605C317.9 150.819 318.492 150.928 319.089 150.927L324.203 142.076C324.338 141.833 324.52 141.62 324.738 141.448C324.956 141.276 325.206 141.15 325.473 141.076C325.741 141.002 326.021 140.982 326.296 141.017C326.571 141.052 326.837 141.142 327.077 141.28C327.318 141.419 327.528 141.604 327.696 141.825C327.864 142.046 327.987 142.298 328.056 142.567C328.126 142.836 328.141 143.116 328.102 143.391C328.062 143.665 327.968 143.929 327.825 144.168L323.782 151.171C323.874 151.232 323.964 151.297 324.049 151.368C324.686 151.894 324.861 152.416 325.013 152.877C325.151 153.289 325.268 153.645 325.761 154.136C326.421 154.793 327.077 154.971 327.771 155.16C328.413 155.334 329.141 155.532 329.816 156.12C331.082 157.222 331.655 159.121 331.526 161.759C331.837 162.056 332.033 162.454 332.077 162.881C332.478 166.615 331.784 170.384 330.079 173.729C328.373 177.075 325.731 179.851 322.474 181.72V183.848C322.473 184.842 322.077 185.794 321.375 186.497C320.672 187.2 319.72 187.595 318.726 187.596H305.411C304.417 187.595 303.465 187.2 302.762 186.497C302.059 185.794 301.664 184.842 301.663 183.848V181.72C298.902 180.136 296.575 177.895 294.888 175.197C293.201 172.498 292.206 169.424 291.992 166.248C291.989 166.224 291.988 166.199 291.988 166.174C291.918 165.076 291.942 163.975 292.059 162.881ZM298.752 142.758C298.705 142.675 298.641 142.602 298.565 142.544C298.489 142.486 298.403 142.443 298.311 142.419C298.218 142.394 298.122 142.388 298.027 142.4C297.932 142.413 297.841 142.444 297.758 142.491C297.591 142.588 297.47 142.747 297.42 142.933C297.37 143.12 297.396 143.318 297.493 143.485L301.353 150.173C301.687 149.816 302.12 149.566 302.596 149.455H302.617L298.752 142.758ZM326.644 143.485C326.741 143.318 326.767 143.12 326.717 142.933C326.667 142.747 326.545 142.588 326.378 142.491C326.296 142.444 326.204 142.413 326.109 142.4C326.015 142.388 325.918 142.394 325.826 142.419C325.734 142.443 325.647 142.486 325.571 142.544C325.496 142.602 325.432 142.675 325.384 142.758L320.757 150.772C321.329 150.692 321.908 150.622 322.485 150.694L326.644 143.485ZM328.918 157.151C328.479 156.769 327.984 156.634 327.411 156.478C326.62 156.262 325.711 156.017 324.801 155.105C324.074 154.385 323.88 153.787 323.721 153.307C323.595 152.928 323.52 152.699 323.186 152.424C322.575 151.922 321.955 151.981 320.821 152.141C319.755 152.291 318.427 152.478 316.863 151.881C315.577 151.39 315.015 150.714 314.564 150.172C314.175 149.704 313.94 149.422 313.298 149.308C312.332 149.137 311.633 149.594 310.751 150.174C309.772 150.81 308.555 151.614 306.724 151.57C305.598 151.544 304.897 151.244 304.335 151.004C304.12 150.904 303.898 150.823 303.669 150.76L303.62 150.75C303.392 150.707 303.158 150.717 302.934 150.78C302.419 150.908 302.224 151.211 301.834 151.883C301.42 152.595 300.905 153.482 299.684 154.304C298.76 154.927 297.999 155.128 297.388 155.29C296.699 155.472 296.407 155.563 296.105 156.011C295.892 156.326 295.858 156.548 295.783 157.202C295.735 157.617 295.669 158.184 295.51 158.956C295.346 159.735 295.132 160.503 294.868 161.255H304.018L303.757 160.993C303.69 160.931 303.637 160.855 303.599 160.772C303.562 160.688 303.542 160.598 303.54 160.506C303.539 160.415 303.556 160.324 303.59 160.239C303.624 160.154 303.675 160.077 303.74 160.012C303.805 159.947 303.882 159.896 303.967 159.862C304.052 159.827 304.143 159.811 304.234 159.812C304.326 159.814 304.416 159.834 304.5 159.871C304.584 159.908 304.659 159.962 304.721 160.029L305.948 161.255H317.661L317.4 160.993C317.279 160.864 317.214 160.693 317.217 160.516C317.22 160.339 317.292 160.171 317.417 160.046C317.542 159.921 317.71 159.849 317.887 159.846C318.064 159.843 318.235 159.909 318.364 160.029L319.591 161.255H330.179C330.215 159.29 329.793 157.91 328.92 157.151H328.918ZM303.024 183.848C303.025 184.48 303.277 185.087 303.724 185.534C304.172 185.981 304.778 186.232 305.411 186.232H318.726C319.358 186.231 319.964 185.98 320.411 185.533C320.858 185.086 321.109 184.48 321.11 183.848V182.434C318.519 183.659 315.688 184.296 312.822 184.296H311.314C308.448 184.296 305.618 183.659 303.027 182.434L303.024 183.848ZM299.659 178.652C302.915 181.414 307.046 182.931 311.316 182.932H312.822C317.265 182.934 321.551 181.292 324.855 178.324C328.16 175.355 330.251 171.269 330.724 166.852H293.413C293.902 171.441 296.138 175.666 299.657 178.652H299.659ZM293.323 165.488H330.816C330.842 164.666 330.811 163.844 330.725 163.027C330.718 162.958 330.695 162.892 330.658 162.834C330.622 162.775 330.572 162.726 330.514 162.689L330.504 162.684C330.433 162.642 330.353 162.62 330.271 162.619H293.868C293.755 162.619 293.646 162.66 293.562 162.735C293.478 162.811 293.425 162.915 293.413 163.027C293.326 163.844 293.295 164.666 293.321 165.488H293.323ZM327.247 160.109C327.157 160.109 327.069 160.092 326.986 160.057C326.903 160.023 326.828 159.973 326.765 159.909L325.341 158.486C325.213 158.358 325.141 158.184 325.141 158.003C325.141 157.822 325.213 157.649 325.341 157.521C325.469 157.393 325.642 157.321 325.823 157.321C326.004 157.321 326.178 157.393 326.306 157.521L327.731 158.947C327.826 159.042 327.891 159.164 327.917 159.296C327.943 159.429 327.93 159.566 327.878 159.69C327.826 159.815 327.739 159.922 327.627 159.997C327.515 160.072 327.383 160.112 327.248 160.112L327.247 160.109ZM312.24 158.745C312.151 158.745 312.062 158.728 311.979 158.693C311.896 158.659 311.821 158.608 311.758 158.545L310.334 157.121C310.206 156.994 310.134 156.82 310.134 156.639C310.134 156.458 310.206 156.284 310.334 156.157C310.462 156.029 310.635 155.957 310.816 155.957C310.997 155.957 311.171 156.029 311.299 156.157L312.724 157.583C312.819 157.678 312.884 157.8 312.91 157.932C312.936 158.064 312.923 158.202 312.871 158.326C312.82 158.451 312.732 158.557 312.62 158.632C312.508 158.707 312.376 158.747 312.241 158.748L312.24 158.745ZM317.697 156.016C317.608 156.017 317.519 155.999 317.436 155.965C317.353 155.93 317.278 155.88 317.215 155.816L315.791 154.393C315.663 154.265 315.591 154.091 315.591 153.911C315.591 153.73 315.663 153.556 315.791 153.428C315.919 153.3 316.092 153.228 316.273 153.228C316.454 153.228 316.628 153.3 316.756 153.428L318.181 154.854C318.276 154.95 318.341 155.071 318.367 155.204C318.393 155.336 318.38 155.473 318.328 155.598C318.276 155.722 318.189 155.829 318.077 155.904C317.965 155.979 317.833 156.019 317.698 156.019L317.697 156.016Z" fill="black"/>
<path d="M122.437 173.884C123.524 173.884 124.566 174.315 125.335 175.084C126.103 175.852 126.535 176.894 126.535 177.981C126.535 179.068 126.103 180.11 125.335 180.878C124.566 181.647 123.524 182.078 122.437 182.078H81.4627C80.376 182.078 79.3338 181.647 78.5654 180.878C77.7969 180.11 77.3652 179.068 77.3652 177.981C77.3652 176.894 77.7969 175.852 78.5654 175.084C79.3338 174.315 80.376 173.884 81.4627 173.884H122.437Z" fill="#EC6A46"/>
<path d="M122.438 173.763H81.4634C81.4635 172.165 82.0802 170.632 83.1779 169.502C84.2755 168.372 85.7642 167.738 87.3165 167.737H116.585C117.354 167.737 118.115 167.893 118.825 168.196C119.535 168.499 120.18 168.943 120.724 169.502C121.267 170.062 121.699 170.726 121.993 171.457C122.287 172.188 122.438 172.971 122.438 173.763ZM81.4634 182.199H122.438C122.438 182.99 122.287 183.773 121.993 184.505C121.699 185.236 121.268 185.9 120.724 186.46C120.18 187.019 119.535 187.463 118.825 187.766C118.115 188.069 117.354 188.225 116.585 188.225H87.3165C86.5478 188.225 85.7866 188.069 85.0764 187.766C84.3663 187.463 83.721 187.019 83.1775 186.46C82.634 185.9 82.2029 185.236 81.9088 184.505C81.6146 183.773 81.4633 182.99 81.4634 182.199Z" fill="#F5B955"/>
<path d="M123.672 173.043C123.476 171.396 122.677 169.876 121.426 168.773C120.176 167.669 118.56 167.058 116.886 167.054H87.0161C85.3405 167.057 83.7241 167.668 82.4732 168.772C81.2223 169.877 80.4239 171.397 80.2293 173.046C79.0483 173.238 77.9746 173.84 77.1999 174.744C76.4253 175.648 76 176.795 76 177.981C76 179.166 76.4253 180.314 77.1999 181.217C77.9746 182.121 79.0483 182.723 80.2293 182.915C80.4253 184.563 81.2241 186.083 82.4747 187.187C83.7252 188.292 85.3409 188.904 87.0161 188.908H116.886C118.562 188.904 120.178 188.292 121.429 187.188C122.68 186.083 123.478 184.561 123.672 182.912C124.853 182.72 125.927 182.118 126.702 181.214C127.476 180.311 127.901 179.163 127.901 177.978C127.901 176.792 127.476 175.645 126.702 174.741C125.927 173.838 124.853 173.236 123.672 173.043H123.672ZM83.4016 170.269C83.8737 169.794 84.4361 169.416 85.0565 169.157C85.6769 168.898 86.3429 168.763 87.0161 168.76H116.886C118.1 168.761 119.274 169.191 120.198 169.972C121.121 170.754 121.733 171.836 121.924 173.024H81.9768C82.1437 171.979 82.6428 171.014 83.4016 170.269ZM120.501 185.693C120.028 186.168 119.466 186.546 118.845 186.805C118.225 187.064 117.559 187.199 116.886 187.202H87.0161C85.8016 187.201 84.6273 186.771 83.7038 185.989C82.7804 185.208 82.1684 184.126 81.9776 182.938H121.925C121.758 183.983 121.259 184.948 120.501 185.693ZM125.208 180.287C124.899 180.59 124.532 180.831 124.129 180.993C123.726 181.155 123.294 181.237 122.859 181.232H81.0428C80.6078 181.234 80.1768 181.15 79.7744 180.987C79.372 180.823 79.0061 180.582 78.6977 180.279C78.3893 179.975 78.1443 179.614 77.9769 179.216C77.8095 178.818 77.7229 178.392 77.7221 177.961C77.7212 177.533 77.8067 177.109 77.9736 176.715C78.1405 176.321 78.3855 175.963 78.694 175.664C79.0033 175.362 79.3703 175.123 79.7736 174.963C80.1769 174.803 80.6083 174.723 81.0428 174.73H122.859C123.293 174.727 123.724 174.809 124.126 174.972C124.528 175.134 124.894 175.374 125.203 175.677C125.511 175.979 125.757 176.34 125.924 176.737C126.092 177.134 126.179 177.56 126.18 177.99C126.181 178.418 126.095 178.841 125.928 179.236C125.761 179.63 125.516 179.987 125.208 180.287Z" fill="#083863"/>
<path d="M122.94 175.943C121.292 175.943 120.427 176.726 119.732 177.355C119.113 177.914 118.667 178.319 117.69 178.319C116.713 178.319 116.266 177.914 115.648 177.355C114.953 176.726 114.088 175.944 112.439 175.944C110.793 175.944 109.928 176.726 109.233 177.355C108.615 177.915 108.169 178.319 107.193 178.319C106.216 178.319 105.77 177.915 105.152 177.356C104.457 176.726 103.592 175.943 101.944 175.943C100.297 175.943 99.4322 176.726 98.7374 177.355C98.1197 177.915 97.6734 178.319 96.6977 178.319C95.7219 178.319 95.2755 177.914 94.658 177.355C93.9635 176.726 93.099 175.943 91.452 175.943C89.8051 175.943 88.9407 176.726 88.2461 177.355C87.6285 177.915 87.1823 178.319 86.2064 178.319C85.2305 178.319 84.7853 177.914 84.168 177.355C83.4734 176.726 82.609 175.943 80.9618 175.943C80.7326 175.943 80.5128 176.033 80.3508 176.194C80.1887 176.354 80.0977 176.572 80.0977 176.799C80.0977 177.026 80.1887 177.244 80.3508 177.404C80.5128 177.565 80.7326 177.655 80.9618 177.655C81.9378 177.655 82.384 178.059 83.0015 178.618C83.6959 179.247 84.5601 180.03 86.2064 180.03C87.8527 180.03 88.7178 179.247 89.4124 178.618C90.03 178.058 90.4761 177.655 91.452 177.655C92.4279 177.655 92.8742 178.059 93.4916 178.618C94.1863 179.247 95.0507 180.03 96.6977 180.03C98.3446 180.03 99.2089 179.247 99.9036 178.618C100.521 178.059 100.968 177.655 101.944 177.655C102.921 177.655 103.367 178.059 103.985 178.618C104.68 179.247 105.545 180.029 107.192 180.029C108.84 180.029 109.704 179.247 110.399 178.617C111.017 178.058 111.463 177.654 112.439 177.654C113.417 177.654 113.864 178.058 114.482 178.618C115.177 179.247 116.042 180.029 117.69 180.029C119.337 180.029 120.203 179.247 120.898 178.618C121.516 178.058 121.963 177.654 122.94 177.654C123.169 177.654 123.389 177.564 123.551 177.403C123.713 177.243 123.804 177.025 123.804 176.798C123.804 176.571 123.713 176.353 123.551 176.193C123.389 176.032 123.169 175.942 122.94 175.942V175.943ZM101.452 158.379C100.877 158.782 100.006 159.391 100.006 160.59C100.006 161.79 100.876 162.398 101.452 162.8C102.006 163.188 102.167 163.341 102.167 163.614C102.167 163.841 102.258 164.058 102.42 164.219C102.582 164.379 102.802 164.47 103.031 164.47C103.26 164.47 103.48 164.379 103.642 164.219C103.804 164.058 103.895 163.841 103.895 163.614C103.895 162.414 103.025 161.805 102.449 161.402C101.896 161.015 101.735 160.862 101.735 160.591C101.735 160.32 101.896 160.165 102.449 159.778C103.025 159.375 103.895 158.766 103.895 157.566C103.895 156.367 103.025 155.759 102.45 155.356C101.896 154.969 101.735 154.815 101.735 154.543C101.735 154.271 101.896 154.119 102.449 153.732C103.025 153.329 103.895 152.72 103.895 151.521C103.895 151.294 103.804 151.076 103.642 150.916C103.48 150.755 103.26 150.665 103.031 150.665C102.802 150.665 102.582 150.755 102.42 150.916C102.258 151.076 102.167 151.294 102.167 151.521C102.167 151.792 102.006 151.946 101.452 152.334C100.876 152.736 100.006 153.345 100.006 154.544C100.006 155.742 100.877 156.352 101.453 156.755C102.006 157.142 102.167 157.296 102.167 157.566C102.167 157.837 102.006 157.992 101.452 158.379ZM96.051 158.379C95.4754 158.782 94.6052 159.391 94.6052 160.59C94.6052 161.79 95.4753 162.398 96.0509 162.8C96.6048 163.188 96.7657 163.341 96.7657 163.614C96.7657 163.841 96.8568 164.058 97.0188 164.219C97.1809 164.379 97.4007 164.47 97.6299 164.47C97.8591 164.47 98.0789 164.379 98.241 164.219C98.403 164.058 98.4941 163.841 98.4941 163.614C98.4941 162.414 97.6237 161.805 97.0479 161.402C96.4945 161.015 96.3336 160.862 96.3336 160.591C96.3336 160.32 96.4946 160.165 97.0483 159.778C97.624 159.375 98.4941 158.766 98.4941 157.566C98.4941 156.367 97.6241 155.759 97.0484 155.356C96.4946 154.969 96.3336 154.815 96.3336 154.543C96.3336 154.271 96.4945 154.119 97.0479 153.732C97.6237 153.329 98.4941 152.72 98.4941 151.521C98.4941 151.294 98.403 151.076 98.241 150.916C98.0789 150.755 97.8591 150.665 97.6299 150.665C97.4007 150.665 97.1809 150.755 97.0188 150.916C96.8568 151.076 96.7657 151.294 96.7657 151.521C96.7657 151.792 96.6048 151.946 96.0509 152.334C95.4753 152.736 94.6052 153.345 94.6052 154.544C94.6052 155.742 95.4756 156.352 96.0515 156.755C96.6049 157.142 96.7657 157.296 96.7657 157.566C96.7657 157.837 96.6048 157.992 96.051 158.379ZM106.853 158.379C106.278 158.782 105.408 159.391 105.408 160.59C105.408 161.79 106.278 162.398 106.853 162.8C107.407 163.188 107.568 163.341 107.568 163.614C107.568 163.841 107.659 164.058 107.821 164.219C107.983 164.379 108.203 164.47 108.432 164.47C108.661 164.47 108.881 164.379 109.043 164.219C109.205 164.058 109.296 163.841 109.296 163.614C109.296 162.414 108.426 161.805 107.85 161.402C107.297 161.015 107.136 160.862 107.136 160.591C107.136 160.32 107.297 160.165 107.851 159.778C108.426 159.375 109.296 158.766 109.296 157.566C109.296 156.367 108.426 155.759 107.851 155.356C107.297 154.969 107.136 154.815 107.136 154.543C107.136 154.271 107.297 154.119 107.85 153.732C108.426 153.329 109.296 152.72 109.296 151.521C109.296 151.294 109.205 151.076 109.043 150.916C108.881 150.755 108.661 150.665 108.432 150.665C108.203 150.665 107.983 150.755 107.821 150.916C107.659 151.076 107.568 151.294 107.568 151.521C107.568 151.792 107.407 151.946 106.853 152.334C106.278 152.736 105.408 153.345 105.408 154.544C105.408 155.742 106.278 156.352 106.854 156.755C107.407 157.142 107.568 157.296 107.568 157.566C107.568 157.837 107.407 157.992 106.853 158.379Z" fill="#083863"/>
<path d="M174.415 164.717C174.248 164.552 173.998 164.388 173.747 164.388H172.829C173.664 163.071 173.998 161.754 173.831 160.602C173.664 159.368 172.913 158.298 171.577 157.393C172.412 154.678 172.328 152.456 171.41 150.81C170.575 149.411 169.156 148.341 167.236 147.765C167.737 141.594 162.06 136.821 161.309 136.327L161.225 136.245H161.142C161.058 136.245 161.058 136.163 160.975 136.163C160.891 136.163 160.891 136.163 160.891 136.163C160.808 136.163 160.808 136.163 160.724 136.163C160.724 136.163 160.724 136.163 160.641 136.163C160.557 136.163 160.557 136.163 160.474 136.163C160.391 136.163 160.391 136.163 160.307 136.245C160.307 136.245 160.224 136.245 160.224 136.327C160.14 136.327 160.14 136.41 160.057 136.492C160.057 136.492 160.057 136.574 159.973 136.574C159.973 136.656 159.89 136.656 159.89 136.739C159.89 136.821 159.89 136.821 159.89 136.903V136.986C159.89 141.182 157.218 142.005 154.129 142.993C151.542 143.816 148.62 144.721 148.202 148.177C146.449 148.177 145.113 148.671 144.112 149.658C142.359 151.468 142.275 154.431 142.609 156.899C140.272 157.393 139.27 158.957 138.936 159.862C138.769 160.273 138.685 160.849 138.685 161.425C138.685 162.084 138.852 163.236 139.604 164.47H138.769C138.518 164.47 138.268 164.552 138.101 164.799C137.934 164.964 137.851 165.211 137.934 165.457L142.275 185.453C142.693 187.346 144.446 188.745 146.449 188.745H166.234C168.238 188.745 169.991 187.346 170.408 185.453L174.666 165.375C174.666 165.128 174.582 164.881 174.415 164.717ZM140.439 160.438C140.772 159.533 141.691 158.463 143.611 158.298C145.364 158.134 147.534 158.71 150.122 160.026C150.54 160.191 151.041 160.026 151.208 159.697C151.375 159.286 151.208 158.792 150.874 158.627C148.369 157.393 146.115 156.735 144.279 156.735C144.028 154.842 144.028 152.209 145.364 150.728C146.115 149.905 147.367 149.576 148.954 149.74C150.289 149.905 151.959 150.316 153.796 151.139C154.213 151.304 154.714 151.139 154.881 150.728C155.048 150.316 154.881 149.823 154.463 149.658C152.71 148.917 151.208 148.424 149.872 148.259C150.122 145.955 151.875 145.297 154.714 144.392C157.385 143.569 160.724 142.499 161.392 138.549C163.062 140.195 165.817 143.486 165.566 147.436C163.897 147.189 162.478 147.272 162.394 147.272C162.06 147.272 161.81 147.519 161.726 147.765C161.726 147.848 161.643 148.012 161.643 148.095C161.643 148.424 161.893 148.671 162.227 148.753C162.311 148.753 162.394 148.753 162.478 148.753C162.478 148.753 162.644 148.753 162.895 148.753H162.978H163.062C163.396 148.753 163.813 148.753 164.314 148.753C164.898 148.753 165.483 148.835 166.151 149C167.987 149.411 169.239 150.234 169.907 151.386C170.575 152.62 170.659 154.266 170.074 156.406C169.824 156.323 169.573 156.159 169.323 156.077C168.989 155.912 168.739 155.83 168.405 155.747C166.234 155.007 164.231 154.76 164.147 154.76C163.813 154.76 163.479 154.924 163.312 155.171V155.254C163.312 155.336 163.229 155.418 163.229 155.418C163.145 155.83 163.479 156.241 163.897 156.323C163.897 156.323 163.897 156.323 163.98 156.323C163.98 156.323 166.151 156.57 168.238 157.393C168.405 157.475 168.572 157.558 168.739 157.558C168.906 157.64 169.073 157.722 169.239 157.805C169.573 157.969 169.824 158.134 170.158 158.298C171.327 159.039 171.994 159.862 172.161 160.767C172.328 161.754 171.827 162.989 170.826 164.305H141.607C140.439 163.071 140.272 161.837 140.272 161.261C140.355 160.849 140.439 160.602 140.439 160.438ZM168.739 185.124C168.488 186.359 167.403 187.182 166.151 187.182H146.449C145.197 187.182 144.112 186.359 143.861 185.124L139.771 166.033H172.746L168.739 185.124Z" fill="#2D2F63"/>
<path d="M139.854 165.951L143.945 185.042C144.195 186.276 145.28 187.099 146.532 187.099H166.317C167.57 187.099 168.655 186.276 168.905 185.042L172.996 165.951H139.854ZM148.786 185.289C148.703 185.289 148.703 185.289 148.62 185.289C148.202 185.289 147.868 185.042 147.868 184.631L144.946 168.667C144.863 168.255 145.197 167.844 145.614 167.762C146.032 167.679 146.449 168.008 146.532 168.42L149.454 184.384C149.538 184.795 149.204 185.289 148.786 185.289ZM153.795 185.289C153.795 185.371 153.795 185.371 153.795 185.289C153.294 185.289 152.961 184.96 152.961 184.548L151.959 168.584C151.959 168.173 152.293 167.762 152.71 167.762C153.127 167.762 153.545 168.091 153.545 168.502L154.463 184.466C154.63 184.96 154.296 185.289 153.795 185.289ZM159.639 184.548C159.639 184.96 159.305 185.289 158.804 185.289C158.804 185.289 158.804 185.289 158.721 185.289C158.303 185.289 157.969 184.878 157.969 184.466L158.888 168.502C158.888 168.091 159.305 167.762 159.722 167.762C160.14 167.762 160.557 168.173 160.474 168.584L159.639 184.548ZM164.731 184.713C164.648 185.124 164.314 185.371 163.897 185.371C163.813 185.371 163.813 185.371 163.73 185.371C163.312 185.289 162.978 184.878 163.062 184.466L165.984 168.502C166.067 168.091 166.484 167.762 166.902 167.844C167.319 167.926 167.653 168.338 167.57 168.749L164.731 184.713Z" fill="#F16D60"/>
<path d="M172.829 165.951L168.739 185.042C168.488 186.276 167.403 187.099 166.151 187.099H146.449C145.197 187.099 144.112 186.276 143.862 185.042L139.771 165.951H141.942L145.448 183.479C145.698 184.548 146.616 185.371 147.702 185.371H164.899C165.984 185.371 166.902 184.548 167.153 183.479L170.659 166.033H172.829V165.951Z" fill="#E25E5A"/>
<path d="M170.909 164.388H141.691C140.522 163.153 140.355 161.919 140.355 161.343C140.355 160.849 140.438 160.602 140.522 160.438C140.856 159.532 141.774 158.463 143.694 158.298C145.447 158.134 147.618 158.71 150.206 160.026C150.623 160.191 151.124 160.026 151.291 159.697C151.458 159.286 151.291 158.792 150.957 158.627C148.453 157.393 146.199 156.735 144.362 156.735C144.112 154.842 144.112 152.209 145.447 150.728C146.199 149.905 147.451 149.576 149.037 149.74C150.373 149.905 152.042 150.316 153.879 151.139C154.296 151.304 154.797 151.139 154.964 150.728C155.131 150.316 154.964 149.822 154.547 149.658C152.794 148.917 151.291 148.424 149.955 148.259C150.206 145.955 151.959 145.297 154.797 144.391C157.469 143.569 160.808 142.499 161.476 138.549C163.145 140.195 165.9 143.486 165.65 147.436C163.98 147.189 162.561 147.272 162.477 147.272C162.06 147.354 161.726 147.683 161.726 148.177C161.726 148.588 162.144 148.917 162.561 148.917C162.561 148.917 164.314 148.753 166.151 149.164C167.987 149.576 169.239 150.398 169.907 151.551C170.575 152.785 170.659 154.431 170.074 156.57C167.486 155.253 164.314 154.842 164.231 154.842C163.813 154.76 163.396 155.089 163.312 155.5C163.229 155.912 163.563 156.323 164.064 156.406C164.064 156.406 167.737 156.899 170.158 158.38C171.326 159.121 171.994 159.944 172.161 160.849C172.412 161.919 171.994 163.071 170.909 164.388Z" fill="#FFDB7C"/>
<path d="M170.158 156.57C169.908 156.488 169.657 156.323 169.407 156.241C169.073 156.076 168.822 155.994 168.489 155.912C168.489 154.842 168.405 153.937 167.988 153.196C167.403 152.044 166.902 151.468 165.066 150.069C164.314 149.493 163.897 149.246 163.146 148.917C163.48 148.917 163.897 148.917 164.398 148.917C164.982 148.917 165.567 149 166.235 149.164C168.071 149.576 169.323 150.398 169.991 151.551C170.743 152.785 170.743 154.513 170.158 156.57ZM165.65 147.436C165.149 147.354 164.732 147.272 164.314 147.272C163.897 144.227 162.144 141.676 160.975 140.277C161.142 139.783 161.309 139.207 161.476 138.549C163.062 140.195 165.817 143.569 165.65 147.436ZM160.725 140.606C159.973 144.145 157.302 145.214 155.132 146.037C153.295 146.696 151.959 147.272 151.375 148.588C150.874 148.424 150.373 148.341 149.956 148.259C150.206 145.955 151.959 145.297 154.798 144.391C156.885 143.733 159.473 142.91 160.725 140.606ZM153.378 150.892C152.711 150.728 151.291 150.974 150.206 150.974C148.871 151.057 147.785 151.386 147.201 152.209C146.283 153.279 146.116 155.171 146.199 156.817C145.531 156.652 144.947 156.57 144.279 156.57C144.029 154.677 144.029 152.044 145.364 150.563C146.116 149.74 147.368 149.411 148.954 149.576C150.206 149.822 151.709 150.234 153.378 150.892ZM149.121 159.45C148.203 159.45 147.117 159.615 145.782 159.862C144.112 160.109 143.361 161.178 143.027 162.001C142.943 162.166 142.86 162.413 142.86 162.906C142.86 163.235 142.943 163.811 143.11 164.388H141.608C140.439 163.153 140.272 161.919 140.272 161.343C140.272 160.849 140.355 160.602 140.439 160.438C140.773 159.532 141.691 158.463 143.611 158.298C145.114 158.134 146.95 158.545 149.121 159.45ZM170.909 164.388H169.657C169.908 163.729 169.991 163.071 169.908 162.495C169.824 161.59 169.24 160.273 168.322 159.45C166.902 158.134 165.233 157.146 163.981 156.488C163.981 156.488 163.981 156.488 164.064 156.488C164.064 156.488 166.235 156.735 168.322 157.558C168.489 157.64 168.656 157.722 168.822 157.722C168.989 157.804 169.156 157.887 169.323 157.969C169.657 158.134 169.908 158.298 170.242 158.463C171.41 159.203 172.078 160.026 172.245 160.931C172.412 161.919 171.995 163.071 170.909 164.388Z" fill="#ECC25E"/>
<path d="M149.454 184.383C149.538 184.795 149.204 185.206 148.787 185.289C148.703 185.289 148.703 185.289 148.62 185.289C148.202 185.289 147.868 185.042 147.868 184.63L144.946 168.666C144.863 168.255 145.197 167.844 145.614 167.761C146.032 167.679 146.449 168.008 146.533 168.42L149.454 184.383ZM167.653 168.749L164.731 184.713C164.648 185.124 164.314 185.371 163.897 185.371C163.813 185.371 163.813 185.371 163.73 185.371C163.312 185.289 162.978 184.877 163.062 184.466L165.984 168.502C166.067 168.09 166.485 167.761 166.902 167.844C167.403 167.926 167.737 168.337 167.653 168.749ZM154.547 184.466C154.547 184.877 154.213 185.289 153.795 185.289C153.795 185.289 153.795 185.289 153.712 185.289C153.295 185.289 152.961 184.96 152.877 184.548L151.875 168.584C151.875 168.173 152.209 167.761 152.627 167.761C153.044 167.761 153.462 168.09 153.462 168.502L154.547 184.466ZM160.557 168.666L159.639 184.548C159.639 184.96 159.305 185.289 158.804 185.289C158.804 185.289 158.804 185.289 158.721 185.289C158.303 185.289 157.97 184.877 157.97 184.466L158.888 168.502C158.888 168.09 159.305 167.761 159.723 167.761C160.307 167.844 160.641 168.173 160.557 168.666Z" fill="#2D2F63"/>
<path d="M248.568 187.923C246.948 187.861 245.41 187.19 244.263 186.044C243.115 184.898 242.442 183.361 242.378 181.741L242.323 180.826H284.117L284.062 181.67C284.015 183.305 283.348 184.862 282.195 186.023C281.042 187.184 279.491 187.864 277.856 187.923H248.568Z" fill="#E09742"/>
<path d="M245.469 180.826C245.035 180.827 244.605 180.743 244.204 180.578C243.803 180.413 243.438 180.17 243.131 179.864C242.823 179.558 242.579 179.194 242.412 178.794C242.245 178.393 242.158 177.964 242.157 177.53V177.412C242.157 176.977 242.243 176.547 242.409 176.145C242.576 175.744 242.82 175.38 243.128 175.073C243.435 174.766 243.801 174.522 244.202 174.357C244.604 174.191 245.035 174.107 245.469 174.108H264.072L268.732 178.311C268.858 178.424 269.02 178.488 269.19 178.492C269.363 178.485 269.529 178.422 269.663 178.311L274.331 174.1H280.955C281.39 174.099 281.82 174.183 282.222 174.349C282.624 174.515 282.989 174.758 283.297 175.065C283.604 175.372 283.848 175.736 284.015 176.138C284.181 176.539 284.267 176.969 284.267 177.404V177.522C284.267 177.957 284.181 178.387 284.015 178.788C283.848 179.19 283.604 179.554 283.297 179.861C282.989 180.168 282.624 180.411 282.222 180.577C281.82 180.743 281.39 180.827 280.955 180.826H245.469ZM245.469 171.931C244.592 171.931 243.751 171.583 243.13 170.964C242.509 170.344 242.159 169.504 242.157 168.627V168.509C242.159 167.632 242.509 166.791 243.13 166.172C243.751 165.552 244.592 165.205 245.469 165.205H280.955C281.832 165.205 282.673 165.552 283.294 166.172C283.915 166.791 284.265 167.632 284.267 168.509V168.627C284.265 169.504 283.915 170.344 283.294 170.964C282.673 171.583 281.832 171.931 280.955 171.931H245.469Z" fill="#C61E24"/>
<path d="M264.08 174.099H243.79V171.915H282.635V174.099H274.347L269.213 178.728L264.08 174.099Z" fill="#E5E04F"/>
<path d="M277.628 171.521C276.958 171.522 276.295 171.389 275.678 171.13C275.06 170.872 274.501 170.492 274.032 170.015C273.561 169.536 272.999 169.156 272.38 168.897C271.76 168.637 271.095 168.504 270.424 168.504C269.752 168.504 269.088 168.637 268.468 168.897C267.849 169.156 267.287 169.536 266.816 170.015C266.346 170.493 265.785 170.873 265.166 171.132C264.548 171.39 263.883 171.523 263.212 171.521C262.47 171.531 261.735 171.366 261.067 171.04C260.549 170.758 260.064 170.417 259.624 170.022C259.153 169.54 258.59 169.156 257.969 168.895C257.347 168.634 256.679 168.5 256.005 168.501C255.334 168.496 254.668 168.627 254.049 168.886C253.43 169.145 252.869 169.526 252.401 170.007C251.932 170.485 251.372 170.864 250.755 171.123C250.138 171.382 249.475 171.516 248.805 171.516C248.136 171.516 247.473 171.382 246.855 171.123C246.238 170.864 245.678 170.485 245.209 170.007C244.569 169.385 243.791 168.923 242.938 168.658C242.838 168.626 242.735 168.602 242.631 168.587L241.984 168.461V167.799C241.955 167.141 242.143 166.493 242.52 165.953C242.718 165.695 242.976 165.488 243.271 165.351C243.566 165.214 243.89 165.15 244.216 165.165H279.213C279.496 165.165 279.804 165.165 280.183 165.165H282.201C282.527 165.151 282.852 165.216 283.149 165.353C283.445 165.49 283.704 165.696 283.905 165.953C284.276 166.495 284.461 167.143 284.433 167.799V168.461L283.786 168.587C283.703 168.597 283.621 168.616 283.542 168.642C282.671 168.9 281.875 169.366 281.223 169.999C280.755 170.478 280.195 170.859 279.578 171.12C278.961 171.382 278.298 171.518 277.628 171.521Z" fill="#88A50F"/>
<path d="M245.429 165.196H244.239C243.947 165.201 243.657 165.139 243.393 165.016C243.128 164.894 242.894 164.712 242.709 164.487C242.528 164.261 242.396 164 242.323 163.72C242.249 163.44 242.236 163.148 242.283 162.862C243.178 157.972 245.759 153.551 249.577 150.368C253.396 147.185 258.209 145.442 263.18 145.442C268.151 145.442 272.965 147.185 276.783 150.368C280.602 153.551 283.183 157.972 284.077 162.862C284.135 163.142 284.132 163.431 284.07 163.709C284.007 163.988 283.886 164.25 283.715 164.479C283.53 164.704 283.298 164.885 283.035 165.01C282.772 165.134 282.484 165.198 282.193 165.196H245.429Z" fill="#E09742"/>
<path d="M257.361 154.014C257.367 153.794 257.438 153.581 257.565 153.401C257.691 153.221 257.868 153.082 258.074 153.003C258.279 152.923 258.503 152.905 258.718 152.952C258.933 152.998 259.129 153.107 259.283 153.265C259.436 153.423 259.54 153.622 259.581 153.839C259.621 154.055 259.597 154.279 259.512 154.481C259.426 154.684 259.283 154.857 259.099 154.979C258.916 155.101 258.701 155.166 258.481 155.166C258.332 155.164 258.184 155.132 258.047 155.073C257.91 155.014 257.786 154.929 257.682 154.822C257.578 154.715 257.496 154.589 257.441 154.45C257.386 154.312 257.359 154.163 257.361 154.014ZM267.944 155.166C268.17 155.17 268.393 155.107 268.584 154.985C268.775 154.863 268.925 154.686 269.016 154.478C269.106 154.27 269.133 154.04 269.092 153.817C269.051 153.594 268.945 153.388 268.787 153.225C268.629 153.063 268.426 152.951 268.204 152.904C267.982 152.857 267.751 152.877 267.541 152.961C267.33 153.046 267.15 153.191 267.022 153.379C266.894 153.566 266.825 153.787 266.824 154.014C266.821 154.164 266.847 154.312 266.902 154.451C266.957 154.59 267.039 154.717 267.143 154.824C267.247 154.931 267.371 155.017 267.509 155.075C267.646 155.134 267.794 155.165 267.944 155.166ZM253.749 159.109C253.974 159.112 254.194 159.048 254.383 158.926C254.571 158.804 254.719 158.628 254.808 158.422C254.897 158.216 254.922 157.988 254.882 157.767C254.841 157.546 254.735 157.342 254.579 157.181C254.422 157.02 254.221 156.909 254.002 156.863C253.782 156.816 253.554 156.835 253.345 156.918C253.136 157.001 252.957 157.144 252.83 157.329C252.702 157.514 252.633 157.733 252.629 157.957C252.624 158.108 252.649 158.258 252.703 158.399C252.757 158.54 252.838 158.669 252.943 158.777C253.047 158.886 253.172 158.973 253.311 159.033C253.449 159.092 253.598 159.123 253.749 159.124V159.109ZM272.675 159.109C272.9 159.112 273.12 159.048 273.308 158.926C273.497 158.804 273.645 158.628 273.734 158.422C273.822 158.216 273.848 157.988 273.807 157.767C273.767 157.546 273.661 157.342 273.505 157.181C273.348 157.02 273.147 156.909 272.928 156.863C272.708 156.816 272.479 156.835 272.271 156.918C272.062 157.001 271.883 157.144 271.755 157.329C271.628 157.514 271.558 157.733 271.555 157.957C271.55 158.108 271.575 158.258 271.629 158.399C271.683 158.54 271.764 158.669 271.868 158.777C271.973 158.886 272.098 158.973 272.237 159.033C272.375 159.092 272.524 159.123 272.675 159.124V159.109ZM263.212 159.109C263.437 159.112 263.657 159.048 263.846 158.926C264.034 158.804 264.182 158.628 264.271 158.422C264.36 158.216 264.385 157.988 264.344 157.767C264.304 157.546 264.198 157.342 264.042 157.181C263.885 157.02 263.684 156.909 263.465 156.863C263.245 156.816 263.017 156.835 262.808 156.918C262.599 157.001 262.42 157.144 262.292 157.329C262.165 157.514 262.095 157.733 262.092 157.957C262.087 158.108 262.112 158.258 262.166 158.399C262.22 158.54 262.301 158.669 262.406 158.777C262.51 158.886 262.635 158.973 262.774 159.033C262.912 159.092 263.061 159.123 263.212 159.124V159.109ZM283.415 171.812C283.42 171.847 283.42 171.881 283.415 171.915V174.131C283.924 174.509 284.336 175.002 284.62 175.569C284.903 176.136 285.05 176.762 285.048 177.396V177.522C285.049 178.478 284.714 179.405 284.101 180.14C284.318 180.217 284.506 180.359 284.639 180.546C284.772 180.734 284.843 180.959 284.843 181.189C284.843 185.313 281.688 188.664 277.848 188.664H248.568C244.712 188.664 241.574 185.313 241.574 181.189C241.573 180.959 241.645 180.734 241.777 180.546C241.91 180.359 242.098 180.217 242.315 180.14C241.702 179.405 241.367 178.478 241.369 177.522V177.396C241.366 176.762 241.513 176.136 241.796 175.569C242.08 175.002 242.492 174.509 243.001 174.131V171.915C242.997 171.881 242.997 171.847 243.001 171.812C242.642 171.522 242.337 171.169 242.102 170.772C241.805 170.323 241.611 169.814 241.534 169.281C241.326 168.822 241.208 168.326 241.187 167.822C241.128 166.975 241.378 166.135 241.889 165.457C241.991 165.323 242.105 165.199 242.228 165.086C242.189 165.086 242.157 165.007 242.118 164.968C241.857 164.656 241.668 164.292 241.564 163.899C241.461 163.506 241.445 163.096 241.518 162.697C242.432 157.61 245.104 153.006 249.069 149.691C253.033 146.375 258.036 144.558 263.204 144.558C268.372 144.558 273.376 146.375 277.34 149.691C281.304 153.006 283.977 157.61 284.89 162.697C284.963 163.096 284.948 163.506 284.844 163.899C284.74 164.292 284.552 164.656 284.291 164.968C284.251 165.007 284.22 165.054 284.18 165.086C284.304 165.199 284.417 165.323 284.519 165.457C285.031 166.135 285.28 166.975 285.221 167.822C285.2 168.326 285.082 168.822 284.874 169.281C284.797 169.814 284.604 170.323 284.306 170.772C284.073 171.169 283.772 171.521 283.415 171.812ZM243.332 163.982C243.44 164.119 243.578 164.229 243.735 164.304C243.892 164.379 244.065 164.417 244.239 164.416H282.185C282.359 164.417 282.532 164.379 282.689 164.304C282.846 164.229 282.984 164.119 283.092 163.982C283.203 163.846 283.283 163.687 283.326 163.517C283.37 163.347 283.376 163.169 283.344 162.996C282.495 158.275 280.013 154.003 276.333 150.926C272.653 147.849 268.009 146.163 263.212 146.163C258.415 146.163 253.771 147.849 250.091 150.926C246.411 154.003 243.929 158.275 243.08 162.996C243.048 163.169 243.054 163.347 243.098 163.517C243.141 163.687 243.221 163.846 243.332 163.982ZM283.258 181.654H243.166C243.215 183.074 243.799 184.423 244.801 185.431C245.803 186.439 247.148 187.03 248.568 187.087H277.856C279.276 187.03 280.622 186.439 281.623 185.431C282.625 184.423 283.209 183.074 283.258 181.654ZM280.955 174.88H274.646L270.199 178.902C269.927 179.146 269.574 179.28 269.209 179.28C268.844 179.28 268.492 179.146 268.22 178.902L263.764 174.88H245.469C244.801 174.88 244.161 175.145 243.688 175.616C243.215 176.088 242.948 176.728 242.946 177.396V177.522C242.948 178.19 243.215 178.829 243.688 179.301C244.161 179.773 244.801 180.037 245.469 180.037H280.955C281.623 180.037 282.264 179.773 282.737 179.301C283.21 178.829 283.476 178.19 283.478 177.522V177.396C283.476 176.728 283.21 176.088 282.737 175.616C282.264 175.145 281.623 174.88 280.955 174.88ZM244.578 172.704V173.303H264.379L266.13 174.88L269.213 177.672L272.296 174.88L274.047 173.303H281.846V172.704H244.578ZM259.742 171.126C259.514 170.969 259.301 170.779 259.096 170.614C258.697 170.195 258.218 169.861 257.686 169.633C257.155 169.405 256.583 169.288 256.005 169.288C255.426 169.288 254.854 169.405 254.323 169.633C253.791 169.861 253.312 170.195 252.913 170.614C252.708 170.779 252.495 170.969 252.267 171.126H259.742ZM274.158 171.126C273.929 170.969 273.716 170.779 273.511 170.614C273.112 170.195 272.633 169.861 272.101 169.633C271.57 169.405 270.998 169.288 270.42 169.288C269.841 169.288 269.269 169.405 268.738 169.633C268.206 169.861 267.727 170.195 267.328 170.614C267.123 170.779 266.911 170.969 266.682 171.126H274.158ZM283.155 169.62C282.64 169.886 282.162 170.221 281.736 170.614C281.531 170.779 281.318 170.961 281.097 171.119C281.542 171.073 281.967 170.91 282.328 170.647C282.69 170.384 282.975 170.03 283.155 169.62ZM245.304 171.119C245.083 170.961 244.87 170.779 244.665 170.614C244.238 170.221 243.761 169.886 243.245 169.62C243.427 170.033 243.716 170.389 244.082 170.653C244.448 170.916 244.878 171.077 245.327 171.119H245.304ZM283.644 167.814C283.666 167.327 283.536 166.845 283.273 166.434C283.141 166.278 282.973 166.156 282.784 166.079C282.594 166.002 282.389 165.973 282.185 165.993H244.239C244.035 165.973 243.83 166.002 243.64 166.079C243.451 166.156 243.283 166.278 243.151 166.434C242.888 166.845 242.758 167.327 242.78 167.814C242.906 167.814 243.025 167.87 243.135 167.909C244.097 168.197 244.978 168.707 245.706 169.399C246.105 169.818 246.586 170.15 247.118 170.378C247.65 170.605 248.222 170.722 248.801 170.722C249.379 170.722 249.952 170.605 250.484 170.378C251.016 170.15 251.496 169.818 251.896 169.399C252.99 168.318 254.466 167.711 256.005 167.711C257.543 167.711 259.019 168.318 260.113 169.399C260.51 169.758 260.946 170.07 261.414 170.33C261.972 170.606 262.59 170.741 263.212 170.724C263.792 170.725 264.365 170.609 264.898 170.381C265.431 170.153 265.912 169.819 266.311 169.399C267.405 168.318 268.881 167.711 270.42 167.711C271.958 167.711 273.434 168.318 274.528 169.399C274.928 169.818 275.408 170.15 275.94 170.378C276.472 170.605 277.045 170.722 277.623 170.722C278.202 170.722 278.774 170.605 279.306 170.378C279.838 170.15 280.319 169.818 280.718 169.399C281.446 168.707 282.327 168.197 283.289 167.909C283.4 167.87 283.518 167.846 283.644 167.814Z" fill="black"/>
<path d="M206.208 150.941C206.208 150.941 213.88 146.371 221.28 149.449C229.285 152.78 227.43 160.734 227.43 160.734H203.389L206.208 150.941Z" fill="white"/>
<path d="M227.813 161.214H202.751L205.8 150.625L205.963 150.528C206.143 150.421 210.431 147.903 215.763 147.903C217.788 147.903 219.707 148.274 221.465 149.006C225.791 150.805 227.312 153.93 227.827 156.235C228.382 158.719 227.919 160.757 227.899 160.842L227.813 161.214ZM204.028 160.253H227.029C227.127 159.585 227.264 158.094 226.881 156.409C226.197 153.397 224.251 151.205 221.096 149.893C219.455 149.21 217.661 148.864 215.763 148.864C211.262 148.864 207.436 150.815 206.616 151.263L204.028 160.253Z" fill="black"/>
<path d="M223.187 158.314C223.187 158.314 224.943 155.155 221.601 152.532C219.679 151.024 216.668 150.941 214.377 151.91C219.452 154.197 220.194 155.995 220.194 155.995C220.194 155.995 221.997 154.886 223.187 158.314Z" fill="#EF9344"/>
<path d="M223.187 158.794C223.087 158.794 222.99 158.763 222.908 158.705C222.827 158.648 222.766 158.566 222.733 158.471C222.248 157.074 221.59 156.305 220.882 156.305C220.623 156.305 220.44 156.407 220.439 156.408C220.316 156.484 220.172 156.507 220.036 156.46C219.9 156.413 219.799 156.314 219.749 156.178C219.745 156.17 218.929 154.488 214.179 152.348C214.094 152.31 214.022 152.247 213.972 152.168C213.922 152.09 213.895 151.998 213.897 151.904C213.898 151.811 213.926 151.72 213.978 151.642C214.03 151.565 214.104 151.504 214.19 151.467C215.233 151.026 216.403 150.792 217.572 150.792C219.242 150.792 220.778 151.276 221.897 152.154C223.779 153.631 224.149 155.287 224.128 156.416C224.104 157.639 223.627 158.511 223.607 158.547C223.565 158.622 223.504 158.685 223.431 158.728C223.357 158.771 223.273 158.794 223.187 158.794ZM220.882 155.344C221.532 155.344 222.39 155.655 223.12 156.967C223.286 155.934 223.132 154.346 221.304 152.91C220.353 152.164 219.028 151.754 217.572 151.754C216.926 151.754 216.282 151.833 215.664 151.987C218.737 153.511 219.945 154.777 220.396 155.405C220.555 155.364 220.718 155.344 220.882 155.344Z" fill="black"/>
<path d="M204.935 150.941C204.935 150.941 202.786 146.729 200.059 147.566C197.332 148.404 198.107 150.941 198.107 150.941C198.107 150.941 195.391 146.532 192.727 147.456C190.064 148.381 193.286 154.259 193.286 154.259C193.286 154.259 189.621 151.521 187.93 153.032C186.24 154.542 189.728 157.472 189.728 157.472C189.728 157.472 186.324 158.1 187.468 160.472H206.207L204.935 150.941Z" fill="#39D800"/>
<path d="M206.208 160.953H187.468C187.284 160.953 187.115 160.847 187.035 160.681C186.682 159.948 186.658 159.271 186.964 158.668C187.34 157.926 188.151 157.489 188.783 157.25C188.063 156.523 187.006 155.26 186.988 154.077C186.979 153.53 187.195 153.045 187.611 152.673C188.039 152.291 188.59 152.097 189.247 152.097C190.226 152.097 191.304 152.538 192.139 152.981C191.535 151.564 190.863 149.491 191.376 148.157C191.592 147.598 192.004 147.199 192.57 147.002C192.864 146.9 193.173 146.848 193.485 146.849C194.616 146.849 195.813 147.507 197.043 148.804C197.236 149.008 197.422 149.218 197.6 149.435C197.778 148.569 198.349 147.589 199.918 147.107C200.198 147.021 200.49 146.976 200.783 146.976C203.42 146.976 205.285 150.569 205.363 150.722C205.388 150.771 205.405 150.823 205.412 150.877L206.684 160.409C206.693 160.476 206.687 160.545 206.668 160.611C206.648 160.677 206.614 160.737 206.569 160.789C206.524 160.84 206.469 160.881 206.406 160.91C206.344 160.938 206.276 160.953 206.208 160.953ZM187.79 159.992H205.659L204.471 151.09C204.353 150.873 203.955 150.179 203.372 149.496C202.764 148.785 201.821 147.937 200.783 147.937C200.588 147.937 200.392 147.967 200.2 148.026C199.251 148.317 198.69 148.868 198.532 149.661C198.412 150.265 198.565 150.795 198.567 150.8C198.601 150.912 198.593 151.032 198.545 151.139C198.497 151.245 198.411 151.331 198.305 151.379C198.199 151.427 198.078 151.434 197.967 151.4C197.855 151.366 197.759 151.292 197.698 151.193C197.117 150.252 195.227 147.81 193.485 147.81C193.28 147.81 193.078 147.844 192.885 147.911C192.583 148.015 192.389 148.204 192.273 148.503C191.734 149.901 193.126 152.966 193.707 154.029C193.76 154.125 193.778 154.236 193.759 154.344C193.739 154.452 193.683 154.55 193.601 154.622C193.518 154.694 193.413 154.735 193.303 154.739C193.194 154.743 193.086 154.71 192.998 154.644C192.977 154.629 190.852 153.058 189.247 153.058C188.827 153.058 188.501 153.166 188.251 153.39C188.041 153.578 187.945 153.792 187.949 154.062C187.957 154.565 188.32 155.265 188.973 156.031C189.503 156.654 190.032 157.1 190.037 157.105C190.107 157.163 190.159 157.24 190.186 157.327C190.214 157.414 190.216 157.507 190.193 157.595C190.169 157.683 190.122 157.763 190.055 157.825C189.988 157.887 189.905 157.929 189.815 157.945C189.383 158.026 188.179 158.393 187.82 159.104C187.689 159.363 187.679 159.655 187.79 159.992Z" fill="black"/>
<path d="M195.651 155.992C195.651 155.992 198.503 150.941 207.921 150.941C217.34 150.941 220.193 155.996 220.193 155.996C220.193 155.996 220.251 161.04 207.951 161.04C195.651 161.04 195.651 155.992 195.651 155.992Z" fill="#EF9344"/>
<path d="M207.952 161.521C195.317 161.521 195.171 156.218 195.171 155.992V155.866L195.233 155.756C195.265 155.701 196.025 154.379 197.988 153.067C199.768 151.878 202.937 150.461 207.922 150.461C212.908 150.461 216.077 151.879 217.857 153.069C219.821 154.381 220.581 155.704 220.613 155.76L220.673 155.867L220.675 155.99C220.675 156.04 220.675 157.23 219.435 158.484C216.953 160.994 211.821 161.521 207.952 161.521ZM196.145 156.111C196.195 156.426 196.433 157.311 197.583 158.217C200.042 160.153 204.579 160.56 207.952 160.56C214.629 160.56 217.511 159.063 218.752 157.808C219.492 157.059 219.663 156.38 219.702 156.117C219.48 155.788 218.742 154.804 217.269 153.832C215.603 152.732 212.63 151.422 207.922 151.422C199.69 151.422 196.642 155.374 196.145 156.111Z" fill="black"/>
<path d="M187.931 165.485L189.383 180.354C189.383 185.349 192.633 188.112 198.534 188.112H217.693C223.595 188.112 226.845 185.349 226.845 180.354L228.296 165.485H187.931Z" fill="white"/>
<path d="M217.693 188.592H198.535C195.482 188.592 193.093 187.879 191.435 186.472C189.76 185.051 188.908 183 188.903 180.377L187.402 165.004H228.826L227.326 180.377C227.321 183.001 226.469 185.051 224.793 186.472C223.135 187.879 220.746 188.592 217.693 188.592ZM188.461 165.965L189.864 180.33V180.354C189.864 182.693 190.602 184.505 192.057 185.74C193.536 186.995 195.716 187.631 198.535 187.631H217.693C220.512 187.631 222.692 186.995 224.171 185.74C225.627 184.505 226.364 182.693 226.364 180.354L226.367 180.307L227.767 165.966L188.461 165.965Z" fill="black"/>
<path d="M190.165 167.222L191.456 179.808C191.456 184.036 194.346 186.375 199.594 186.375H216.633C221.881 186.375 224.771 184.036 224.771 179.808L226.063 167.222H190.165Z" fill="#C8AA88"/>
<path d="M230.699 163.109C230.699 164.421 229.635 165.485 228.323 165.485H187.523C186.211 165.485 185.147 164.421 185.147 163.109C185.147 161.797 186.211 160.733 187.523 160.733H228.323C229.635 160.733 230.699 161.797 230.699 163.109Z" fill="#C8AA88"/>
<path d="M228.322 165.966H187.522C185.947 165.966 184.666 164.684 184.666 163.109C184.666 161.534 185.947 160.253 187.522 160.253H228.322C229.897 160.253 231.179 161.534 231.179 163.109C231.179 164.684 229.897 165.966 228.322 165.966ZM187.522 161.214C186.477 161.214 185.627 162.064 185.627 163.109C185.627 164.154 186.477 165.005 187.522 165.005H228.322C229.367 165.005 230.218 164.154 230.218 163.109C230.218 162.064 229.367 161.214 228.322 161.214H187.522Z" fill="black"/>
<path d="M190.278 160.733C190.278 160.733 189.379 158.113 192.644 158.314C193.25 156.012 194.12 155.454 196.305 156.633C197.134 153.849 199.294 154.895 199.596 156.314C201.541 154.37 203.34 154.722 203.418 156.618C205.764 154.875 207.72 156.549 206.703 158.314C210.066 157.733 210.614 159.041 209.284 160.733L190.278 160.733Z" fill="white"/>
<path d="M209.284 161.214H190.278C190.178 161.214 190.081 161.183 189.999 161.125C189.918 161.066 189.856 160.984 189.824 160.889C189.807 160.839 189.406 159.641 190.055 158.733C190.484 158.132 191.233 157.826 192.283 157.823C192.634 156.647 193.202 155.553 194.495 155.553C194.938 155.553 195.436 155.684 196.037 155.961C196.631 154.569 197.57 154.406 197.976 154.406C198.692 154.406 199.386 154.851 199.78 155.499C200.547 154.873 201.328 154.535 202.024 154.535C202.869 154.535 203.501 155.024 203.766 155.83C204.297 155.549 204.834 155.402 205.346 155.402C206.15 155.402 206.845 155.774 207.205 156.396C207.438 156.799 207.511 157.26 207.427 157.731C207.664 157.707 207.902 157.695 208.14 157.694C209.269 157.694 209.995 158.01 210.298 158.634C210.516 159.081 210.582 159.86 209.662 161.03C209.617 161.088 209.56 161.134 209.495 161.166C209.429 161.197 209.357 161.214 209.284 161.214ZM190.663 160.253H209.044C209.467 159.657 209.528 159.247 209.434 159.054C209.312 158.804 208.829 158.655 208.139 158.655C207.752 158.655 207.296 158.699 206.785 158.788C206.695 158.803 206.603 158.793 206.518 158.758C206.434 158.723 206.362 158.664 206.309 158.589C206.257 158.515 206.227 158.426 206.223 158.335C206.219 158.244 206.241 158.154 206.287 158.075C206.534 157.646 206.565 157.209 206.373 156.877C206.184 156.55 205.81 156.363 205.346 156.363C204.991 156.363 204.419 156.474 203.705 157.004C203.635 157.056 203.552 157.088 203.465 157.097C203.378 157.105 203.29 157.09 203.211 157.052C203.133 157.015 203.065 156.956 203.017 156.883C202.969 156.81 202.942 156.726 202.938 156.638C202.921 156.212 202.779 155.496 202.024 155.496C201.433 155.496 200.672 155.918 199.936 156.654C199.875 156.715 199.798 156.759 199.715 156.78C199.631 156.801 199.543 156.8 199.46 156.775C199.377 156.751 199.302 156.704 199.244 156.641C199.185 156.577 199.144 156.499 199.126 156.414C199.005 155.847 198.479 155.367 197.976 155.367C197.465 155.367 197.035 155.865 196.766 156.77C196.745 156.839 196.71 156.902 196.662 156.955C196.615 157.008 196.555 157.05 196.49 157.077C196.424 157.104 196.352 157.117 196.281 157.113C196.21 157.109 196.14 157.09 196.077 157.056C195.401 156.691 194.883 156.514 194.495 156.514C194.038 156.514 193.554 156.747 193.109 158.437C193.051 158.659 192.844 158.81 192.615 158.794C192.51 158.787 192.404 158.784 192.299 158.784C191.569 158.784 191.077 158.954 190.837 159.291C190.625 159.587 190.626 159.98 190.663 160.253Z" fill="black"/>
<path d="M225.215 160.733C225.215 160.733 226.114 158.113 222.849 158.314C222.242 156.012 221.373 155.454 219.188 156.633C218.359 153.849 216.199 154.895 215.897 156.314C213.952 154.37 212.153 154.722 212.074 156.618C209.728 154.875 207.773 156.549 208.79 158.314C205.426 157.733 204.879 159.041 206.208 160.733L225.215 160.733Z" fill="white"/>
<path d="M225.214 161.214H206.208C206.135 161.214 206.063 161.197 205.998 161.166C205.933 161.134 205.875 161.088 205.83 161.03C204.911 159.86 204.977 159.081 205.194 158.634C205.497 158.01 206.224 157.694 207.353 157.694C207.574 157.694 207.812 157.706 208.065 157.731C207.981 157.26 208.055 156.799 208.287 156.396C208.647 155.774 209.342 155.402 210.146 155.402C210.658 155.402 211.195 155.549 211.727 155.83C211.991 155.024 212.624 154.535 213.469 154.535C214.165 154.535 214.945 154.873 215.712 155.499C216.107 154.851 216.801 154.406 217.516 154.406C217.923 154.406 218.861 154.569 219.456 155.961C220.057 155.684 220.555 155.553 220.997 155.553C222.291 155.553 222.859 156.647 223.21 157.823C224.259 157.826 225.009 158.132 225.438 158.733C226.086 159.641 225.686 160.839 225.669 160.889C225.636 160.984 225.575 161.066 225.493 161.124C225.412 161.183 225.314 161.214 225.214 161.214ZM206.448 160.253H224.829C224.866 159.978 224.867 159.584 224.653 159.288C224.412 158.953 223.921 158.784 223.193 158.784C223.093 158.784 222.987 158.787 222.878 158.794C222.647 158.81 222.442 158.658 222.384 158.437C221.939 156.747 221.454 156.514 220.997 156.514C220.609 156.514 220.091 156.691 219.415 157.056C219.352 157.09 219.283 157.109 219.211 157.113C219.14 157.117 219.069 157.104 219.003 157.077C218.937 157.049 218.878 157.008 218.83 156.955C218.782 156.902 218.747 156.839 218.727 156.77C218.457 155.865 218.027 155.367 217.516 155.367C217.014 155.367 216.487 155.847 216.366 156.414C216.348 156.499 216.308 156.577 216.249 156.641C216.19 156.704 216.115 156.751 216.032 156.775C215.95 156.8 215.862 156.801 215.778 156.78C215.694 156.759 215.617 156.715 215.556 156.654C214.82 155.918 214.059 155.496 213.468 155.496C212.714 155.496 212.572 156.212 212.554 156.638C212.55 156.726 212.523 156.81 212.475 156.883C212.427 156.956 212.36 157.015 212.281 157.052C212.202 157.09 212.114 157.105 212.028 157.097C211.941 157.088 211.858 157.056 211.787 157.004C211.074 156.474 210.501 156.363 210.146 156.363C209.682 156.363 209.308 156.55 209.119 156.877C208.927 157.209 208.959 157.646 209.205 158.074C209.251 158.154 209.273 158.244 209.269 158.335C209.265 158.426 209.235 158.514 209.183 158.589C209.131 158.664 209.058 158.722 208.974 158.758C208.89 158.793 208.797 158.803 208.707 158.788C208.196 158.699 207.74 158.654 207.353 158.654C206.664 158.654 206.18 158.804 206.058 159.054C205.965 159.247 206.026 159.657 206.448 160.253Z" fill="black"/>
<path d="M210.965 155.367C210.875 155.366 210.787 155.341 210.711 155.293C210.635 155.246 210.573 155.177 210.534 155.097C210.494 155.016 210.478 154.925 210.488 154.836C210.497 154.746 210.532 154.661 210.587 154.59C212.63 151.974 215.569 151.944 215.693 151.944C215.82 151.944 215.943 151.994 216.033 152.084C216.123 152.174 216.174 152.297 216.174 152.424C216.174 152.551 216.124 152.674 216.034 152.764C215.944 152.854 215.822 152.905 215.694 152.905C215.668 152.905 213.091 152.946 211.344 155.182C211.3 155.239 211.242 155.286 211.176 155.318C211.111 155.35 211.038 155.367 210.965 155.367ZM205.087 155.164C205.007 155.164 204.928 155.144 204.858 155.106C204.787 155.067 204.728 155.012 204.684 154.945C204.641 154.877 204.615 154.8 204.608 154.72C204.602 154.64 204.616 154.56 204.649 154.487C205.98 151.519 209.684 150.595 209.841 150.557C209.903 150.542 209.966 150.539 210.029 150.549C210.091 150.559 210.151 150.581 210.205 150.614C210.259 150.647 210.305 150.69 210.342 150.741C210.38 150.792 210.406 150.85 210.421 150.911C210.451 151.035 210.43 151.166 210.364 151.274C210.298 151.383 210.191 151.461 210.067 151.491C210.033 151.499 206.661 152.347 205.526 154.88C205.488 154.965 205.426 155.037 205.349 155.087C205.271 155.137 205.18 155.164 205.087 155.164ZM200.811 154.635C200.733 154.635 200.656 154.616 200.587 154.58C200.518 154.544 200.459 154.491 200.415 154.427C200.371 154.362 200.343 154.288 200.334 154.211C200.325 154.133 200.335 154.055 200.363 153.982C201.05 152.202 203.063 151.02 203.149 150.971C203.259 150.907 203.39 150.89 203.513 150.922C203.636 150.955 203.741 151.035 203.805 151.146C203.869 151.256 203.887 151.387 203.854 151.51C203.821 151.633 203.741 151.738 203.631 151.802C203.613 151.812 201.824 152.867 201.259 154.328C201.224 154.418 201.163 154.496 201.083 154.551C201.003 154.606 200.908 154.635 200.811 154.635ZM207.922 184.673C207.794 184.673 207.672 184.622 207.582 184.532C207.492 184.442 207.441 184.32 207.441 184.192V169.818C207.441 169.553 207.656 169.338 207.922 169.338C208.187 169.338 208.402 169.553 208.402 169.818V184.192C208.402 184.32 208.352 184.442 208.262 184.532C208.171 184.622 208.049 184.673 207.922 184.673ZM198.843 184.673C198.773 184.673 198.704 184.657 198.64 184.628C198.576 184.598 198.52 184.554 198.475 184.501C198.43 184.447 198.397 184.384 198.379 184.316C198.361 184.248 198.358 184.177 198.37 184.108C198.407 183.455 198.013 175.246 197.736 169.843C197.732 169.779 197.741 169.716 197.762 169.655C197.782 169.595 197.815 169.54 197.857 169.492C197.899 169.445 197.951 169.406 198.008 169.379C198.065 169.351 198.128 169.335 198.191 169.332C198.255 169.329 198.318 169.338 198.378 169.36C198.438 169.381 198.493 169.414 198.54 169.457C198.587 169.5 198.625 169.552 198.652 169.61C198.679 169.667 198.694 169.73 198.696 169.794C198.698 169.829 198.879 173.368 199.046 176.891C199.388 184.12 199.347 184.224 199.291 184.368C199.255 184.458 199.194 184.535 199.114 184.589C199.034 184.644 198.94 184.673 198.843 184.673ZM217.193 184.673C217.096 184.673 217.002 184.644 216.922 184.589C216.842 184.535 216.781 184.458 216.745 184.368C216.689 184.224 216.648 184.12 216.99 176.891C217.157 173.368 217.338 169.829 217.34 169.793C217.343 169.73 217.359 169.669 217.386 169.612C217.413 169.555 217.451 169.503 217.498 169.461C217.545 169.419 217.599 169.386 217.659 169.365C217.718 169.344 217.781 169.335 217.844 169.338C217.907 169.341 217.969 169.357 218.026 169.384C218.083 169.411 218.134 169.449 218.177 169.496C218.219 169.543 218.251 169.598 218.273 169.657C218.294 169.717 218.303 169.78 218.3 169.843C218.023 175.246 217.629 183.455 217.666 184.108C217.678 184.177 217.675 184.248 217.657 184.316C217.639 184.384 217.606 184.447 217.561 184.501C217.516 184.554 217.46 184.598 217.396 184.627C217.332 184.657 217.263 184.673 217.193 184.673Z" fill="black"/>
</g>
</g>
<defs>
<filter id="filter0_d_109_65932" x="72" y="60" width="326" height="239" filterUnits="userSpaceOnUse" color-interpolation-filters="sRGB">
<feFlood flood-opacity="0" result="BackgroundImageFix"/>
<feColorMatrix in="SourceAlpha" type="matrix" values="0 0 0 0 0 0 0 0 0 0 0 0 0 0 0 0 0 0 127 0" result="hardAlpha"/>
<feOffset/>
<feGaussianBlur stdDeviation="2"/>
<feComposite in2="hardAlpha" operator="out"/>
<feColorMatrix type="matrix" values="0 0 0 0 0 0 0 0 0 0 0 0 0 0 0 0 0 0 0.25 0"/>
<feBlend mode="normal" in2="BackgroundImageFix" result="effect1_dropShadow_109_65932"/>
<feBlend mode="normal" in="SourceGraphic" in2="effect1_dropShadow_109_65932" result="shape"/>
</filter>
<clipPath id="clip0_109_65932">
<rect x="76" y="64" width="318" height="231" rx="10" fill="white"/>
</clipPath>
</defs>
</svg>
