<svg width="469" height="423" viewBox="0 0 469 423" fill="none" xmlns="http://www.w3.org/2000/svg">
<path d="M156 190.5C156 173.394 149.204 156.988 137.108 144.892C125.012 132.796 108.606 126 91.5 126C74.3935 126 57.9877 132.796 45.8916 144.892C33.7955 156.988 27 173.394 27 190.5L91.5 190.5H156Z" fill="white"/>
<path d="M429 196.5C429 179.394 422.204 162.988 410.108 150.892C398.012 138.796 381.606 132 364.5 132C347.394 132 330.988 138.796 318.892 150.892C306.796 162.988 300 179.394 300 196.5L364.5 196.5H429Z" fill="white"/>
<path d="M388 191C388 154.665 373.566 119.819 347.874 94.1264C322.181 68.4339 287.335 54 251 54C214.665 54 179.819 68.4339 154.126 94.1264C128.434 119.819 114 154.665 114 191L251 191H388Z" fill="white"/>
<circle cx="251.175" cy="146.592" r="76.3" fill="#FBC329"/>
<ellipse cx="251.166" cy="296.102" rx="74.8859" ry="2.17061" fill="#C8F2FC"/>
<path d="M212.092 152.157C212.092 152.157 233.615 158.142 236.23 156.987C242.015 154.44 247.283 160.875 243.435 165.852C239.574 170.828 224.486 168.28 224.486 168.28L212.092 152.157Z" fill="#4A260F"/>
<path d="M245.796 210.756C247.057 209.403 218.116 211.818 217.293 209.044C215.568 203.285 214.453 193.585 224.286 193.585C238.737 193.585 260.022 193.519 259.597 204.864C259.186 215.746 247.376 225.565 244.257 242.418C244.257 242.418 243.607 249.106 240.568 247.46C238.498 246.332 236.746 243.174 236.746 243.174C240.488 228.365 238.458 218.585 245.796 210.756Z" fill="#F6AE92"/>
<path d="M213.836 296.092H138.413C138.413 296.092 139.171 290.458 145.092 290.458C151.013 290.458 151.108 294.436 155.738 287.376C160.369 280.315 169.641 282.558 173.431 288.698C177.22 294.839 182.679 282.995 186.907 289.549C191.135 296.092 213.836 296.092 213.836 296.092Z" fill="#C8F2FC"/>
<path d="M343.207 295.859H291.76C291.76 295.859 292.277 291.904 296.311 291.904C300.345 291.904 300.412 294.704 303.57 289.741C306.728 284.778 313.058 286.357 315.645 290.67C318.233 294.983 321.949 286.663 324.841 291.267C327.721 295.859 343.207 295.859 343.207 295.859Z" fill="#C8F2FC"/>
<path d="M184.384 234.711C184.915 231.288 187.503 228.037 191.205 228.713C192.638 228.979 193.925 229.669 195.292 230.16C195.398 230.2 196.473 230.677 196.553 230.611C196.553 230.611 186.255 240.776 186.216 240.815C186.255 240.776 185.088 239.117 184.981 238.958C184.252 237.684 184.159 236.105 184.384 234.711Z" fill="#EE4036"/>
<path d="M202.073 232.058L196.035 229.55C195.558 229.351 195 229.484 194.655 229.868L185.406 240.896C184.491 243.457 189.878 245.938 190.847 245.315L202.405 236.437C202.776 236.198 202.989 235.774 202.962 235.336L202.856 233.133C202.816 232.668 202.511 232.244 202.073 232.058Z" fill="#DDDCDB"/>
<path d="M318.276 188.121C315.638 188.121 313.499 184.99 313.499 181.128C313.499 177.266 315.638 174.135 318.276 174.135C320.914 174.135 323.053 177.266 323.053 181.128C323.053 184.99 320.914 188.121 318.276 188.121Z" fill="#EE4036"/>
<path d="M304.879 193.111L308.681 204.516L301.933 206.765L298.131 195.36L304.879 193.111Z" fill="#3D3633"/>
<path d="M347.802 281.156C352.566 276.419 352.579 268.723 347.855 263.959C343.118 259.195 335.421 259.182 330.658 263.906C325.894 268.643 325.88 276.34 330.604 281.103C335.342 285.867 343.038 285.881 347.802 281.156Z" fill="#3D3633"/>
<path d="M324.473 257.695C332.674 249.547 345.918 249.587 354.065 257.774C362.213 265.975 362.173 279.218 353.986 287.366C345.785 295.514 332.542 295.474 324.394 287.287C316.233 279.086 316.273 265.843 324.473 257.695ZM347.802 281.156C352.566 276.419 352.579 268.722 347.855 263.958C343.118 259.194 335.421 259.181 330.657 263.905C325.893 268.642 325.88 276.339 330.604 281.103C335.341 285.867 343.038 285.88 347.802 281.156Z" fill="#404041"/>
<path d="M322.762 255.97C331.905 246.88 346.701 246.92 355.791 256.063C364.894 265.206 364.841 280.002 355.698 289.092C346.555 298.195 331.759 298.142 322.669 288.999C313.566 279.856 313.606 265.06 322.762 255.97ZM348.798 282.151C354.105 276.87 354.132 268.271 348.851 262.963C343.569 257.655 334.97 257.629 329.662 262.91C324.341 268.192 324.328 276.79 329.609 282.098C334.891 287.42 343.476 287.433 348.798 282.151Z" fill="#3D3633"/>
<path d="M334.405 279.381C330.62 276.712 329.714 271.48 332.383 267.695C335.051 263.909 340.283 263.004 344.068 265.672C347.854 268.34 348.759 273.572 346.091 277.358C343.423 281.143 338.191 282.049 334.405 279.381Z" fill="#EFEDEC"/>
<path d="M329.265 262.513C334.798 257.006 343.742 257.033 349.236 262.566C354.729 268.1 354.716 277.044 349.183 282.537C343.649 288.044 334.705 288.018 329.212 282.484C323.705 276.964 323.731 268.02 329.265 262.513ZM347.803 281.157C352.567 276.42 352.58 268.724 347.856 263.96C343.118 259.196 335.422 259.183 330.658 263.907C325.894 268.644 325.881 276.34 330.605 281.104C335.342 285.868 343.039 285.881 347.803 281.157Z" fill="#EFEDEC"/>
<path d="M335.674 276.061C337.624 278.025 340.796 278.038 342.76 276.074C344.724 274.124 344.737 270.952 342.773 268.988C340.822 267.024 337.651 267.011 335.687 268.975C333.736 270.926 333.723 274.097 335.674 276.061Z" fill="black"/>
<path d="M218.673 281.156C223.437 276.419 223.45 268.723 218.726 263.959C213.989 259.195 206.293 259.182 201.529 263.906C196.765 268.643 196.752 276.34 201.476 281.103C206.213 285.867 213.909 285.881 218.673 281.156Z" fill="#3D3633"/>
<path d="M195.345 257.695C203.546 249.547 216.789 249.587 224.937 257.774C233.084 265.975 233.044 279.218 224.857 287.366C216.656 295.514 203.413 295.474 195.265 287.287C187.118 279.086 187.157 265.843 195.345 257.695ZM218.673 281.156C223.437 276.419 223.45 268.722 218.726 263.958C213.989 259.194 206.292 259.181 201.529 263.905C196.765 268.642 196.751 276.339 201.475 281.103C206.213 285.867 213.909 285.88 218.673 281.156Z" fill="#404041"/>
<path d="M193.633 255.97C202.776 246.88 217.572 246.92 226.661 256.063C235.751 265.206 235.711 280.002 226.569 289.092C217.426 298.195 202.63 298.142 193.54 288.999C184.437 279.856 184.49 265.06 193.633 255.97ZM219.668 282.151C224.976 276.87 225.003 268.271 219.721 262.963C214.44 257.655 205.841 257.629 200.533 262.91C195.212 268.192 195.199 276.79 200.48 282.098C205.762 287.42 214.36 287.433 219.668 282.151Z" fill="#3D3633"/>
<path d="M204.156 278.449C207.42 281.74 212.741 281.754 216.019 278.476C219.31 275.212 219.323 269.89 216.046 266.613C212.781 263.322 207.46 263.309 204.182 266.586C200.905 269.851 200.892 275.158 204.156 278.449Z" fill="#EFEDEC"/>
<path d="M200.149 262.513C205.682 257.006 214.626 257.033 220.12 262.566C225.614 268.1 225.6 277.044 220.067 282.537C214.533 288.044 205.59 288.018 200.096 282.484C194.589 276.964 194.615 268.02 200.149 262.513ZM218.674 281.157C223.438 276.42 223.451 268.724 218.727 263.96C213.989 259.196 206.293 259.183 201.529 263.907C196.765 268.644 196.752 276.34 201.476 281.104C206.213 285.868 213.91 285.881 218.674 281.157Z" fill="#EFEDEC"/>
<path d="M206.544 276.061C208.494 278.025 211.666 278.038 213.63 276.074C215.594 274.124 215.607 270.952 213.643 268.988C211.692 267.024 208.521 267.011 206.557 268.975C204.606 270.926 204.593 274.097 206.544 276.061Z" fill="black"/>
<path d="M339.881 242.408C327.395 241.545 316.381 249.812 313.382 261.529C313.103 262.604 314.47 263.321 315.2 262.485C317.814 259.566 322.697 255.611 331.11 253.488C341.806 250.794 352.806 253.289 357.782 254.762C358.738 255.041 359.521 253.966 358.95 253.143C354.677 247.105 347.843 242.965 339.881 242.408Z" fill="url(#paint0_linear_240_18394)"/>
<path d="M313.38 261.53C316.299 250.118 326.835 241.97 338.938 242.369C334.479 243.337 331.347 247.358 331.135 252.016C331.108 252.507 331.148 252.984 331.214 253.462C331.188 253.475 331.161 253.475 331.122 253.489C322.695 255.612 317.812 259.566 315.211 262.486C314.455 263.322 313.101 262.618 313.38 261.53Z" fill="#0986A5"/>
<path d="M316.618 188.095C316.618 188.639 317.069 189.09 317.613 189.09C318.157 189.09 318.608 188.639 318.608 188.095V174.374C318.608 173.83 318.157 173.378 317.613 173.378C317.069 173.378 316.618 173.83 316.618 174.374V188.095Z" fill="#EFEFEF"/>
<path d="M317.6 185.614C318.144 185.614 318.595 185.162 318.595 184.618V188.095C318.595 188.639 318.144 189.09 317.6 189.09C317.056 189.09 316.605 188.639 316.605 188.095V184.618C316.618 185.162 317.056 185.614 317.6 185.614Z" fill="#D3D3D3"/>
<path d="M298.81 199.188C298.81 199.188 286.668 162.856 316.618 174.241V188.241L307.13 191.107C307.13 191.107 304.994 191.81 306.692 196.747L298.929 199.507C298.876 199.401 298.836 199.294 298.81 199.188Z" fill="url(#paint1_linear_240_18394)"/>
<path d="M304.29 179.35C304.29 180.213 304.954 180.903 305.79 180.903C306.626 180.903 307.289 180.213 307.289 179.35C307.289 178.488 306.626 177.798 305.79 177.798C304.954 177.798 304.29 178.488 304.29 179.35Z" fill="#2F9BA2"/>
<path d="M230.616 243.351C240.794 254.113 252.604 267.077 268.992 264.33C277.976 262.818 300.853 256.594 304.555 248.261C310.328 235.269 300.043 203.754 300.043 203.754L308.005 199.693C310.991 205.532 319.709 220.673 331.161 223.433L329.489 235.814L309.16 268.948L225.626 271.947V237.817C227.258 239.715 228.917 241.559 230.616 243.351Z" fill="#002635"/>
<path d="M256.665 222.225C255.55 222.053 254.476 221.934 253.573 221.735C250.627 221.098 246.58 220.421 243.687 219.598C239.998 218.55 234.903 216.387 231.2 218.258C229.17 219.28 228.586 221.575 228.453 223.712C228.4 224.468 228.944 225.132 229.688 225.238C235.115 226.021 256.294 229.099 262.65 230.015C263.605 230.148 264.428 229.338 264.282 228.383C264.123 227.348 263.924 226.233 263.844 226.021C262.822 223.353 259.598 222.663 256.665 222.225Z" fill="#3D3633"/>
<path d="M306.706 196.853C301.504 187.431 306.812 185.6 306.812 185.6L316.605 183.026V188.227L307.118 191.094C307.118 191.094 304.941 191.797 306.706 196.853Z" fill="#08341B"/>
<path d="M249.95 260.282C244.509 253.9 263.525 230.293 263.631 230.293L205.005 221.136L192.253 271.947H249.95V260.282Z" fill="url(#paint2_linear_240_18394)"/>
<path d="M239.599 262.486V271.947H177.59L183.03 262.486H239.599Z" fill="#3D3633"/>
<path d="M204.991 221.15L204.102 225.303L261.122 233.889C261.759 232.96 262.41 232.031 263.047 231.102C263.1 231.023 263.471 230.359 263.591 230.293C263.511 230.399 205.004 221.137 204.991 221.15Z" fill="#002635"/>
<path d="M292.361 257.391C284.226 260.961 274.261 263.455 269.006 264.331C268.992 264.331 268.992 264.331 268.979 264.331C268.382 264.437 267.785 264.504 267.188 264.57C267.015 264.583 266.843 264.597 266.67 264.61C266.219 264.65 265.781 264.676 265.33 264.689C265.171 264.689 265.012 264.703 264.852 264.703C263.658 264.716 262.477 264.65 261.336 264.504C261.256 264.49 261.163 264.477 261.084 264.464C260.566 264.397 260.062 264.305 259.544 264.212C259.465 264.198 259.398 264.185 259.319 264.172C257.541 263.8 255.816 263.256 254.157 262.566V271.961H292.361V257.391Z" fill="#3D3633"/>
<path d="M297.059 184.247C297.059 186.45 298.571 188.241 300.442 188.241C302.313 188.241 303.813 186.45 303.813 184.247C303.813 182.044 302.3 180.253 300.442 180.253C298.571 180.253 297.059 182.044 297.059 184.247Z" fill="#BFBEBE"/>
<path d="M293.184 191.584C292.441 190.709 291.259 190.47 290.569 190.961L297.019 183.477C297.589 182.627 298.518 182.07 299.593 182.07C301.318 182.07 302.725 183.53 302.725 185.321C302.725 186.555 302.048 187.617 301.079 188.174L293.33 194.278C293.94 193.694 293.927 192.473 293.184 191.584Z" fill="black"/>
<path d="M290.172 191.546C290.198 191.479 290.225 191.426 290.251 191.36C290.331 191.214 290.424 191.068 290.543 190.962C290.57 190.935 290.596 190.922 290.636 190.909C291.326 190.418 292.441 190.71 293.184 191.585C293.927 192.461 294.006 193.602 293.409 194.2C293.383 194.226 293.37 194.253 293.343 194.266C293.303 194.306 293.25 194.319 293.197 194.359C293.131 194.399 293.064 194.438 292.985 194.465C292.295 194.73 291.366 194.425 290.716 193.655C290.158 192.992 289.972 192.169 290.172 191.546Z" fill="#BFBEBE"/>
<path d="M292.812 193.735C292.786 193.748 292.759 193.775 292.719 193.788C292.374 193.921 291.764 193.748 291.286 193.191C290.848 192.673 290.769 192.116 290.875 191.784C290.954 191.625 290.994 191.572 291.034 191.545L291.061 191.532C291.392 191.293 292.096 191.466 292.613 192.076C293.131 192.687 293.17 193.403 292.879 193.695L292.812 193.762V193.735Z" fill="#AAAAAA"/>
<path d="M343.238 234.924L308.922 199.838C308.219 199.148 307.197 198.923 306.268 199.254C304.822 199.772 304.158 201.444 304.861 202.811L318.37 229.549C318.702 230.186 318.742 230.929 318.489 231.606L307.436 261.211C307.051 262.22 306.082 262.883 304.994 262.87L237.345 251.259C234.823 251.206 233.762 254.47 235.858 255.903L251.344 273.592C251.663 274.083 252.14 274.454 252.724 274.547C252.817 274.561 252.91 274.574 253.003 274.574L309.851 274.653C310.727 274.706 311.563 274.295 312.067 273.565C312.611 272.597 313.168 271.628 313.712 270.672C315.066 268.297 316.406 265.909 317.76 263.533C319.471 260.508 330.631 239.528 331.719 239.94C339.92 243.071 343.463 235.162 343.238 234.924Z" fill="url(#paint3_linear_240_18394)"/>
<path d="M240.701 247.106C237.715 241.439 233.044 236.636 227.365 233.637C224.883 232.323 222.229 231.354 219.496 230.77C212.728 229.311 205.523 230.054 199.246 233C198.357 233.411 197.494 233.876 196.658 234.38C188.816 239.038 183.283 247.132 181.703 256.116L243.806 267.05C244.324 267.13 244.151 258.571 244.058 257.814C243.607 254.059 242.453 250.436 240.701 247.106Z" fill="url(#paint4_linear_240_18394)"/>
<path d="M237.582 247.173L237.609 247.04C233.694 239.503 226.794 233.624 218.169 231.196C218.076 231.169 217.983 231.143 217.89 231.116C217.465 230.997 217.054 230.891 216.616 230.798C216.284 230.718 215.939 230.652 215.608 230.585C215.422 230.546 215.236 230.506 215.037 230.466C215.024 230.466 215.01 230.466 214.984 230.453C214.971 230.453 214.957 230.439 214.931 230.439C214.745 230.4 214.546 230.386 214.36 230.36C214.015 230.307 213.67 230.254 213.338 230.214C212.901 230.161 212.476 230.121 212.038 230.081C211.945 230.068 211.852 230.068 211.759 230.055C211.52 230.041 211.282 230.028 211.043 230.015C212.343 229.948 213.67 229.948 214.997 230.055C215.09 230.068 215.183 230.068 215.276 230.081C215.714 230.121 216.138 230.161 216.576 230.214C216.921 230.254 217.253 230.307 217.598 230.36C217.784 230.386 217.983 230.413 218.169 230.439C218.182 230.439 218.195 230.453 218.222 230.453C218.235 230.453 218.248 230.453 218.275 230.466C218.461 230.506 218.646 230.546 218.845 230.585C219.19 230.652 219.522 230.718 219.854 230.798C220.279 230.891 220.703 231.01 221.128 231.116C221.221 231.143 221.314 231.169 221.406 231.196C230.032 233.624 236.932 239.503 240.847 247.04L240.82 247.173C243.846 253.078 245.053 259.991 243.819 267.038L240.674 266.48C241.736 259.62 240.528 252.918 237.582 247.173Z" fill="#08341B"/>
<path d="M244.523 266.852L244.443 267.276C243.952 270.05 241.312 271.894 238.538 271.403L184.504 261.968C181.611 261.464 179.687 258.704 180.191 255.824C180.217 255.705 180.324 255.625 180.443 255.652L244.523 266.852Z" fill="#02728E"/>
<path d="M193.448 246.283L226.928 252.002C227.499 252.095 228.029 251.71 228.136 251.153C228.228 250.582 227.844 250.051 227.286 249.945L193.807 244.226C193.236 244.133 192.705 244.518 192.599 245.075C192.506 245.646 192.891 246.177 193.448 246.283Z" fill="#08341B"/>
<path d="M190.781 249.521L224.261 255.241C224.831 255.333 225.362 254.949 225.468 254.391C225.561 253.821 225.176 253.29 224.619 253.184L191.139 247.464C190.568 247.372 190.038 247.756 189.932 248.314C189.839 248.884 190.223 249.428 190.781 249.521Z" fill="#08341B"/>
<path d="M188.074 252.759L221.553 258.478C222.124 258.571 222.655 258.186 222.761 257.629C222.854 257.058 222.469 256.527 221.912 256.421L188.432 250.702C187.861 250.609 187.331 250.994 187.224 251.551C187.132 252.122 187.503 252.653 188.074 252.759Z" fill="#08341B"/>
<path d="M226.33 222.742L226.317 222.835C226.171 223.764 225.282 224.401 224.353 224.255L189.373 218.576C188.418 218.416 187.754 217.514 187.914 216.559C187.914 216.532 187.94 216.519 187.967 216.519L226.33 222.742Z" fill="#D0D2D3"/>
<path d="M221.207 223.75L220.902 225.595C220.663 227.055 219.283 228.05 217.823 227.811C216.364 227.572 215.369 226.192 215.607 224.732L215.913 222.888L221.207 223.75Z" fill="#D0D2D3"/>
<path d="M196.949 219.809L196.644 221.654C196.405 223.113 195.025 224.108 193.566 223.87C192.106 223.631 191.111 222.251 191.35 220.791L191.655 218.947L196.949 219.809Z" fill="#D0D2D3"/>
<path d="M218.301 226.524C217.663 226.524 217.146 226.007 217.146 225.37C217.146 224.732 217.663 224.215 218.301 224.215C218.938 224.215 219.455 224.732 219.455 225.37C219.455 226.007 218.938 226.524 218.301 226.524Z" fill="#3D3633"/>
<path d="M192.89 221.335C192.89 221.972 193.407 222.489 194.044 222.489C194.681 222.489 195.198 221.972 195.198 221.335C195.198 220.698 194.681 220.18 194.044 220.18C193.407 220.194 192.89 220.698 192.89 221.335Z" fill="#3D3633"/>
<path d="M201.78 235.136C201.581 236.357 202.417 237.512 203.638 237.724C204.859 237.923 206.013 237.087 206.226 235.866C206.425 234.645 205.589 233.491 204.368 233.279C203.134 233.08 201.979 233.902 201.78 235.136Z" fill="#D0D2D3"/>
<path d="M203.771 236.317C204.05 236.357 204.341 236.304 204.58 236.131C205.071 235.786 205.177 235.11 204.832 234.619L195.384 221.495C195.039 221.004 194.363 220.898 193.872 221.243C193.381 221.588 193.274 222.264 193.619 222.755L203.068 235.879C203.24 236.118 203.492 236.264 203.771 236.317Z" fill="#F7F2E7"/>
<path d="M181.186 211.397C181.85 207.323 185.327 200.383 198.358 204.258L222.641 213.427C226.357 214.025 228.878 217.528 228.268 221.243L227.963 223.101L186.242 216.241C185.632 216.134 182.965 215.192 182.208 214.383C180.948 213.029 181.186 211.397 181.186 211.397Z" fill="#3D3633"/>
<path d="M305.725 179.882C305.38 179.882 305.048 179.656 304.942 179.311C304.916 179.231 303.031 173.486 300.842 166.041C298.865 159.313 292.999 160.242 292.747 160.282C292.296 160.362 291.872 160.056 291.792 159.605C291.712 159.154 292.017 158.73 292.469 158.65C292.548 158.637 300.046 157.442 302.434 165.577C304.611 172.995 306.482 178.714 306.508 178.793C306.654 179.231 306.415 179.696 305.977 179.842C305.898 179.868 305.805 179.882 305.725 179.882Z" fill="#E8EBEC"/>
<path d="M290.49 154.788H290.477L292.255 165.032H292.269C292.998 164.9 293.489 164.196 293.37 163.467L292.056 155.89C291.924 155.16 291.22 154.669 290.49 154.788Z" fill="#B8BABB"/>
<path d="M287.663 152.745C287.597 152.758 287.531 152.785 287.464 152.798L290.092 167.912C290.158 167.912 290.224 167.912 290.304 167.899C291.591 167.674 292.467 166.439 292.241 165.139L290.423 154.669C290.198 153.395 288.964 152.519 287.663 152.745Z" fill="#DDDCDB"/>
<path d="M250.838 167.844L250.824 167.804H250.906L250.838 167.844Z" fill="#474759"/>
<path d="M249.963 159.935C251.595 160.081 254.66 160.97 255.483 165.442C255.483 165.442 251.582 163.213 249.538 165.721C249.817 165.19 249.963 164.593 249.963 163.956V159.935Z" fill="#3C5059"/>
<path d="M252.512 167.817C254.648 167.817 256.373 166.092 256.36 163.955L256.347 154.162L248.637 154.175L248.65 163.969C248.65 166.092 250.388 167.817 252.512 167.817Z" fill="#F6BB8F"/>
<path d="M256.36 162.562C255.126 163.013 253.839 163.265 252.498 163.265C251.158 163.265 249.871 163.026 248.637 162.562L248.624 155.754L256.333 155.741L256.36 162.562Z" fill="#F9BA90"/>
<path d="M239.268 136.579C235.738 136.765 234.676 139.432 234.676 143.002C234.676 146.532 236.707 149.411 239.281 149.677L239.268 136.579Z" fill="#F6BB8F"/>
<path d="M239.267 138.783C239.267 138.597 237.555 139.327 237.369 139.433C236.599 139.897 236.108 140.72 235.923 141.583C235.551 143.387 236.387 145.431 237.767 146.612C238.192 146.983 238.696 147.275 239.24 147.448L239.267 147.461C239.267 147.461 239.267 142.233 239.253 139.897C239.267 139.234 239.267 138.796 239.267 138.783Z" fill="#FCCEAE"/>
<path d="M239.267 139.578C239.135 139.552 238.126 139.897 238.033 139.936C236.958 140.374 236.162 141.237 235.923 142.391C235.884 142.564 235.87 142.723 235.857 142.896C235.817 142.458 235.844 142.02 235.923 141.595C236.056 140.932 236.401 140.321 236.892 139.857C237.423 139.353 238.06 139.034 238.763 138.862C238.829 138.848 239.267 138.782 239.267 138.782" fill="#E9AE85"/>
<path d="M265.742 136.553C269.272 136.739 270.334 139.406 270.334 142.976C270.334 146.506 268.303 149.385 265.729 149.651L265.742 136.553Z" fill="#F6BB8F"/>
<path d="M265.743 138.756C265.743 138.57 267.455 139.3 267.641 139.406C268.41 139.871 268.901 140.693 269.087 141.556C269.459 143.361 268.623 145.404 267.242 146.585C266.818 146.957 266.314 147.249 265.77 147.421L265.743 147.435C265.743 147.435 265.743 142.206 265.756 139.871C265.743 139.207 265.743 138.769 265.743 138.756Z" fill="#FCCEAE"/>
<path d="M265.742 139.551C265.875 139.525 266.883 139.87 266.976 139.909C268.051 140.347 268.847 141.21 269.086 142.364C269.126 142.537 269.139 142.696 269.152 142.869C269.192 142.431 269.166 141.993 269.086 141.568C268.953 140.905 268.608 140.294 268.117 139.83C267.587 139.325 266.95 139.007 266.246 138.835C266.18 138.821 265.742 138.755 265.742 138.755" fill="#E9AE85"/>
<path d="M238.035 147.66C238.048 155.357 244.537 161.594 252.525 161.594C260.527 161.58 267.003 155.33 266.989 147.634C266.976 139.937 263.632 125.871 252.486 125.885C240.755 125.898 238.021 139.964 238.035 147.66Z" fill="#F6BB8F"/>
<path d="M265.636 147.952C265.556 143.905 265.304 140.017 264.176 137.442L265.238 139.831C266.485 141.994 266.989 144.661 266.989 147.634C267.003 155.33 260.527 161.58 252.525 161.593C259.771 161.58 265.782 155.476 265.636 147.952Z" fill="#E9AE85"/>
<path d="M240.091 139.42C239.454 141.265 239.388 145.657 239.388 147.979C239.401 155.503 245.28 161.607 252.525 161.594C244.523 161.607 238.035 155.37 238.035 147.661C238.035 145.471 238.26 143.454 238.844 141.676L240.091 139.42Z" fill="#E9AE85"/>
<path d="M238.339 135.545C239.175 129.481 241.816 124.955 247.615 123.39V123.337C248.809 123.045 250.149 122.859 251.636 122.819C251.662 122.819 251.675 122.819 251.702 122.819C251.954 122.806 252.219 122.806 252.485 122.806C252.498 122.806 252.498 122.806 252.511 122.806C252.525 122.806 252.525 122.806 252.538 122.806C252.803 122.806 253.069 122.806 253.321 122.819C253.347 122.819 253.361 122.819 253.387 122.819C254.873 122.872 256.214 123.045 257.408 123.337V123.39C263.194 124.955 265.848 129.481 266.67 135.545C266.936 136.553 267.758 140.203 267.175 144.781C267.135 145.086 266.697 145.126 266.604 144.834L265.118 139.566C264.587 139.512 261.721 130.277 261.721 130.277C261.721 130.277 261.707 130.277 261.694 130.29C261.362 127.795 255.922 127.517 253.905 127.57C251.768 127.623 249.605 127.901 247.721 128.963C245.518 130.21 244.204 132.387 243.063 134.576C242.904 134.55 242.758 134.51 242.612 134.47C242.612 134.47 240.396 139.512 239.879 139.566L238.392 144.834C238.299 145.139 237.862 145.099 237.822 144.781C237.251 140.203 238.074 136.553 238.339 135.545Z" fill="#31312F"/>
<path d="M265.463 129.387C264.361 121.877 255.497 119.793 249.074 120.762C247.084 121.067 245.107 121.771 243.541 123.058C242.785 123.681 242.134 124.438 241.63 125.287C241.351 125.751 241.126 126.242 240.94 126.76C240.874 126.959 240.622 128.286 240.502 128.339C240.502 128.339 236.402 130.051 238.233 141.357C238.233 141.357 244.165 141.025 244.165 132.493C244.165 132.785 249.99 133.528 250.547 133.594C254.051 134.072 257.554 133.912 261.017 133.315C262.105 133.13 262.849 133.833 263.512 134.642C263.963 135.2 264.242 135.916 264.136 136.619C264.202 136.182 264.653 135.611 264.826 135.173C265.038 134.629 265.197 134.072 265.33 133.501C265.622 132.161 265.662 130.754 265.463 129.387Z" fill="#31312F"/>
<path d="M237.557 158.635C237.557 158.635 239.786 159.763 242.427 156.817C242.427 156.817 242.997 155.875 242.055 153.234L240.171 143.242C240.171 143.242 240.237 141.543 239.6 140.827C239.6 140.827 235.951 140.283 234.889 140.787C234.889 140.787 234.452 144.37 235.712 150.726C235.712 150.713 236.96 157.759 237.557 158.635Z" fill="#0B0909"/>
<path d="M266.764 158.582C266.764 158.582 264.083 158.98 261.695 157.72C261.695 157.72 260.527 156.738 260.938 155.835C262.743 151.894 262.955 139.951 264.694 139.712C264.694 139.712 268.781 139.394 269.099 140.217C269.099 140.217 269.789 143.866 268.476 150.408C268.462 150.408 267.772 155.119 266.764 158.582Z" fill="#0D0C0C"/>
<path d="M234.889 140.907L234.784 140.906L234.771 140.803C234.546 139.092 235.257 137.863 236.022 137.067C236.405 136.669 236.801 136.378 237.104 136.187C237.256 136.091 237.384 136.02 237.476 135.972C237.522 135.949 237.559 135.931 237.586 135.918C237.599 135.912 237.61 135.907 237.619 135.904C237.623 135.902 237.627 135.9 237.632 135.899C237.632 135.899 237.632 135.899 237.632 135.899C238.194 135.629 239.023 135.377 239.943 135.152C240.87 134.924 241.897 134.721 242.854 134.552C243.811 134.383 244.699 134.246 245.347 134.152C245.672 134.106 245.936 134.069 246.12 134.045C246.212 134.032 246.283 134.023 246.332 134.017L246.387 134.009L246.401 134.008L246.405 134.007L246.406 134.007L246.406 134.007L246.421 134.126L246.406 134.007L246.41 134.007C248.681 133.787 251.674 133.834 254.094 133.935C255.306 133.986 256.375 134.05 257.142 134.102C257.526 134.127 257.834 134.15 258.046 134.166C258.152 134.174 258.234 134.181 258.289 134.185L258.352 134.191L258.369 134.192L258.373 134.192L258.374 134.192L258.374 134.192L258.364 134.312L258.374 134.192L258.376 134.193C261.465 134.512 263.754 135.145 265.272 135.699C266.031 135.976 266.598 136.233 266.975 136.421C267.164 136.516 267.306 136.593 267.4 136.647C267.448 136.673 267.483 136.695 267.507 136.709L267.535 136.726L267.539 136.728C268.456 137.19 268.877 138.077 269.069 138.83C269.166 139.209 269.207 139.559 269.223 139.815C269.232 139.943 269.234 140.047 269.234 140.12C269.234 140.156 269.234 140.185 269.233 140.204L269.233 140.227L269.232 140.233L269.232 140.235L269.232 140.235L269.232 140.236C269.232 140.236 269.232 140.236 269.113 140.23L269.232 140.236L269.226 140.364L269.099 140.349L264.693 139.845L264.638 139.839L264.608 139.793C263.77 138.55 262.858 137.887 262.158 137.534C261.808 137.357 261.511 137.258 261.303 137.203C261.198 137.176 261.116 137.159 261.061 137.15C261.034 137.145 261.013 137.142 260.999 137.14L260.984 137.139L260.981 137.138L260.98 137.138L260.98 137.139L260.971 137.137C257.17 136.475 253.607 136.269 250.994 136.23C249.688 136.21 248.619 136.231 247.877 136.258C247.506 136.271 247.217 136.286 247.021 136.297C246.923 136.302 246.848 136.307 246.798 136.31L246.741 136.314L246.727 136.315L246.723 136.316L246.722 136.316L246.722 136.316L246.713 136.196L246.722 136.316L246.716 136.316C244.386 136.369 243.004 136.771 242.208 137.153C241.811 137.344 241.56 137.531 241.41 137.666C241.335 137.734 241.285 137.789 241.254 137.826C241.242 137.841 241.233 137.853 241.227 137.862C240.991 139.135 240.61 139.899 240.279 140.348C240.113 140.574 239.96 140.719 239.846 140.809C239.789 140.854 239.742 140.885 239.708 140.905C239.691 140.915 239.677 140.923 239.667 140.928L239.655 140.934L239.651 140.936L239.65 140.936L239.649 140.937L239.649 140.937C239.649 140.937 239.649 140.937 239.6 140.827L239.649 140.937L239.625 140.947L239.599 140.947L234.889 140.907Z" fill="#1B1514" stroke="#BDE7F2" stroke-width="0.239758"/>
<path d="M267.697 159.22L267.698 159.22L267.707 159.219C267.714 159.219 267.723 159.218 267.733 159.216C267.754 159.213 267.781 159.206 267.813 159.194C267.877 159.17 267.96 159.125 268.048 159.041C268.225 158.874 268.422 158.559 268.564 157.963L269.611 154.467L269.611 154.466L269.612 154.462L269.619 154.443C269.625 154.427 269.633 154.402 269.644 154.369C269.666 154.304 269.698 154.207 269.738 154.079C269.817 153.825 269.929 153.45 270.059 152.968C270.317 152.003 270.645 150.608 270.922 148.881C271.478 145.429 271.834 140.653 271.035 135.356C271.035 135.356 271.035 135.356 271.035 135.356L271.035 135.356L271.035 135.354L271.034 135.348L271.03 135.324C271.027 135.302 271.022 135.271 271.015 135.23C271.002 135.148 270.981 135.028 270.951 134.873C270.893 134.564 270.801 134.118 270.668 133.57C270.401 132.475 269.969 130.97 269.306 129.331C267.982 126.057 265.731 122.234 262.022 120.091L262.019 120.088L262.001 120.077C261.985 120.067 261.962 120.052 261.931 120.033C261.869 119.996 261.778 119.941 261.659 119.874C261.42 119.739 261.069 119.551 260.617 119.339C259.712 118.914 258.402 118.393 256.778 118.001C253.529 117.219 249.024 116.959 244 119.047L244 119.047L243.999 119.047L243.995 119.049L243.977 119.056C243.961 119.063 243.937 119.073 243.906 119.085C243.845 119.111 243.755 119.15 243.64 119.202C243.411 119.306 243.081 119.464 242.681 119.678C241.881 120.105 240.796 120.758 239.658 121.66C237.385 123.462 234.89 126.264 234.031 130.257L234.026 130.269C234.022 130.28 234.017 130.294 234.01 130.312C234.008 130.318 234.006 130.324 234.003 130.331C233.983 130.386 233.955 130.467 233.919 130.574C233.848 130.787 233.749 131.104 233.637 131.516C233.413 132.34 233.138 133.547 232.931 135.086C232.516 138.162 232.374 142.562 233.458 147.858L233.458 147.859L235.435 157.09L235.435 157.094L235.439 157.119C235.442 157.14 235.446 157.171 235.453 157.21C235.466 157.288 235.485 157.399 235.513 157.53C235.568 157.793 235.654 158.141 235.781 158.479C235.906 158.814 236.075 159.151 236.301 159.382C236.532 159.617 236.83 159.748 237.19 159.64L237.195 159.639C237.2 159.638 237.207 159.636 237.216 159.633C237.233 159.627 237.255 159.618 237.281 159.605C237.334 159.578 237.4 159.533 237.464 159.459C237.595 159.311 237.704 159.06 237.69 158.645L237.689 158.631L237.685 158.617L237.57 158.649C237.685 158.617 237.685 158.617 237.685 158.617L237.685 158.616L237.684 158.614L237.682 158.604L237.671 158.565C237.662 158.531 237.648 158.48 237.63 158.413C237.594 158.279 237.542 158.082 237.478 157.831C237.348 157.327 237.167 156.605 236.961 155.726C236.55 153.97 236.04 151.594 235.648 149.114C235.255 146.633 234.98 144.052 235.036 141.885C235.064 140.802 235.174 139.826 235.392 139.02C235.61 138.212 235.932 137.586 236.376 137.188L236.381 137.183L236.381 137.183L236.382 137.182L236.387 137.177C236.391 137.173 236.399 137.166 236.409 137.157C236.43 137.138 236.463 137.11 236.508 137.073C236.599 137 236.743 136.894 236.948 136.765C237.36 136.506 238.02 136.156 239.007 135.796C240.983 135.077 244.271 134.319 249.502 134.18C249.502 134.18 249.502 134.18 249.502 134.18L249.503 134.18L249.509 134.18L249.532 134.179L249.625 134.179C249.706 134.178 249.827 134.177 249.982 134.178C250.293 134.178 250.743 134.181 251.303 134.194C252.423 134.218 253.978 134.278 255.72 134.42C259.208 134.703 263.431 135.313 266.41 136.611L266.417 136.615L267.697 159.22ZM267.697 159.22C267.697 159.22 267.696 159.22 267.696 159.22C267.406 159.23 267.192 159.171 267.039 159.061C266.885 158.95 266.806 158.799 266.77 158.653C266.734 158.509 266.737 158.367 266.748 158.264C266.754 158.212 266.762 158.168 266.768 158.137C266.772 158.122 266.775 158.109 266.777 158.1L266.779 158.093L267.229 155.273L267.228 155.273L267.231 155.262C267.986 152.343 268.406 149.496 268.638 147.378C268.754 146.319 268.823 145.443 268.862 144.832C268.882 144.526 268.895 144.287 268.902 144.124C268.906 144.043 268.909 143.981 268.91 143.939L268.912 143.892L268.913 143.88L268.913 143.877L268.913 143.876L268.913 143.876L269.032 143.88L268.912 143.876L268.913 143.868C269.236 140.67 268.595 138.856 267.891 137.846C267.538 137.34 267.167 137.031 266.887 136.85C266.746 136.759 266.629 136.7 266.547 136.664C266.506 136.646 266.474 136.634 266.453 136.626C266.443 136.623 266.435 136.62 266.43 136.618L266.425 136.617L266.425 136.617L266.424 136.617L266.424 136.617L267.697 159.22Z" fill="url(#paint5_linear_240_18394)" stroke="#BDE7F2" stroke-width="0.239758"/>
<path d="M245.238 148.816C246.273 148.75 247.308 148.365 248.211 147.648C249.299 146.786 250.029 145.645 250.56 144.371C250.745 143.92 250.905 143.468 251.077 143.017C251.183 142.739 251.342 142.487 251.568 142.287C251.847 142.035 252.232 142.035 252.51 142.287C252.736 142.487 252.895 142.739 253.001 143.017C253.227 143.601 253.426 144.198 253.691 144.769C254.195 145.884 254.885 146.879 255.854 147.648C256.624 148.259 257.5 148.644 258.482 148.776C259.795 148.949 260.897 148.471 261.812 147.556C262.303 147.065 262.608 146.454 262.9 145.844C263.073 145.472 263.245 145.087 263.418 144.716C263.511 144.504 263.67 144.358 263.882 144.265C264.042 144.212 264.095 144.079 264.108 143.92C264.135 143.694 264.161 143.468 264.188 143.23C264.227 142.924 264.188 142.818 263.909 142.712C263.577 142.593 263.378 142.354 263.245 142.035C263.166 141.823 263.046 141.624 262.954 141.425C262.622 140.682 262.064 140.217 261.321 139.912C260.698 139.66 260.061 139.541 259.41 139.474C257.646 139.288 255.881 139.328 254.116 139.328C253.532 139.328 252.935 139.328 252.351 139.328C251.674 139.328 250.984 139.328 250.307 139.328C248.994 139.328 247.68 139.328 246.366 139.355C245.464 139.368 244.548 139.434 243.659 139.633C243.128 139.753 242.624 139.952 242.16 140.217C241.655 140.509 241.35 140.96 241.098 141.465C240.965 141.73 240.833 141.996 240.713 142.261C240.634 142.42 240.528 142.54 240.355 142.606C240.249 142.646 240.156 142.699 240.063 142.739C239.93 142.805 239.864 142.911 239.877 143.057C239.904 143.362 239.944 143.654 239.97 143.959C239.997 144.119 240.103 144.212 240.236 144.265C240.421 144.344 240.554 144.49 240.634 144.663C240.846 145.114 241.045 145.565 241.257 146.003C241.563 146.627 241.908 147.224 242.425 147.702C243.195 148.418 244.084 148.803 245.238 148.816ZM252.019 139.872C252.63 139.872 253.253 139.872 253.864 139.872C253.93 139.872 254.023 139.912 254.049 139.952C254.103 140.032 254.023 140.098 253.957 140.151C253.598 140.443 253.333 140.801 253.16 141.226C253.107 141.359 253.068 141.478 253.028 141.611C252.935 141.863 252.855 141.889 252.63 141.743C252.603 141.717 252.563 141.704 252.537 141.677C252.192 141.491 251.847 141.478 251.502 141.677C251.143 141.889 251.104 141.876 250.971 141.491C250.798 140.96 250.533 140.496 250.095 140.138C250.042 140.098 249.989 140.005 250.002 139.952C250.015 139.846 250.122 139.859 250.214 139.859C250.825 139.872 251.422 139.872 252.019 139.872Z" fill="black"/>
<path d="M262.371 139.739C262.371 139.739 259.08 136.276 254.276 139.195C254.276 139.195 258.575 137.735 262.371 139.739Z" fill="black"/>
<path d="M241.67 139.301C241.67 139.301 244.961 135.838 249.765 138.757C249.765 138.757 245.465 137.297 241.67 139.301Z" fill="black"/>
<path d="M257.168 153.526C257.168 153.526 252.139 157.985 245.756 153.314C245.756 153.314 251.608 155.875 257.168 153.526Z" fill="#EE3D3C"/>
<path d="M256.134 180.012L260.938 175.739C261.336 175.381 261.933 175.368 262.358 175.686L266.193 178.645C266.378 178.791 266.617 178.871 266.856 178.871L291.724 179.256L296.939 179.428C296.806 180.397 296.673 181.379 296.541 182.348C296.62 181.737 296.7 181.127 296.793 180.516C296.753 180.782 296.726 181.047 296.687 181.326C296.501 182.016 296.434 182.706 296.461 183.383C296.01 183.86 295.652 184.444 296.156 185.081C296.833 185.917 296.05 187.125 295.015 186.859L293.953 186.581C293.834 186.554 293.714 186.501 293.608 186.421L291.432 184.948C291.219 184.802 290.954 184.736 290.702 184.763L266.524 187.151C266.299 187.178 266.073 187.125 265.887 187.019L256.36 181.803C255.656 181.445 255.55 180.516 256.134 180.012Z" fill="#FBC199"/>
<path d="M256.134 180.012L260.938 175.739C261.336 175.381 261.933 175.368 262.358 175.686L266.193 178.645C266.378 178.791 266.617 178.871 266.856 178.871L291.724 179.256L297.072 179.428C296.819 180.078 296.713 180.768 296.74 181.498C296.673 182.095 296.607 182.693 296.541 183.29C296.129 183.582 295.718 183.847 295.267 184.073C294.696 184.325 294.112 184.378 293.489 184.378C292.825 184.365 292.148 184.444 291.511 184.643C291.366 184.683 291.22 184.736 291.074 184.789C290.941 184.749 290.808 184.736 290.675 184.749L266.498 187.138C266.272 187.164 266.047 187.111 265.861 187.005L256.333 181.79C255.656 181.445 255.55 180.516 256.134 180.012Z" fill="#E9AE85"/>
<path d="M250.786 180.065C253.082 182.427 261.827 185.904 261.827 185.904C261.827 185.904 285.832 186.926 287.663 184.551C287.968 184.152 290.715 179.933 289.494 178.672C286.469 175.54 264.653 176.005 264.653 176.005C264.773 175.846 262.265 173.072 262.012 172.793C260.062 170.551 257.925 168.229 255.537 166.437C253.002 164.54 249.579 163.544 247.19 166.278C243.249 170.723 247.508 176.682 250.786 180.065Z" fill="#006079"/>
<path d="M289.48 178.62L290.662 178.806C290.741 178.819 290.807 178.899 290.794 178.979C290.728 179.708 290.396 182.853 289.135 184.432C288.976 184.631 288.698 184.724 288.445 184.658C288.193 184.592 287.862 184.539 287.636 184.645C287.649 184.645 289.414 180.558 289.48 178.62Z" fill="url(#paint6_linear_240_18394)"/>
<path d="M289.998 178.7C289.998 178.7 289.082 183.278 288.047 184.592L288.379 184.645C288.379 184.645 289.759 182.84 290.277 178.74L289.998 178.7Z" fill="url(#paint7_linear_240_18394)"/>
<path d="M259.278 178.527L263.113 181.486C263.299 181.632 263.538 181.712 263.777 181.712L288.644 182.097L297.469 182.389C297.867 182.402 298.225 182.627 298.411 182.986L299.817 185.679C299.95 185.932 299.977 186.237 299.897 186.515L299.579 187.604C299.3 188.546 297.243 189.156 296.765 188.294L295.531 186.078C295.359 185.759 295.027 185.547 294.669 185.52C294.218 185.48 293.926 185.706 293.607 185.998C293.05 186.502 292.466 187.192 293.063 187.922C293.74 188.758 292.957 189.966 291.922 189.7L290.86 189.422C290.741 189.395 290.622 189.342 290.515 189.262L288.339 187.789C288.127 187.643 287.861 187.577 287.609 187.604L263.432 189.992C263.206 190.019 262.98 189.966 262.795 189.859L253.267 184.644C252.59 184.273 252.484 183.357 253.068 182.84L257.872 178.567C258.256 178.222 258.854 178.209 259.278 178.527Z" fill="#FBC199"/>
<path d="M281.558 249.137H270.266L268.886 257.218H281.558V249.137Z" fill="#262A65"/>
<path d="M281.015 251.153C281.095 251.14 281.174 251.14 281.254 251.14C281.254 251.14 291.18 250.49 291.75 254.059V256.793H283.682H278.334V254.059C278.334 252.52 279.515 251.273 281.015 251.153Z" fill="white"/>
<path d="M277.153 254.537C277.286 254.537 277.392 254.431 277.392 254.298C277.392 252.918 278.467 251.75 279.834 251.644C279.913 251.644 279.98 251.631 280.059 251.631H282.395C282.528 251.631 282.634 251.525 282.634 251.392C282.634 251.259 282.528 251.153 282.395 251.153H280.059C279.967 251.153 279.887 251.153 279.794 251.166C278.175 251.299 276.901 252.679 276.901 254.311C276.914 254.431 277.021 254.537 277.153 254.537Z" fill="white"/>
<path d="M275.415 254.537C275.548 254.537 275.654 254.431 275.654 254.298C275.654 252.918 276.729 251.75 278.095 251.644C278.175 251.644 278.241 251.631 278.321 251.631H280.656C280.789 251.631 280.895 251.525 280.895 251.392C280.895 251.259 280.789 251.153 280.656 251.153H278.321C278.228 251.153 278.148 251.153 278.056 251.166C276.437 251.299 275.163 252.679 275.163 254.311C275.176 254.431 275.282 254.537 275.415 254.537Z" fill="white"/>
<path d="M268.886 256.779H278.334H283.682H291.75H292.241V259.818H291.564H283.496H278.533H269.085H268.528V256.779H268.886Z" fill="#262A65"/>
<path d="M247.442 162.457C247.397 162.472 247.397 162.472 247.442 162.457V162.457Z" fill="#F8A264"/>
<path d="M261.332 162.444C261.377 162.474 261.377 162.474 261.332 162.444V162.444Z" fill="#F8A264"/>
<path d="M254.408 162.456C254.363 162.471 254.348 162.471 254.408 162.456V162.456Z" fill="#F8A264"/>
<path d="M254.365 162.444C254.409 162.474 254.409 162.474 254.365 162.444V162.444Z" fill="#F8A264"/>
<path d="M235.433 215.204C238.061 218.893 241.498 221.255 246.089 221.826C251.132 222.45 256.187 221.136 261.11 220.26C263.99 219.756 272.164 218.243 275.044 217.739L270.519 249.095H281.573C284.359 237.697 287.159 228.381 289.946 216.982C290.477 214.793 291.021 212.59 291.565 210.401C292.122 208.118 291.578 205.252 290.145 203.301C288.3 200.793 263.791 202.12 257.382 202.12C257.382 202.12 246.408 202.12 246.062 202.12C245.041 202.12 241.537 207.693 240.874 208.503C239.056 210.732 237.251 212.975 235.433 215.204Z" fill="#28140C"/>
<path d="M234.995 214.382C237.37 218.243 240.648 220.818 245.199 221.68C250.189 222.622 255.311 221.654 260.287 221.11C263.193 220.791 268.223 219.822 271.129 219.504L264.56 250.502L275.587 251.232C279.117 240.046 282.514 230.929 286.044 219.743C286.721 217.593 287.411 215.43 288.087 213.28C288.791 211.038 288.433 208.145 287.132 206.101C285.46 203.487 264.149 203.195 257.753 202.771C257.753 202.771 246.792 202.054 246.46 202.028C245.425 201.948 236.946 212.272 234.995 214.382Z" fill="#4A260F"/>
<path d="M258.708 185.082C258.708 185.082 262.557 166.146 251.012 161.847C239.467 157.547 227.246 191.624 235.446 215.204C235.446 215.204 250.176 202.81 257.381 202.12C257.368 202.12 255.842 193.601 258.708 185.082Z" fill="url(#paint8_linear_240_18394)"/>
<path d="M248.517 167.42C253.135 167.605 258.257 180.875 258.443 181.379L259.08 182.507C258.908 184.086 258.709 185.082 258.709 185.082C257.541 188.558 257.103 192.022 256.997 194.928L253.892 193.11C253.892 193.11 247.973 189.381 243.607 182.043C239.242 174.705 241.604 167.154 248.517 167.42Z" fill="#1A6D81"/>
<path d="M235.102 210.72C234.836 210.919 234.558 211.118 234.292 211.33C234.624 212.644 234.995 213.944 235.433 215.205C235.433 215.205 250.163 202.811 257.368 202.121C257.368 202.121 257.236 201.126 257.183 200.741C249.433 202.917 241.67 205.903 235.102 210.72Z" fill="#002635"/>
<path d="M276.145 249.826H264.866L263.486 257.921H276.145V249.826Z" fill="#2E4099"/>
<path d="M275.6 251.843C275.68 251.83 275.759 251.83 275.839 251.83C275.839 251.83 285.765 251.179 286.335 254.749V257.483H278.267H272.919V254.749C272.933 253.223 274.114 251.962 275.6 251.843Z" fill="white"/>
<path d="M271.752 255.227C271.884 255.227 271.99 255.121 271.99 254.988C271.99 253.608 273.065 252.44 274.432 252.334C274.512 252.334 274.578 252.321 274.658 252.321H276.993C277.126 252.321 277.232 252.215 277.232 252.082C277.232 251.949 277.126 251.843 276.993 251.843H274.658C274.565 251.843 274.485 251.843 274.392 251.856C272.773 251.989 271.499 253.369 271.499 255.001C271.513 255.121 271.619 255.227 271.752 255.227Z" fill="white"/>
<path d="M270.013 255.227C270.146 255.227 270.252 255.121 270.252 254.988C270.252 253.608 271.327 252.44 272.694 252.334C272.774 252.334 272.84 252.321 272.92 252.321H275.255C275.388 252.321 275.494 252.215 275.494 252.082C275.494 251.949 275.388 251.843 275.255 251.843H272.92C272.827 251.843 272.747 251.843 272.654 251.856C271.035 251.989 269.761 253.369 269.761 255.001C269.761 255.121 269.881 255.227 270.013 255.227Z" fill="white"/>
<path d="M263.485 257.482H272.933H278.281H286.349H286.84V260.508H286.163H278.082H273.132H263.671H263.114V257.482H263.485Z" fill="#262A65"/>
<path d="M256.97 166.849L244.43 163.452V161.024C244.43 161.024 253.002 159.843 256.97 166.849Z" fill="url(#paint9_linear_240_18394)"/>
<path d="M253.055 182.84L257.858 178.567C258.256 178.209 258.854 178.196 259.278 178.514L263.113 181.487C263.299 181.633 263.538 181.712 263.777 181.712L288.644 182.097L297.469 182.389C297.867 182.402 298.225 182.628 298.411 182.986L299.817 185.68C299.95 185.932 299.977 186.237 299.897 186.516L299.579 187.604C299.3 188.546 297.243 189.157 296.765 188.294L295.239 186.383C294.947 186.025 294.629 185.759 294.138 185.826C293.886 185.852 293.7 185.972 293.501 186.131C293.09 186.436 292.665 186.702 292.201 186.94C291.63 187.193 291.046 187.246 290.422 187.246C289.759 187.232 289.082 187.312 288.445 187.511C288.299 187.551 288.153 187.604 288.007 187.657C287.875 187.617 287.742 187.604 287.609 187.617L263.432 190.006C263.206 190.032 262.98 189.979 262.795 189.873L253.267 184.658C252.59 184.273 252.484 183.358 253.055 182.84Z" fill="#FBC199"/>
<path d="M247.788 182.64C250.084 185.002 258.536 190.788 262.57 190.894C265.583 190.974 286.058 189.302 287.186 187.789C288.38 186.197 289.07 182.879 288.964 181.751C288.845 180.384 263.287 180.862 263.287 180.862C263.406 180.703 259.24 175.634 259.001 175.355C257.05 173.113 254.914 170.79 252.525 168.999C249.991 167.101 246.567 166.106 244.179 168.84C240.264 173.312 244.51 179.27 247.788 182.64Z" fill="#05ABD4"/>
<path d="M288.976 181.751L290.171 181.924C290.25 181.937 290.317 182.017 290.303 182.096C290.25 182.826 289.945 185.971 288.685 187.564C288.525 187.763 288.26 187.855 287.995 187.789C287.742 187.723 287.397 187.67 287.185 187.789C287.185 187.789 288.91 183.689 288.976 181.751Z" fill="url(#paint10_linear_240_18394)"/>
<path d="M289.495 181.817C289.495 181.817 288.619 186.409 287.597 187.722L287.929 187.776C287.929 187.776 289.282 185.958 289.773 181.857L289.495 181.817Z" fill="url(#paint11_linear_240_18394)"/>
<path d="M244.96 180.995C244.96 180.995 239.719 195.035 244.483 208.371" stroke="#002635" stroke-width="0.654308" stroke-miterlimit="10"/>
<path d="M245.358 202.87L251.104 192.918L252.161 193.529L246.415 203.481L245.358 202.87Z" fill="#002635"/>
<path d="M240.011 154.336C240.011 154.336 250.906 161.342 250.76 163.386C250.76 163.386 249.831 164.222 248.079 162.855C248.079 162.855 242.612 158.25 240.953 157.719L240.011 154.336Z" fill="#0B0909"/>
<path d="M263.963 152.995C263.963 152.995 254.568 158.622 253.347 160.4C253.347 160.4 250.162 163.545 254.223 162.775C254.223 162.775 262.569 157.852 263.458 156.578L263.963 152.995Z" fill="#0B0909"/>
<path d="M260.513 157.202L259.863 157.507L259.664 158.821L255.709 161.342L255.55 162.218C255.55 162.218 252.405 164.301 248.743 161.807C248.743 161.807 246.845 159.405 244.868 159.219C244.868 159.219 242.492 158.436 242.453 160.002C242.453 160.002 242.134 161.037 244.231 162.218C244.231 162.218 248.066 164.554 250.998 164.434C250.998 164.434 255.55 164.806 258.098 163.346C258.098 163.346 260.393 162.563 260.115 161.316C260.115 161.316 259.836 160.878 258.337 161.594C258.337 161.594 260.075 160.374 259.942 159.166L260.672 158.755L260.513 157.202Z" fill="#282321"/>
<path d="M256.324 163.727C256.247 163.552 256.921 163.09 257.828 162.694C258.735 162.299 259.532 162.12 259.608 162.295C259.684 162.469 259.011 162.932 258.104 163.327C257.197 163.722 256.4 163.901 256.324 163.727Z" fill="#0B0909"/>
<path d="M247.23 160.585L246.513 159.179L245.664 158.741L243.036 160.36C243.036 160.36 242.572 160.93 243.249 161.514L243.461 160.466L245.598 159.086L245.956 159.245L244.072 160.891C244.072 160.891 243.461 161.66 244.217 162.271C244.217 162.271 244.284 162.682 244.748 162.549C244.748 162.549 244.005 161.368 244.496 161.09L245.916 159.856L246.951 160.731L247.23 160.585Z" fill="#0B0909"/>
<path opacity="0.4" d="M269.033 136.143C269.033 136.143 252.075 128.062 234.121 136.143L234.479 142.008C234.479 142.008 238.101 152.027 238.805 155.902C238.805 155.902 250.602 160.4 265.252 155.902C265.252 155.902 266.565 146.746 269.299 141.889L269.033 136.143Z" fill="white"/>
<g opacity="0.5">
<path d="M268.981 136.236C268.397 135.957 267.787 135.731 267.176 135.506C265.557 134.909 263.899 134.418 262.227 134.006C259.785 133.409 257.304 133.011 254.796 132.812C251.757 132.573 248.705 132.626 245.679 133.011C242.189 133.462 238.766 134.351 235.501 135.678C235.063 135.864 234.625 136.05 234.188 136.249C234.201 136.222 234.227 136.183 234.241 136.156C234.307 137.284 234.373 138.399 234.44 139.527C234.479 140.19 234.519 140.867 234.559 141.53C234.572 141.69 234.572 141.836 234.586 141.995C234.586 142.048 234.586 141.981 234.586 142.008C234.599 142.035 234.599 142.061 234.612 142.088C234.97 143.096 235.329 144.105 235.674 145.113C236.284 146.891 236.881 148.669 237.439 150.461C237.956 152.106 238.46 153.752 238.819 155.437C238.845 155.596 238.885 155.742 238.912 155.902C238.885 155.875 238.859 155.848 238.832 155.822C239.257 155.981 239.681 156.114 240.106 156.233C241.274 156.578 242.468 156.844 243.662 157.069C245.467 157.401 247.311 157.627 249.143 157.733C251.452 157.865 253.774 157.839 256.083 157.627C258.816 157.374 261.51 156.87 264.151 156.14C264.509 156.034 264.867 155.941 265.226 155.822C265.199 155.848 265.173 155.875 265.146 155.902C265.252 155.132 265.398 154.375 265.531 153.619C265.863 151.881 266.247 150.156 266.712 148.444C267.229 146.533 267.84 144.635 268.689 142.857C268.782 142.645 268.888 142.446 268.994 142.247C269.047 142.154 269.087 142.061 269.14 141.968C269.154 141.955 269.18 141.889 269.18 141.928V141.915C269.207 141.809 269.167 141.65 269.167 141.544C269.14 140.946 269.114 140.363 269.087 139.765C269.034 138.598 268.954 137.417 268.928 136.249C268.928 136.222 268.928 136.196 268.928 136.183C268.928 136.037 269.14 136.037 269.154 136.183C269.207 137.204 269.246 138.213 269.299 139.235C269.326 139.898 269.366 140.562 269.392 141.225C269.406 141.424 269.406 141.61 269.419 141.809C269.419 141.849 269.432 141.889 269.419 141.928C269.406 142.048 269.299 142.181 269.246 142.287C268.331 144.025 267.694 145.896 267.15 147.78C266.646 149.559 266.221 151.35 265.863 153.168C265.743 153.792 265.624 154.402 265.518 155.026C265.464 155.331 265.438 155.636 265.372 155.941C265.372 155.955 265.372 155.968 265.372 155.981C265.372 156.021 265.332 156.047 265.292 156.061C262.519 156.91 259.666 157.494 256.786 157.799C254.331 158.065 251.863 158.131 249.408 157.998C247.484 157.892 245.56 157.666 243.662 157.321C242.415 157.096 241.181 156.804 239.96 156.446C239.655 156.353 239.336 156.26 239.031 156.154C238.965 156.127 238.885 156.101 238.819 156.074C238.699 156.034 238.686 155.928 238.673 155.795C238.368 154.203 237.877 152.637 237.412 151.085C236.868 149.32 236.284 147.568 235.7 145.816C235.315 144.675 234.917 143.521 234.506 142.38C234.453 142.234 234.4 142.101 234.387 141.955C234.36 141.464 234.334 140.973 234.294 140.482C234.214 139.142 234.134 137.788 234.055 136.448C234.055 136.355 234.042 136.262 234.042 136.183C234.042 136.143 234.068 136.103 234.095 136.09C237.372 134.617 240.849 133.582 244.405 133.011C247.497 132.52 250.642 132.374 253.774 132.56C256.361 132.706 258.922 133.077 261.457 133.635C263.275 134.046 265.066 134.55 266.818 135.174C267.336 135.36 267.853 135.559 268.371 135.771C268.609 135.864 268.862 135.957 269.087 136.076C269.1 136.076 269.1 136.09 269.114 136.09C269.22 136.116 269.1 136.302 268.981 136.236Z" fill="#059ABF"/>
</g>
<path d="M268.37 138.815C268.251 136.429 268.545 134.475 269.028 134.451C269.511 134.426 270 136.341 270.12 138.727C270.24 141.113 269.945 143.067 269.462 143.091C268.979 143.115 268.49 141.201 268.37 138.815Z" fill="#1F1B1A" stroke="#808083" stroke-width="0.0636742" stroke-miterlimit="10"/>
<path d="M269.289 138.851C269.188 136.838 269.338 135.195 269.623 135.18C269.908 135.166 270.222 136.786 270.323 138.799C270.424 140.812 270.275 142.455 269.989 142.469C269.704 142.484 269.39 140.864 269.289 138.851Z" fill="#1F1B1A" stroke="#808083" stroke-width="0.0449386" stroke-miterlimit="10"/>
<path d="M269.457 142.38C269.444 142.367 269.444 142.367 269.43 142.314C269.298 141.862 268.727 139.66 269.112 135.387C269.112 135.36 269.125 135.334 269.125 135.294C269.138 135.267 269.138 135.267 269.178 135.227C269.258 135.174 269.43 135.095 269.696 135.161C269.696 135.161 269.324 140.588 270.001 142.406C270.001 142.406 270.001 142.486 269.974 142.486C269.802 142.499 269.603 142.433 269.51 142.406C269.47 142.406 269.47 142.393 269.457 142.38Z" fill="#808083"/>
<path d="M234.664 143.09C234.18 143.065 233.886 141.111 234.006 138.725C234.126 136.339 234.615 134.425 235.098 134.449C235.581 134.473 235.875 136.427 235.755 138.813C235.635 141.199 235.147 143.114 234.664 143.09Z" fill="#1F1B1A" stroke="#808083" stroke-width="0.0636742" stroke-miterlimit="10"/>
<path d="M234.127 142.467C233.841 142.453 233.692 140.809 233.793 138.797C233.894 136.784 234.207 135.164 234.493 135.178C234.778 135.192 234.928 136.836 234.827 138.849C234.725 140.861 234.412 142.481 234.127 142.467Z" fill="#1F1B1A" stroke="#808083" stroke-width="0.0449386" stroke-miterlimit="10"/>
<path d="M234.663 142.38C234.676 142.366 234.676 142.366 234.689 142.313C234.822 141.862 235.392 139.659 235.008 135.386C235.008 135.36 234.994 135.333 234.994 135.294C234.981 135.267 234.981 135.267 234.941 135.227C234.862 135.174 234.689 135.094 234.424 135.161C234.424 135.161 234.795 140.588 234.119 142.406C234.119 142.406 234.119 142.486 234.145 142.486C234.318 142.499 234.517 142.433 234.61 142.406C234.649 142.406 234.649 142.393 234.663 142.38Z" fill="#808083"/>
<path d="M236.296 245.962C236.229 246.983 236.15 247.992 236.11 248.921C236.083 249.478 236.455 249.969 236.999 250.102C238.366 250.434 239.799 250.487 241.219 250.513C245.81 250.633 250.401 250.765 254.993 250.885C255.47 250.898 256.001 250.898 256.28 250.434C256.452 250.142 256.452 249.77 256.306 249.465C256.015 248.841 255.378 248.549 254.78 248.297C251.848 247.063 248.663 245.802 246.527 243.573C246.46 243.507 246.394 243.427 246.328 243.361C245.876 242.857 245.478 242.312 245.147 241.715C244.881 241.251 244.669 240.747 244.563 240.229C244.523 240.043 244.496 239.871 244.483 239.685C244.483 239.619 244.47 239.539 244.47 239.473C244.47 239.473 242.453 240.163 240.675 240.15C238.551 240.136 236.707 238.783 236.707 238.783C237.065 240.388 236.508 242.206 236.415 244.064C236.388 244.688 236.349 245.325 236.296 245.962Z" fill="#25283F"/>
<path d="M199.459 142.248C199.459 142.248 204.05 149.958 188.445 151.139C173.729 152.253 153.89 161.874 153.89 161.874C153.89 161.874 157.792 168.854 162.118 170.685C162.118 170.685 165.754 167.248 168.209 166.784C168.209 166.784 164.267 169.544 164.055 172.543C164.055 172.543 169.748 178.66 178.294 178.421C206.465 177.638 208.628 152.89 208.628 152.89L214.945 137.59L199.459 142.248Z" fill="#262F36"/>
<path d="M192.466 155.289C192.466 155.289 190.396 175.14 192.692 179.745C194.987 184.336 202.193 182.518 203.347 180.024C204.502 177.529 199.831 156.284 199.831 156.284L192.466 155.289Z" fill="#EE4036"/>
<path d="M223.73 169.09C223.239 174.65 220.32 185.12 220.32 185.12C220.32 185.12 198.902 191.383 198.491 184.642C198.491 184.642 199.128 169.859 195.518 160.916C192.546 153.564 204.966 151.481 209.903 152.011C220.333 153.113 224.3 162.641 223.73 169.09Z" fill="#4A260F"/>
<path d="M216.152 153.298C215.94 153.378 223.132 166.369 223.199 172.394L224.486 168.28C224.486 168.28 221.341 157.823 218.833 154.015C218.82 154.002 216.949 153.02 216.152 153.298Z" fill="#EE4036"/>
<path d="M207.023 150.673C209.094 145.18 209.611 142.194 209.611 142.181L211.509 143.388L211.893 143.64L215.277 145.803C215.277 145.803 215.237 146.055 215.184 146.454C215.105 147.037 214.999 147.953 214.906 148.895C214.8 150.103 214.747 151.363 214.879 152.04C215.078 153.022 216.817 155.703 212.345 155.212C207.7 154.707 206.493 152.08 207.023 150.673Z" fill="#FFBEA4"/>
<path d="M211.282 141.119C211.282 141.119 211.441 141.291 211.693 141.583C212.543 142.512 214.44 144.582 215.343 145.272C215.236 146.069 215.064 147.316 214.931 148.603C213.909 147.86 210.778 145.246 211.255 141.265C211.269 141.212 211.269 141.159 211.282 141.119Z" fill="#FC9171"/>
<path d="M203.944 137.244C195.186 118.666 213.246 119.741 218.541 124.187C220.014 125.421 221.487 127.424 222.655 129.72C223.411 131.22 225.64 130.861 226.065 132.467C226.383 133.674 224.499 133.542 224.871 134.816C226.874 141.663 223.862 144.25 220.2 145.033C211.189 146.944 203.944 137.244 203.944 137.244Z" fill="#FFBEA4"/>
<path d="M214.945 148.258C212.861 147.82 210.964 146.865 209.345 145.485C209.265 145.418 209.371 145.285 209.464 145.352C211.057 146.719 212.941 147.648 214.984 148.085C215.091 148.112 215.051 148.284 214.945 148.258Z" fill="#FC9171"/>
<path d="M197.176 162.072C189.931 157.082 182.858 151.071 178.2 145.378C176.064 142.751 169.482 129.322 169.482 129.322L175.745 123.908C175.745 123.908 183.044 135.174 187.821 139.884C191.815 143.839 200.281 150.235 207.035 150.673L209.318 165.349C209.305 165.349 199.711 163.823 197.176 162.072Z" fill="#4A260F"/>
<path d="M175.745 123.908C175.613 123.576 175.082 123.696 174.591 123.908C173.941 124.2 173.091 124.757 172.202 125.527C171.446 126.177 170.796 126.881 170.318 127.491C170.039 127.863 169.774 128.247 169.615 128.619C169.602 128.632 169.402 129.07 169.509 129.309C169.588 129.521 169.84 129.561 170.199 129.468C170.451 129.402 170.756 129.269 171.101 129.083H171.114C171.685 128.765 172.348 128.287 173.052 127.677C173.423 127.358 173.768 127.027 174.087 126.695C174.538 126.23 174.909 125.779 175.201 125.368C175.414 125.049 175.891 124.293 175.745 123.908Z" fill="#FF964A"/>
<path d="M175.174 125.382C174.683 124.824 174.67 124.426 174.577 123.909C174.524 123.564 174.431 123.166 174.139 122.622C173.595 121.6 171.552 118.07 170.941 117.035C170.822 116.836 170.556 116.836 170.424 117.022C170.026 117.606 170.092 118.694 170.357 119.45C170.45 119.729 170.437 120.286 170.291 120.273C168.646 118.614 165.567 115.681 165.103 116.119C164.691 116.531 166.589 118.8 167.969 120.273L167.889 120.326C166.031 118.694 163.63 116.026 163.152 116.571C162.621 117.154 164.439 119.835 166.204 121.467L166.124 121.52C166.111 121.507 166.098 121.507 166.098 121.494C164.386 119.968 162.289 118.176 161.732 118.707C161.453 118.972 162.966 120.91 164.466 122.648C164.917 123.272 164.718 123.338 164.479 123.285C164.359 123.245 164.24 123.205 164.121 123.166C162.966 122.781 162.475 122.874 162.369 123.245C162.303 123.497 164.174 124.161 166.111 125.979C167.066 126.881 168.393 127.425 169.813 128.248C170.211 128.474 170.636 128.752 171.1 129.097C171.671 128.779 172.348 128.301 173.038 127.691C173.409 127.372 173.754 127.04 174.073 126.709C174.511 126.244 174.882 125.793 175.174 125.382Z" fill="#FFBEA4"/>
<path d="M204.143 150.193C204.143 150.193 206.174 154.612 205.165 161.446C203.904 170.005 199.95 174.105 197.177 174.662C194.416 175.22 196.739 177.807 196.739 177.807C196.739 177.807 206.903 175.127 208.164 162.998C209.04 154.532 207.01 150.71 207.01 150.71L204.143 150.193Z" fill="#EE4036"/>
<path d="M217.837 123.656C217.837 123.656 208.23 119.981 206.438 134.989C206.438 134.989 208.084 138.877 206.77 141.186C205.456 143.495 199.366 138.532 199.366 138.532C199.366 138.532 192.439 131.393 195.385 124.466C198.344 117.552 213.299 114.381 217.837 123.656Z" fill="#262F36"/>
<path d="M205.868 138.624C204.182 137.788 203.36 136.036 204.01 134.696C204.673 133.356 206.571 132.944 208.243 133.78C209.928 134.616 210.751 136.368 210.101 137.708C209.45 139.035 207.553 139.447 205.868 138.624Z" fill="#FFBEA4"/>
<path d="M205.31 138.505C204.434 138.014 203.996 137.125 203.718 136.196C203.678 136.037 203.917 135.984 203.957 136.143C204.209 137.019 204.607 137.841 205.443 138.306C206.491 138.876 207.845 139.049 208.999 138.823C209.158 138.797 209.212 139.036 209.052 139.062C207.845 139.301 206.398 139.129 205.31 138.505Z" fill="#C56146"/>
<path d="M207.539 135.625C207.407 135.532 207.539 135.32 207.672 135.412C207.898 135.572 208.243 135.824 208.269 136.129C208.283 136.275 208.203 136.394 208.15 136.514C208.017 136.819 208.017 137.111 208.19 137.416C208.269 137.549 208.057 137.668 207.977 137.536C207.845 137.31 207.778 137.058 207.805 136.779C207.818 136.647 207.898 136.54 207.924 136.408C208.004 136.01 207.831 135.837 207.539 135.625Z" fill="#C56146"/>
<path d="M208.562 134.152C208.336 133.953 208.071 133.807 207.779 133.728C207.633 133.688 207.699 133.449 207.845 133.489C208.177 133.582 208.482 133.754 208.734 133.993C208.854 134.099 208.681 134.258 208.562 134.152Z" fill="#C56146"/>
<path d="M238.38 210.756C239.64 209.403 210.699 211.818 209.876 209.044C208.151 203.285 207.036 193.585 216.869 193.585C231.32 193.585 252.605 193.519 252.18 204.864C251.769 215.746 240.264 225.486 237.146 242.338C237.146 242.338 236.19 249.106 233.138 247.46C231.068 246.332 229.316 243.174 229.316 243.174C233.072 228.365 231.041 218.585 238.38 210.756Z" fill="#FFBEA4"/>
<path d="M198.489 184.655C198.489 184.655 183.309 204.493 196.632 209.629C196.632 209.629 199.79 210.226 204.726 210.345C214.745 210.584 217.412 210.398 217.412 210.398C217.412 210.398 235.804 212.256 238.63 211.646C256.837 207.718 251.449 199.849 251.449 199.849C251.449 199.849 245.597 193.134 229.421 192.882C222.11 192.776 219.641 190.64 214.625 186.526C213.803 185.849 198.489 184.655 198.489 184.655Z" fill="#D61615"/>
<path d="M198.423 177.158C198.423 177.158 197.082 182.784 196.193 183.819C195.304 184.854 195.835 186.208 197.082 186.672C198.33 187.137 213.232 189.207 214.652 187.137C216.085 185.066 215.992 179.268 216.974 176.162C217.969 173.044 203.147 178.232 198.423 177.158Z" fill="#4A260F"/>
<path d="M237.477 212.071C239.587 209.444 242.706 207.772 246.063 207.493C246.302 207.48 246.302 207.108 246.063 207.121C242.613 207.413 239.388 209.099 237.212 211.806C237.066 211.991 237.331 212.257 237.477 212.071Z" fill="#4A260F"/>
<path d="M225.8 193.639C218.7 192.286 211.415 190.189 204.117 190.879C203.997 190.892 203.997 191.078 204.117 191.065C211.402 190.375 218.66 192.458 225.747 193.812C225.866 193.838 225.919 193.666 225.8 193.639Z" fill="#4A260F"/>
<path d="M215.927 191.688C211.747 191.98 207.673 192.882 203.878 194.7C203.772 194.753 203.865 194.913 203.971 194.859C207.726 193.055 211.787 192.166 215.927 191.874C216.046 191.874 216.046 191.688 215.927 191.688Z" fill="#4A260F"/>
<path d="M219.602 120.75C218.434 115.987 211.441 115.005 205.483 117.114C199.525 119.224 193.169 120.259 194.496 127.823C195.822 135.387 207.062 128.712 207.062 128.712H207.885C207.885 128.712 209.198 125.368 212.702 125.713C216.205 126.072 220.77 125.514 219.602 120.75Z" fill="#262F36"/>
<path d="M206.797 132.096C206.226 130.53 204.302 130.052 202.803 130.305C201.701 130.49 200.839 131.127 199.883 131.671C198.596 132.401 197.203 132.706 195.743 132.627C195.571 132.614 195.571 132.879 195.743 132.892C197.521 132.985 199.074 132.481 200.573 131.565C201.476 131.021 202.378 130.53 203.466 130.517C204.66 130.49 206.107 130.955 206.558 132.176C206.598 132.322 206.85 132.255 206.797 132.096Z" fill="#45515A"/>
<path d="M206.903 131.843C206.398 130.078 204.819 129.056 203.001 129.215C200.228 129.468 197.295 131.06 194.84 128.884C194.721 128.778 194.522 128.963 194.655 129.07C196.114 130.37 198.038 130.463 199.896 130.131C201.183 129.892 202.497 129.361 203.824 129.481C205.204 129.614 206.266 130.582 206.637 131.909C206.69 132.069 206.943 132.002 206.903 131.843Z" fill="#45515A"/>
<path d="M195.491 133.516C198.808 134.272 198.038 138.691 200.838 140.045C202.617 140.907 205.602 141.584 206.996 139.713C207.102 139.58 206.863 139.447 206.77 139.58C205.828 140.841 204.076 140.735 202.723 140.416C201.037 140.018 199.803 139.328 199.127 137.683C198.397 135.878 197.707 133.755 195.57 133.264C195.398 133.237 195.318 133.489 195.491 133.516Z" fill="#45515A"/>
<path d="M228.692 248.92C228.665 249.478 228.931 250.3 229.461 250.433C230.828 250.765 232.381 250.486 233.801 250.526C238.392 250.645 242.983 250.778 247.575 250.897C248.053 250.911 248.583 250.911 248.862 250.446C249.034 250.154 249.034 249.783 248.889 249.478C248.597 248.854 247.96 248.562 247.362 248.31C244.43 247.076 241.245 245.815 239.109 243.586C239.042 243.519 238.976 243.44 238.91 243.373C237.344 241.516 237.981 238.716 237.981 238.636C237.981 238.636 236.574 239.605 233.774 239.167C231.678 238.835 230.457 238.039 230.457 238.039C229.382 241.715 228.732 247.991 228.692 248.92Z" fill="#2A2C4B"/>
<path d="M198.543 189.392C199.299 190.971 197.109 192.152 196.844 193.612C196.738 194.209 196.791 194.819 196.791 195.43C196.791 196.385 196.552 196.996 195.902 197.672C195.504 198.097 194.946 199.066 195.729 199.464C196.101 199.663 196.234 199.318 196.552 199.278C197.388 199.159 196.685 200.088 196.565 200.366C196.419 200.671 196.273 200.99 196.181 201.308C195.915 202.158 196.592 202.45 197.335 202.197C197.879 202.012 198.423 201.879 198.835 202.423C198.967 202.609 199.073 202.821 199.219 202.994C199.525 203.365 199.909 203.538 200.387 203.564C201.011 203.604 201.648 203.432 202.271 203.432C203.094 203.432 203.917 203.591 204.713 203.816C206.133 204.201 207.5 204.785 208.946 205.077C212.502 205.82 216.112 204.228 219.655 205.13C219.774 205.157 219.814 204.984 219.708 204.958C216.775 204.201 213.829 205.17 210.87 205.117C207.951 205.05 205.39 203.352 202.497 203.259C201.887 203.233 201.289 203.352 200.679 203.392C200.228 203.418 199.777 203.352 199.445 203.007C199.219 202.768 199.1 202.463 198.888 202.224C198.675 201.972 198.436 201.813 198.091 201.799C197.587 201.799 195.849 202.742 196.393 201.255C196.552 200.831 196.738 200.419 196.937 200.021C197.003 199.875 197.295 199.477 197.309 199.331C197.322 199.132 197.123 199.013 196.95 198.986C196.831 198.973 196.725 198.999 196.618 199.039C196.22 199.185 196.486 199.291 195.942 199.066C195.809 199.013 195.69 198.96 195.557 198.907C195.491 198.654 195.544 198.416 195.69 198.217C195.995 197.712 196.512 197.42 196.751 196.876C197.348 195.496 196.579 193.944 197.454 192.617C198.118 191.608 199.339 190.626 198.715 189.299C198.649 189.18 198.49 189.273 198.543 189.392Z" fill="white"/>
<path d="M220.345 127.77C220.345 127.12 219.27 126.682 217.956 127.067C216.642 127.439 215.581 128.5 215.581 129.137C215.581 129.787 216.337 128.447 217.651 128.062C218.965 127.691 220.358 128.407 220.345 127.77Z" fill="#262F36"/>
<path d="M220 129.056C219.708 128.619 219.23 128.419 218.925 128.632C218.62 128.831 218.607 129.348 218.885 129.786C219.177 130.224 219.655 130.423 219.96 130.211C220.279 130.012 220.292 129.494 220 129.056Z" fill="#262F36"/>
<path d="M221.154 137.084C221.194 136.912 221.34 136.766 221.539 136.713C221.645 136.686 221.751 136.66 221.857 136.633C221.937 136.62 222.016 136.593 222.096 136.567C222.136 136.554 222.162 136.554 222.202 136.54C222.282 136.514 222.375 136.487 222.454 136.461C222.56 136.434 222.667 136.394 222.759 136.355C222.998 136.275 223.224 136.182 223.45 136.089C223.516 136.063 223.569 136.036 223.635 136.01C223.808 135.943 223.967 135.864 224.126 135.784C224.193 135.757 224.272 135.718 224.339 135.691C224.418 135.651 224.511 135.612 224.591 135.558C224.657 135.532 224.71 135.505 224.763 135.466C224.776 135.466 224.776 135.452 224.79 135.452C225.121 136.302 225.121 137.31 225.135 138.292C224.219 138.664 223.423 138.637 222.759 138.425C222.229 138.252 221.685 137.841 221.273 137.469C221.141 137.376 221.114 137.23 221.154 137.084Z" fill="#262F36"/>
<path d="M225.03 136.408C223.809 137.138 222.257 137.177 221.155 137.084C221.195 136.912 221.341 136.766 221.54 136.713C221.646 136.686 221.753 136.66 221.859 136.633C221.938 136.62 222.018 136.593 222.098 136.567C222.137 136.554 222.164 136.554 222.204 136.54C222.283 136.514 222.376 136.487 222.456 136.461C222.562 136.434 222.668 136.394 222.761 136.355C223 136.275 223.226 136.182 223.451 136.089C223.518 136.063 223.571 136.036 223.637 136.01C223.809 135.943 223.969 135.864 224.128 135.784C224.194 135.757 224.274 135.718 224.34 135.691C224.42 135.651 224.513 135.612 224.592 135.558C224.659 135.532 224.712 135.505 224.765 135.466C224.778 135.466 224.778 135.452 224.791 135.452C224.898 135.771 224.977 136.076 225.03 136.408Z" fill="white"/>
<path d="M224.831 137.019C224.91 136.952 225.003 136.899 225.083 136.846C225.176 137.417 225.216 137.762 225.136 138.306C224.22 138.677 223.424 138.651 222.761 138.439C222.96 137.244 224.831 137.019 224.831 137.019Z" fill="#E55A4D"/>
<path d="M223.716 138.744C223.716 138.744 223.769 138.731 223.862 138.717C224.167 138.664 224.844 138.518 225.109 138.425C225.269 138.545 225.269 138.492 225.149 138.757C224.857 138.877 224.658 138.916 223.743 138.77C223.743 138.77 223.729 138.757 223.716 138.744Z" fill="#FC9171"/>
<path d="M195.545 137.669L195.545 137.669L195.547 137.675L195.547 137.675L195.547 137.676L195.548 137.677L195.551 137.684L195.563 137.711C195.573 137.735 195.589 137.77 195.609 137.816C195.651 137.908 195.712 138.041 195.792 138.205C195.953 138.534 196.189 138.989 196.488 139.491C197.084 140.489 197.926 141.664 198.928 142.42L198.991 142.422C199.057 142.424 199.155 142.427 199.283 142.429C199.538 142.435 199.912 142.443 200.384 142.447C201.328 142.456 202.667 142.456 204.243 142.417C207.397 142.339 211.502 142.107 215.309 141.491L215.309 141.491L215.312 141.491L215.324 141.489C215.334 141.487 215.35 141.484 215.371 141.479C215.413 141.471 215.475 141.457 215.552 141.438C215.707 141.399 215.925 141.336 216.174 141.241C216.674 141.051 217.294 140.735 217.792 140.23C218.288 139.727 218.666 139.036 218.685 138.086C218.703 137.132 218.361 135.905 217.389 134.335L217.389 134.335L217.388 134.333L217.491 134.272C217.388 134.333 217.388 134.333 217.388 134.333L217.388 134.332L217.387 134.331L217.385 134.328L217.377 134.314C217.37 134.303 217.36 134.285 217.347 134.262C217.321 134.217 217.283 134.149 217.236 134.063C217.141 133.889 217.008 133.637 216.854 133.323C216.545 132.695 216.153 131.816 215.817 130.816C215.147 128.825 214.688 126.319 215.603 124.35L215.605 124.346L215.613 124.327C215.62 124.311 215.631 124.288 215.645 124.258C215.673 124.199 215.716 124.112 215.774 124.003C215.89 123.785 216.069 123.478 216.32 123.118C216.82 122.4 217.607 121.472 218.761 120.622C218.767 120.616 218.773 120.611 218.777 120.607C218.788 120.598 218.802 120.587 218.818 120.574C218.834 120.561 218.854 120.545 218.877 120.527C218.9 120.508 218.926 120.487 218.954 120.465C219.066 120.376 219.215 120.254 219.361 120.122C219.509 119.988 219.65 119.847 219.75 119.717C219.8 119.652 219.836 119.593 219.858 119.543C219.871 119.516 219.877 119.493 219.88 119.476C219.871 119.468 219.861 119.46 219.85 119.449C219.805 119.409 219.737 119.35 219.648 119.276C219.47 119.126 219.207 118.913 218.866 118.661C218.184 118.157 217.193 117.497 215.958 116.876C213.487 115.632 210.046 114.543 206.151 115.149L206.146 115.149L206.129 115.153C206.113 115.156 206.089 115.16 206.057 115.166C205.995 115.178 205.901 115.197 205.781 115.225C205.541 115.279 205.194 115.366 204.766 115.495C203.91 115.753 202.733 116.181 201.451 116.858C198.886 118.213 195.905 120.564 194.22 124.552L194.22 124.553L194.215 124.565C194.211 124.575 194.205 124.591 194.197 124.612C194.182 124.655 194.159 124.719 194.132 124.803C194.076 124.972 194.001 125.222 193.922 125.546C193.764 126.194 193.59 127.137 193.529 128.313C193.408 130.664 193.737 133.948 195.545 137.669Z" fill="url(#paint12_linear_240_18394)" stroke="#BDE7F2" stroke-width="0.239758"/>
<path d="M220 119.424C220 119.424 219.602 120.154 218.434 120.99C218.434 120.99 214.095 124.174 215.157 128.262C215.157 128.262 215.966 132.123 218.089 135.666C218.089 135.666 219.655 138.997 217.2 140.815C217.2 140.815 217.067 141.452 212.476 141.956L202.962 142.447C202.962 142.447 199.949 142.765 198.596 142.328C198.596 142.328 197.985 143.19 199.485 143.774C199.485 143.774 206.08 144.146 210.711 143.814C210.711 143.814 215.568 143.893 217.598 142.447C217.598 142.447 220.929 140.669 220.318 137.059C220.318 137.059 220.119 134.578 217.665 130.358C217.665 130.358 215.82 126.271 218.368 124.281C218.368 124.281 221.446 121.812 221.539 120.499C221.526 120.499 220.809 118.959 220 119.424Z" fill="#1F1B1A"/>
<path d="M195.916 138.612C195.916 138.612 195.305 138.227 195.385 139.116C195.385 139.116 195.412 139.793 196.168 140.27C196.168 140.27 198.225 143.044 198.557 143.07C198.557 143.07 198.915 142.871 198.596 142.327C198.596 142.327 196.54 140.018 195.916 138.612Z" fill="#1F1B1A"/>
<path d="M220.291 138.399C220.291 138.399 220.889 138.611 220.61 139.208C220.61 139.208 220.729 139.474 221.008 139.58C221.008 139.58 221.26 139.819 220.743 140.19C220.743 140.19 220.424 139.58 220.092 139.859C220.092 139.859 219.681 140.323 219.535 140.655C219.455 140.841 219.416 140.854 219.588 141.106L219.827 141.239L219.429 141.743C219.429 141.743 219.124 141.902 218.925 141.69C218.925 141.69 218.699 141.531 218.633 141.61C218.633 141.61 220.145 139.474 220.291 138.399Z" fill="#1F1B1A"/>
<path d="M220.769 140.296C220.769 140.296 220.543 139.858 220.318 139.858C220.318 139.858 220.145 139.819 219.96 140.084C219.96 140.084 219.508 140.694 219.535 140.84C219.535 140.84 219.469 141.013 219.654 141.119L219.88 141.252C219.893 141.252 220.57 140.867 220.769 140.296Z" fill="#4E3B1F" stroke="#00351A" stroke-width="0.0199683" stroke-miterlimit="10"/>
<path opacity="0.2" d="M211.507 127.159C211.507 127.159 218.022 123.019 221.141 119.941C221.141 119.941 228.373 126.642 226.847 135.174C226.847 135.174 223.728 137.643 218.951 139.262C218.951 139.262 215.302 132.428 210.074 132.574L211.507 127.159Z" fill="white"/>
<g opacity="0.5">
<path d="M211.466 127.079C212.263 126.574 213.059 126.044 213.828 125.513C215.461 124.398 217.08 123.244 218.632 122.01C219.481 121.333 220.304 120.643 221.074 119.873C221.114 119.833 221.167 119.847 221.193 119.873C221.724 120.364 222.202 120.921 222.653 121.466C223.728 122.779 224.67 124.226 225.413 125.752C226.355 127.676 226.979 129.772 227.112 131.922C227.151 132.519 227.151 133.116 227.112 133.714C227.085 134.019 227.058 134.324 227.019 134.629C227.005 134.775 226.979 134.908 226.952 135.054C226.939 135.107 226.939 135.173 226.899 135.226C226.833 135.306 226.713 135.372 226.621 135.425C226.408 135.585 226.183 135.731 225.97 135.89C224.113 137.137 222.096 138.159 220.012 138.955C219.667 139.088 219.322 139.207 218.977 139.327C218.937 139.34 218.897 139.313 218.884 139.287C218.46 138.491 217.929 137.734 217.371 137.018C216.257 135.585 214.903 134.244 213.271 133.408C212.289 132.904 211.201 132.612 210.086 132.639C210.033 132.639 209.993 132.586 210.007 132.533C210.418 130.953 210.829 129.388 211.254 127.808C211.307 127.583 211.374 127.357 211.427 127.132C211.453 127.026 211.626 127.065 211.599 127.172C211.188 128.751 210.776 130.316 210.352 131.896C210.299 132.121 210.232 132.347 210.179 132.572C210.153 132.533 210.126 132.493 210.1 132.466C212.09 132.413 213.921 133.382 215.394 134.656C216.615 135.717 217.663 136.991 218.539 138.345C218.725 138.623 218.897 138.902 219.057 139.194C219.03 139.181 218.99 139.167 218.964 139.154C221.233 138.385 223.409 137.336 225.44 136.049C225.891 135.77 226.329 135.465 226.74 135.147C226.766 135.12 226.806 135.107 226.806 135.094C226.82 135.067 226.82 134.974 226.82 134.921C226.846 134.749 226.873 134.589 226.886 134.417C226.966 133.82 226.992 133.223 226.992 132.625C226.966 130.449 226.421 128.299 225.532 126.322C224.816 124.743 223.887 123.257 222.825 121.89C222.467 121.439 222.096 121.001 221.697 120.576C221.578 120.444 221.459 120.311 221.326 120.192C221.26 120.125 221.18 120.072 221.127 119.993C221.127 119.979 221.114 119.979 221.1 119.966C221.14 119.966 221.18 119.966 221.22 119.966C219.8 121.359 218.207 122.58 216.615 123.748C215.235 124.756 213.842 125.725 212.422 126.654C212.143 126.84 211.864 127.026 211.586 127.198C211.466 127.291 211.373 127.145 211.466 127.079Z" fill="#18CDFA"/>
</g>
<path d="M210.669 133.329C208.859 133.329 207.391 131.862 207.391 130.052C207.391 128.241 208.859 126.774 210.669 126.774C212.479 126.774 213.947 128.241 213.947 130.052C213.947 131.862 212.479 133.329 210.669 133.329Z" fill="#1F1B1A"/>
<path d="M208.281 132.201C209.183 133.183 210.616 133.528 211.864 133.037C213.124 132.533 213.947 131.246 213.894 129.892C213.828 128.552 212.912 127.358 211.625 126.96C210.338 126.562 208.891 127.039 208.082 128.128C207.179 129.362 207.272 131.073 208.281 132.201C208.334 132.254 208.254 132.334 208.201 132.281C207.286 131.246 207.073 129.746 207.71 128.512C208.347 127.278 209.74 126.562 211.121 126.748C212.514 126.933 213.668 128.021 213.934 129.388C214.199 130.755 213.589 132.162 212.394 132.891C211.041 133.714 209.263 133.449 208.201 132.281C208.161 132.228 208.241 132.148 208.281 132.201Z" fill="#808184"/>
<path d="M210.67 132.719C209.197 132.719 208.002 131.525 208.002 130.052C208.002 128.578 209.197 127.384 210.67 127.384C212.143 127.384 213.337 128.578 213.337 130.052C213.337 131.525 212.143 132.719 210.67 132.719Z" fill="#1F1B1A"/>
<path d="M208.839 131.697C209.542 132.454 210.63 132.719 211.599 132.334C212.567 131.95 213.191 130.968 213.138 129.933C213.098 128.911 212.382 127.982 211.4 127.69C210.418 127.398 209.33 127.743 208.706 128.552C208.003 129.495 208.056 130.822 208.839 131.697C209.011 131.896 208.719 132.175 208.547 131.989C207.75 131.087 207.565 129.787 208.135 128.712C208.693 127.65 209.9 127.04 211.094 127.212C212.275 127.385 213.271 128.314 213.496 129.481C213.735 130.662 213.191 131.896 212.156 132.52C210.988 133.21 209.476 132.985 208.56 131.989C208.374 131.79 208.666 131.498 208.839 131.697Z" fill="#808184"/>
<path d="M212.13 131.657C212.303 131.498 212.316 131.233 212.157 131.047L209.821 128.473C209.662 128.3 209.397 128.287 209.211 128.446C209.039 128.605 209.025 128.871 209.185 129.056L211.52 131.631C211.679 131.803 211.958 131.817 212.13 131.657Z" fill="#414042"/>
<defs>
<linearGradient id="paint0_linear_240_18394" x1="336.244" y1="262.85" x2="336.244" y2="242.346" gradientUnits="userSpaceOnUse">
<stop stop-color="#16D1FF"/>
<stop offset="1" stop-color="#67D3EE"/>
</linearGradient>
<linearGradient id="paint1_linear_240_18394" x1="306.497" y1="199.507" x2="306.497" y2="172.032" gradientUnits="userSpaceOnUse">
<stop stop-color="#16D1FF"/>
<stop offset="1" stop-color="#67D3EE"/>
</linearGradient>
<linearGradient id="paint2_linear_240_18394" x1="227.942" y1="271.947" x2="227.942" y2="221.136" gradientUnits="userSpaceOnUse">
<stop stop-color="#16D1FF"/>
<stop offset="1" stop-color="#67D3EE"/>
</linearGradient>
<linearGradient id="paint3_linear_240_18394" x1="288.995" y1="274.658" x2="288.995" y2="199.104" gradientUnits="userSpaceOnUse">
<stop stop-color="#16D1FF"/>
<stop offset="1" stop-color="#67D3EE"/>
</linearGradient>
<linearGradient id="paint4_linear_240_18394" x1="212.933" y1="267.051" x2="212.933" y2="230.045" gradientUnits="userSpaceOnUse">
<stop stop-color="#16D1FF"/>
<stop offset="1" stop-color="#67D3EE"/>
</linearGradient>
<linearGradient id="paint5_linear_240_18394" x1="252.062" y1="117.547" x2="252.062" y2="159.558" gradientUnits="userSpaceOnUse">
<stop stop-color="#04B7E3"/>
<stop offset="1" stop-color="#02657D"/>
</linearGradient>
<linearGradient id="paint6_linear_240_18394" x1="290.783" y1="181.668" x2="287.67" y2="181.639" gradientUnits="userSpaceOnUse">
<stop stop-color="#E8E8E9"/>
<stop offset="0.09065" stop-color="#F0F0F0"/>
<stop offset="0.2953" stop-color="#FBFBFB"/>
<stop offset="0.5094" stop-color="white"/>
<stop offset="0.7092" stop-color="#FCFCFC"/>
<stop offset="0.8507" stop-color="#F3F3F3"/>
<stop offset="0.9737" stop-color="#E3E4E4"/>
<stop offset="1" stop-color="#DFE0E0"/>
</linearGradient>
<linearGradient id="paint7_linear_240_18394" x1="289.162" y1="178.7" x2="289.162" y2="184.645" gradientUnits="userSpaceOnUse">
<stop stop-color="#04B7E3"/>
<stop offset="1" stop-color="#02657D"/>
</linearGradient>
<linearGradient id="paint8_linear_240_18394" x1="246.048" y1="161.476" x2="246.048" y2="215.204" gradientUnits="userSpaceOnUse">
<stop stop-color="#04B7E3"/>
<stop offset="1" stop-color="#02657D"/>
</linearGradient>
<linearGradient id="paint9_linear_240_18394" x1="256.966" y1="163.896" x2="244.429" y2="163.896" gradientUnits="userSpaceOnUse">
<stop stop-color="#E8E8E9"/>
<stop offset="0.09065" stop-color="#F0F0F0"/>
<stop offset="0.2953" stop-color="#FBFBFB"/>
<stop offset="0.5094" stop-color="white"/>
<stop offset="0.7092" stop-color="#FCFCFC"/>
<stop offset="0.8507" stop-color="#F3F3F3"/>
<stop offset="0.9737" stop-color="#E3E4E4"/>
<stop offset="1" stop-color="#DFE0E0"/>
</linearGradient>
<linearGradient id="paint10_linear_240_18394" x1="290.303" y1="184.783" x2="287.191" y2="184.783" gradientUnits="userSpaceOnUse">
<stop stop-color="#E8E8E9"/>
<stop offset="0.09065" stop-color="#F0F0F0"/>
<stop offset="0.2953" stop-color="#FBFBFB"/>
<stop offset="0.5094" stop-color="white"/>
<stop offset="0.7092" stop-color="#FCFCFC"/>
<stop offset="0.8507" stop-color="#F3F3F3"/>
<stop offset="0.9737" stop-color="#E3E4E4"/>
<stop offset="1" stop-color="#DFE0E0"/>
</linearGradient>
<linearGradient id="paint11_linear_240_18394" x1="288.685" y1="181.817" x2="288.685" y2="187.776" gradientUnits="userSpaceOnUse">
<stop stop-color="#04B7E3"/>
<stop offset="1" stop-color="#02657D"/>
</linearGradient>
<linearGradient id="paint12_linear_240_18394" x1="206.694" y1="142.572" x2="206.694" y2="114.857" gradientUnits="userSpaceOnUse">
<stop stop-color="#18CDFA"/>
<stop offset="1" stop-color="#0E7994"/>
</linearGradient>
</defs>
</svg>
