<svg width="469" height="423" viewBox="0 0 469 423" fill="none" xmlns="http://www.w3.org/2000/svg">
<path d="M156 190.5C156 173.394 149.204 156.988 137.108 144.892C125.012 132.796 108.606 126 91.5 126C74.3935 126 57.9877 132.796 45.8916 144.892C33.7955 156.988 27 173.394 27 190.5L91.5 190.5H156Z" fill="white"/>
<path d="M429 196.5C429 179.394 422.204 162.988 410.108 150.892C398.012 138.796 381.606 132 364.5 132C347.394 132 330.988 138.796 318.892 150.892C306.796 162.988 300 179.394 300 196.5L364.5 196.5H429Z" fill="white"/>
<path d="M388 191C388 154.665 373.566 119.819 347.874 94.1264C322.181 68.4339 287.335 54 251 54C214.665 54 179.819 68.4339 154.126 94.1264C128.434 119.819 114 154.665 114 191L251 191H388Z" fill="white"/>
<path d="M347.656 251.118H291.02C290.229 251.118 289.471 251.432 288.912 251.991C288.353 252.55 288.039 253.308 288.039 254.098V263.041C288.039 263.432 288.116 263.82 288.266 264.182C288.416 264.543 288.635 264.872 288.912 265.149C289.189 265.426 289.518 265.645 289.879 265.795C290.241 265.945 290.628 266.022 291.02 266.022H347.656C348.447 266.022 349.205 265.708 349.764 265.149C350.323 264.59 350.637 263.832 350.637 263.041V254.098C350.637 253.308 350.323 252.55 349.764 251.991C349.205 251.432 348.447 251.118 347.656 251.118Z" fill="#FFCC5C"/>
<path d="M347.656 251.118H341.694C342.484 251.118 343.243 251.432 343.802 251.991C344.361 252.55 344.675 253.308 344.675 254.098V263.041C344.675 263.432 344.598 263.82 344.448 264.182C344.298 264.543 344.078 264.872 343.802 265.149C343.525 265.426 343.196 265.645 342.835 265.795C342.473 265.945 342.085 266.022 341.694 266.022H347.656C348.446 266.022 349.204 265.708 349.763 265.149C350.322 264.59 350.636 263.832 350.636 263.041V254.098C350.636 253.308 350.322 252.55 349.763 251.991C349.204 251.432 348.446 251.118 347.656 251.118Z" fill="#F7B546"/>
<path d="M322.318 266.023H344.674V298.812C344.674 299.603 344.36 300.361 343.801 300.92C343.242 301.479 342.484 301.793 341.693 301.793H296.98C296.19 301.793 295.432 301.479 294.873 300.92C294.314 300.361 294 299.603 294 298.812V266.023H316.356" fill="#FFCC5C"/>
<path d="M338.712 266.023H294V271.984H326.789C329.951 271.984 332.984 273.241 335.22 275.477C337.456 277.713 338.712 280.746 338.712 283.908V301.793H341.693C342.484 301.793 343.242 301.479 343.801 300.92C344.36 300.361 344.674 299.603 344.674 298.812V266.023H338.712Z" fill="#F7B546"/>
<path d="M311.887 236.214C310.908 236.214 309.939 236.407 309.035 236.781C308.131 237.156 307.309 237.705 306.617 238.397C305.925 239.089 305.376 239.91 305.002 240.814C304.627 241.718 304.435 242.687 304.435 243.666C304.435 244.645 304.627 245.614 305.002 246.518C305.376 247.422 305.925 248.244 306.617 248.936C307.309 249.628 308.131 250.176 309.035 250.551C309.939 250.925 310.908 251.118 311.887 251.118H319.339V243.666C319.339 241.69 318.554 239.794 317.156 238.397C315.759 236.999 313.863 236.214 311.887 236.214ZM316.358 248.137H311.887C311.002 248.137 310.138 247.875 309.403 247.384C308.667 246.893 308.094 246.194 307.756 245.377C307.417 244.56 307.329 243.661 307.501 242.794C307.674 241.926 308.1 241.13 308.725 240.504C309.35 239.879 310.147 239.453 311.014 239.281C311.882 239.108 312.781 239.197 313.598 239.535C314.415 239.874 315.113 240.447 315.604 241.182C316.096 241.917 316.358 242.782 316.358 243.666V248.137ZM326.791 236.214C324.815 236.214 322.919 236.999 321.522 238.397C320.124 239.794 319.339 241.69 319.339 243.666V251.118H326.791C327.77 251.118 328.739 250.925 329.643 250.551C330.547 250.176 331.368 249.628 332.06 248.936C332.752 248.244 333.301 247.422 333.676 246.518C334.05 245.614 334.243 244.645 334.243 243.666C334.243 242.687 334.05 241.718 333.676 240.814C333.301 239.91 332.752 239.089 332.06 238.397C331.368 237.705 330.547 237.156 329.643 236.781C328.739 236.407 327.77 236.214 326.791 236.214ZM326.791 248.137H322.32V243.666C322.32 242.782 322.582 241.917 323.073 241.182C323.565 240.447 324.263 239.874 325.08 239.535C325.897 239.197 326.796 239.108 327.663 239.281C328.531 239.453 329.327 239.879 329.953 240.504C330.578 241.13 331.004 241.926 331.176 242.794C331.349 243.661 331.26 244.56 330.922 245.377C330.583 246.194 330.01 246.893 329.275 247.384C328.54 247.875 327.675 248.137 326.791 248.137Z" fill="#F04C4D"/>
<path d="M326.79 248.137H328.281C329.467 248.137 330.604 247.666 331.442 246.828C332.281 245.989 332.752 244.852 332.752 243.666C332.752 242.48 332.281 241.343 331.442 240.504C330.604 239.666 329.467 239.195 328.281 239.195C328.024 239.195 327.78 239.227 327.535 239.269C328.647 239.448 329.649 240.039 330.342 240.926C331.036 241.812 331.369 242.927 331.274 244.049C331.18 245.17 330.666 246.214 329.834 246.972C329.003 247.731 327.916 248.147 326.79 248.137ZM311.886 239.195H310.396C309.21 239.195 308.072 239.666 307.234 240.504C306.395 241.343 305.924 242.48 305.924 243.666C305.924 244.852 306.395 245.989 307.234 246.828C308.072 247.666 309.21 248.137 310.396 248.137C310.652 248.137 310.896 248.104 311.141 248.063C310.03 247.884 309.027 247.293 308.334 246.406C307.641 245.52 307.308 244.404 307.402 243.283C307.496 242.162 308.01 241.117 308.842 240.359C309.674 239.601 310.761 239.185 311.886 239.195Z" fill="#E13340"/>
<path d="M316.356 251.118H322.318V301.792H316.356V251.118Z" fill="#F04C4D"/>
<path d="M317.21 265.701H276.755C276.19 265.701 275.649 265.925 275.25 266.325C274.85 266.724 274.626 267.265 274.626 267.83V274.218C274.626 274.497 274.681 274.774 274.788 275.032C274.895 275.291 275.052 275.525 275.25 275.723C275.447 275.921 275.682 276.078 275.94 276.185C276.199 276.292 276.476 276.347 276.755 276.347H317.21C317.774 276.347 318.316 276.123 318.715 275.723C319.114 275.324 319.339 274.782 319.339 274.218V267.83C319.339 267.265 319.114 266.724 318.715 266.325C318.316 265.925 317.774 265.701 317.21 265.701Z" fill="#FFCC5C"/>
<path d="M317.21 265.701H312.951C313.516 265.701 314.057 265.925 314.457 266.325C314.856 266.724 315.08 267.265 315.08 267.83V274.218C315.08 274.497 315.025 274.774 314.918 275.032C314.811 275.291 314.654 275.525 314.457 275.723C314.259 275.921 314.024 276.078 313.766 276.185C313.508 276.292 313.231 276.347 312.951 276.347H317.21C317.774 276.347 318.316 276.123 318.715 275.723C319.114 275.324 319.339 274.782 319.339 274.218V267.83C319.339 267.265 319.114 266.724 318.715 266.325C318.316 265.925 317.774 265.701 317.21 265.701Z" fill="#F7B546"/>
<path d="M299.111 276.347H315.08V299.768C315.08 300.332 314.856 300.874 314.456 301.273C314.057 301.673 313.515 301.897 312.951 301.897H281.013C280.448 301.897 279.907 301.673 279.507 301.273C279.108 300.874 278.884 300.332 278.884 299.768V276.347H294.853" fill="#FFCC5C"/>
<path d="M310.821 276.347H278.884V280.605H302.305C304.564 280.605 306.73 281.502 308.327 283.1C309.924 284.697 310.821 286.863 310.821 289.122V301.897H312.951C313.515 301.897 314.057 301.673 314.456 301.273C314.856 300.874 315.08 300.332 315.08 299.768V276.347H310.821Z" fill="#F7B546"/>
<path d="M294.854 265.701H299.112V301.897H294.854V265.701Z" fill="#F04C4D"/>
<path d="M287.778 246.746L283.009 245.554L287.778 244.361L288.97 239.592L290.163 244.361L294.932 245.554L290.163 246.746L288.97 251.515L287.778 246.746ZM282.413 255.092L280.028 254.496L282.413 253.9L283.009 251.515L283.605 253.9L285.99 254.496L283.605 255.092L283.009 257.477L282.413 255.092ZM279.432 243.169L277.047 242.573L279.432 241.977L280.028 239.592L280.624 241.977L283.009 242.573L280.624 243.169L280.028 245.554L279.432 243.169Z" fill="#FFCC5C"/>
<path d="M342.06 250.66L332.387 244.24C332.296 244.18 332.193 244.142 332.086 244.128C331.978 244.114 331.869 244.125 331.766 244.16L323.726 246.903C323.623 246.938 323.53 246.997 323.453 247.073C323.376 247.15 323.319 247.244 323.284 247.347L319.558 258.344C319.508 258.492 319.508 258.652 319.559 258.799L329.854 288.948C329.914 289.126 330.043 289.272 330.212 289.355C330.38 289.437 330.575 289.45 330.752 289.389L352.191 282.068C352.369 282.008 352.515 281.879 352.598 281.71C352.681 281.542 352.693 281.347 352.632 281.17L342.338 251.021C342.287 250.873 342.19 250.747 342.06 250.66Z" fill="#D43239"/>
<path d="M333.383 281.757C331.523 282.392 329.635 282.739 327.765 282.832L329.853 288.947C329.914 289.125 330.043 289.271 330.211 289.354C330.38 289.437 330.574 289.449 330.752 289.388L352.191 282.068C352.369 282.007 352.515 281.878 352.598 281.71C352.68 281.541 352.693 281.346 352.632 281.169L347.107 264.987C346.122 272.483 341.022 279.149 333.383 281.757Z" fill="#BF2D33"/>
<path d="M330.034 252.231C331.144 251.852 331.737 250.645 331.358 249.535C330.978 248.425 329.771 247.832 328.661 248.211C327.551 248.59 326.959 249.797 327.338 250.907C327.717 252.018 328.924 252.61 330.034 252.231Z" fill="#F5F5F5"/>
<path d="M331.031 266.104C329.553 266.609 327.94 265.817 327.436 264.339C326.931 262.862 327.722 261.249 329.2 260.745C330.678 260.24 332.291 261.031 332.795 262.509C333.3 263.987 332.509 265.6 331.031 266.104ZM329.658 262.084C328.919 262.337 328.523 263.143 328.776 263.882C329.028 264.621 329.834 265.017 330.573 264.764C331.312 264.512 331.708 263.706 331.455 262.967C331.203 262.228 330.397 261.832 329.658 262.084ZM340.018 270.516C338.54 271.021 336.928 270.229 336.423 268.751C335.918 267.274 336.71 265.661 338.188 265.157C339.666 264.652 341.278 265.443 341.783 266.921C342.287 268.399 341.496 270.012 340.018 270.516ZM338.645 266.496C337.906 266.749 337.511 267.555 337.763 268.294C338.015 269.033 338.821 269.429 339.56 269.176C340.299 268.924 340.695 268.118 340.443 267.379C340.191 266.64 339.384 266.244 338.645 266.496ZM328.645 276.644L329.985 276.187L330.442 277.526L329.102 277.984L328.645 276.644ZM331.325 275.729L332.665 275.271L333.122 276.611L331.782 277.069L331.325 275.729ZM334.005 274.814L335.345 274.356L335.802 275.696L334.462 276.154L334.005 274.814ZM336.684 273.899L338.024 273.441L338.482 274.781L337.142 275.239L336.684 273.899ZM339.364 272.984L340.704 272.526L341.162 273.866L339.822 274.324L339.364 272.984ZM342.044 272.069L343.384 271.611L343.842 272.951L342.502 273.409L342.044 272.069ZM344.724 271.154L346.064 270.696L346.522 272.036L345.182 272.493L344.724 271.154ZM322.697 259.225L324.037 258.767L324.494 260.107L323.154 260.565L322.697 259.225ZM325.377 258.31L326.717 257.852L327.174 259.192L325.834 259.65L325.377 258.31ZM328.057 257.395L329.396 256.937L329.854 258.277L328.514 258.735L328.057 257.395ZM330.736 256.48L332.076 256.022L332.534 257.362L331.194 257.82L330.736 256.48ZM333.416 255.564L334.756 255.107L335.214 256.447L333.874 256.904L333.416 255.564ZM336.096 254.649L337.436 254.192L337.894 255.532L336.554 255.989L336.096 254.649ZM338.776 253.734L340.116 253.277L340.574 254.617L339.234 255.074L338.776 253.734ZM331.308 273.49C331.176 273.536 331.033 273.541 330.897 273.505C330.762 273.469 330.64 273.394 330.547 273.289C330.455 273.184 330.396 273.053 330.377 272.914C330.359 272.775 330.382 272.634 330.444 272.508L337.503 258.129C337.544 258.045 337.601 257.971 337.671 257.909C337.741 257.848 337.822 257.801 337.91 257.771C337.998 257.741 338.091 257.728 338.184 257.734C338.277 257.74 338.367 257.764 338.451 257.805C338.534 257.846 338.609 257.903 338.67 257.973C338.732 258.043 338.779 258.124 338.809 258.212C338.839 258.3 338.851 258.393 338.845 258.485C338.839 258.578 338.815 258.669 338.774 258.752L331.715 273.132C331.674 273.216 331.617 273.29 331.547 273.352C331.478 273.413 331.396 273.46 331.308 273.49ZM329.789 279.994L347.208 274.046L347.665 275.386L330.246 281.334L329.789 279.994ZM344.103 278.099L348.123 276.726L348.581 278.066L344.56 279.439L344.103 278.099ZM341.423 279.013L342.763 278.556L343.221 279.896L341.881 280.353L341.423 279.013ZM330.704 282.674L340.083 279.471L340.541 280.811L331.161 284.014L330.704 282.674ZM331.619 285.354L349.038 279.406L349.496 280.746L332.076 286.694L331.619 285.354Z" fill="white"/>
<path d="M302.545 190.28C278.238 190.28 278.195 224.845 302.545 224.845C326.896 224.845 326.891 190.28 302.545 190.28Z" fill="#EBEBEB"/>
<path d="M299.76 203.806C299.76 203.08 299.345 202.614 298.423 202.614H297.118V205.029H298.423C299.345 205.029 299.76 204.521 299.76 203.806ZM295.936 201.651H298.423C300.133 201.651 300.972 202.635 300.972 203.806C300.972 204.656 300.516 205.567 299.304 205.868L301.086 208.852H299.677L298.019 205.972H297.118V208.852H295.936V201.651ZM303.665 203.982C304.027 203.505 304.722 203.049 305.654 203.049C307.157 203.049 308.338 204.21 308.338 205.972C308.338 207.733 307.157 208.945 305.654 208.945C304.711 208.945 304.038 208.469 303.665 208.023V211.567H302.483V203.143H303.665V203.982ZM307.136 205.972C307.136 204.738 306.286 204.075 305.395 204.075C304.514 204.075 303.665 204.77 303.665 205.992C303.665 207.225 304.514 207.92 305.395 207.92C306.286 207.92 307.136 207.205 307.136 205.972Z" fill="#A6A6A6"/>
<path d="M317.323 210.801C316.024 216.749 311.096 221.907 302.54 221.907C282.336 221.907 282.365 193.219 302.54 193.219C302.674 193.219 302.804 193.219 302.938 193.224C283.952 193.573 284.047 220.742 303.312 220.742C311.168 220.742 315.851 216.193 317.328 210.801H317.323Z" fill="#DBDBDB"/>
<path d="M177.909 125.323C161.717 128.228 165.993 152.218 182.213 149.309C198.405 146.404 194.13 122.413 177.909 125.323Z" fill="#DBDBDB"/>
<path d="M179.428 125.05C163.994 127.82 168.274 151.806 183.733 149.036C199.163 146.265 194.887 122.279 179.428 125.05Z" fill="#EBEBEB"/>
<path d="M191.368 137.604C191.287 141.879 188.799 146.016 183.364 146.994C170.537 149.295 166.985 129.388 179.793 127.087C179.874 127.073 179.96 127.058 180.047 127.049C168.034 129.455 171.481 148.293 183.709 146.097C188.699 145.201 191.105 141.515 191.368 137.604Z" fill="#DBDBDB"/>
<path d="M179.188 135.713C179.188 134.988 178.774 134.522 177.851 134.522H176.546V136.936H177.851C178.774 136.936 179.188 136.428 179.188 135.713ZM175.365 133.558H177.851C179.561 133.558 180.401 134.543 180.401 135.713C180.401 136.563 179.945 137.475 178.732 137.775L180.515 140.76H179.105L177.447 137.879H176.546V140.76H175.365V133.558ZM183.093 135.89C183.456 135.413 184.15 134.957 185.083 134.957C186.585 134.957 187.766 136.118 187.766 137.879C187.766 139.641 186.585 140.853 185.083 140.853C184.14 140.853 183.466 140.376 183.093 139.931V143.475H181.912V135.05H183.093V135.89ZM186.564 137.879C186.564 136.646 185.715 135.983 184.823 135.983C183.943 135.983 183.093 136.677 183.093 137.9C183.093 139.133 183.943 139.827 184.823 139.827C185.715 139.827 186.564 139.112 186.564 137.879Z" fill="#A6A6A6"/>
<path d="M340.547 230.475C322.721 233.672 327.428 260.078 345.283 256.876C363.109 253.679 358.402 227.273 340.547 230.475Z" fill="#DBDBDB"/>
<path d="M342.22 230.173C325.232 233.221 329.94 259.628 346.956 256.575C363.944 253.526 359.237 227.119 342.22 230.173Z" fill="#EBEBEB"/>
<path d="M355.364 243.997C355.273 248.704 352.536 253.262 346.553 254.331C332.432 256.867 328.521 234.947 342.623 232.416C342.714 232.402 342.81 232.383 342.901 232.373C329.681 235.019 333.468 255.76 346.932 253.344C352.425 252.356 355.071 248.296 355.364 243.992V243.997Z" fill="#DBDBDB"/>
<path d="M165 314.674C225.923 314.382 294.267 314.377 355.186 314.674C294.262 314.972 225.919 314.967 165 314.674Z" fill="#263238"/>
<path d="M276.003 118.167H189.253C184.407 118.167 180.477 122.164 180.477 127.106V305.678C180.477 310.61 184.407 314.617 189.253 314.617H276.003C280.849 314.617 284.789 310.61 284.789 305.678V127.106C284.789 122.164 280.849 118.167 276.003 118.167ZM279.296 300.156C279.296 304.858 275.778 308.659 271.435 308.659H193.831C189.478 308.659 185.96 304.858 185.96 300.156V133.874C185.96 124.297 189.478 123.832 193.831 123.832H209.38C210.282 123.832 211.025 124.858 211.025 126.133V126.684C211.025 129.666 212.654 129.675 214.658 129.675H250.608C252.631 129.675 254.251 129.666 254.251 126.684V126.133C254.251 124.863 254.98 123.832 255.9 123.832H271.445C275.788 123.832 279.306 125.103 279.306 133.874V300.156H279.296Z" fill="#263238"/>
<path d="M279.296 133.874V300.156C279.296 304.858 275.778 308.659 271.435 308.659H193.831C189.478 308.659 185.96 304.858 185.96 300.156V133.874C185.96 124.297 189.478 123.832 193.831 123.832H209.38C210.281 123.832 211.024 124.858 211.024 126.133V126.684C211.024 129.666 212.654 129.675 214.658 129.675H250.608C252.631 129.675 254.251 129.666 254.251 126.684V126.133C254.251 124.863 254.979 123.832 255.9 123.832H271.445C275.787 123.832 279.306 125.103 279.306 133.874H279.296Z" fill="white"/>
<path d="M279.296 133.874V150.55H185.955V133.874C185.955 124.297 189.473 123.832 193.826 123.832H209.375C210.277 123.832 211.02 124.858 211.02 126.133V126.684C211.02 129.666 212.649 129.675 214.653 129.675H250.603C252.626 129.675 254.246 129.666 254.246 126.684V126.133C254.246 124.863 254.975 123.832 255.895 123.832H271.44C275.782 123.832 279.301 125.103 279.301 133.874H279.296Z" fill="#115E32"/>
<path d="M206.691 127.566C206.643 127.614 206.591 127.667 206.543 127.715C206.514 127.744 206.485 127.772 206.456 127.801C206.054 127.408 205.574 127.202 205.009 127.202C204.448 127.202 203.964 127.408 203.561 127.806C203.532 127.777 203.508 127.748 203.48 127.72C203.432 127.672 203.379 127.619 203.331 127.571C203.331 127.571 203.341 127.561 203.341 127.557C203.403 127.499 203.465 127.442 203.532 127.389C203.667 127.279 203.815 127.188 203.973 127.111C204.16 127.02 204.352 126.953 204.553 126.914C204.649 126.895 204.745 126.886 204.846 126.876C204.879 126.876 205.095 126.871 205.1 126.876C205.167 126.881 205.234 126.886 205.296 126.89C205.478 126.91 205.656 126.953 205.828 127.02C205.953 127.068 206.073 127.12 206.188 127.188C206.308 127.26 206.428 127.336 206.533 127.427C206.586 127.475 206.638 127.523 206.691 127.571V127.566Z" fill="white"/>
<path d="M204.036 128.271C203.954 128.194 203.877 128.113 203.796 128.036C204.064 127.772 204.385 127.6 204.759 127.552C205.32 127.475 205.804 127.648 206.212 128.031C206.13 128.113 206.054 128.189 205.972 128.266C205.704 128.007 205.383 127.863 204.999 127.863C204.62 127.863 204.299 128.002 204.026 128.266L204.036 128.271Z" fill="white"/>
<path d="M205.742 128.51C205.665 128.587 205.584 128.669 205.507 128.745C205.368 128.611 205.205 128.539 205.009 128.539C204.812 128.539 204.649 128.611 204.51 128.745C204.434 128.669 204.352 128.587 204.275 128.51C204.649 128.117 205.325 128.084 205.742 128.51Z" fill="white"/>
<path d="M205.225 128.961C205.225 129.081 205.129 129.172 205.014 129.172C204.899 129.172 204.803 129.076 204.803 128.961C204.803 128.846 204.899 128.75 205.014 128.75C205.129 128.75 205.225 128.846 205.225 128.961Z" fill="white"/>
<path d="M192.047 128.022C192.047 127.681 192.325 127.403 192.666 127.403C193.006 127.403 193.284 127.681 193.284 128.022C193.284 128.362 193.006 128.64 192.666 128.64C192.325 128.64 192.047 128.362 192.047 128.022Z" fill="white"/>
<path d="M193.994 128.022C193.994 127.681 194.272 127.403 194.612 127.403C194.952 127.403 195.23 127.681 195.23 128.022C195.23 128.362 194.952 128.64 194.612 128.64C194.272 128.64 193.994 128.362 193.994 128.022Z" fill="white"/>
<path d="M195.94 128.022C195.94 127.681 196.218 127.403 196.558 127.403C196.899 127.403 197.177 127.681 197.177 128.022C197.177 128.362 196.899 128.64 196.558 128.64C196.218 128.64 195.94 128.362 195.94 128.022Z" fill="white"/>
<path d="M197.891 128.022C197.891 127.681 198.169 127.403 198.509 127.403C198.85 127.403 199.128 127.681 199.128 128.022C199.128 128.362 198.85 128.64 198.509 128.64C198.169 128.64 197.891 128.362 197.891 128.022Z" fill="white"/>
<path d="M199.836 128.022C199.836 127.681 200.114 127.403 200.454 127.403C200.795 127.403 201.073 127.681 201.073 128.022C201.073 128.362 200.795 128.64 200.454 128.64C200.114 128.64 199.836 128.362 199.836 128.022Z" fill="white"/>
<path d="M272.293 129.368H267.255V127.034H272.293V129.368ZM267.514 129.11H272.034V127.288H267.514V129.11Z" fill="white"/>
<path d="M270.922 127.432H267.677V128.971H270.922V127.432Z" fill="white"/>
<path d="M272.744 127.581H272.298V128.827H272.744V127.581Z" fill="white"/>
<path d="M272.82 142.895H268.606V143.384H272.82V142.895Z" fill="white"/>
<path d="M272.82 144.511H268.606V145H272.82V144.511Z" fill="white"/>
<path d="M272.82 146.131H268.606V146.62H272.82V146.131Z" fill="white"/>
<path d="M270.304 143.14C270.304 143.543 269.978 143.869 269.575 143.869C269.173 143.869 268.847 143.543 268.847 143.14C268.847 142.737 269.173 142.411 269.575 142.411C269.978 142.411 270.304 142.737 270.304 143.14Z" fill="white"/>
<path d="M272.437 144.755C272.437 145.158 272.111 145.484 271.708 145.484C271.305 145.484 270.979 145.158 270.979 144.755C270.979 144.352 271.305 144.026 271.708 144.026C272.111 144.026 272.437 144.352 272.437 144.755Z" fill="white"/>
<path d="M270.979 146.375C270.979 146.778 270.653 147.104 270.251 147.104C269.848 147.104 269.522 146.778 269.522 146.375C269.522 145.973 269.848 145.647 270.251 145.647C270.653 145.647 270.979 145.973 270.979 146.375Z" fill="white"/>
<path d="M195.331 144.923C194.885 145.742 193.816 146.461 193.816 146.461C193.816 146.461 192.747 145.742 192.301 144.923C191.798 143.998 192.076 143.053 192.8 143.053C193.605 143.053 193.816 144.06 193.816 144.06C193.816 144.06 194.027 143.053 194.832 143.053C195.556 143.053 195.834 143.998 195.331 144.923Z" fill="white"/>
<path d="M210.36 144.225C210.36 142.843 211.525 141.71 212.932 141.702C213.55 141.702 214.105 141.903 214.547 142.248C214.715 142.385 214.74 142.634 214.619 142.811C214.482 142.987 214.217 143.011 214.057 142.891C213.751 142.642 213.365 142.505 212.932 142.505C212.449 142.505 212 142.698 211.67 143.011C211.357 143.333 211.156 143.751 211.156 144.233C211.156 144.715 211.349 145.141 211.67 145.454C212 145.759 212.449 145.96 212.932 145.96C213.365 145.96 213.743 145.824 214.057 145.575C214.217 145.454 214.474 145.486 214.619 145.655C214.748 145.832 214.715 146.081 214.547 146.217C214.105 146.563 213.542 146.764 212.932 146.764C211.533 146.764 210.368 145.639 210.36 144.241V144.225Z" fill="white"/>
<path d="M216.331 146.354V142.224C216.331 142.007 216.499 141.838 216.716 141.838C216.933 141.838 217.11 142.007 217.11 142.224V143.903H218.926V142.224C218.926 142.007 219.095 141.838 219.312 141.838C219.529 141.838 219.705 142.007 219.705 142.224V146.354C219.705 146.571 219.529 146.74 219.312 146.74C219.095 146.74 218.926 146.571 218.926 146.354V144.675H217.11V146.354C217.11 146.571 216.933 146.74 216.716 146.74C216.499 146.74 216.331 146.571 216.331 146.354Z" fill="white"/>
<path d="M221.643 146.354V142.224C221.643 142.007 221.811 141.838 222.028 141.838H224.318C224.519 141.838 224.704 142.007 224.704 142.224C224.704 142.441 224.519 142.618 224.318 142.618H222.422V143.895H224.053C224.262 143.895 224.439 144.08 224.439 144.281C224.439 144.498 224.262 144.675 224.053 144.675H222.422V145.96H224.318C224.519 145.96 224.704 146.137 224.704 146.354C224.704 146.571 224.519 146.74 224.318 146.74H222.052H222.036C221.819 146.74 221.651 146.571 221.651 146.362L221.643 146.354Z" fill="white"/>
<path d="M225.925 144.225C225.925 142.843 227.09 141.71 228.496 141.702C229.115 141.702 229.669 141.903 230.111 142.248C230.28 142.385 230.304 142.634 230.183 142.811C230.047 142.987 229.782 143.011 229.621 142.891C229.316 142.642 228.93 142.505 228.496 142.505C228.014 142.505 227.564 142.698 227.235 143.011C226.921 143.333 226.72 143.751 226.72 144.233C226.72 144.715 226.913 145.141 227.235 145.454C227.564 145.759 228.014 145.96 228.496 145.96C228.93 145.96 229.308 145.824 229.621 145.575C229.782 145.454 230.039 145.486 230.183 145.655C230.312 145.832 230.28 146.081 230.111 146.217C229.669 146.563 229.107 146.764 228.496 146.764C227.098 146.764 225.933 145.639 225.925 144.241V144.225Z" fill="white"/>
<path d="M231.886 146.354V142.256C231.886 142.055 232.055 141.87 232.272 141.87C232.489 141.87 232.658 142.055 232.658 142.256V144.265L234.924 141.991C235.076 141.838 235.317 141.838 235.47 141.991C235.615 142.135 235.615 142.384 235.47 142.537L233.927 144.072L235.478 146.113C235.615 146.273 235.591 146.523 235.422 146.651C235.35 146.715 235.269 146.74 235.181 146.74C235.076 146.74 234.972 146.691 234.892 146.603L233.381 144.618L232.65 145.357V146.354C232.65 146.563 232.481 146.74 232.264 146.74C232.047 146.74 231.878 146.563 231.878 146.354H231.886Z" fill="white"/>
<path d="M243.562 142.449C243.996 142.915 244.269 143.526 244.269 144.217C244.269 144.908 243.996 145.534 243.562 145.984C243.152 146.442 242.533 146.732 241.89 146.732C241.247 146.732 240.605 146.434 240.179 145.984C239.745 145.526 239.488 144.908 239.488 144.217C239.488 143.526 239.745 142.907 240.179 142.449C240.605 141.991 241.223 141.702 241.89 141.702C242.557 141.702 243.152 141.991 243.562 142.449ZM243.473 144.217C243.473 143.743 243.28 143.301 242.999 142.995C242.702 142.682 242.316 142.497 241.89 142.497C241.44 142.497 241.047 142.682 240.757 142.995C240.46 143.301 240.283 143.743 240.283 144.217C240.283 144.691 240.468 145.133 240.757 145.438C241.055 145.751 241.44 145.944 241.89 145.944C242.308 145.944 242.702 145.751 242.999 145.438C243.288 145.141 243.473 144.699 243.473 144.217Z" fill="white"/>
<path d="M247.708 146.74C246.583 146.74 245.683 145.832 245.683 144.715V142.224C245.683 142.007 245.852 141.838 246.069 141.838C246.286 141.838 246.463 142.007 246.463 142.224V144.715C246.463 145.398 247.025 145.96 247.708 145.96C248.391 145.96 248.953 145.398 248.953 144.715V142.224C248.953 142.007 249.13 141.838 249.347 141.838C249.564 141.838 249.733 142.007 249.733 142.224V144.715C249.733 145.832 248.833 146.74 247.708 146.74Z" fill="white"/>
<path d="M254.514 142.618H253.405V146.354C253.405 146.571 253.236 146.74 253.019 146.74C252.802 146.74 252.634 146.571 252.634 146.354V142.618H251.525C251.308 142.618 251.139 142.433 251.139 142.224C251.139 142.015 251.308 141.838 251.525 141.838H254.514C254.723 141.838 254.9 142.007 254.9 142.224C254.9 142.441 254.723 142.618 254.514 142.618Z" fill="white"/>
<path d="M237.531 125.946H227.724C227.389 125.946 227.12 125.673 227.12 125.342C227.12 125.007 227.393 124.738 227.724 124.738H237.531C237.867 124.738 238.135 125.012 238.135 125.342C238.135 125.678 237.862 125.946 237.531 125.946Z" fill="white"/>
<path d="M271.828 169.058H193.438V199.093H271.828V169.058Z" fill="#EBEBEB"/>
<path d="M219.648 172.495H196.486V195.656H219.648V172.495Z" fill="white"/>
<path d="M226.105 194.18C225.678 194.966 224.647 195.656 224.647 195.656C224.647 195.656 223.622 194.966 223.195 194.18C222.711 193.293 222.979 192.382 223.674 192.382C224.451 192.382 224.647 193.351 224.647 193.351C224.647 193.351 224.849 192.382 225.625 192.382C226.32 192.382 226.589 193.293 226.105 194.18Z" fill="#115E32"/>
<path d="M268.44 192.804C268.44 194.376 267.165 195.656 265.588 195.656C264.011 195.656 262.736 194.381 262.736 192.804C262.736 191.227 264.011 189.952 265.588 189.952C267.165 189.952 268.44 191.227 268.44 192.804Z" fill="white"/>
<path d="M266.019 194.434H264.058L264.245 191.586H266.948L267.068 193.187L266.795 193.206L266.694 191.86H264.504L264.35 194.16H266.019V194.434Z" fill="#115E32"/>
<path d="M266.235 191.86H264.993V191.361C264.993 191.021 265.271 190.738 265.616 190.738C265.961 190.738 266.239 191.016 266.239 191.361V191.86H266.235ZM265.266 191.586H265.961V191.361C265.961 191.169 265.803 191.011 265.612 191.011C265.42 191.011 265.266 191.169 265.266 191.361V191.586Z" fill="#115E32"/>
<path d="M267.064 193.567H266.791V194.688H267.064V193.567Z" fill="#115E32"/>
<path d="M267.491 193.993H266.369V194.266H267.491V193.993Z" fill="#115E32"/>
<path d="M239.971 172.763H222.945V174.101H239.971V172.763Z" fill="#DBDBDB"/>
<path d="M224.605 185.937C224.605 185.662 224.448 185.485 224.098 185.485H223.603V186.4H224.098C224.448 186.4 224.605 186.208 224.605 185.937ZM223.155 185.119H224.098C224.746 185.119 225.065 185.493 225.065 185.937C225.065 186.259 224.892 186.605 224.432 186.719L225.108 187.851H224.574L223.945 186.758H223.603V187.851H223.155V185.119ZM226.086 186.004C226.224 185.823 226.487 185.65 226.841 185.65C227.411 185.65 227.859 186.09 227.859 186.758C227.859 187.426 227.411 187.886 226.841 187.886C226.483 187.886 226.228 187.705 226.086 187.536V188.881H225.638V185.685H226.086V186.004ZM227.403 186.758C227.403 186.29 227.081 186.039 226.743 186.039C226.408 186.039 226.086 186.302 226.086 186.766C226.086 187.234 226.408 187.497 226.743 187.497C227.081 187.497 227.403 187.226 227.403 186.758Z" fill="#263238"/>
<path d="M232.614 188.14C232.614 188.279 232.508 188.385 232.369 188.385H230.778C230.711 188.385 230.639 188.356 230.596 188.303C230.5 188.202 230.509 188.049 230.61 187.953L231.933 186.755C232.062 186.64 232.12 186.486 232.12 186.328C232.12 186.184 232.072 186.05 231.971 185.94C231.856 185.811 231.698 185.753 231.54 185.753C231.401 185.753 231.262 185.801 231.152 185.902L231.013 186.026C230.912 186.122 230.759 186.113 230.663 186.007C230.572 185.906 230.576 185.753 230.682 185.657L230.821 185.533C231.022 185.346 231.286 185.255 231.54 185.255C231.832 185.255 232.125 185.374 232.336 185.609C232.523 185.811 232.614 186.074 232.614 186.328C232.614 186.621 232.494 186.913 232.259 187.124L231.415 187.886H232.369C232.508 187.886 232.614 187.996 232.614 188.135V188.14Z" fill="#263238"/>
<path d="M233.231 186.822C233.231 186.41 233.337 186.041 233.533 185.753C233.72 185.465 234.013 185.255 234.363 185.255C234.713 185.255 235 185.465 235.192 185.753C235.384 186.041 235.489 186.41 235.489 186.822C235.489 187.234 235.384 187.603 235.192 187.891C235.005 188.174 234.708 188.385 234.363 188.385C234.018 188.385 233.72 188.169 233.533 187.891C233.337 187.603 233.236 187.229 233.231 186.822ZM234.995 186.822C234.995 186.501 234.904 186.218 234.78 186.026C234.65 185.839 234.502 185.748 234.363 185.753C234.224 185.753 234.07 185.839 233.941 186.026C233.816 186.218 233.725 186.501 233.725 186.822C233.725 187.143 233.816 187.426 233.941 187.613C234.075 187.805 234.228 187.891 234.363 187.891C234.497 187.891 234.65 187.805 234.78 187.613C234.904 187.426 234.995 187.138 234.995 186.822Z" fill="#263238"/>
<path d="M236.721 187.752C236.904 187.752 237.057 187.905 237.057 188.087C237.057 188.27 236.904 188.418 236.721 188.418C236.539 188.418 236.391 188.27 236.391 188.087C236.391 187.905 236.539 187.752 236.721 187.752Z" fill="#263238"/>
<path d="M237.585 188.059C237.393 187.863 237.278 187.585 237.278 187.273C237.278 186.961 237.393 186.707 237.585 186.492C237.786 186.281 238.045 186.151 238.352 186.151C238.658 186.151 238.912 186.281 239.099 186.492C239.301 186.707 239.411 186.971 239.411 187.273C239.411 187.575 239.301 187.863 239.099 188.059C238.917 188.27 238.649 188.399 238.352 188.399C238.054 188.399 237.786 188.27 237.585 188.059ZM237.762 187.273C237.762 187.465 237.819 187.623 237.925 187.748C238.035 187.853 238.184 187.911 238.352 187.911C238.51 187.911 238.649 187.853 238.764 187.748C238.874 187.623 238.936 187.465 238.936 187.273C238.936 187.081 238.874 186.928 238.764 186.808C238.654 186.707 238.51 186.64 238.352 186.64C238.184 186.64 238.035 186.712 237.925 186.808C237.824 186.928 237.762 187.091 237.762 187.273Z" fill="#263238"/>
<path d="M240.379 188.059C240.187 187.863 240.072 187.585 240.072 187.273C240.072 186.961 240.187 186.707 240.379 186.492C240.58 186.281 240.839 186.151 241.146 186.151C241.453 186.151 241.707 186.281 241.894 186.492C242.095 186.707 242.205 186.971 242.205 187.273C242.205 187.575 242.095 187.863 241.894 188.059C241.712 188.27 241.443 188.399 241.146 188.399C240.849 188.399 240.58 188.27 240.379 188.059ZM240.556 187.273C240.556 187.465 240.614 187.623 240.719 187.748C240.83 187.853 240.978 187.911 241.146 187.911C241.304 187.911 241.443 187.853 241.558 187.748C241.668 187.623 241.731 187.465 241.731 187.273C241.731 187.081 241.668 186.928 241.558 186.808C241.448 186.707 241.304 186.64 241.146 186.64C240.978 186.64 240.83 186.712 240.719 186.808C240.619 186.928 240.556 187.091 240.556 187.273Z" fill="#263238"/>
<path d="M252.803 177.145H222.945V178.482H252.803V177.145Z" fill="#DBDBDB"/>
<path d="M247.324 179.44H222.945V180.778H247.324V179.44Z" fill="#DBDBDB"/>
<path d="M214.221 190.977H201.907L201.945 190.469L201.974 190.095L202.007 189.65L202.036 189.271L202.07 188.83L202.098 188.451L202.132 188.005L202.161 187.632L202.923 177.182H204.946C204.946 178.908 206.345 180.307 208.071 180.307C209.797 180.307 211.201 178.908 211.201 177.182H213.224L213.986 187.632L214.015 188.005L214.048 188.451L214.077 188.83L214.111 189.271L214.139 189.65L214.173 190.095L214.202 190.469L214.24 190.977H214.221Z" fill="#C7C7C7"/>
<path d="M202.915 177.173L199.147 181.851L202.378 184.55L202.915 177.173Z" fill="#263238"/>
<path d="M213.215 177.173L216.987 181.851L213.752 184.55L213.215 177.173Z" fill="#263238"/>
<path d="M271.828 201.921H193.438V231.956H271.828V201.921Z" fill="#EBEBEB"/>
<path d="M224.604 217.605C224.604 217.33 224.447 217.153 224.097 217.153H223.602V218.069H224.097C224.447 218.069 224.604 217.876 224.604 217.605ZM223.154 216.788H224.097C224.746 216.788 225.064 217.161 225.064 217.605C225.064 217.927 224.891 218.273 224.432 218.387L225.108 219.519H224.573L223.944 218.427H223.602V219.519H223.154V216.788ZM226.086 217.672C226.223 217.491 226.487 217.318 226.84 217.318C227.41 217.318 227.858 217.758 227.858 218.427C227.858 219.095 227.41 219.555 226.84 219.555C226.483 219.555 226.227 219.374 226.086 219.205V220.549H225.638V217.353H226.086V217.672ZM227.402 218.427C227.402 217.959 227.08 217.707 226.742 217.707C226.408 217.707 226.086 217.971 226.086 218.434C226.086 218.902 226.408 219.165 226.742 219.165C227.08 219.165 227.402 218.894 227.402 218.427Z" fill="#263238"/>
<path d="M232.614 219.808C232.614 219.947 232.508 220.053 232.369 220.053H230.778C230.711 220.053 230.639 220.024 230.596 219.971C230.5 219.871 230.509 219.717 230.61 219.622L231.933 218.423C232.062 218.308 232.12 218.155 232.12 217.997C232.12 217.853 232.072 217.719 231.971 217.608C231.856 217.479 231.698 217.421 231.54 217.421C231.401 217.421 231.262 217.469 231.152 217.57L231.013 217.695C230.912 217.79 230.759 217.781 230.663 217.675C230.572 217.575 230.576 217.421 230.682 217.325L230.821 217.201C231.022 217.014 231.286 216.923 231.54 216.923C231.832 216.923 232.125 217.043 232.336 217.278C232.523 217.479 232.614 217.743 232.614 217.997C232.614 218.289 232.494 218.581 232.259 218.792L231.415 219.554H232.369C232.508 219.554 232.614 219.665 232.614 219.804V219.808Z" fill="#263238"/>
<path d="M233.231 218.49C233.231 218.078 233.337 217.709 233.533 217.421C233.72 217.134 234.013 216.923 234.363 216.923C234.713 216.923 235 217.134 235.192 217.421C235.384 217.709 235.489 218.078 235.489 218.49C235.489 218.903 235.384 219.272 235.192 219.559C235.005 219.842 234.708 220.053 234.363 220.053C234.018 220.053 233.72 219.837 233.533 219.559C233.337 219.272 233.236 218.898 233.231 218.49ZM234.995 218.49C234.995 218.169 234.904 217.886 234.78 217.695C234.65 217.508 234.502 217.417 234.363 217.421C234.224 217.421 234.07 217.508 233.941 217.695C233.816 217.886 233.725 218.169 233.725 218.49C233.725 218.811 233.816 219.094 233.941 219.281C234.075 219.473 234.228 219.559 234.363 219.559C234.497 219.559 234.65 219.473 234.78 219.281C234.904 219.094 234.995 218.807 234.995 218.49Z" fill="#263238"/>
<path d="M236.721 219.42C236.903 219.42 237.056 219.574 237.056 219.756C237.056 219.938 236.903 220.087 236.721 220.087C236.539 220.087 236.39 219.938 236.39 219.756C236.39 219.574 236.539 219.42 236.721 219.42Z" fill="#263238"/>
<path d="M237.584 219.727C237.392 219.531 237.277 219.253 237.277 218.941C237.277 218.63 237.392 218.375 237.584 218.16C237.785 217.949 238.044 217.819 238.351 217.819C238.658 217.819 238.912 217.949 239.099 218.16C239.3 218.375 239.41 218.639 239.41 218.941C239.41 219.243 239.3 219.531 239.099 219.727C238.917 219.938 238.648 220.068 238.351 220.068C238.054 220.068 237.785 219.938 237.584 219.727ZM237.761 218.941C237.761 219.133 237.819 219.291 237.924 219.416C238.035 219.521 238.183 219.579 238.351 219.579C238.509 219.579 238.648 219.521 238.763 219.416C238.874 219.291 238.936 219.133 238.936 218.941C238.936 218.749 238.874 218.596 238.763 218.476C238.653 218.375 238.509 218.308 238.351 218.308C238.183 218.308 238.035 218.38 237.924 218.476C237.824 218.596 237.761 218.759 237.761 218.941Z" fill="#263238"/>
<path d="M240.379 219.727C240.187 219.531 240.072 219.253 240.072 218.941C240.072 218.63 240.187 218.375 240.379 218.16C240.58 217.949 240.839 217.819 241.145 217.819C241.452 217.819 241.706 217.949 241.893 218.16C242.095 218.375 242.205 218.639 242.205 218.941C242.205 219.243 242.095 219.531 241.893 219.727C241.711 219.938 241.443 220.068 241.145 220.068C240.848 220.068 240.58 219.938 240.379 219.727ZM240.556 218.941C240.556 219.133 240.613 219.291 240.719 219.416C240.829 219.521 240.978 219.579 241.145 219.579C241.304 219.579 241.443 219.521 241.558 219.416C241.668 219.291 241.73 219.133 241.73 218.941C241.73 218.749 241.668 218.596 241.558 218.476C241.447 218.375 241.304 218.308 241.145 218.308C240.978 218.308 240.829 218.38 240.719 218.476C240.618 218.596 240.556 218.759 240.556 218.941Z" fill="#263238"/>
<path d="M219.648 205.358H196.486V228.519H219.648V205.358Z" fill="white"/>
<path d="M226.105 227.038C225.678 227.824 224.647 228.515 224.647 228.515C224.647 228.515 223.622 227.824 223.195 227.038C222.711 226.151 222.979 225.241 223.674 225.241C224.451 225.241 224.647 226.209 224.647 226.209C224.647 226.209 224.849 225.241 225.625 225.241C226.32 225.241 226.589 226.151 226.105 227.038Z" fill="#115E32"/>
<path d="M268.44 225.667C268.44 227.239 267.165 228.519 265.588 228.519C264.011 228.519 262.736 227.244 262.736 225.667C262.736 224.09 264.011 222.815 265.588 222.815C267.165 222.815 268.44 224.09 268.44 225.667Z" fill="white"/>
<path d="M266.019 227.296H264.058L264.245 224.449H266.948L267.068 226.05L266.795 226.069L266.694 224.722H264.504L264.35 227.023H266.019V227.296Z" fill="#115E32"/>
<path d="M266.235 224.723H264.993V224.224C264.993 223.884 265.271 223.601 265.616 223.601C265.961 223.601 266.239 223.879 266.239 224.224V224.723H266.235ZM265.266 224.449H265.961V224.224C265.961 224.032 265.803 223.874 265.612 223.874C265.42 223.874 265.266 224.032 265.266 224.224V224.449Z" fill="#115E32"/>
<path d="M267.064 226.429H266.791V227.551H267.064V226.429Z" fill="#115E32"/>
<path d="M267.49 226.856H266.369V227.129H267.49V226.856Z" fill="#115E32"/>
<path d="M239.971 205.626H222.945V206.964H239.971V205.626Z" fill="#DBDBDB"/>
<path d="M252.803 210.007H222.945V211.345H252.803V210.007Z" fill="#DBDBDB"/>
<path d="M247.324 212.303H222.945V213.641H247.324V212.303Z" fill="#DBDBDB"/>
<path d="M212.616 207.443V208.507L208.067 208.502V208.507H203.513V207.443H212.616Z" fill="#455A64"/>
<path d="M211.293 209.154H212.616V210.65C211.317 210.583 211.293 209.154 211.293 209.154Z" fill="#455A64"/>
<path d="M212.616 211.383V226.429H209.097L208.067 212.509L207.032 226.429H203.513V211.383C204.103 211.282 205.502 210.86 205.502 209.149H207.683C207.683 210.319 207.65 211.354 208.062 211.359C208.474 211.359 208.441 210.323 208.441 209.149H210.622C210.622 210.86 212.026 211.282 212.611 211.383H212.616Z" fill="#455A64"/>
<path d="M203.513 210.65V209.154H204.836C204.836 209.154 204.812 210.583 203.513 210.65Z" fill="#455A64"/>
<path d="M271.828 234.779H193.438V264.814H271.828V234.779Z" fill="#115E32"/>
<path opacity="0.7" d="M271.828 234.779H193.438V264.814H271.828V234.779Z" fill="white"/>
<path d="M224.604 251.638C224.604 251.363 224.447 251.186 224.097 251.186H223.602V252.102H224.097C224.447 252.102 224.604 251.909 224.604 251.638ZM223.154 250.82H224.097C224.746 250.82 225.064 251.194 225.064 251.638C225.064 251.96 224.891 252.306 224.432 252.42L225.108 253.552H224.573L223.944 252.459H223.602V253.552H223.154V250.82ZM226.086 251.705C226.223 251.524 226.487 251.351 226.84 251.351C227.41 251.351 227.858 251.791 227.858 252.459C227.858 253.128 227.41 253.587 226.84 253.587C226.483 253.587 226.227 253.407 226.086 253.238V254.582H225.638V251.386H226.086V251.705ZM227.402 252.459C227.402 251.992 227.08 251.74 226.742 251.74C226.408 251.74 226.086 252.004 226.086 252.467C226.086 252.935 226.408 253.198 226.742 253.198C227.08 253.198 227.402 252.927 227.402 252.459Z" fill="#263238"/>
<path d="M233.231 252.523C233.231 252.111 233.337 251.742 233.533 251.454C233.72 251.167 234.013 250.956 234.363 250.956C234.713 250.956 235 251.167 235.192 251.454C235.384 251.742 235.489 252.111 235.489 252.523C235.489 252.935 235.384 253.304 235.192 253.592C235.005 253.875 234.708 254.086 234.363 254.086C234.018 254.086 233.72 253.87 233.533 253.592C233.337 253.304 233.236 252.931 233.231 252.523ZM234.995 252.523C234.995 252.202 234.904 251.919 234.78 251.727C234.65 251.54 234.502 251.449 234.363 251.454C234.224 251.454 234.07 251.54 233.941 251.727C233.816 251.919 233.725 252.202 233.725 252.523C233.725 252.844 233.816 253.127 233.941 253.314C234.075 253.506 234.228 253.592 234.363 253.592C234.497 253.592 234.65 253.506 234.78 253.314C234.904 253.127 234.995 252.839 234.995 252.523Z" fill="#263238"/>
<path d="M230.529 252.523C230.529 252.111 230.634 251.742 230.831 251.454C231.018 251.167 231.31 250.956 231.66 250.956C232.01 250.956 232.298 251.167 232.489 251.454C232.681 251.742 232.786 252.111 232.786 252.523C232.786 252.935 232.681 253.304 232.489 253.592C232.302 253.875 232.005 254.086 231.66 254.086C231.315 254.086 231.018 253.87 230.831 253.592C230.634 253.304 230.534 252.931 230.529 252.523ZM232.293 252.523C232.293 252.202 232.202 251.919 232.077 251.727C231.948 251.54 231.799 251.449 231.66 251.454C231.521 251.454 231.368 251.54 231.238 251.727C231.114 251.919 231.023 252.202 231.023 252.523C231.023 252.844 231.114 253.127 231.238 253.314C231.372 253.506 231.526 253.592 231.66 253.592C231.794 253.592 231.948 253.506 232.077 253.314C232.202 253.127 232.293 252.839 232.293 252.523Z" fill="#263238"/>
<path d="M236.721 253.453C236.903 253.453 237.056 253.606 237.056 253.789C237.056 253.971 236.903 254.119 236.721 254.119C236.539 254.119 236.39 253.971 236.39 253.789C236.39 253.606 236.539 253.453 236.721 253.453Z" fill="#263238"/>
<path d="M237.584 253.76C237.392 253.564 237.277 253.286 237.277 252.974C237.277 252.662 237.392 252.408 237.584 252.193C237.785 251.982 238.044 251.852 238.351 251.852C238.658 251.852 238.912 251.982 239.099 252.193C239.3 252.408 239.41 252.672 239.41 252.974C239.41 253.276 239.3 253.564 239.099 253.76C238.917 253.971 238.648 254.1 238.351 254.1C238.054 254.1 237.785 253.971 237.584 253.76ZM237.761 252.974C237.761 253.166 237.819 253.324 237.924 253.448C238.035 253.554 238.183 253.611 238.351 253.611C238.509 253.611 238.648 253.554 238.763 253.448C238.874 253.324 238.936 253.166 238.936 252.974C238.936 252.782 238.874 252.629 238.763 252.509C238.653 252.408 238.509 252.341 238.351 252.341C238.183 252.341 238.035 252.413 237.924 252.509C237.824 252.629 237.761 252.792 237.761 252.974Z" fill="#263238"/>
<path d="M240.379 253.76C240.187 253.564 240.072 253.286 240.072 252.974C240.072 252.662 240.187 252.408 240.379 252.193C240.58 251.982 240.839 251.852 241.145 251.852C241.452 251.852 241.706 251.982 241.893 252.193C242.095 252.408 242.205 252.672 242.205 252.974C242.205 253.276 242.095 253.564 241.893 253.76C241.711 253.971 241.443 254.1 241.145 254.1C240.848 254.1 240.58 253.971 240.379 253.76ZM240.556 252.974C240.556 253.166 240.613 253.324 240.719 253.448C240.829 253.554 240.978 253.611 241.145 253.611C241.304 253.611 241.443 253.554 241.558 253.448C241.668 253.324 241.73 253.166 241.73 252.974C241.73 252.782 241.668 252.629 241.558 252.509C241.447 252.408 241.304 252.341 241.145 252.341C240.978 252.341 240.829 252.413 240.719 252.509C240.618 252.629 240.556 252.792 240.556 252.974Z" fill="#263238"/>
<path d="M219.648 238.221H196.486V261.383H219.648V238.221Z" fill="white"/>
<path d="M226.105 259.901C225.678 260.687 224.647 261.378 224.647 261.378C224.647 261.378 223.622 260.687 223.195 259.901C222.711 259.014 222.979 258.104 223.674 258.104C224.451 258.104 224.647 259.072 224.647 259.072C224.647 259.072 224.849 258.104 225.625 258.104C226.32 258.104 226.589 259.014 226.105 259.901Z" fill="#115E32"/>
<path d="M252.803 242.871H222.945V244.208H252.803V242.871Z" fill="#115E32"/>
<path d="M247.324 245.162H222.945V246.499H247.324V245.162Z" fill="#115E32"/>
<path d="M213.642 248.608H202.214V257.275H213.642V248.608Z" fill="#115E32"/>
<path d="M214.576 246.077H201.558V248.157H214.576V246.077Z" fill="#115E32"/>
<path d="M209.073 246.077H206.777V257.274H209.073V246.077Z" fill="white"/>
<path d="M207.76 245.191V243.757C207.76 242.967 207.118 242.324 206.327 242.324H206.173C205.383 242.324 204.74 242.967 204.74 243.757C204.74 244.548 205.383 245.191 206.173 245.191H207.76Z" stroke="#115E32" stroke-width="0.95867" stroke-miterlimit="10"/>
<path d="M208.096 245.191V243.757C208.096 242.967 208.739 242.324 209.529 242.324H209.683C210.474 242.324 211.116 242.967 211.116 243.757C211.116 244.548 210.474 245.191 209.683 245.191H208.096Z" stroke="#115E32" stroke-width="0.95867" stroke-miterlimit="10"/>
<path d="M213.206 245.191H202.651" stroke="#115E32" stroke-width="0.95867" stroke-miterlimit="10"/>
<path d="M223.018 240.819V238.513C223.018 238.398 223.113 238.298 223.233 238.298H224.513C224.628 238.298 224.729 238.393 224.729 238.513C224.729 238.633 224.628 238.734 224.513 238.734H223.454V239.448H224.365C224.48 239.448 224.58 239.549 224.58 239.664C224.58 239.784 224.484 239.884 224.365 239.884H223.454V240.824C223.454 240.944 223.358 241.039 223.233 241.039C223.109 241.039 223.018 240.944 223.018 240.824V240.819Z" fill="#115E32"/>
<path d="M227.384 240.709C227.422 240.824 227.36 240.944 227.245 240.982C227.231 240.982 227.197 240.996 227.159 240.996C227.121 240.996 227.063 240.987 227.005 240.953C226.953 240.92 226.91 240.872 226.881 240.814C226.828 240.699 226.799 240.56 226.799 240.344C226.799 240.272 226.78 240.22 226.751 240.177C226.727 240.133 226.68 240.095 226.636 240.062C226.555 240.009 226.454 239.975 226.416 239.97H225.956V240.819C225.956 240.939 225.86 241.035 225.735 241.035C225.611 241.035 225.52 240.939 225.52 240.819V238.513C225.52 238.393 225.615 238.298 225.735 238.298H226.435C226.9 238.298 227.274 238.671 227.274 239.136C227.274 239.395 227.159 239.621 226.967 239.779C227.02 239.817 227.063 239.865 227.101 239.923C227.178 240.038 227.231 240.181 227.231 240.344C227.231 240.459 227.24 240.536 227.245 240.574C227.307 240.594 227.36 240.642 227.384 240.709ZM226.838 239.136C226.838 238.911 226.656 238.729 226.435 238.729H225.956V239.534H226.435C226.66 239.534 226.838 239.352 226.838 239.136Z" fill="#115E32"/>
<path d="M228.214 240.819V238.513C228.214 238.393 228.31 238.298 228.43 238.298H229.709C229.824 238.298 229.925 238.393 229.925 238.513C229.925 238.633 229.824 238.734 229.709 238.734H228.65V239.448H229.561C229.676 239.448 229.776 239.549 229.776 239.664C229.776 239.784 229.681 239.884 229.561 239.884H228.65V240.603H229.709C229.824 240.603 229.925 240.699 229.925 240.824C229.925 240.948 229.824 241.039 229.709 241.039H228.444H228.434C228.315 241.039 228.219 240.948 228.219 240.828L228.214 240.819Z" fill="#115E32"/>
<path d="M230.726 240.819V238.513C230.726 238.393 230.821 238.298 230.941 238.298H232.221C232.336 238.298 232.437 238.393 232.437 238.513C232.437 238.633 232.336 238.734 232.221 238.734H231.162V239.448H232.073C232.188 239.448 232.288 239.549 232.288 239.664C232.288 239.784 232.192 239.884 232.073 239.884H231.162V240.603H232.221C232.336 240.603 232.437 240.699 232.437 240.824C232.437 240.948 232.336 241.039 232.221 241.039H230.956H230.946C230.826 241.039 230.73 240.948 230.73 240.828L230.726 240.819Z" fill="#115E32"/>
<path d="M234.483 239.63C234.483 238.844 235.13 238.221 235.926 238.221C236.256 238.221 236.573 238.336 236.817 238.527C236.918 238.604 236.932 238.748 236.86 238.844C236.789 238.94 236.64 238.959 236.544 238.877C236.376 238.748 236.161 238.666 235.926 238.666C235.643 238.666 235.398 238.772 235.221 238.949C235.039 239.127 234.929 239.362 234.929 239.63C234.929 239.898 235.039 240.128 235.221 240.301C235.398 240.478 235.643 240.584 235.926 240.584C236.122 240.584 236.304 240.526 236.463 240.435V239.898H235.902C235.782 239.898 235.681 239.798 235.681 239.678C235.681 239.558 235.782 239.457 235.902 239.457H236.678C236.803 239.457 236.904 239.553 236.904 239.678V240.541C236.904 240.569 236.894 240.584 236.894 240.608C236.894 240.617 236.894 240.622 236.884 240.627C236.875 240.665 236.851 240.699 236.812 240.723C236.568 240.915 236.256 241.03 235.926 241.03C235.13 241.03 234.483 240.406 234.483 239.625V239.63Z" fill="#115E32"/>
<path d="M238.012 238.513C238.012 238.393 238.108 238.298 238.227 238.298C238.347 238.298 238.448 238.393 238.448 238.513V240.819C238.448 240.939 238.347 241.035 238.227 241.035C238.108 241.035 238.012 240.939 238.012 240.819V238.513Z" fill="#115E32"/>
<path d="M239.369 240.819V238.513C239.369 238.398 239.465 238.298 239.584 238.298H240.864C240.979 238.298 241.08 238.393 241.08 238.513C241.08 238.633 240.979 238.734 240.864 238.734H239.805V239.448H240.716C240.831 239.448 240.931 239.549 240.931 239.664C240.931 239.784 240.835 239.884 240.716 239.884H239.805V240.824C239.805 240.944 239.709 241.039 239.584 241.039C239.46 241.039 239.369 240.944 239.369 240.824V240.819Z" fill="#115E32"/>
<path d="M243.6 238.729H242.977V240.814C242.977 240.934 242.886 241.03 242.762 241.03C242.637 241.03 242.546 240.934 242.546 240.814V238.729H241.928C241.808 238.729 241.712 238.628 241.712 238.509C241.712 238.389 241.803 238.293 241.928 238.293H243.596C243.711 238.293 243.811 238.389 243.811 238.509C243.811 238.628 243.716 238.729 243.596 238.729H243.6Z" fill="#115E32"/>
<path d="M226.703 301.086C226.703 302.198 225.802 303.104 224.685 303.104C223.569 303.104 222.667 302.203 222.667 301.086C222.667 299.969 223.569 299.068 224.685 299.068C225.802 299.068 226.703 299.969 226.703 301.086Z" fill="#115E32"/>
<path d="M233.931 301.086C233.931 301.805 233.351 302.385 232.632 302.385C231.913 302.385 231.333 301.805 231.333 301.086C231.333 300.367 231.913 299.787 232.632 299.787C233.351 299.787 233.931 300.367 233.931 301.086Z" fill="#DBDBDB"/>
<path d="M241.879 301.086C241.879 301.805 241.299 302.385 240.58 302.385C239.861 302.385 239.281 301.805 239.281 301.086C239.281 300.367 239.861 299.787 240.58 299.787C241.299 299.787 241.879 300.367 241.879 301.086Z" fill="#DBDBDB"/>
<path d="M233.861 278.026C233.861 278.941 233.113 279.679 232.197 279.679C231.335 279.679 230.63 279.027 230.548 278.193C230.548 278.193 230.547 278.189 230.544 278.179C230.539 278.05 230.529 277.92 230.529 277.791C230.529 277.331 230.596 276.842 230.769 276.391C230.942 275.941 231.22 275.509 231.651 275.222C231.939 275.03 232.288 274.915 232.677 274.9C232.888 274.896 233.06 275.049 233.075 275.265C233.079 275.471 232.916 275.643 232.705 275.663C232.447 275.667 232.241 275.744 232.063 275.854C231.891 275.969 231.747 276.127 231.632 276.334C231.598 276.386 231.569 276.449 231.541 276.511C231.737 276.42 231.963 276.372 232.197 276.372C233.113 276.372 233.861 277.11 233.861 278.026ZM233.103 278.026C233.103 277.532 232.701 277.124 232.202 277.124C231.704 277.124 231.306 277.537 231.306 278.026C231.306 278.515 231.704 278.922 232.202 278.922C232.701 278.922 233.103 278.524 233.103 278.026Z" fill="#263238"/>
<path d="M234.93 277.287C234.934 276.659 235.093 276.089 235.395 275.653C235.682 275.217 236.128 274.896 236.665 274.896C237.202 274.896 237.643 275.217 237.93 275.653C238.223 276.089 238.39 276.659 238.39 277.287C238.39 277.915 238.228 278.486 237.93 278.922C237.643 279.353 237.192 279.679 236.665 279.679C236.138 279.679 235.682 279.353 235.395 278.922C235.093 278.486 234.934 277.911 234.93 277.287ZM237.633 277.287C237.633 276.794 237.494 276.362 237.307 276.07C237.111 275.782 236.885 275.648 236.67 275.653C236.459 275.648 236.224 275.782 236.018 276.07C235.826 276.362 235.687 276.794 235.687 277.287C235.687 277.781 235.826 278.213 236.018 278.5C236.224 278.793 236.454 278.922 236.67 278.922C236.885 278.922 237.106 278.793 237.307 278.5C237.499 278.213 237.633 277.776 237.633 277.287Z" fill="#263238"/>
<path d="M240.274 278.711C240.552 278.711 240.787 278.946 240.787 279.224C240.787 279.502 240.552 279.732 240.274 279.732C239.996 279.732 239.766 279.507 239.766 279.224C239.766 278.941 239.991 278.711 240.274 278.711Z" fill="#263238"/>
<path d="M241.592 279.18C241.299 278.878 241.122 278.456 241.122 277.977C241.122 277.498 241.299 277.11 241.592 276.779C241.899 276.458 242.296 276.261 242.766 276.261C243.236 276.261 243.629 276.458 243.907 276.779C244.214 277.105 244.386 277.512 244.386 277.977C244.386 278.442 244.214 278.878 243.907 279.18C243.629 279.501 243.217 279.698 242.766 279.698C242.316 279.698 241.899 279.501 241.592 279.18ZM241.865 277.977C241.865 278.27 241.956 278.509 242.109 278.701C242.282 278.864 242.507 278.955 242.766 278.955C243.006 278.955 243.222 278.864 243.394 278.701C243.567 278.509 243.663 278.27 243.663 277.977C243.663 277.685 243.567 277.45 243.394 277.268C243.222 277.119 243.006 277.009 242.766 277.009C242.507 277.009 242.282 277.119 242.109 277.268C241.951 277.45 241.865 277.699 241.865 277.977Z" fill="#263238"/>
<path d="M245.868 279.18C245.575 278.878 245.398 278.456 245.398 277.977C245.398 277.498 245.575 277.11 245.868 276.779C246.174 276.458 246.572 276.261 247.042 276.261C247.512 276.261 247.905 276.458 248.183 276.779C248.49 277.105 248.662 277.512 248.662 277.977C248.662 278.442 248.49 278.878 248.183 279.18C247.905 279.501 247.493 279.698 247.042 279.698C246.591 279.698 246.174 279.501 245.868 279.18ZM246.141 277.977C246.141 278.27 246.232 278.509 246.385 278.701C246.558 278.864 246.783 278.955 247.042 278.955C247.282 278.955 247.502 278.864 247.67 278.701C247.843 278.509 247.938 278.27 247.938 277.977C247.938 277.685 247.843 277.45 247.67 277.268C247.497 277.119 247.282 277.009 247.042 277.009C246.783 277.009 246.558 277.119 246.385 277.268C246.227 277.45 246.141 277.699 246.141 277.977Z" fill="#263238"/>
<path d="M224.605 276.564C224.605 276.288 224.448 276.112 224.098 276.112H223.603V277.027H224.098C224.448 277.027 224.605 276.835 224.605 276.564ZM223.155 275.746H224.098C224.746 275.746 225.065 276.119 225.065 276.564C225.065 276.886 224.892 277.232 224.432 277.346L225.108 278.478H224.574L223.945 277.385H223.603V278.478H223.155V275.746ZM226.086 276.63C226.224 276.45 226.487 276.277 226.841 276.277C227.411 276.277 227.859 276.717 227.859 277.385C227.859 278.053 227.411 278.513 226.841 278.513C226.483 278.513 226.228 278.332 226.086 278.163V279.507H225.638V276.312H226.086V276.63ZM227.403 277.385C227.403 276.917 227.081 276.666 226.743 276.666C226.408 276.666 226.086 276.929 226.086 277.393C226.086 277.861 226.408 278.124 226.743 278.124C227.081 278.124 227.403 277.853 227.403 277.385Z" fill="#263238"/>
<path d="M229.288 270.14H228.779V271.856C228.779 271.957 228.703 272.033 228.602 272.033C228.501 272.033 228.425 271.957 228.425 271.856V270.14H227.917C227.816 270.14 227.739 270.059 227.739 269.958C227.739 269.857 227.816 269.781 227.917 269.781H229.288C229.383 269.781 229.465 269.857 229.465 269.958C229.465 270.059 229.383 270.14 229.288 270.14Z" fill="#263238"/>
<path d="M231.588 270.063C231.789 270.274 231.914 270.557 231.914 270.873C231.914 271.189 231.789 271.477 231.588 271.683C231.401 271.889 231.118 272.028 230.821 272.028C230.524 272.028 230.231 271.894 230.035 271.683C229.838 271.472 229.718 271.189 229.718 270.873C229.718 270.557 229.838 270.274 230.035 270.063C230.231 269.852 230.514 269.718 230.821 269.718C231.128 269.718 231.401 269.852 231.588 270.063ZM231.545 270.873C231.545 270.657 231.458 270.451 231.324 270.312C231.19 270.168 231.008 270.082 230.816 270.082C230.61 270.082 230.432 270.164 230.298 270.312C230.164 270.456 230.078 270.657 230.078 270.873C230.078 271.089 230.159 271.295 230.298 271.434C230.432 271.578 230.615 271.664 230.816 271.664C231.008 271.664 231.19 271.578 231.324 271.434C231.453 271.295 231.545 271.093 231.545 270.873Z" fill="#263238"/>
<path d="M233.74 270.14H233.232V271.856C233.232 271.957 233.155 272.033 233.055 272.033C232.954 272.033 232.877 271.957 232.877 271.856V270.14H232.369C232.269 270.14 232.192 270.059 232.192 269.958C232.192 269.857 232.269 269.781 232.369 269.781H233.74C233.836 269.781 233.918 269.857 233.918 269.958C233.918 270.059 233.836 270.14 233.74 270.14Z" fill="#263238"/>
<path d="M235.284 271.501H234.502L234.344 271.918C234.316 271.99 234.248 272.028 234.177 272.028C234.153 272.028 234.133 272.028 234.114 272.019C234.023 271.985 233.975 271.88 234.009 271.789L234.718 269.9C234.747 269.828 234.819 269.785 234.886 269.79C234.958 269.79 235.025 269.833 235.054 269.9L235.763 271.789C235.797 271.88 235.749 271.985 235.658 272.019C235.643 272.024 235.619 272.028 235.595 272.028C235.523 272.028 235.456 271.985 235.432 271.918L235.274 271.501H235.284ZM235.154 271.146L234.896 270.456L234.637 271.146H235.159H235.154Z" fill="#263238"/>
<path d="M236.214 271.856V269.962C236.214 269.866 236.291 269.785 236.392 269.785C236.492 269.785 236.569 269.866 236.569 269.962V271.678H237.441C237.533 271.678 237.619 271.76 237.619 271.86C237.619 271.961 237.537 272.038 237.441 272.038H236.392C236.291 272.038 236.214 271.956 236.214 271.86V271.856Z" fill="#263238"/>
<path d="M202.248 233.662C221.714 233.514 243.552 233.514 263.013 233.662C243.548 233.811 221.709 233.811 202.248 233.662Z" fill="#EBEBEB"/>
<path d="M245.638 285.584H219.13V292.966H245.638V285.584Z" fill="#115E32"/>
<path d="M228.29 289.558H227.897V290.253C227.897 290.349 227.815 290.43 227.719 290.43C227.623 290.43 227.542 290.349 227.542 290.253V288.359C227.542 288.259 227.623 288.182 227.719 288.182H228.295C228.678 288.182 228.985 288.489 228.985 288.872C228.985 289.256 228.678 289.558 228.295 289.558H228.29ZM227.897 289.203H228.29C228.477 289.203 228.62 289.054 228.625 288.877C228.625 288.69 228.477 288.542 228.29 288.542H227.897V289.203Z" fill="white"/>
<path d="M230.327 289.898H229.545L229.387 290.315C229.359 290.387 229.291 290.425 229.22 290.425C229.196 290.425 229.176 290.425 229.157 290.416C229.066 290.382 229.018 290.277 229.052 290.186L229.761 288.297C229.79 288.225 229.862 288.182 229.934 288.187C230.006 288.187 230.073 288.23 230.101 288.297L230.811 290.186C230.844 290.277 230.797 290.382 230.705 290.416C230.691 290.421 230.667 290.425 230.643 290.425C230.571 290.425 230.504 290.382 230.48 290.315L230.322 289.898H230.327ZM230.197 289.543L229.939 288.853L229.68 289.543H230.197Z" fill="white"/>
<path d="M232.58 288.484L231.923 289.386V290.253C231.923 290.354 231.847 290.43 231.746 290.43C231.655 290.43 231.568 290.354 231.568 290.253V289.386L230.917 288.484C230.854 288.408 230.873 288.297 230.95 288.24C231.032 288.182 231.137 288.197 231.195 288.278L231.746 289.031L232.297 288.278C232.359 288.197 232.465 288.182 232.546 288.24C232.623 288.297 232.637 288.408 232.585 288.484H232.58Z" fill="white"/>
<path d="M234.267 290.253C234.267 290.349 234.186 290.43 234.095 290.43C233.994 290.43 233.917 290.349 233.917 290.253V288.388C233.917 288.331 233.941 288.273 233.989 288.24C234.071 288.187 234.176 288.201 234.234 288.278L235.269 289.711V288.388C235.269 288.297 235.346 288.216 235.442 288.216C235.538 288.216 235.619 288.297 235.619 288.388V290.253C235.619 290.349 235.538 290.43 235.442 290.43C235.389 290.43 235.341 290.406 235.312 290.368C235.308 290.363 235.298 290.353 235.298 290.349L234.272 288.925V290.258L234.267 290.253Z" fill="white"/>
<path d="M238.001 288.46C238.198 288.671 238.327 288.954 238.327 289.27C238.327 289.587 238.203 289.874 238.001 290.08C237.81 290.286 237.527 290.425 237.234 290.425C236.942 290.425 236.645 290.291 236.448 290.08C236.252 289.869 236.132 289.587 236.132 289.27C236.132 288.954 236.252 288.671 236.448 288.46C236.645 288.249 236.928 288.115 237.234 288.115C237.541 288.115 237.814 288.249 238.001 288.46ZM237.958 289.27C237.958 289.055 237.872 288.848 237.742 288.709C237.608 288.566 237.426 288.479 237.234 288.479C237.028 288.479 236.851 288.561 236.717 288.709C236.582 288.853 236.496 289.055 236.496 289.27C236.496 289.486 236.578 289.692 236.717 289.831C236.851 289.975 237.033 290.061 237.234 290.061C237.426 290.061 237.608 289.975 237.742 289.831C237.872 289.692 237.958 289.491 237.958 289.27Z" fill="white"/>
<path d="M241.802 288.451L241.016 290.32C241.016 290.32 241.007 290.344 241.002 290.349C241.002 290.349 240.992 290.363 240.988 290.373C240.988 290.378 240.988 290.378 240.988 290.382C240.983 290.382 240.973 290.392 240.964 290.397C240.964 290.397 240.949 290.411 240.935 290.416C240.93 290.416 240.92 290.416 240.911 290.421H240.906C240.906 290.421 240.887 290.421 240.872 290.421C240.863 290.421 240.853 290.421 240.844 290.421H240.834C240.834 290.421 240.82 290.416 240.81 290.416C240.81 290.416 240.809 290.416 240.805 290.416C240.805 290.416 240.781 290.402 240.777 290.397C240.777 290.397 240.762 290.382 240.753 290.382C240.753 290.382 240.751 290.379 240.748 290.373C240.748 290.373 240.738 290.358 240.733 290.354C240.729 290.354 240.729 290.354 240.729 290.354C240.724 290.349 240.719 290.334 240.714 290.325L240.292 289.328L239.871 290.325C239.871 290.325 239.861 290.349 239.856 290.354C239.852 290.358 239.842 290.368 239.837 290.373C239.837 290.378 239.837 290.378 239.837 290.382C239.832 290.382 239.823 290.392 239.818 290.397H239.813C239.813 290.397 239.794 290.411 239.789 290.416C239.775 290.416 239.77 290.416 239.765 290.421H239.756C239.756 290.421 239.736 290.421 239.727 290.421C239.717 290.421 239.703 290.421 239.693 290.421H239.684C239.684 290.421 239.669 290.416 239.66 290.416C239.66 290.416 239.658 290.416 239.655 290.416C239.655 290.416 239.631 290.402 239.626 290.397C239.626 290.397 239.612 290.382 239.602 290.382C239.602 290.382 239.601 290.379 239.597 290.373C239.597 290.373 239.588 290.358 239.583 290.354C239.583 290.354 239.573 290.33 239.569 290.32L238.778 288.451C238.744 288.364 238.778 288.259 238.874 288.221C238.96 288.182 239.065 288.221 239.104 288.312L239.732 289.798L240.144 288.81C240.173 288.738 240.24 288.7 240.312 288.7C240.384 288.7 240.446 288.738 240.479 288.81L240.892 289.798L241.52 288.312C241.558 288.221 241.659 288.182 241.754 288.221C241.841 288.254 241.884 288.364 241.846 288.451H241.802Z" fill="white"/>
<path d="M225.385 288.983H222.95V290.77H225.385V288.983Z" fill="white"/>
<path d="M225.088 289.093H224.743C224.743 288.24 224.603 287.952 224.196 287.952C223.736 287.952 223.587 288.23 223.587 289.093H223.242C223.242 288.575 223.242 287.607 224.196 287.607C225.088 287.607 225.088 288.575 225.088 289.093Z" fill="white"/>
<path d="M207.741 157.769H257.525" stroke="#115E32" stroke-width="0.479335" stroke-miterlimit="10"/>
<path d="M209.639 157.769C209.639 158.819 208.791 159.667 207.741 159.667C206.691 159.667 205.843 158.819 205.843 157.769C205.843 156.72 206.691 155.871 207.741 155.871C208.791 155.871 209.639 156.72 209.639 157.769Z" fill="#115E32"/>
<path d="M234.531 157.769C234.531 158.819 233.683 159.667 232.633 159.667C231.583 159.667 230.735 158.819 230.735 157.769C230.735 156.72 231.583 155.871 232.633 155.871C233.683 155.871 234.531 156.72 234.531 157.769Z" fill="#115E32"/>
<path d="M259.424 157.769C259.424 158.819 258.575 159.667 257.526 159.667C256.476 159.667 255.627 158.819 255.627 157.769C255.627 156.72 256.476 155.871 257.526 155.871C258.575 155.871 259.424 156.72 259.424 157.769Z" fill="#115E32"/>
<path d="M258.585 157.769C258.585 158.354 258.11 158.829 257.526 158.829C256.941 158.829 256.466 158.354 256.466 157.769C256.466 157.185 256.941 156.71 257.526 156.71C258.11 156.71 258.585 157.185 258.585 157.769Z" fill="white"/>
<path d="M233.692 157.769C233.692 158.354 233.218 158.829 232.633 158.829C232.048 158.829 231.574 158.354 231.574 157.769C231.574 157.185 232.048 156.71 232.633 156.71C233.218 156.71 233.692 157.185 233.692 157.769Z" fill="white"/>
<path d="M206.48 162.117L206.154 162.562V162.994C206.154 163.042 206.116 163.08 206.068 163.08C206.02 163.08 205.982 163.042 205.982 162.994V162.562L205.656 162.117C205.627 162.078 205.632 162.026 205.675 161.997C205.713 161.968 205.771 161.978 205.795 162.016L206.068 162.39L206.341 162.016C206.37 161.978 206.428 161.968 206.466 161.997C206.504 162.026 206.514 162.078 206.485 162.117H206.48Z" fill="black"/>
<path d="M207.449 162.102C207.55 162.208 207.612 162.347 207.612 162.505C207.612 162.663 207.55 162.802 207.449 162.908C207.353 163.013 207.214 163.08 207.07 163.08C206.927 163.08 206.778 163.013 206.682 162.908C206.581 162.802 206.524 162.663 206.524 162.505C206.524 162.347 206.581 162.208 206.682 162.102C206.778 161.997 206.922 161.93 207.07 161.93C207.219 161.93 207.358 161.997 207.449 162.102ZM207.43 162.505C207.43 162.395 207.387 162.294 207.32 162.227C207.253 162.155 207.161 162.112 207.066 162.112C206.965 162.112 206.874 162.155 206.807 162.227C206.74 162.299 206.696 162.399 206.696 162.505C206.696 162.61 206.74 162.716 206.807 162.783C206.874 162.855 206.965 162.898 207.066 162.898C207.161 162.898 207.253 162.855 207.32 162.783C207.387 162.716 207.43 162.615 207.43 162.505Z" fill="black"/>
<path d="M208.317 163.08C208.058 163.08 207.856 162.874 207.856 162.62V162.054C207.856 162.006 207.895 161.968 207.943 161.968C207.991 161.968 208.034 162.006 208.034 162.054V162.62C208.034 162.778 208.163 162.903 208.317 162.903C208.47 162.903 208.599 162.773 208.599 162.62V162.054C208.599 162.006 208.638 161.968 208.69 161.968C208.743 161.968 208.777 162.006 208.777 162.054V162.62C208.777 162.874 208.571 163.08 208.317 163.08Z" fill="black"/>
<path d="M209.851 162.951C209.865 162.999 209.841 163.047 209.793 163.061C209.788 163.061 209.774 163.066 209.759 163.066C209.759 163.066 209.721 163.066 209.697 163.047C209.678 163.032 209.659 163.013 209.644 162.989C209.62 162.941 209.611 162.884 209.611 162.797C209.611 162.769 209.601 162.745 209.592 162.73C209.582 162.711 209.563 162.697 209.544 162.682C209.51 162.658 209.467 162.649 209.453 162.644H209.266V162.989C209.266 163.037 209.227 163.075 209.175 163.075C209.122 163.075 209.088 163.037 209.088 162.989V162.05C209.088 162.002 209.127 161.963 209.175 161.963H209.462C209.654 161.963 209.803 162.117 209.803 162.308C209.803 162.414 209.755 162.505 209.678 162.572C209.697 162.586 209.716 162.606 209.735 162.63C209.769 162.677 209.788 162.735 209.788 162.802C209.788 162.85 209.788 162.879 209.793 162.898C209.817 162.908 209.841 162.927 209.851 162.951ZM209.625 162.308C209.625 162.217 209.553 162.141 209.462 162.141H209.266V162.471H209.462C209.553 162.471 209.625 162.399 209.625 162.308Z" fill="black"/>
<path d="M206.087 164.02C206.188 164.125 206.25 164.264 206.25 164.422C206.25 164.581 206.188 164.724 206.087 164.825C205.991 164.93 205.852 164.998 205.709 164.998C205.565 164.998 205.416 164.93 205.32 164.825C205.22 164.72 205.162 164.581 205.162 164.422C205.162 164.264 205.22 164.125 205.32 164.02C205.416 163.914 205.56 163.847 205.709 163.847C205.857 163.847 205.996 163.914 206.087 164.02ZM206.068 164.422C206.068 164.312 206.025 164.211 205.958 164.144C205.891 164.072 205.8 164.029 205.704 164.029C205.603 164.029 205.512 164.072 205.445 164.144C205.378 164.216 205.335 164.317 205.335 164.422C205.335 164.528 205.378 164.633 205.445 164.7C205.512 164.772 205.603 164.815 205.704 164.815C205.8 164.815 205.891 164.772 205.958 164.7C206.025 164.633 206.068 164.533 206.068 164.422Z" fill="black"/>
<path d="M207.305 164.863C207.319 164.911 207.296 164.959 207.248 164.973C207.243 164.973 207.228 164.978 207.214 164.978C207.214 164.978 207.176 164.978 207.152 164.959C207.133 164.944 207.113 164.925 207.099 164.901C207.075 164.853 207.065 164.796 207.065 164.709C207.065 164.681 207.056 164.657 207.046 164.642C207.037 164.623 207.018 164.609 206.998 164.594C206.965 164.57 206.922 164.561 206.907 164.556H206.72V164.901C206.72 164.949 206.682 164.987 206.629 164.987C206.577 164.987 206.543 164.949 206.543 164.901V163.962C206.543 163.914 206.581 163.875 206.629 163.875H206.917C207.109 163.875 207.257 164.029 207.257 164.22C207.257 164.326 207.209 164.417 207.133 164.484C207.152 164.499 207.171 164.518 207.19 164.542C207.224 164.59 207.243 164.647 207.243 164.714C207.243 164.762 207.243 164.791 207.248 164.81C207.272 164.82 207.296 164.839 207.305 164.863ZM207.08 164.22C207.08 164.129 207.008 164.053 206.917 164.053H206.72V164.383H206.917C207.008 164.383 207.08 164.312 207.08 164.22Z" fill="black"/>
<path d="M207.56 164.907V163.967C207.56 163.919 207.598 163.881 207.646 163.881H207.833C208.14 163.881 208.389 164.13 208.389 164.437C208.389 164.744 208.14 164.998 207.833 164.998H207.646C207.598 164.998 207.56 164.959 207.56 164.911V164.907ZM207.737 164.816H207.838C208.048 164.816 208.216 164.643 208.216 164.432C208.216 164.221 208.048 164.053 207.838 164.053H207.737V164.816Z" fill="black"/>
<path d="M208.628 164.907V163.967C208.628 163.919 208.667 163.881 208.715 163.881H209.237C209.285 163.881 209.323 163.919 209.323 163.967C209.323 164.015 209.28 164.058 209.237 164.058H208.806V164.351H209.175C209.223 164.351 209.261 164.394 209.261 164.437C209.261 164.485 209.223 164.528 209.175 164.528H208.806V164.82H209.237C209.285 164.82 209.323 164.859 209.323 164.911C209.323 164.964 209.28 164.998 209.237 164.998H208.719C208.672 164.998 208.633 164.959 208.633 164.911L208.628 164.907Z" fill="black"/>
<path d="M210.344 164.863C210.359 164.911 210.335 164.959 210.287 164.973C210.282 164.973 210.267 164.978 210.253 164.978C210.253 164.978 210.215 164.978 210.191 164.959C210.172 164.944 210.152 164.925 210.138 164.901C210.114 164.853 210.105 164.796 210.105 164.709C210.105 164.681 210.095 164.657 210.085 164.642C210.076 164.623 210.057 164.609 210.037 164.594C210.004 164.57 209.961 164.561 209.946 164.556H209.759V164.901C209.759 164.949 209.721 164.987 209.668 164.987C209.616 164.987 209.582 164.949 209.582 164.901V163.962C209.582 163.914 209.62 163.875 209.668 163.875H209.956C210.148 163.875 210.296 164.029 210.296 164.22C210.296 164.326 210.248 164.417 210.172 164.484C210.191 164.499 210.21 164.518 210.229 164.542C210.263 164.59 210.282 164.647 210.282 164.714C210.282 164.762 210.282 164.791 210.287 164.81C210.311 164.82 210.335 164.839 210.344 164.863ZM210.119 164.22C210.119 164.129 210.047 164.053 209.956 164.053H209.759V164.383H209.956C210.047 164.383 210.119 164.312 210.119 164.22Z" fill="black"/>
<path d="M229.072 162.994V162.055C229.072 162.007 229.11 161.968 229.158 161.968H229.345C229.652 161.968 229.901 162.218 229.901 162.524C229.901 162.831 229.652 163.085 229.345 163.085H229.158C229.11 163.085 229.072 163.047 229.072 162.999V162.994ZM229.249 162.903H229.35C229.561 162.903 229.728 162.731 229.728 162.52C229.728 162.309 229.561 162.141 229.35 162.141H229.249V162.903Z" fill="black"/>
<path d="M230.141 162.994V162.055C230.141 162.007 230.179 161.968 230.227 161.968H230.75C230.798 161.968 230.836 162.007 230.836 162.055C230.836 162.103 230.793 162.146 230.75 162.146H230.318V162.438H230.688C230.735 162.438 230.774 162.481 230.774 162.524C230.774 162.572 230.735 162.615 230.688 162.615H230.318V162.908H230.75C230.798 162.908 230.836 162.946 230.836 162.999C230.836 163.052 230.793 163.085 230.75 163.085H230.232C230.184 163.085 230.146 163.047 230.146 162.999L230.141 162.994Z" fill="black"/>
<path d="M231.085 162.994V162.055C231.085 162.007 231.123 161.968 231.171 161.968C231.219 161.968 231.262 162.007 231.262 162.055V162.908H231.694C231.742 162.908 231.78 162.946 231.78 162.999C231.78 163.052 231.737 163.085 231.694 163.085H231.171C231.123 163.085 231.085 163.047 231.085 162.999V162.994Z" fill="black"/>
<path d="M232 162.055C232 162.007 232.039 161.968 232.087 161.968C232.135 161.968 232.178 162.007 232.178 162.055V162.994C232.178 163.042 232.135 163.08 232.087 163.08C232.039 163.08 232 163.042 232 162.994V162.055Z" fill="black"/>
<path d="M232.839 163.066C232.839 163.066 232.835 163.061 232.83 163.056C232.83 163.056 232.83 163.056 232.83 163.052C232.83 163.052 232.825 163.047 232.82 163.042C232.82 163.042 232.82 163.032 232.811 163.028L232.422 162.098C232.403 162.055 232.422 162.002 232.47 161.983C232.513 161.964 232.566 161.983 232.585 162.031L232.897 162.769L233.208 162.031C233.228 161.987 233.28 161.964 233.324 161.983C233.367 162.002 233.391 162.055 233.371 162.098L232.978 163.028C232.978 163.028 232.978 163.037 232.974 163.042C232.974 163.042 232.969 163.047 232.964 163.052C232.964 163.052 232.964 163.053 232.964 163.056C232.964 163.056 232.959 163.056 232.954 163.066C232.954 163.066 232.945 163.076 232.94 163.076C232.94 163.076 232.93 163.076 232.926 163.076C232.926 163.076 232.916 163.076 232.911 163.076C232.907 163.076 232.902 163.076 232.897 163.076C232.897 163.076 232.887 163.076 232.883 163.076C232.883 163.076 232.873 163.071 232.868 163.066H232.839Z" fill="black"/>
<path d="M233.625 162.994V162.055C233.625 162.007 233.663 161.968 233.711 161.968H234.234C234.282 161.968 234.32 162.007 234.32 162.055C234.32 162.103 234.277 162.146 234.234 162.146H233.802V162.438H234.171C234.219 162.438 234.258 162.481 234.258 162.524C234.258 162.572 234.219 162.615 234.171 162.615H233.802V162.908H234.234C234.282 162.908 234.32 162.946 234.32 162.999C234.32 163.052 234.277 163.085 234.234 163.085H233.716C233.668 163.085 233.63 163.047 233.63 162.999L233.625 162.994Z" fill="black"/>
<path d="M235.341 162.951C235.356 162.999 235.332 163.047 235.284 163.061C235.279 163.061 235.265 163.066 235.25 163.066C235.25 163.066 235.212 163.066 235.188 163.047C235.169 163.032 235.15 163.013 235.135 162.989C235.111 162.941 235.102 162.884 235.102 162.798C235.102 162.769 235.092 162.745 235.082 162.73C235.073 162.711 235.054 162.697 235.034 162.683C235.001 162.659 234.958 162.649 234.943 162.644H234.756V162.989C234.756 163.037 234.718 163.076 234.665 163.076C234.613 163.076 234.579 163.037 234.579 162.989V162.05C234.579 162.002 234.617 161.964 234.665 161.964H234.953C235.145 161.964 235.293 162.117 235.293 162.309C235.293 162.414 235.245 162.505 235.169 162.572C235.188 162.587 235.207 162.606 235.226 162.63C235.26 162.678 235.279 162.735 235.279 162.802C235.279 162.85 235.279 162.879 235.284 162.898C235.308 162.908 235.332 162.927 235.341 162.951ZM235.116 162.309C235.116 162.218 235.044 162.141 234.953 162.141H234.756V162.472H234.953C235.044 162.472 235.116 162.4 235.116 162.309Z" fill="black"/>
<path d="M236.334 162.117L236.008 162.563V162.994C236.008 163.042 235.97 163.08 235.922 163.08C235.874 163.08 235.835 163.042 235.835 162.994V162.563L235.509 162.117C235.481 162.079 235.485 162.026 235.529 161.997C235.567 161.968 235.624 161.978 235.648 162.016L235.922 162.39L236.195 162.016C236.224 161.978 236.281 161.968 236.319 161.997C236.358 162.026 236.367 162.079 236.339 162.117H236.334Z" fill="black"/>
<path d="M229.973 164.02C230.074 164.125 230.136 164.264 230.136 164.422C230.136 164.581 230.074 164.724 229.973 164.825C229.877 164.93 229.738 164.998 229.594 164.998C229.45 164.998 229.302 164.93 229.206 164.825C229.105 164.72 229.048 164.581 229.048 164.422C229.048 164.264 229.105 164.125 229.206 164.02C229.302 163.914 229.446 163.847 229.594 163.847C229.743 163.847 229.882 163.914 229.973 164.02ZM229.954 164.422C229.954 164.312 229.911 164.211 229.844 164.144C229.776 164.072 229.685 164.029 229.589 164.029C229.489 164.029 229.398 164.072 229.331 164.144C229.264 164.216 229.22 164.317 229.22 164.422C229.22 164.528 229.264 164.633 229.331 164.7C229.398 164.772 229.489 164.815 229.589 164.815C229.685 164.815 229.776 164.772 229.844 164.7C229.911 164.633 229.954 164.533 229.954 164.422Z" fill="black"/>
<path d="M230.821 164.562H230.625V164.907C230.625 164.955 230.586 164.993 230.534 164.993C230.481 164.993 230.447 164.955 230.447 164.907V163.967C230.447 163.919 230.486 163.881 230.534 163.881H230.821C231.013 163.881 231.161 164.034 231.161 164.226C231.161 164.418 231.008 164.566 230.821 164.566V164.562ZM230.625 164.384H230.821C230.912 164.384 230.984 164.312 230.989 164.221C230.989 164.13 230.917 164.054 230.821 164.054H230.625V164.384Z" fill="black"/>
<path d="M232.058 164.058H231.804V164.912C231.804 164.959 231.766 164.998 231.718 164.998C231.67 164.998 231.631 164.959 231.631 164.912V164.058H231.377C231.329 164.058 231.291 164.015 231.291 163.967C231.291 163.919 231.329 163.881 231.377 163.881H232.058C232.106 163.881 232.144 163.919 232.144 163.967C232.144 164.015 232.106 164.058 232.058 164.058Z" fill="black"/>
<path d="M232.422 163.967C232.422 163.919 232.461 163.881 232.509 163.881C232.557 163.881 232.6 163.919 232.6 163.967V164.907C232.6 164.955 232.557 164.993 232.509 164.993C232.461 164.993 232.422 164.955 232.422 164.907V163.967Z" fill="black"/>
<path d="M233.779 164.02C233.88 164.125 233.942 164.264 233.942 164.422C233.942 164.581 233.88 164.724 233.779 164.825C233.683 164.93 233.544 164.998 233.4 164.998C233.257 164.998 233.108 164.93 233.012 164.825C232.912 164.72 232.854 164.581 232.854 164.422C232.854 164.264 232.912 164.125 233.012 164.02C233.108 163.914 233.252 163.847 233.4 163.847C233.549 163.847 233.688 163.914 233.779 164.02ZM233.76 164.422C233.76 164.312 233.717 164.211 233.65 164.144C233.583 164.072 233.492 164.029 233.396 164.029C233.295 164.029 233.204 164.072 233.137 164.144C233.07 164.216 233.027 164.317 233.027 164.422C233.027 164.528 233.07 164.633 233.137 164.7C233.204 164.772 233.295 164.815 233.396 164.815C233.492 164.815 233.583 164.772 233.65 164.7C233.717 164.633 233.76 164.533 233.76 164.422Z" fill="black"/>
<path d="M234.388 164.906C234.388 164.954 234.35 164.993 234.302 164.993C234.254 164.993 234.215 164.954 234.215 164.906V163.981C234.215 163.952 234.225 163.924 234.249 163.905C234.287 163.876 234.345 163.885 234.369 163.924L234.882 164.638V163.981C234.882 163.933 234.92 163.895 234.968 163.895C235.016 163.895 235.054 163.933 235.054 163.981V164.906C235.054 164.954 235.016 164.993 234.968 164.993C234.944 164.993 234.92 164.978 234.901 164.959C234.901 164.959 234.896 164.954 234.891 164.949L234.383 164.24V164.902L234.388 164.906Z" fill="black"/>
<path d="M235.404 164.72C235.432 164.686 235.485 164.681 235.519 164.71C235.591 164.767 235.71 164.835 235.825 164.835C235.907 164.835 235.979 164.811 236.027 164.777C236.075 164.744 236.094 164.7 236.094 164.662C236.094 164.643 236.089 164.628 236.079 164.609C236.07 164.59 236.055 164.576 236.031 164.561C235.984 164.533 235.907 164.504 235.811 164.485C235.734 164.47 235.667 164.451 235.605 164.422C235.543 164.394 235.49 164.355 235.456 164.298C235.432 164.259 235.418 164.216 235.418 164.168C235.418 164.072 235.471 163.991 235.547 163.933C235.624 163.881 235.72 163.847 235.825 163.847C235.979 163.847 236.094 163.924 236.175 163.977C236.214 164.001 236.223 164.053 236.199 164.092C236.175 164.13 236.123 164.14 236.084 164.116C236.003 164.063 235.926 164.015 235.825 164.015C235.753 164.015 235.691 164.039 235.648 164.068C235.605 164.101 235.586 164.135 235.586 164.168C235.586 164.187 235.586 164.202 235.595 164.211C235.605 164.226 235.619 164.24 235.638 164.255C235.682 164.283 235.753 164.307 235.84 164.327C235.921 164.341 235.998 164.365 236.06 164.394C236.127 164.427 236.185 164.466 236.218 164.528C236.242 164.566 236.257 164.614 236.257 164.662C236.257 164.763 236.199 164.854 236.118 164.911C236.041 164.969 235.936 165.002 235.821 165.002C235.648 165.002 235.504 164.916 235.413 164.844C235.38 164.815 235.375 164.763 235.399 164.729L235.404 164.72Z" fill="black"/>
<path d="M254.486 162.649H254.29V162.994C254.29 163.042 254.251 163.08 254.199 163.08C254.146 163.08 254.112 163.042 254.112 162.994V162.055C254.112 162.007 254.151 161.968 254.199 161.968H254.486C254.678 161.968 254.827 162.122 254.827 162.313C254.827 162.505 254.673 162.654 254.486 162.654V162.649ZM254.29 162.472H254.486C254.577 162.472 254.649 162.4 254.654 162.309C254.654 162.218 254.582 162.141 254.486 162.141H254.29V162.472Z" fill="black"/>
<path d="M255.502 162.821H255.114L255.037 163.027C255.023 163.061 254.989 163.085 254.956 163.085C254.946 163.085 254.937 163.085 254.927 163.085C254.879 163.066 254.86 163.018 254.874 162.97L255.224 162.03C255.239 161.997 255.272 161.973 255.31 161.973C255.349 161.973 255.382 161.992 255.397 162.03L255.747 162.97C255.761 163.018 255.742 163.066 255.694 163.085C255.684 163.085 255.675 163.085 255.665 163.085C255.632 163.085 255.598 163.066 255.584 163.027L255.507 162.821H255.502ZM255.435 162.644L255.306 162.299L255.176 162.644H255.435Z" fill="black"/>
<path d="M256.619 162.117L256.293 162.563V162.994C256.293 163.042 256.255 163.08 256.207 163.08C256.159 163.08 256.121 163.042 256.121 162.994V162.563L255.795 162.117C255.766 162.079 255.771 162.026 255.814 161.997C255.853 161.968 255.91 161.978 255.934 162.016L256.207 162.39L256.48 162.016C256.509 161.978 256.567 161.968 256.605 161.997C256.643 162.026 256.653 162.079 256.624 162.117H256.619Z" fill="black"/>
<path d="M257.765 162.054V162.994C257.765 163.042 257.722 163.08 257.674 163.08C257.626 163.08 257.587 163.042 257.587 162.994V162.323L257.357 162.644C257.357 162.644 257.314 162.682 257.285 162.682C257.257 162.682 257.228 162.668 257.214 162.644L256.984 162.323V162.994C256.984 163.042 256.945 163.08 256.892 163.08C256.84 163.08 256.806 163.042 256.806 162.994V162.054C256.806 162.006 256.844 161.968 256.892 161.968H256.897C256.921 161.968 256.95 161.983 256.969 162.006L257.285 162.447L257.602 162.006C257.602 162.006 257.645 161.968 257.674 161.968C257.722 161.968 257.765 162.006 257.765 162.054Z" fill="black"/>
<path d="M258.071 162.994V162.054C258.071 162.006 258.11 161.968 258.158 161.968H258.68C258.728 161.968 258.766 162.006 258.766 162.054C258.766 162.102 258.723 162.145 258.68 162.145H258.249V162.438H258.618C258.666 162.438 258.704 162.481 258.704 162.524C258.704 162.572 258.666 162.615 258.618 162.615H258.249V162.908H258.68C258.728 162.908 258.766 162.946 258.766 162.999C258.766 163.051 258.723 163.085 258.68 163.085H258.162C258.114 163.085 258.076 163.047 258.076 162.999L258.071 162.994Z" fill="black"/>
<path d="M259.193 162.994C259.193 163.042 259.155 163.08 259.107 163.08C259.059 163.08 259.021 163.042 259.021 162.994V162.069C259.021 162.04 259.03 162.011 259.054 161.992C259.092 161.964 259.15 161.973 259.174 162.011L259.687 162.726V162.069C259.687 162.021 259.725 161.983 259.773 161.983C259.821 161.983 259.859 162.021 259.859 162.069V162.994C259.859 163.042 259.821 163.08 259.773 163.08C259.749 163.08 259.725 163.066 259.706 163.047C259.706 163.047 259.701 163.042 259.696 163.037L259.188 162.328V162.989L259.193 162.994Z" fill="black"/>
<path d="M260.914 162.141H260.66V162.994C260.66 163.042 260.622 163.08 260.574 163.08C260.526 163.08 260.487 163.042 260.487 162.994V162.141H260.233C260.185 162.141 260.147 162.098 260.147 162.05C260.147 162.002 260.185 161.964 260.233 161.964H260.914C260.962 161.964 261 162.002 261 162.05C261 162.098 260.962 162.141 260.914 162.141Z" fill="black"/>
<path d="M255.257 163.967V164.907C255.257 164.955 255.214 164.993 255.166 164.993C255.118 164.993 255.08 164.955 255.08 164.907V164.236L254.85 164.557C254.85 164.557 254.807 164.595 254.778 164.595C254.749 164.595 254.721 164.581 254.706 164.557L254.476 164.236V164.907C254.476 164.955 254.438 164.993 254.385 164.993C254.332 164.993 254.299 164.955 254.299 164.907V163.967C254.299 163.919 254.337 163.881 254.385 163.881H254.39C254.414 163.881 254.443 163.895 254.462 163.919L254.778 164.36L255.095 163.919C255.095 163.919 255.138 163.881 255.166 163.881C255.214 163.881 255.257 163.919 255.257 163.967Z" fill="black"/>
<path d="M255.564 164.907V163.967C255.564 163.919 255.603 163.881 255.651 163.881H256.173C256.221 163.881 256.259 163.919 256.259 163.967C256.259 164.015 256.216 164.058 256.173 164.058H255.742V164.351H256.111C256.159 164.351 256.197 164.394 256.197 164.437C256.197 164.485 256.159 164.528 256.111 164.528H255.742V164.82H256.173C256.221 164.82 256.259 164.859 256.259 164.911C256.259 164.964 256.216 164.998 256.173 164.998H255.656C255.608 164.998 255.569 164.959 255.569 164.911L255.564 164.907Z" fill="black"/>
<path d="M257.195 164.058H256.941V164.911C256.941 164.959 256.902 164.998 256.854 164.998C256.806 164.998 256.768 164.959 256.768 164.911V164.058H256.514C256.466 164.058 256.428 164.015 256.428 163.967C256.428 163.919 256.466 163.881 256.514 163.881H257.195C257.243 163.881 257.281 163.919 257.281 163.967C257.281 164.015 257.243 164.058 257.195 164.058Z" fill="black"/>
<path d="M257.544 164.907V163.967C257.544 163.919 257.583 163.881 257.631 163.881C257.679 163.881 257.722 163.919 257.722 163.967V164.351H258.134V163.967C258.134 163.919 258.172 163.881 258.22 163.881C258.268 163.881 258.311 163.919 258.311 163.967V164.907C258.311 164.955 258.273 164.993 258.22 164.993C258.168 164.993 258.134 164.955 258.134 164.907V164.523H257.722V164.907C257.722 164.955 257.683 164.993 257.631 164.993C257.578 164.993 257.544 164.955 257.544 164.907Z" fill="black"/>
<path d="M259.505 164.02C259.605 164.125 259.668 164.264 259.668 164.422C259.668 164.581 259.605 164.724 259.505 164.825C259.409 164.93 259.27 164.998 259.126 164.998C258.982 164.998 258.834 164.93 258.738 164.825C258.637 164.72 258.58 164.581 258.58 164.422C258.58 164.264 258.637 164.125 258.738 164.02C258.834 163.914 258.977 163.847 259.126 163.847C259.275 163.847 259.414 163.914 259.505 164.02ZM259.486 164.422C259.486 164.312 259.442 164.211 259.375 164.144C259.308 164.072 259.217 164.029 259.121 164.029C259.021 164.029 258.93 164.072 258.862 164.144C258.795 164.216 258.752 164.317 258.752 164.422C258.752 164.528 258.795 164.633 258.862 164.7C258.93 164.772 259.021 164.815 259.121 164.815C259.217 164.815 259.308 164.772 259.375 164.7C259.442 164.633 259.486 164.533 259.486 164.422Z" fill="black"/>
<path d="M259.937 164.907V163.967C259.937 163.919 259.975 163.881 260.023 163.881H260.21C260.517 163.881 260.766 164.13 260.766 164.437C260.766 164.744 260.517 164.998 260.21 164.998H260.023C259.975 164.998 259.937 164.959 259.937 164.911V164.907ZM260.114 164.816H260.215C260.425 164.816 260.593 164.643 260.593 164.432C260.593 164.221 260.425 164.053 260.215 164.053H260.114V164.816Z" fill="black"/>
<path d="M169.349 314.618H224.721L216.645 258.219H177.421L169.349 314.618Z" fill="#37474F"/>
<path d="M177.425 258.214L183.575 314.618H169.349L177.425 258.214Z" fill="#455A64"/>
<path d="M205.595 262.106L207.326 261.742C207.316 261.694 206.314 256.958 205.241 252.174C204.081 247.002 198.995 244.625 194.748 245.31C191.565 245.823 188.042 248.306 188.574 253.608C189.145 259.283 189.571 261.958 189.59 262.068L191.335 261.785C191.335 261.756 190.894 259.043 190.333 253.43C189.926 249.356 192.49 247.467 195.031 247.055C198.468 246.499 202.585 248.407 203.515 252.558C204.584 257.332 205.586 262.058 205.595 262.106Z" fill="#263238"/>
<path d="M182.827 314.187C181.686 313.376 180.512 312.633 179.333 311.89C178.149 311.157 176.95 310.448 175.742 309.762L175.575 309.666L175.426 309.777C174.491 310.476 173.552 311.181 172.646 311.924C171.73 312.653 170.824 313.396 169.947 314.177C170.954 313.573 171.932 312.926 172.9 312.264C173.878 311.617 174.827 310.932 175.771 310.246L175.455 310.266C176.653 310.97 177.871 311.651 179.093 312.308C180.325 312.955 181.557 313.607 182.827 314.187Z" fill="white"/>
<path d="M175.599 310.011C175.843 306.416 176.02 302.817 176.193 299.217C176.366 295.617 176.481 292.017 176.629 288.417C176.73 284.818 176.854 281.218 176.931 277.613L177.032 272.211C177.046 270.409 177.075 268.606 177.07 266.804C176.941 268.602 176.854 270.399 176.744 272.202L176.481 277.599C176.313 281.199 176.193 284.798 176.044 288.398C175.949 291.998 175.819 295.598 175.747 299.202C175.671 302.802 175.608 306.407 175.603 310.011H175.599Z" fill="white"/>
<path d="M204.115 261.92C204.115 263.219 205.164 264.268 206.463 264.268C207.762 264.268 208.812 263.214 208.812 261.92C208.812 260.621 207.762 259.571 206.463 259.571C205.164 259.571 204.115 260.625 204.115 261.92Z" fill="#263238"/>
<path d="M188.297 261.92C188.297 263.219 189.351 264.268 190.646 264.268C191.945 264.268 192.994 263.219 192.994 261.92C192.994 260.621 191.945 259.571 190.646 259.571C189.347 259.571 188.297 260.621 188.297 261.92Z" fill="#263238"/>
<path d="M192.151 314.617H240.314L233.287 265.557H199.173L192.151 314.617Z" fill="#115E32"/>
<path d="M199.173 265.557L204.527 314.617H192.151L199.173 265.557Z" fill="#115E32"/>
<path opacity="0.1" d="M199.173 265.557L204.527 314.617H192.151L199.173 265.557Z" fill="black"/>
<path d="M223.681 268.941L225.187 268.625C225.177 268.582 224.305 264.464 223.375 260.304C222.368 255.807 217.944 253.737 214.248 254.336C211.482 254.782 208.415 256.944 208.88 261.555C209.373 266.492 209.747 268.817 209.762 268.913L211.281 268.668C211.281 268.668 210.898 266.286 210.409 261.401C210.054 257.859 212.288 256.215 214.493 255.855C217.479 255.371 221.059 257.03 221.87 260.644C222.799 264.795 223.672 268.908 223.681 268.951V268.941Z" fill="#263238"/>
<path d="M203.875 314.239C202.883 313.534 201.862 312.887 200.837 312.245C199.806 311.607 198.766 310.989 197.716 310.39L197.572 310.308L197.443 310.404C196.628 311.013 195.813 311.626 195.027 312.269C194.231 312.901 193.44 313.549 192.678 314.229C193.555 313.702 194.404 313.141 195.247 312.566C196.096 312 196.92 311.406 197.745 310.807L197.467 310.821C198.512 311.435 199.566 312.024 200.635 312.599C201.709 313.165 202.778 313.726 203.885 314.234L203.875 314.239Z" fill="white"/>
<path d="M197.586 310.61C197.797 307.48 197.955 304.35 198.104 301.22C198.253 298.09 198.353 294.96 198.483 291.825C198.569 288.695 198.679 285.56 198.742 282.43L198.828 277.728C198.837 276.16 198.866 274.593 198.861 273.025C198.751 274.588 198.67 276.155 198.574 277.718L198.344 282.416C198.195 285.546 198.09 288.676 197.965 291.811C197.879 294.945 197.768 298.075 197.706 301.205C197.639 304.34 197.582 307.47 197.582 310.605L197.586 310.61Z" fill="white"/>
<path d="M222.387 268.783C222.387 269.909 223.303 270.825 224.429 270.825C225.556 270.825 226.471 269.909 226.471 268.783C226.471 267.652 225.556 266.741 224.429 266.741C223.298 266.741 222.387 267.657 222.387 268.783Z" fill="#263238"/>
<path d="M208.63 268.783C208.63 269.914 209.546 270.825 210.672 270.825C211.804 270.825 212.714 269.909 212.714 268.783C212.714 267.652 211.799 266.741 210.672 266.741C209.541 266.741 208.63 267.657 208.63 268.783Z" fill="#263238"/>
<path d="M333.396 169.625V169.745C333.396 173.052 331.708 175.861 328.88 175.861H325.597C328.43 175.861 330.117 173.047 330.117 169.745V169.625C330.117 166.197 328.19 163.384 325.482 163.384H328.761C331.469 163.384 333.396 166.197 333.396 169.625Z" fill="#31BD6D"/>
<path d="M328.761 180.578H325.482C319.572 180.578 315.598 175.621 315.598 169.745V169.625C315.598 163.628 319.634 158.667 325.602 158.667H328.885C322.913 158.667 318.877 163.623 318.877 169.625V169.745C318.877 175.621 322.85 180.578 328.761 180.578Z" fill="#31BD6D"/>
<g opacity="0.1">
<path d="M333.396 169.625V169.745C333.396 173.052 331.708 175.861 328.88 175.861H325.597C328.43 175.861 330.117 173.047 330.117 169.745V169.625C330.117 166.197 328.19 163.384 325.482 163.384H328.761C331.469 163.384 333.396 166.197 333.396 169.625Z" fill="white"/>
<path d="M328.761 180.578H325.482C319.572 180.578 315.598 175.621 315.598 169.745V169.625C315.598 163.628 319.634 158.667 325.602 158.667H328.885C322.913 158.667 318.877 163.623 318.877 169.625V169.745C318.877 175.621 322.85 180.578 328.761 180.578Z" fill="white"/>
</g>
<path d="M328.88 158.667C334.786 158.667 338.764 163.628 338.764 169.5V169.625C338.764 175.559 334.723 180.578 328.76 180.578C322.797 180.578 318.876 175.617 318.876 169.745V169.62C318.876 163.624 322.912 158.667 328.88 158.667ZM333.4 169.745V169.62C333.4 166.193 331.473 163.379 328.76 163.379C326.047 163.379 324.24 166.193 324.24 169.495V169.62C324.24 173.11 326.167 175.861 328.885 175.861C331.603 175.861 333.405 173.047 333.405 169.745" fill="#115E32"/>
<path d="M330.027 136.944C329.178 136.944 328.397 137.308 327.975 138.041L300.308 176.412C300.011 176.844 299.766 177.39 299.766 178.004C299.766 179.35 300.792 180.391 302.115 180.391H298.837C297.509 180.391 296.488 179.35 296.488 178.004C296.488 177.39 296.727 176.844 297.029 176.412L324.697 138.041C325.118 137.308 325.9 136.944 326.748 136.944H330.027Z" fill="#31BD6D"/>
<g opacity="0.1">
<path d="M330.027 136.944C329.178 136.944 328.397 137.308 327.975 138.041L300.308 176.412C300.011 176.844 299.766 177.39 299.766 178.004C299.766 179.35 300.792 180.391 302.115 180.391H298.837C297.509 180.391 296.488 179.35 296.488 178.004C296.488 177.39 296.727 176.844 297.029 176.412L324.697 138.041C325.118 137.308 325.9 136.944 326.748 136.944H330.027Z" fill="white"/>
</g>
<path d="M332.433 139.331C332.433 139.944 332.194 140.495 331.892 140.922L304.229 179.293C303.745 180.026 302.964 180.395 302.12 180.395C300.792 180.395 299.767 179.355 299.767 178.008C299.767 177.395 300.006 176.843 300.308 176.417L327.975 138.046C328.397 137.313 329.183 136.943 330.027 136.943C331.35 136.943 332.433 137.984 332.433 139.331Z" fill="#115E32"/>
<path d="M303.265 158.667H299.986C294.081 158.667 290.103 153.711 290.103 147.834V147.715C290.103 141.718 294.143 136.757 300.111 136.757H303.39C297.422 136.757 293.386 141.713 293.386 147.715V147.834C293.386 153.711 297.364 158.667 303.27 158.667H303.265Z" fill="#31BD6D"/>
<path d="M307.905 147.714V147.834C307.905 151.142 306.218 153.955 303.38 153.955H300.102C302.935 153.955 304.622 151.142 304.622 147.834V147.714C304.622 144.287 302.695 141.474 299.982 141.474H303.261C305.974 141.474 307.905 144.287 307.905 147.714Z" fill="#31BD6D"/>
<g opacity="0.1">
<path d="M303.265 158.667H299.986C294.081 158.667 290.103 153.711 290.103 147.834V147.715C290.103 141.718 294.143 136.757 300.111 136.757H303.39C297.422 136.757 293.386 141.713 293.386 147.715V147.834C293.386 153.711 297.364 158.667 303.27 158.667H303.265Z" fill="white"/>
<path d="M307.905 147.714V147.834C307.905 151.142 306.218 153.955 303.38 153.955H300.102C302.935 153.955 304.622 151.142 304.622 147.834V147.714C304.622 144.287 302.695 141.474 299.982 141.474H303.261C305.974 141.474 307.905 144.287 307.905 147.714Z" fill="white"/>
</g>
<path d="M313.268 147.714C313.268 153.653 309.295 158.672 303.265 158.672C297.235 158.672 293.381 153.711 293.381 147.839V147.714C293.381 141.718 297.422 136.762 303.385 136.762C309.348 136.762 313.268 141.723 313.268 147.595V147.719V147.714ZM298.745 147.714C298.745 151.204 300.672 153.955 303.385 153.955C306.098 153.955 307.905 151.142 307.905 147.834V147.71C307.905 144.282 305.978 141.469 303.26 141.469C300.542 141.469 298.74 144.282 298.74 147.59V147.714" fill="#115E32"/>
<path d="M356.628 117.956C355.703 126.814 347.765 133.251 338.902 132.322C335.322 131.948 332.139 130.428 329.675 128.156L321.603 129.34L325.639 122.361C324.661 119.979 324.249 117.323 324.532 114.596C325.457 105.738 333.395 99.3002 342.258 100.23C351.116 101.155 357.553 109.093 356.623 117.956H356.628Z" fill="white"/>
<path d="M356.629 117.956C356.293 120.899 355.215 123.789 353.374 126.133C352.952 126.747 352.406 127.26 351.912 127.816C351.351 128.305 350.829 128.842 350.21 129.259C349.031 130.169 347.703 130.879 346.318 131.425C344.938 132.005 343.457 132.283 341.975 132.461C341.228 132.499 340.48 132.571 339.732 132.504C338.984 132.484 338.237 132.408 337.498 132.274C334.546 131.737 331.751 130.356 329.517 128.333L329.709 128.391L321.647 129.628L321.062 129.719L321.359 129.201L325.371 122.212L325.352 122.49C323.396 117.884 323.837 112.405 326.344 108.115C327.595 105.968 329.34 104.117 331.396 102.737C333.453 101.352 335.84 100.484 338.28 100.153C340.724 99.8274 343.241 100.053 345.575 100.829C347.905 101.615 350.043 102.933 351.797 104.645C355.358 108.029 357.151 113.11 356.624 117.965L356.629 117.956ZM356.629 117.956C357.118 113.095 355.291 108.048 351.73 104.707C349.961 103.039 347.818 101.769 345.508 101.035C343.193 100.312 340.72 100.139 338.332 100.498C335.95 100.863 333.645 101.75 331.67 103.13C329.7 104.51 328.041 106.318 326.843 108.393C325.621 110.464 324.988 112.837 324.796 115.219C324.643 117.611 325.036 120.027 325.932 122.246L325.99 122.39L325.913 122.524L321.853 129.489L321.565 129.062L329.642 127.931L329.752 127.916L329.834 127.993C331.967 129.997 334.67 131.396 337.561 131.972C338.28 132.115 339.013 132.206 339.751 132.24C340.485 132.317 341.223 132.264 341.961 132.24C343.423 132.091 344.895 131.842 346.27 131.291C347.651 130.773 348.983 130.097 350.162 129.191C350.781 128.779 351.303 128.252 351.864 127.768C352.358 127.217 352.904 126.713 353.331 126.1C355.181 123.775 356.279 120.904 356.633 117.961L356.629 117.956Z" fill="#0C6130"/>
<path d="M337.925 125.476L331.032 118.502L333.347 116.216L337.374 120.29L345.733 107.18L348.48 108.93L337.925 125.476Z" fill="#115E32"/>
<path d="M343.12 240.688C343.12 239.963 342.705 239.496 341.783 239.496H340.477V241.911H341.783C342.705 241.911 343.12 241.403 343.12 240.688ZM339.296 238.533H341.783C343.493 238.533 344.332 239.517 344.332 240.688C344.332 241.538 343.876 242.449 342.664 242.75L344.446 245.734H343.037L341.379 242.854H340.477V245.734H339.296V238.533ZM347.025 240.864C347.387 240.387 348.082 239.931 349.014 239.931C350.517 239.931 351.698 241.092 351.698 242.854C351.698 244.615 350.517 245.828 349.014 245.828C348.071 245.828 347.398 245.351 347.025 244.905V248.449H345.843V240.025H347.025V240.864ZM350.496 242.854C350.496 241.621 349.646 240.957 348.755 240.957C347.874 240.957 347.025 241.652 347.025 242.874C347.025 244.107 347.874 244.802 348.755 244.802C349.646 244.802 350.496 244.087 350.496 242.854Z" fill="#A6A6A6"/>
</svg>
