<svg width="469" height="423" viewBox="0 0 469 423" fill="none" xmlns="http://www.w3.org/2000/svg">
<path d="M156 190.5C156 173.394 149.204 156.988 137.108 144.892C125.012 132.796 108.606 126 91.5 126C74.3935 126 57.9877 132.796 45.8916 144.892C33.7955 156.988 27 173.394 27 190.5L91.5 190.5H156Z" fill="white"/>
<path d="M429 196.5C429 179.394 422.204 162.988 410.108 150.892C398.012 138.796 381.606 132 364.5 132C347.394 132 330.988 138.796 318.892 150.892C306.796 162.988 300 179.394 300 196.5L364.5 196.5H429Z" fill="white"/>
<path d="M388 191C388 154.665 373.566 119.819 347.874 94.1264C322.181 68.4339 287.335 54 251 54C214.665 54 179.819 68.4339 154.126 94.1264C128.434 119.819 114 154.665 114 191L251 191H388Z" fill="white"/>
<circle cx="251.176" cy="138.592" r="76.3" fill="#FBC329"/>
<ellipse cx="251.166" cy="288.102" rx="74.8859" ry="2.17061" fill="#C8F2FC"/>
<path d="M213.836 288.092H138.414C138.414 288.092 139.171 282.458 145.093 282.458C151.014 282.458 151.108 286.436 155.739 279.376C160.369 272.315 169.641 274.558 173.431 280.698C177.22 286.839 182.68 274.995 186.907 281.549C191.135 288.092 213.836 288.092 213.836 288.092Z" fill="#C8F2FC"/>
<path d="M343.207 287.859H291.76C291.76 287.859 292.277 283.904 296.311 283.904C300.346 283.904 300.412 286.704 303.57 281.741C306.728 276.778 313.058 278.357 315.646 282.67C318.233 286.983 321.949 278.663 324.842 283.267C327.721 287.859 343.207 287.859 343.207 287.859Z" fill="#C8F2FC"/>
<path d="M184.385 226.711C184.916 223.288 187.503 220.037 191.205 220.713C192.639 220.979 193.926 221.669 195.293 222.16C195.399 222.2 196.474 222.677 196.553 222.611C196.553 222.611 186.256 232.776 186.216 232.815C186.256 232.776 185.088 231.117 184.982 230.958C184.252 229.684 184.159 228.105 184.385 226.711Z" fill="#EE4036"/>
<path d="M202.073 224.058L196.035 221.55C195.558 221.351 195 221.484 194.655 221.868L185.406 232.896C184.491 235.457 189.878 237.938 190.847 237.315L202.405 228.437C202.776 228.198 202.989 227.774 202.962 227.336L202.856 225.133C202.816 224.668 202.511 224.244 202.073 224.058Z" fill="#DDDCDB"/>
<path d="M318.276 180.121C315.638 180.121 313.499 176.99 313.499 173.128C313.499 169.266 315.638 166.135 318.276 166.135C320.914 166.135 323.053 169.266 323.053 173.128C323.053 176.99 320.914 180.121 318.276 180.121Z" fill="#EE4036"/>
<path d="M304.88 185.111L308.681 196.516L301.933 198.765L298.132 187.36L304.88 185.111Z" fill="#3D3633"/>
<path d="M347.803 273.156C352.567 268.419 352.58 260.723 347.856 255.959C343.118 251.195 335.422 251.182 330.658 255.906C325.894 260.643 325.881 268.34 330.605 273.103C335.342 277.867 343.039 277.881 347.803 273.156Z" fill="#3D3633"/>
<path d="M324.474 249.695C332.674 241.547 345.918 241.587 354.065 249.774C362.213 257.975 362.173 271.218 353.986 279.366C345.785 287.514 332.542 287.474 324.394 279.287C316.233 271.086 316.273 257.843 324.474 249.695ZM347.802 273.156C352.566 268.419 352.579 260.722 347.855 255.958C343.118 251.194 335.421 251.181 330.657 255.905C325.894 260.642 325.88 268.339 330.604 273.103C335.342 277.867 343.038 277.88 347.802 273.156Z" fill="#404041"/>
<path d="M322.762 247.97C331.905 238.88 346.701 238.92 355.791 248.063C364.894 257.206 364.841 272.002 355.698 281.092C346.555 290.195 331.759 290.142 322.67 280.999C313.566 271.856 313.606 257.06 322.762 247.97ZM348.798 274.151C354.106 268.87 354.132 260.271 348.851 254.963C343.569 249.655 334.971 249.629 329.663 254.91C324.342 260.192 324.328 268.79 329.61 274.098C334.891 279.42 343.477 279.433 348.798 274.151Z" fill="#3D3633"/>
<path d="M334.406 271.381C330.62 268.712 329.714 263.48 332.383 259.695C335.051 255.909 340.283 255.004 344.069 257.672C347.854 260.34 348.76 265.572 346.091 269.358C343.423 273.143 338.191 274.049 334.406 271.381Z" fill="#EFEDEC"/>
<path d="M329.265 254.513C334.798 249.006 343.742 249.033 349.236 254.566C354.73 260.1 354.716 269.044 349.183 274.537C343.649 280.044 334.706 280.018 329.212 274.484C323.705 268.964 323.731 260.02 329.265 254.513ZM347.803 273.157C352.567 268.42 352.58 260.724 347.856 255.96C343.119 251.196 335.422 251.183 330.658 255.907C325.894 260.644 325.881 268.34 330.605 273.104C335.343 277.868 343.039 277.881 347.803 273.157Z" fill="#EFEDEC"/>
<path d="M335.674 268.061C337.625 270.025 340.796 270.038 342.76 268.074C344.724 266.124 344.737 262.952 342.773 260.988C340.823 259.024 337.651 259.011 335.687 260.975C333.737 262.926 333.723 266.097 335.674 268.061Z" fill="black"/>
<path d="M218.673 273.156C223.437 268.419 223.45 260.723 218.726 255.959C213.989 251.195 206.293 251.182 201.529 255.906C196.765 260.643 196.752 268.34 201.476 273.103C206.213 277.867 213.909 277.881 218.673 273.156Z" fill="#3D3633"/>
<path d="M195.345 249.695C203.546 241.547 216.789 241.587 224.937 249.774C233.085 257.975 233.045 271.218 224.857 279.366C216.657 287.514 203.413 287.474 195.266 279.287C187.118 271.086 187.158 257.843 195.345 249.695ZM218.674 273.156C223.438 268.419 223.451 260.722 218.727 255.958C213.989 251.194 206.293 251.181 201.529 255.905C196.765 260.642 196.752 268.339 201.476 273.103C206.213 277.867 213.91 277.88 218.674 273.156Z" fill="#404041"/>
<path d="M193.633 247.97C202.776 238.88 217.572 238.92 226.662 248.063C235.752 257.206 235.712 272.002 226.569 281.092C217.426 290.195 202.63 290.142 193.54 280.999C184.437 271.856 184.49 257.06 193.633 247.97ZM219.669 274.151C224.976 268.87 225.003 260.271 219.722 254.963C214.44 249.655 205.841 249.629 200.533 254.91C195.212 260.192 195.199 268.79 200.48 274.098C205.762 279.42 214.361 279.433 219.669 274.151Z" fill="#3D3633"/>
<path d="M204.156 270.449C207.421 273.74 212.742 273.754 216.02 270.476C219.311 267.212 219.324 261.89 216.046 258.613C212.782 255.322 207.461 255.309 204.183 258.586C200.905 261.851 200.892 267.158 204.156 270.449Z" fill="#EFEDEC"/>
<path d="M200.149 254.513C205.683 249.006 214.627 249.033 220.12 254.566C225.614 260.1 225.601 269.044 220.067 274.537C214.534 280.044 205.59 280.018 200.096 274.484C194.589 268.964 194.616 260.02 200.149 254.513ZM218.674 273.157C223.438 268.42 223.451 260.724 218.727 255.96C213.99 251.196 206.293 251.183 201.529 255.907C196.765 260.644 196.752 268.34 201.476 273.104C206.214 277.868 213.91 277.881 218.674 273.157Z" fill="#EFEDEC"/>
<path d="M206.544 268.061C208.494 270.025 211.666 270.038 213.63 268.074C215.594 266.124 215.607 262.952 213.643 260.988C211.692 259.024 208.521 259.011 206.557 260.975C204.606 262.926 204.593 266.097 206.544 268.061Z" fill="black"/>
<path d="M339.882 234.408C327.395 233.545 316.381 241.812 313.382 253.529C313.103 254.604 314.47 255.321 315.2 254.485C317.814 251.566 322.698 247.611 331.111 245.488C341.806 242.794 352.807 245.289 357.783 246.762C358.738 247.041 359.521 245.966 358.951 245.143C354.678 239.105 347.844 234.965 339.882 234.408Z" fill="url(#paint0_linear_109_65932)"/>
<path d="M313.38 253.53C316.3 242.118 326.836 233.97 338.938 234.369C334.479 235.337 331.348 239.358 331.135 244.016C331.109 244.507 331.149 244.984 331.215 245.462C331.188 245.475 331.162 245.475 331.122 245.489C322.696 247.612 317.812 251.566 315.212 254.486C314.455 255.322 313.102 254.618 313.38 253.53Z" fill="#0986A5"/>
<path d="M316.618 180.095C316.618 180.639 317.069 181.09 317.613 181.09C318.157 181.09 318.608 180.639 318.608 180.095V166.374C318.608 165.83 318.157 165.378 317.613 165.378C317.069 165.378 316.618 165.83 316.618 166.374V180.095Z" fill="#EFEFEF"/>
<path d="M317.6 177.614C318.145 177.614 318.596 177.162 318.596 176.618V180.095C318.596 180.639 318.145 181.09 317.6 181.09C317.056 181.09 316.605 180.639 316.605 180.095V176.618C316.619 177.162 317.056 177.614 317.6 177.614Z" fill="#D3D3D3"/>
<path d="M298.81 191.188C298.81 191.188 286.668 154.856 316.618 166.241V180.241L307.13 183.107C307.13 183.107 304.994 183.81 306.692 188.747L298.929 191.507C298.876 191.401 298.837 191.294 298.81 191.188Z" fill="url(#paint1_linear_109_65932)"/>
<path d="M304.291 171.35C304.291 172.213 304.954 172.903 305.79 172.903C306.626 172.903 307.29 172.213 307.29 171.35C307.29 170.488 306.626 169.798 305.79 169.798C304.954 169.798 304.291 170.488 304.291 171.35Z" fill="#2F9BA2"/>
<path d="M230.616 235.351C240.794 246.113 252.604 259.077 268.993 256.33C277.976 254.818 300.853 248.594 304.556 240.261C310.328 227.269 300.044 195.754 300.044 195.754L308.006 191.693C310.992 197.532 319.71 212.673 331.162 215.433L329.49 227.814L309.16 260.948L225.627 263.947V229.817C227.259 231.715 228.918 233.559 230.616 235.351Z" fill="#002635"/>
<path d="M256.665 214.225C255.55 214.053 254.476 213.934 253.573 213.735C250.627 213.098 246.58 212.421 243.687 211.598C239.998 210.55 234.903 208.387 231.2 210.258C229.17 211.28 228.586 213.575 228.453 215.712C228.4 216.468 228.944 217.132 229.688 217.238C235.115 218.021 256.294 221.099 262.65 222.015C263.605 222.148 264.428 221.338 264.282 220.383C264.123 219.348 263.924 218.233 263.844 218.021C262.822 215.353 259.598 214.663 256.665 214.225Z" fill="#3D3633"/>
<path d="M306.706 188.853C301.504 179.431 306.812 177.6 306.812 177.6L316.605 175.026V180.227L307.118 183.094C307.118 183.094 304.941 183.797 306.706 188.853Z" fill="#08341B"/>
<path d="M249.95 252.282C244.51 245.9 263.525 222.293 263.631 222.293L205.005 213.136L192.253 263.947H249.95V252.282Z" fill="url(#paint2_linear_109_65932)"/>
<path d="M239.6 254.486V263.947H177.59L183.03 254.486H239.6Z" fill="#3D3633"/>
<path d="M204.991 213.15L204.102 217.303L261.123 225.889C261.76 224.96 262.41 224.031 263.047 223.102C263.1 223.023 263.471 222.359 263.591 222.293C263.511 222.399 205.005 213.137 204.991 213.15Z" fill="#002635"/>
<path d="M292.361 249.391C284.226 252.961 274.261 255.455 269.006 256.331C268.993 256.331 268.993 256.331 268.979 256.331C268.382 256.437 267.785 256.504 267.188 256.57C267.015 256.583 266.843 256.597 266.67 256.61C266.219 256.65 265.781 256.676 265.33 256.689C265.171 256.689 265.012 256.703 264.853 256.703C263.658 256.716 262.477 256.65 261.336 256.504C261.256 256.49 261.163 256.477 261.084 256.464C260.566 256.397 260.062 256.305 259.545 256.212C259.465 256.198 259.399 256.185 259.319 256.172C257.541 255.8 255.816 255.256 254.157 254.566V263.961H292.361V249.391Z" fill="#3D3633"/>
<path d="M297.059 176.247C297.059 178.45 298.572 180.241 300.443 180.241C302.314 180.241 303.813 178.45 303.813 176.247C303.813 174.044 302.301 172.253 300.443 172.253C298.572 172.253 297.059 174.044 297.059 176.247Z" fill="#BFBEBE"/>
<path d="M293.184 183.584C292.441 182.709 291.26 182.47 290.57 182.961L297.019 175.477C297.59 174.627 298.519 174.07 299.593 174.07C301.318 174.07 302.725 175.53 302.725 177.321C302.725 178.555 302.048 179.617 301.08 180.174L293.33 186.278C293.94 185.694 293.927 184.473 293.184 183.584Z" fill="black"/>
<path d="M290.172 183.546C290.199 183.479 290.225 183.426 290.252 183.36C290.331 183.214 290.424 183.068 290.544 182.962C290.57 182.935 290.597 182.922 290.636 182.909C291.326 182.418 292.441 182.71 293.184 183.585C293.927 184.461 294.007 185.602 293.41 186.2C293.383 186.226 293.37 186.253 293.343 186.266C293.304 186.306 293.251 186.319 293.198 186.359C293.131 186.399 293.065 186.438 292.985 186.465C292.295 186.73 291.366 186.425 290.716 185.655C290.159 184.992 289.973 184.169 290.172 183.546Z" fill="#BFBEBE"/>
<path d="M292.813 185.735C292.786 185.748 292.76 185.775 292.72 185.788C292.375 185.921 291.765 185.748 291.287 185.191C290.849 184.673 290.769 184.116 290.876 183.784C290.955 183.625 290.995 183.572 291.035 183.545L291.061 183.532C291.393 183.293 292.096 183.466 292.614 184.076C293.131 184.687 293.171 185.403 292.879 185.695L292.813 185.762V185.735Z" fill="#AAAAAA"/>
<path d="M343.238 226.924L308.922 191.838C308.219 191.148 307.197 190.923 306.268 191.254C304.822 191.772 304.158 193.444 304.862 194.811L318.37 221.549C318.702 222.186 318.742 222.929 318.49 223.606L307.436 253.211C307.051 254.22 306.082 254.883 304.994 254.87L237.345 243.259C234.824 243.206 233.762 246.47 235.859 247.903L251.344 265.592C251.663 266.083 252.141 266.454 252.725 266.547C252.817 266.561 252.91 266.574 253.003 266.574L309.851 266.653C310.727 266.706 311.563 266.295 312.067 265.565C312.611 264.597 313.169 263.628 313.713 262.672C315.066 260.297 316.406 257.909 317.76 255.533C319.472 252.508 330.632 231.528 331.72 231.94C339.92 235.071 343.464 227.162 343.238 226.924Z" fill="url(#paint3_linear_109_65932)"/>
<path d="M240.701 239.106C237.716 233.439 233.045 228.636 227.365 225.637C224.884 224.323 222.23 223.354 219.496 222.77C212.729 221.311 205.523 222.054 199.247 225C198.358 225.411 197.495 225.876 196.659 226.38C188.817 231.038 183.283 239.132 181.704 248.116L243.807 259.05C244.324 259.13 244.152 250.571 244.059 249.814C243.608 246.059 242.453 242.436 240.701 239.106Z" fill="url(#paint4_linear_109_65932)"/>
<path d="M237.583 239.173L237.609 239.04C233.695 231.503 226.794 225.624 218.169 223.196C218.076 223.169 217.983 223.143 217.89 223.116C217.466 222.997 217.054 222.891 216.616 222.798C216.285 222.718 215.94 222.652 215.608 222.585C215.422 222.546 215.236 222.506 215.037 222.466C215.024 222.466 215.011 222.466 214.984 222.453C214.971 222.453 214.958 222.439 214.931 222.439C214.745 222.4 214.546 222.386 214.36 222.36C214.015 222.307 213.67 222.254 213.339 222.214C212.901 222.161 212.476 222.121 212.038 222.081C211.945 222.068 211.852 222.068 211.76 222.055C211.521 222.041 211.282 222.028 211.043 222.015C212.343 221.948 213.67 221.948 214.997 222.055C215.09 222.068 215.183 222.068 215.276 222.081C215.714 222.121 216.139 222.161 216.577 222.214C216.922 222.254 217.253 222.307 217.598 222.36C217.784 222.386 217.983 222.413 218.169 222.439C218.182 222.439 218.195 222.453 218.222 222.453C218.235 222.453 218.249 222.453 218.275 222.466C218.461 222.506 218.647 222.546 218.846 222.585C219.191 222.652 219.522 222.718 219.854 222.798C220.279 222.891 220.703 223.01 221.128 223.116C221.221 223.143 221.314 223.169 221.407 223.196C230.032 225.624 236.932 231.503 240.847 239.04L240.82 239.173C243.846 245.078 245.054 251.991 243.819 259.038L240.674 258.48C241.736 251.62 240.529 244.918 237.583 239.173Z" fill="#08341B"/>
<path d="M244.523 258.852L244.443 259.276C243.952 262.05 241.312 263.894 238.538 263.403L184.504 253.968C181.611 253.464 179.687 250.704 180.191 247.824C180.217 247.705 180.324 247.625 180.443 247.652L244.523 258.852Z" fill="#02728E"/>
<path d="M193.449 238.283L226.929 244.002C227.499 244.095 228.03 243.71 228.136 243.153C228.229 242.582 227.844 242.051 227.287 241.945L193.807 236.226C193.236 236.133 192.706 236.518 192.599 237.075C192.507 237.646 192.891 238.177 193.449 238.283Z" fill="#08341B"/>
<path d="M190.781 241.521L224.261 247.241C224.832 247.333 225.362 246.949 225.469 246.391C225.561 245.821 225.177 245.29 224.619 245.184L191.14 239.464C190.569 239.372 190.038 239.756 189.932 240.314C189.839 240.884 190.224 241.428 190.781 241.521Z" fill="#08341B"/>
<path d="M188.074 244.759L221.554 250.478C222.125 250.571 222.655 250.186 222.762 249.629C222.854 249.058 222.47 248.527 221.912 248.421L188.433 242.702C187.862 242.609 187.331 242.994 187.225 243.551C187.132 244.122 187.504 244.653 188.074 244.759Z" fill="#08341B"/>
<path d="M226.33 214.742L226.317 214.835C226.171 215.764 225.282 216.401 224.353 216.255L189.374 210.576C188.418 210.416 187.755 209.514 187.914 208.559C187.914 208.532 187.941 208.519 187.967 208.519L226.33 214.742Z" fill="#D0D2D3"/>
<path d="M221.208 215.75L220.902 217.595C220.663 219.055 219.283 220.05 217.824 219.811C216.364 219.572 215.369 218.192 215.608 216.732L215.913 214.888L221.208 215.75Z" fill="#D0D2D3"/>
<path d="M196.95 211.809L196.644 213.654C196.406 215.113 195.026 216.108 193.566 215.87C192.106 215.631 191.111 214.251 191.35 212.791L191.655 210.947L196.95 211.809Z" fill="#D0D2D3"/>
<path d="M218.301 218.524C217.663 218.524 217.147 218.007 217.147 217.37C217.147 216.732 217.663 216.215 218.301 216.215C218.939 216.215 219.456 216.732 219.456 217.37C219.456 218.007 218.939 218.524 218.301 218.524Z" fill="#3D3633"/>
<path d="M192.89 213.335C192.89 213.972 193.407 214.489 194.044 214.489C194.681 214.489 195.199 213.972 195.199 213.335C195.199 212.698 194.681 212.18 194.044 212.18C193.407 212.194 192.89 212.698 192.89 213.335Z" fill="#3D3633"/>
<path d="M201.78 227.136C201.581 228.357 202.417 229.512 203.638 229.724C204.859 229.923 206.013 229.087 206.226 227.866C206.425 226.645 205.589 225.491 204.368 225.279C203.134 225.08 201.979 225.902 201.78 227.136Z" fill="#D0D2D3"/>
<path d="M203.771 228.317C204.05 228.357 204.342 228.304 204.581 228.131C205.072 227.786 205.178 227.11 204.833 226.619L195.385 213.495C195.04 213.004 194.363 212.898 193.872 213.243C193.381 213.588 193.275 214.264 193.62 214.755L203.068 227.879C203.241 228.118 203.493 228.264 203.771 228.317Z" fill="#F7F2E7"/>
<path d="M181.186 203.397C181.85 199.323 185.327 192.383 198.358 196.258L222.641 205.427C226.357 206.025 228.878 209.528 228.268 213.243L227.963 215.101L186.242 208.241C185.632 208.134 182.965 207.192 182.208 206.383C180.948 205.029 181.186 203.397 181.186 203.397Z" fill="#3D3633"/>
<path d="M305.725 171.882C305.38 171.882 305.049 171.656 304.943 171.311C304.916 171.231 303.032 165.486 300.842 158.041C298.865 151.313 293 152.242 292.748 152.282C292.296 152.362 291.872 152.056 291.792 151.605C291.713 151.154 292.018 150.73 292.469 150.65C292.549 150.637 300.046 149.442 302.435 157.577C304.611 164.995 306.482 170.714 306.508 170.793C306.654 171.231 306.415 171.696 305.978 171.842C305.898 171.868 305.805 171.882 305.725 171.882Z" fill="#E8EBEC"/>
<path d="M290.491 146.788H290.477L292.256 157.032H292.269C292.999 156.9 293.49 156.196 293.37 155.467L292.057 147.89C291.924 147.16 291.221 146.669 290.491 146.788Z" fill="#B8BABB"/>
<path d="M287.663 144.745C287.597 144.758 287.531 144.785 287.464 144.798L290.092 159.912C290.158 159.912 290.224 159.912 290.304 159.899C291.591 159.674 292.467 158.439 292.241 157.139L290.423 146.669C290.198 145.395 288.964 144.519 287.663 144.745Z" fill="#DDDCDB"/>
<path d="M250.838 159.844L250.824 159.804H250.906L250.838 159.844Z" fill="#474759"/>
<path d="M249.963 151.935C251.595 152.081 254.661 152.97 255.483 157.442C255.483 157.442 251.582 155.213 249.539 157.721C249.817 157.19 249.963 156.593 249.963 155.956V151.935Z" fill="#3C5059"/>
<path d="M252.512 159.817C254.648 159.817 256.373 158.092 256.36 155.955L256.347 146.162L248.637 146.175L248.65 155.969C248.65 158.092 250.388 159.817 252.512 159.817Z" fill="#F6BB8F"/>
<path d="M256.36 154.562C255.126 155.013 253.839 155.265 252.498 155.265C251.158 155.265 249.871 155.026 248.637 154.562L248.624 147.754L256.333 147.741L256.36 154.562Z" fill="#F9BA90"/>
<path d="M239.268 128.579C235.738 128.765 234.677 131.432 234.677 135.002C234.677 138.532 236.707 141.411 239.281 141.677L239.268 128.579Z" fill="#F6BB8F"/>
<path d="M239.267 130.783C239.267 130.597 237.555 131.327 237.37 131.433C236.6 131.897 236.109 132.72 235.923 133.583C235.552 135.387 236.388 137.431 237.768 138.612C238.192 138.983 238.696 139.275 239.241 139.448L239.267 139.461C239.267 139.461 239.267 134.233 239.254 131.897C239.267 131.234 239.267 130.796 239.267 130.783Z" fill="#FCCEAE"/>
<path d="M239.268 131.578C239.135 131.552 238.126 131.897 238.033 131.936C236.959 132.374 236.162 133.237 235.924 134.391C235.884 134.564 235.871 134.723 235.857 134.896C235.817 134.458 235.844 134.02 235.924 133.595C236.056 132.932 236.401 132.321 236.892 131.857C237.423 131.353 238.06 131.034 238.763 130.862C238.83 130.848 239.268 130.782 239.268 130.782" fill="#E9AE85"/>
<path d="M265.743 128.553C269.272 128.739 270.334 131.406 270.334 134.976C270.334 138.506 268.304 141.385 265.729 141.651L265.743 128.553Z" fill="#F6BB8F"/>
<path d="M265.743 130.756C265.743 130.57 267.455 131.3 267.641 131.406C268.41 131.871 268.901 132.693 269.087 133.556C269.459 135.361 268.623 137.404 267.242 138.585C266.818 138.957 266.314 139.249 265.77 139.421L265.743 139.435C265.743 139.435 265.743 134.206 265.756 131.871C265.743 131.207 265.743 130.769 265.743 130.756Z" fill="#FCCEAE"/>
<path d="M265.742 131.551C265.875 131.525 266.883 131.87 266.976 131.909C268.051 132.347 268.847 133.21 269.086 134.364C269.126 134.537 269.139 134.696 269.153 134.869C269.192 134.431 269.166 133.993 269.086 133.568C268.954 132.905 268.609 132.294 268.118 131.83C267.587 131.325 266.95 131.007 266.247 130.835C266.18 130.821 265.742 130.755 265.742 130.755" fill="#E9AE85"/>
<path d="M238.035 139.66C238.048 147.357 244.537 153.594 252.526 153.594C260.527 153.58 267.003 147.33 266.99 139.634C266.976 131.937 263.632 117.871 252.486 117.885C240.755 117.898 238.022 131.964 238.035 139.66Z" fill="#F6BB8F"/>
<path d="M265.636 139.952C265.557 135.905 265.304 132.017 264.177 129.442L265.238 131.831C266.485 133.994 266.99 136.661 266.99 139.634C267.003 147.33 260.527 153.58 252.526 153.593C259.771 153.58 265.782 147.476 265.636 139.952Z" fill="#E9AE85"/>
<path d="M240.092 131.42C239.455 133.265 239.388 137.657 239.388 139.979C239.402 147.503 245.28 153.607 252.525 153.594C244.524 153.607 238.035 147.37 238.035 139.661C238.035 137.471 238.26 135.454 238.844 133.676L240.092 131.42Z" fill="#E9AE85"/>
<path d="M238.34 127.545C239.176 121.481 241.816 116.955 247.615 115.39V115.337C248.81 115.045 250.15 114.859 251.636 114.819C251.663 114.819 251.676 114.819 251.702 114.819C251.955 114.806 252.22 114.806 252.485 114.806C252.499 114.806 252.499 114.806 252.512 114.806C252.525 114.806 252.525 114.806 252.538 114.806C252.804 114.806 253.069 114.806 253.321 114.819C253.348 114.819 253.361 114.819 253.388 114.819C254.874 114.872 256.214 115.045 257.408 115.337V115.39C263.194 116.955 265.848 121.481 266.671 127.545C266.936 128.553 267.759 132.203 267.175 136.781C267.135 137.086 266.697 137.126 266.604 136.834L265.118 131.566C264.587 131.512 261.721 122.277 261.721 122.277C261.721 122.277 261.708 122.277 261.695 122.29C261.363 119.795 255.922 119.517 253.905 119.57C251.769 119.623 249.606 119.901 247.721 120.963C245.519 122.21 244.205 124.387 243.064 126.576C242.905 126.55 242.759 126.51 242.613 126.47C242.613 126.47 240.397 131.512 239.879 131.566L238.393 136.834C238.3 137.139 237.862 137.099 237.822 136.781C237.252 132.203 238.074 128.553 238.34 127.545Z" fill="#31312F"/>
<path d="M265.463 121.387C264.362 113.877 255.497 111.793 249.075 112.762C247.084 113.067 245.107 113.771 243.541 115.058C242.785 115.681 242.135 116.438 241.63 117.287C241.352 117.751 241.126 118.242 240.94 118.76C240.874 118.959 240.622 120.286 240.502 120.339C240.502 120.339 236.402 122.051 238.233 133.357C238.233 133.357 244.165 133.025 244.165 124.493C244.165 124.785 249.99 125.528 250.548 125.594C254.051 126.072 257.554 125.912 261.018 125.315C262.106 125.13 262.849 125.833 263.512 126.642C263.963 127.2 264.242 127.916 264.136 128.619C264.202 128.182 264.654 127.611 264.826 127.173C265.038 126.629 265.198 126.072 265.33 125.501C265.622 124.161 265.662 122.754 265.463 121.387Z" fill="#31312F"/>
<path d="M237.557 150.635C237.557 150.635 239.787 151.763 242.427 148.817C242.427 148.817 242.998 147.875 242.056 145.234L240.172 135.242C240.172 135.242 240.238 133.543 239.601 132.827C239.601 132.827 235.952 132.283 234.89 132.787C234.89 132.787 234.452 136.37 235.713 142.726C235.713 142.713 236.96 149.759 237.557 150.635Z" fill="#0B0909"/>
<path d="M266.765 150.582C266.765 150.582 264.084 150.98 261.696 149.72C261.696 149.72 260.528 148.738 260.939 147.835C262.744 143.894 262.956 131.951 264.695 131.712C264.695 131.712 268.782 131.394 269.1 132.217C269.1 132.217 269.79 135.866 268.476 142.408C268.463 142.408 267.773 147.119 266.765 150.582Z" fill="#0D0C0C"/>
<path d="M234.889 132.907L234.785 132.906L234.771 132.803C234.546 131.092 235.257 129.863 236.023 129.067C236.405 128.669 236.802 128.378 237.105 128.187C237.256 128.091 237.384 128.02 237.476 127.972C237.522 127.949 237.56 127.931 237.586 127.918C237.599 127.912 237.611 127.907 237.619 127.904C237.623 127.902 237.628 127.9 237.632 127.899C237.632 127.899 237.632 127.899 237.632 127.899C238.195 127.629 239.024 127.377 239.944 127.152C240.871 126.924 241.898 126.721 242.854 126.552C243.811 126.383 244.699 126.246 245.348 126.152C245.672 126.106 245.937 126.069 246.12 126.045C246.212 126.032 246.284 126.023 246.332 126.017L246.388 126.009L246.402 126.008L246.405 126.007L246.406 126.007L246.407 126.007L246.422 126.126L246.407 126.007L246.41 126.007C248.681 125.787 251.674 125.834 254.095 125.935C255.306 125.986 256.376 126.05 257.143 126.102C257.526 126.127 257.834 126.15 258.046 126.166C258.152 126.174 258.234 126.181 258.29 126.185L258.353 126.191L258.369 126.192L258.373 126.192L258.374 126.192L258.374 126.192L258.364 126.312L258.375 126.192L258.377 126.193C261.466 126.512 263.754 127.145 265.273 127.699C266.032 127.976 266.598 128.233 266.976 128.421C267.165 128.516 267.306 128.593 267.401 128.647C267.448 128.673 267.484 128.695 267.508 128.709L267.535 128.726L267.54 128.728C268.457 129.19 268.877 130.077 269.07 130.83C269.167 131.209 269.207 131.559 269.224 131.815C269.232 131.943 269.234 132.047 269.235 132.12C269.235 132.156 269.234 132.185 269.234 132.204L269.233 132.227L269.233 132.233L269.233 132.235L269.233 132.235L269.233 132.236C269.233 132.236 269.233 132.236 269.113 132.23L269.233 132.236L269.227 132.364L269.099 132.349L264.694 131.845L264.639 131.839L264.608 131.793C263.771 130.55 262.858 129.887 262.159 129.534C261.809 129.357 261.511 129.258 261.303 129.203C261.199 129.176 261.117 129.159 261.062 129.15C261.034 129.145 261.013 129.142 261 129.14L260.985 129.139L260.981 129.138L260.981 129.138L260.981 129.139L260.971 129.137C257.171 128.475 253.608 128.269 250.995 128.23C249.688 128.21 248.619 128.231 247.878 128.258C247.507 128.271 247.218 128.286 247.021 128.297C246.923 128.302 246.848 128.307 246.798 128.31L246.741 128.314L246.727 128.315L246.724 128.316L246.723 128.316L246.723 128.316L246.714 128.196L246.723 128.316L246.716 128.316C244.386 128.369 243.004 128.771 242.209 129.153C241.812 129.344 241.56 129.531 241.41 129.666C241.335 129.734 241.285 129.789 241.255 129.826C241.242 129.841 241.233 129.853 241.227 129.862C240.992 131.135 240.61 131.899 240.28 132.348C240.113 132.574 239.96 132.719 239.846 132.809C239.789 132.854 239.742 132.885 239.708 132.905C239.691 132.915 239.678 132.923 239.668 132.928L239.656 132.934L239.652 132.936L239.651 132.936L239.65 132.937L239.65 132.937C239.65 132.937 239.65 132.937 239.601 132.827L239.65 132.937L239.626 132.947L239.6 132.947L234.889 132.907Z" fill="#1B1514" stroke="#BDE7F2" stroke-width="0.239758"/>
<path d="M267.697 151.22L267.699 151.22L267.708 151.219C267.715 151.219 267.723 151.218 267.734 151.216C267.754 151.213 267.781 151.206 267.813 151.194C267.878 151.17 267.96 151.125 268.049 151.041C268.225 150.874 268.422 150.559 268.565 149.963L269.611 146.467L269.611 146.466L269.613 146.462L269.619 146.443C269.625 146.427 269.634 146.402 269.645 146.369C269.666 146.304 269.698 146.207 269.738 146.079C269.818 145.825 269.93 145.45 270.059 144.968C270.317 144.003 270.645 142.608 270.923 140.881C271.478 137.429 271.834 132.653 271.036 127.356C271.036 127.356 271.036 127.356 271.036 127.356L271.036 127.356L271.036 127.354L271.035 127.348L271.031 127.324C271.028 127.302 271.023 127.271 271.016 127.23C271.002 127.148 270.981 127.028 270.952 126.873C270.893 126.564 270.801 126.118 270.668 125.57C270.402 124.475 269.97 122.97 269.307 121.331C267.983 118.057 265.731 114.234 262.023 112.091L262.019 112.088L262.001 112.077C261.985 112.067 261.962 112.052 261.931 112.033C261.87 111.996 261.779 111.941 261.659 111.874C261.421 111.739 261.07 111.551 260.617 111.339C259.712 110.914 258.402 110.393 256.778 110.001C253.53 109.219 249.025 108.959 244.001 111.047L244 111.047L244 111.047L243.996 111.049L243.977 111.056C243.961 111.063 243.938 111.073 243.907 111.085C243.845 111.111 243.756 111.15 243.641 111.202C243.411 111.306 243.082 111.464 242.682 111.678C241.881 112.105 240.797 112.758 239.659 113.66C237.385 115.462 234.89 118.264 234.031 122.257L234.027 122.269C234.023 122.28 234.017 122.294 234.011 122.312C234.009 122.318 234.006 122.324 234.004 122.331C233.984 122.386 233.955 122.467 233.92 122.574C233.848 122.787 233.749 123.104 233.638 123.516C233.414 124.34 233.139 125.547 232.931 127.086C232.517 130.162 232.374 134.562 233.459 139.858L233.459 139.859L235.435 149.09L235.436 149.094L235.439 149.119C235.442 149.14 235.447 149.171 235.453 149.21C235.466 149.288 235.486 149.399 235.513 149.53C235.568 149.793 235.655 150.141 235.781 150.479C235.907 150.814 236.076 151.151 236.302 151.382C236.532 151.617 236.83 151.748 237.191 151.64L237.195 151.639C237.201 151.638 237.208 151.636 237.216 151.633C237.233 151.627 237.256 151.618 237.282 151.605C237.334 151.578 237.4 151.533 237.465 151.459C237.595 151.311 237.704 151.06 237.69 150.645L237.69 150.631L237.686 150.617L237.57 150.649C237.686 150.617 237.686 150.617 237.686 150.617L237.686 150.616L237.685 150.614L237.682 150.604L237.672 150.565C237.662 150.531 237.649 150.48 237.631 150.413C237.595 150.279 237.543 150.082 237.478 149.831C237.348 149.327 237.167 148.605 236.962 147.726C236.55 145.97 236.041 143.594 235.648 141.114C235.256 138.633 234.981 136.052 235.037 133.885C235.064 132.802 235.175 131.826 235.392 131.02C235.61 130.212 235.933 129.586 236.376 129.188L236.382 129.183L236.382 129.183L236.382 129.182L236.387 129.177C236.392 129.173 236.399 129.166 236.41 129.157C236.43 129.138 236.463 129.11 236.509 129.073C236.6 129 236.743 128.894 236.949 128.765C237.36 128.506 238.02 128.156 239.008 127.796C240.984 127.077 244.271 126.319 249.502 126.18C249.503 126.18 249.503 126.18 249.503 126.18L249.504 126.18L249.509 126.18L249.533 126.179L249.625 126.179C249.707 126.178 249.827 126.177 249.982 126.178C250.293 126.178 250.744 126.181 251.304 126.194C252.423 126.218 253.978 126.278 255.72 126.42C259.209 126.703 263.431 127.313 266.411 128.611L266.418 128.615L267.697 151.22ZM267.697 151.22C267.697 151.22 267.697 151.22 267.697 151.22C267.407 151.23 267.193 151.171 267.039 151.061C266.885 150.95 266.807 150.799 266.77 150.653C266.734 150.509 266.738 150.367 266.749 150.264C266.754 150.212 266.762 150.168 266.769 150.137C266.772 150.122 266.775 150.109 266.777 150.1L266.779 150.093L267.229 147.273L267.229 147.273L267.232 147.262C267.986 144.343 268.407 141.496 268.638 139.378C268.754 138.319 268.823 137.443 268.863 136.832C268.883 136.526 268.895 136.287 268.903 136.124C268.907 136.043 268.909 135.981 268.911 135.939L268.913 135.892L268.913 135.88L268.913 135.877L268.913 135.876L268.913 135.876L269.033 135.88L268.913 135.876L268.914 135.868C269.237 132.67 268.596 130.856 267.891 129.846C267.539 129.34 267.168 129.031 266.887 128.85C266.747 128.759 266.629 128.7 266.548 128.664C266.507 128.646 266.475 128.634 266.454 128.626C266.443 128.623 266.436 128.62 266.431 128.618L266.426 128.617L266.425 128.617L266.425 128.617L266.425 128.617L267.697 151.22Z" fill="url(#paint5_linear_109_65932)" stroke="#BDE7F2" stroke-width="0.239758"/>
<path d="M245.239 140.816C246.274 140.75 247.309 140.365 248.211 139.648C249.299 138.786 250.029 137.645 250.56 136.371C250.746 135.92 250.905 135.468 251.078 135.017C251.184 134.739 251.343 134.487 251.569 134.287C251.847 134.035 252.232 134.035 252.511 134.287C252.736 134.487 252.895 134.739 253.002 135.017C253.227 135.601 253.426 136.198 253.692 136.769C254.196 137.884 254.886 138.879 255.855 139.648C256.624 140.259 257.5 140.644 258.482 140.776C259.796 140.949 260.897 140.471 261.813 139.556C262.304 139.065 262.609 138.454 262.901 137.844C263.073 137.472 263.246 137.087 263.418 136.716C263.511 136.504 263.671 136.358 263.883 136.265C264.042 136.212 264.095 136.079 264.108 135.92C264.135 135.694 264.162 135.468 264.188 135.23C264.228 134.924 264.188 134.818 263.909 134.712C263.578 134.593 263.379 134.354 263.246 134.035C263.166 133.823 263.047 133.624 262.954 133.425C262.622 132.682 262.065 132.217 261.322 131.912C260.698 131.66 260.061 131.541 259.411 131.474C257.646 131.288 255.881 131.328 254.116 131.328C253.532 131.328 252.935 131.328 252.351 131.328C251.675 131.328 250.985 131.328 250.308 131.328C248.994 131.328 247.68 131.328 246.367 131.355C245.464 131.368 244.549 131.434 243.66 131.633C243.129 131.753 242.625 131.952 242.16 132.217C241.656 132.509 241.351 132.96 241.099 133.465C240.966 133.73 240.833 133.996 240.714 134.261C240.634 134.42 240.528 134.54 240.356 134.606C240.249 134.646 240.156 134.699 240.064 134.739C239.931 134.805 239.865 134.911 239.878 135.057C239.904 135.362 239.944 135.654 239.971 135.959C239.997 136.119 240.103 136.212 240.236 136.265C240.422 136.344 240.555 136.49 240.634 136.663C240.846 137.114 241.046 137.565 241.258 138.003C241.563 138.627 241.908 139.224 242.426 139.702C243.195 140.418 244.084 140.803 245.239 140.816ZM252.02 131.872C252.63 131.872 253.254 131.872 253.864 131.872C253.931 131.872 254.023 131.912 254.05 131.952C254.103 132.032 254.023 132.098 253.957 132.151C253.599 132.443 253.333 132.801 253.161 133.226C253.108 133.359 253.068 133.478 253.028 133.611C252.935 133.863 252.856 133.889 252.63 133.743C252.604 133.717 252.564 133.704 252.537 133.677C252.192 133.491 251.847 133.478 251.502 133.677C251.144 133.889 251.104 133.876 250.971 133.491C250.799 132.96 250.533 132.496 250.096 132.138C250.042 132.098 249.989 132.005 250.003 131.952C250.016 131.846 250.122 131.859 250.215 131.859C250.825 131.872 251.423 131.872 252.02 131.872Z" fill="black"/>
<path d="M262.371 131.739C262.371 131.739 259.08 128.276 254.277 131.195C254.277 131.195 258.576 129.735 262.371 131.739Z" fill="black"/>
<path d="M241.671 131.301C241.671 131.301 244.961 127.838 249.765 130.757C249.765 130.757 245.466 129.297 241.671 131.301Z" fill="black"/>
<path d="M257.169 145.526C257.169 145.526 252.14 149.985 245.757 145.314C245.757 145.314 251.609 147.875 257.169 145.526Z" fill="#EE3D3C"/>
<path d="M256.135 172.012L260.938 167.739C261.337 167.381 261.934 167.368 262.358 167.686L266.193 170.645C266.379 170.791 266.618 170.871 266.857 170.871L291.724 171.256L296.939 171.428C296.807 172.397 296.674 173.379 296.541 174.348C296.621 173.737 296.701 173.127 296.793 172.516C296.754 172.782 296.727 173.047 296.687 173.326C296.502 174.016 296.435 174.706 296.462 175.383C296.011 175.86 295.652 176.444 296.157 177.081C296.833 177.917 296.05 179.125 295.015 178.859L293.954 178.581C293.834 178.554 293.715 178.501 293.609 178.421L291.432 176.948C291.22 176.802 290.955 176.736 290.703 176.763L266.525 179.151C266.299 179.178 266.074 179.125 265.888 179.019L256.36 173.803C255.657 173.445 255.551 172.516 256.135 172.012Z" fill="#FBC199"/>
<path d="M256.135 172.012L260.939 167.739C261.337 167.381 261.934 167.368 262.358 167.686L266.193 170.645C266.379 170.791 266.618 170.871 266.857 170.871L291.725 171.256L297.072 171.428C296.82 172.078 296.714 172.768 296.741 173.498C296.674 174.095 296.608 174.693 296.541 175.29C296.13 175.582 295.719 175.847 295.268 176.073C294.697 176.325 294.113 176.378 293.489 176.378C292.826 176.365 292.149 176.444 291.512 176.643C291.366 176.683 291.22 176.736 291.074 176.789C290.942 176.749 290.809 176.736 290.676 176.749L266.499 179.138C266.273 179.164 266.047 179.111 265.862 179.005L256.334 173.79C255.657 173.445 255.551 172.516 256.135 172.012Z" fill="#E9AE85"/>
<path d="M250.787 172.065C253.083 174.427 261.828 177.904 261.828 177.904C261.828 177.904 285.833 178.926 287.664 176.551C287.969 176.152 290.716 171.933 289.495 170.672C286.47 167.54 264.654 168.005 264.654 168.005C264.774 167.846 262.266 165.072 262.013 164.793C260.063 162.551 257.926 160.229 255.538 158.437C253.003 156.54 249.58 155.544 247.191 158.278C243.25 162.723 247.509 168.682 250.787 172.065Z" fill="#006079"/>
<path d="M289.481 170.62L290.662 170.806C290.742 170.819 290.808 170.899 290.795 170.979C290.728 171.708 290.397 174.853 289.136 176.432C288.977 176.631 288.698 176.724 288.446 176.658C288.194 176.592 287.862 176.539 287.636 176.645C287.65 176.645 289.415 172.558 289.481 170.62Z" fill="url(#paint6_linear_109_65932)"/>
<path d="M289.999 170.7C289.999 170.7 289.083 175.278 288.048 176.592L288.38 176.645C288.38 176.645 289.76 174.84 290.277 170.74L289.999 170.7Z" fill="url(#paint7_linear_109_65932)"/>
<path d="M259.279 170.527L263.114 173.486C263.299 173.632 263.538 173.712 263.777 173.712L288.645 174.097L297.469 174.389C297.867 174.402 298.226 174.627 298.411 174.986L299.818 177.679C299.951 177.932 299.977 178.237 299.898 178.515L299.579 179.604C299.3 180.546 297.244 181.156 296.766 180.294L295.532 178.078C295.359 177.759 295.028 177.547 294.669 177.52C294.218 177.48 293.926 177.706 293.608 177.998C293.05 178.502 292.466 179.192 293.064 179.922C293.74 180.758 292.957 181.966 291.922 181.7L290.861 181.422C290.741 181.395 290.622 181.342 290.516 181.262L288.34 179.789C288.127 179.643 287.862 179.577 287.61 179.604L263.432 181.992C263.207 182.019 262.981 181.966 262.795 181.859L253.267 176.644C252.591 176.273 252.485 175.357 253.068 174.84L257.872 170.567C258.257 170.222 258.854 170.209 259.279 170.527Z" fill="#FBC199"/>
<path d="M281.559 241.137H270.266L268.886 249.218H281.559V241.137Z" fill="#262A65"/>
<path d="M281.015 243.153C281.095 243.14 281.174 243.14 281.254 243.14C281.254 243.14 291.18 242.49 291.75 246.059V248.793H283.682H278.335V246.059C278.335 244.52 279.516 243.273 281.015 243.153Z" fill="white"/>
<path d="M277.154 246.537C277.287 246.537 277.393 246.431 277.393 246.298C277.393 244.918 278.468 243.75 279.834 243.644C279.914 243.644 279.98 243.631 280.06 243.631H282.395C282.528 243.631 282.634 243.525 282.634 243.392C282.634 243.259 282.528 243.153 282.395 243.153H280.06C279.967 243.153 279.887 243.153 279.795 243.166C278.176 243.299 276.902 244.679 276.902 246.311C276.915 246.431 277.021 246.537 277.154 246.537Z" fill="white"/>
<path d="M275.415 246.537C275.548 246.537 275.654 246.431 275.654 246.298C275.654 244.918 276.729 243.75 278.096 243.644C278.175 243.644 278.242 243.631 278.321 243.631H280.657C280.789 243.631 280.896 243.525 280.896 243.392C280.896 243.259 280.789 243.153 280.657 243.153H278.321C278.228 243.153 278.149 243.153 278.056 243.166C276.437 243.299 275.163 244.679 275.163 246.311C275.176 246.431 275.282 246.537 275.415 246.537Z" fill="white"/>
<path d="M268.886 248.779H278.334H283.682H291.75H292.241V251.818H291.564H283.496H278.533H269.085H268.528V248.779H268.886Z" fill="#262A65"/>
<path d="M247.443 154.457C247.398 154.472 247.398 154.472 247.443 154.457V154.457Z" fill="#F8A264"/>
<path d="M261.333 154.444C261.377 154.474 261.377 154.474 261.333 154.444V154.444Z" fill="#F8A264"/>
<path d="M254.409 154.456C254.364 154.471 254.349 154.471 254.409 154.456V154.456Z" fill="#F8A264"/>
<path d="M254.365 154.444C254.41 154.474 254.41 154.474 254.365 154.444V154.444Z" fill="#F8A264"/>
<path d="M235.434 207.204C238.061 210.893 241.498 213.255 246.09 213.826C251.132 214.45 256.188 213.136 261.111 212.26C263.991 211.756 272.165 210.243 275.044 209.739L270.519 241.095H281.573C284.36 229.697 287.16 220.381 289.946 208.982C290.477 206.793 291.021 204.59 291.565 202.401C292.123 200.118 291.578 197.252 290.145 195.301C288.301 192.793 263.791 194.12 257.382 194.12C257.382 194.12 246.408 194.12 246.063 194.12C245.041 194.12 241.538 199.693 240.874 200.503C239.057 202.732 237.252 204.975 235.434 207.204Z" fill="#28140C"/>
<path d="M234.995 206.382C237.371 210.243 240.648 212.818 245.2 213.68C250.189 214.622 255.312 213.654 260.288 213.11C263.194 212.791 268.223 211.822 271.129 211.504L264.561 242.502L275.588 243.232C279.118 232.046 282.515 222.929 286.044 211.743C286.721 209.593 287.411 207.43 288.088 205.28C288.791 203.038 288.433 200.145 287.133 198.101C285.461 195.487 264.149 195.195 257.753 194.771C257.753 194.771 246.792 194.054 246.461 194.028C245.426 193.948 236.946 204.272 234.995 206.382Z" fill="#4A260F"/>
<path d="M258.708 177.082C258.708 177.082 262.557 158.146 251.012 153.847C239.467 149.547 227.246 183.624 235.447 207.204C235.447 207.204 250.176 194.81 257.382 194.12C257.368 194.12 255.842 185.601 258.708 177.082Z" fill="url(#paint8_linear_109_65932)"/>
<path d="M248.518 159.42C253.136 159.605 258.258 172.875 258.444 173.379L259.081 174.507C258.908 176.086 258.709 177.082 258.709 177.082C257.541 180.558 257.103 184.022 256.997 186.928L253.892 185.11C253.892 185.11 247.974 181.381 243.608 174.043C239.242 166.705 241.604 159.154 248.518 159.42Z" fill="#1A6D81"/>
<path d="M235.102 202.72C234.837 202.919 234.558 203.118 234.293 203.33C234.625 204.644 234.996 205.944 235.434 207.205C235.434 207.205 250.164 194.811 257.369 194.121C257.369 194.121 257.236 193.126 257.183 192.741C249.434 194.917 241.671 197.903 235.102 202.72Z" fill="#002635"/>
<path d="M276.146 241.826H264.866L263.486 249.921H276.146V241.826Z" fill="#2E4099"/>
<path d="M275.6 243.843C275.68 243.83 275.759 243.83 275.839 243.83C275.839 243.83 285.765 243.179 286.335 246.749V249.483H278.267H272.92V246.749C272.933 245.223 274.114 243.962 275.6 243.843Z" fill="white"/>
<path d="M271.752 247.227C271.884 247.227 271.99 247.121 271.99 246.988C271.99 245.608 273.065 244.44 274.432 244.334C274.512 244.334 274.578 244.321 274.658 244.321H276.993C277.126 244.321 277.232 244.215 277.232 244.082C277.232 243.949 277.126 243.843 276.993 243.843H274.658C274.565 243.843 274.485 243.843 274.392 243.856C272.773 243.989 271.499 245.369 271.499 247.001C271.513 247.121 271.619 247.227 271.752 247.227Z" fill="white"/>
<path d="M270.014 247.227C270.146 247.227 270.253 247.121 270.253 246.988C270.253 245.608 271.327 244.44 272.694 244.334C272.774 244.334 272.84 244.321 272.92 244.321H275.255C275.388 244.321 275.494 244.215 275.494 244.082C275.494 243.949 275.388 243.843 275.255 243.843H272.92C272.827 243.843 272.747 243.843 272.654 243.856C271.035 243.989 269.762 245.369 269.762 247.001C269.762 247.121 269.881 247.227 270.014 247.227Z" fill="white"/>
<path d="M263.485 249.482H272.934H278.281H286.349H286.84V252.508H286.164H278.082H273.133H263.671H263.114V249.482H263.485Z" fill="#262A65"/>
<path d="M256.97 158.849L244.43 155.452V153.024C244.43 153.024 253.003 151.843 256.97 158.849Z" fill="url(#paint9_linear_109_65932)"/>
<path d="M253.055 174.84L257.859 170.567C258.257 170.209 258.854 170.196 259.279 170.514L263.114 173.487C263.299 173.633 263.538 173.712 263.777 173.712L288.645 174.097L297.469 174.389C297.867 174.402 298.226 174.628 298.411 174.986L299.818 177.68C299.951 177.932 299.977 178.237 299.898 178.516L299.579 179.604C299.3 180.546 297.244 181.157 296.766 180.294L295.24 178.383C294.948 178.025 294.629 177.759 294.138 177.826C293.886 177.852 293.701 177.972 293.502 178.131C293.09 178.436 292.666 178.702 292.201 178.94C291.63 179.193 291.047 179.246 290.423 179.246C289.759 179.232 289.083 179.312 288.446 179.511C288.3 179.551 288.154 179.604 288.008 179.657C287.875 179.617 287.742 179.604 287.61 179.617L263.432 182.006C263.207 182.032 262.981 181.979 262.795 181.873L253.267 176.658C252.591 176.273 252.485 175.358 253.055 174.84Z" fill="#FBC199"/>
<path d="M247.788 174.64C250.084 177.002 258.537 182.788 262.571 182.894C265.583 182.974 286.058 181.302 287.186 179.789C288.381 178.197 289.071 174.879 288.964 173.751C288.845 172.384 263.287 172.862 263.287 172.862C263.407 172.703 259.24 167.634 259.001 167.355C257.05 165.113 254.914 162.79 252.525 160.999C249.991 159.101 246.567 158.106 244.179 160.84C240.264 165.312 244.511 171.27 247.788 174.64Z" fill="#05ABD4"/>
<path d="M288.977 173.751L290.171 173.924C290.251 173.937 290.317 174.017 290.304 174.096C290.251 174.826 289.946 177.971 288.685 179.564C288.526 179.763 288.26 179.855 287.995 179.789C287.743 179.723 287.398 179.67 287.186 179.789C287.186 179.789 288.911 175.689 288.977 173.751Z" fill="url(#paint10_linear_109_65932)"/>
<path d="M289.495 173.817C289.495 173.817 288.619 178.409 287.597 179.722L287.929 179.776C287.929 179.776 289.282 177.958 289.773 173.857L289.495 173.817Z" fill="url(#paint11_linear_109_65932)"/>
<path d="M244.961 172.995C244.961 172.995 239.719 187.035 244.483 200.371" stroke="#002635" stroke-width="0.654308" stroke-miterlimit="10"/>
<path d="M245.358 194.87L251.104 184.918L252.161 185.529L246.415 195.481L245.358 194.87Z" fill="#002635"/>
<path d="M240.011 146.336C240.011 146.336 250.906 153.342 250.76 155.386C250.76 155.386 249.831 156.222 248.079 154.855C248.079 154.855 242.612 150.25 240.953 149.719L240.011 146.336Z" fill="#0B0909"/>
<path d="M263.963 144.995C263.963 144.995 254.568 150.622 253.347 152.4C253.347 152.4 250.162 155.545 254.223 154.775C254.223 154.775 262.57 149.852 263.459 148.578L263.963 144.995Z" fill="#0B0909"/>
<path d="M260.513 149.202L259.863 149.507L259.664 150.821L255.709 153.342L255.55 154.218C255.55 154.218 252.405 156.301 248.743 153.807C248.743 153.807 246.845 151.405 244.868 151.219C244.868 151.219 242.493 150.436 242.453 152.002C242.453 152.002 242.134 153.037 244.231 154.218C244.231 154.218 248.066 156.554 250.999 156.434C250.999 156.434 255.55 156.806 258.098 155.346C258.098 155.346 260.394 154.563 260.115 153.316C260.115 153.316 259.836 152.878 258.337 153.594C258.337 153.594 260.075 152.374 259.943 151.166L260.672 150.755L260.513 149.202Z" fill="#282321"/>
<path d="M256.324 155.727C256.248 155.552 256.921 155.09 257.828 154.694C258.735 154.299 259.532 154.12 259.608 154.295C259.684 154.469 259.011 154.932 258.104 155.327C257.197 155.722 256.4 155.901 256.324 155.727Z" fill="#0B0909"/>
<path d="M247.23 152.585L246.513 151.179L245.664 150.741L243.037 152.36C243.037 152.36 242.572 152.93 243.249 153.514L243.461 152.466L245.598 151.086L245.956 151.245L244.072 152.891C244.072 152.891 243.461 153.66 244.218 154.271C244.218 154.271 244.284 154.682 244.749 154.549C244.749 154.549 244.005 153.368 244.496 153.09L245.916 151.856L246.951 152.731L247.23 152.585Z" fill="#0B0909"/>
<path opacity="0.4" d="M269.034 128.143C269.034 128.143 252.075 120.062 234.121 128.143L234.479 134.008C234.479 134.008 238.102 144.027 238.805 147.902C238.805 147.902 250.602 152.4 265.252 147.902C265.252 147.902 266.566 138.746 269.299 133.889L269.034 128.143Z" fill="white"/>
<g opacity="0.5">
<path d="M268.981 128.236C268.398 127.957 267.787 127.731 267.177 127.506C265.558 126.909 263.899 126.418 262.227 126.006C259.786 125.409 257.304 125.011 254.796 124.812C251.757 124.573 248.705 124.626 245.68 125.011C242.19 125.462 238.766 126.351 235.502 127.678C235.064 127.864 234.626 128.05 234.188 128.249C234.201 128.222 234.228 128.183 234.241 128.156C234.307 129.284 234.374 130.399 234.44 131.527C234.48 132.19 234.52 132.867 234.56 133.53C234.573 133.69 234.573 133.836 234.586 133.995C234.586 134.048 234.586 133.981 234.586 134.008C234.599 134.035 234.599 134.061 234.613 134.088C234.971 135.096 235.329 136.105 235.674 137.113C236.285 138.891 236.882 140.669 237.439 142.461C237.957 144.106 238.461 145.752 238.819 147.437C238.846 147.596 238.886 147.742 238.912 147.902C238.886 147.875 238.859 147.848 238.832 147.822C239.257 147.981 239.682 148.114 240.106 148.233C241.274 148.578 242.468 148.844 243.663 149.069C245.467 149.401 247.312 149.627 249.143 149.733C251.452 149.865 253.774 149.839 256.083 149.627C258.817 149.374 261.511 148.87 264.151 148.14C264.51 148.034 264.868 147.941 265.226 147.822C265.2 147.848 265.173 147.875 265.147 147.902C265.253 147.132 265.399 146.375 265.531 145.619C265.863 143.881 266.248 142.156 266.712 140.444C267.23 138.533 267.84 136.635 268.69 134.857C268.782 134.645 268.889 134.446 268.995 134.247C269.048 134.154 269.088 134.061 269.141 133.968C269.154 133.955 269.181 133.889 269.181 133.928V133.915C269.207 133.809 269.167 133.65 269.167 133.544C269.141 132.946 269.114 132.363 269.088 131.765C269.035 130.598 268.955 129.417 268.928 128.249C268.928 128.222 268.928 128.196 268.928 128.183C268.928 128.037 269.141 128.037 269.154 128.183C269.207 129.204 269.247 130.213 269.3 131.235C269.327 131.898 269.366 132.562 269.393 133.225C269.406 133.424 269.406 133.61 269.419 133.809C269.419 133.849 269.433 133.889 269.419 133.928C269.406 134.048 269.3 134.181 269.247 134.287C268.331 136.025 267.694 137.896 267.15 139.78C266.646 141.559 266.221 143.35 265.863 145.168C265.744 145.792 265.624 146.402 265.518 147.026C265.465 147.331 265.438 147.636 265.372 147.941C265.372 147.955 265.372 147.968 265.372 147.981C265.372 148.021 265.332 148.047 265.292 148.061C262.519 148.91 259.666 149.494 256.787 149.799C254.332 150.065 251.863 150.131 249.409 149.998C247.484 149.892 245.56 149.666 243.663 149.321C242.415 149.096 241.181 148.804 239.96 148.446C239.655 148.353 239.337 148.26 239.032 148.154C238.965 148.127 238.886 148.101 238.819 148.074C238.7 148.034 238.687 147.928 238.673 147.795C238.368 146.203 237.877 144.637 237.413 143.085C236.869 141.32 236.285 139.568 235.701 137.816C235.316 136.675 234.918 135.521 234.507 134.38C234.453 134.234 234.4 134.101 234.387 133.955C234.361 133.464 234.334 132.973 234.294 132.482C234.215 131.142 234.135 129.788 234.055 128.448C234.055 128.355 234.042 128.262 234.042 128.183C234.042 128.143 234.069 128.103 234.095 128.09C237.373 126.617 240.849 125.582 244.406 125.011C247.498 124.52 250.643 124.374 253.774 124.56C256.362 124.706 258.923 125.077 261.458 125.635C263.275 126.046 265.067 126.55 266.819 127.174C267.336 127.36 267.854 127.559 268.371 127.771C268.61 127.864 268.862 127.957 269.088 128.076C269.101 128.076 269.101 128.09 269.114 128.09C269.22 128.116 269.101 128.302 268.981 128.236Z" fill="#059ABF"/>
</g>
<path d="M268.371 130.815C268.251 128.429 268.545 126.475 269.029 126.451C269.512 126.426 270 128.341 270.12 130.727C270.24 133.113 269.946 135.067 269.463 135.091C268.98 135.115 268.491 133.201 268.371 130.815Z" fill="#1F1B1A" stroke="#808083" stroke-width="0.0636742" stroke-miterlimit="10"/>
<path d="M269.29 130.851C269.189 128.838 269.338 127.195 269.624 127.18C269.909 127.166 270.223 128.786 270.324 130.799C270.425 132.812 270.275 134.455 269.99 134.469C269.705 134.484 269.391 132.864 269.29 130.851Z" fill="#1F1B1A" stroke="#808083" stroke-width="0.0449386" stroke-miterlimit="10"/>
<path d="M269.457 134.38C269.444 134.367 269.444 134.367 269.431 134.314C269.298 133.862 268.728 131.66 269.112 127.387C269.112 127.36 269.126 127.334 269.126 127.294C269.139 127.267 269.139 127.267 269.179 127.227C269.258 127.174 269.431 127.095 269.696 127.161C269.696 127.161 269.325 132.588 270.001 134.406C270.001 134.406 270.001 134.486 269.975 134.486C269.802 134.499 269.603 134.433 269.51 134.406C269.471 134.406 269.471 134.393 269.457 134.38Z" fill="#808083"/>
<path d="M234.664 135.09C234.181 135.065 233.887 133.111 234.007 130.725C234.127 128.339 234.615 126.425 235.098 126.449C235.582 126.473 235.876 128.427 235.756 130.813C235.636 133.199 235.147 135.114 234.664 135.09Z" fill="#1F1B1A" stroke="#808083" stroke-width="0.0636742" stroke-miterlimit="10"/>
<path d="M234.128 134.467C233.842 134.453 233.693 132.809 233.794 130.797C233.895 128.784 234.208 127.164 234.494 127.178C234.779 127.192 234.929 128.836 234.828 130.849C234.726 132.861 234.413 134.481 234.128 134.467Z" fill="#1F1B1A" stroke="#808083" stroke-width="0.0449386" stroke-miterlimit="10"/>
<path d="M234.664 134.38C234.677 134.366 234.677 134.366 234.69 134.313C234.823 133.862 235.394 131.659 235.009 127.386C235.009 127.36 234.996 127.333 234.996 127.294C234.982 127.267 234.982 127.267 234.942 127.227C234.863 127.174 234.69 127.094 234.425 127.161C234.425 127.161 234.797 132.588 234.12 134.406C234.12 134.406 234.12 134.486 234.146 134.486C234.319 134.499 234.518 134.433 234.611 134.406C234.651 134.406 234.651 134.393 234.664 134.38Z" fill="#808083"/>
<path d="M237.477 204.071C239.587 201.444 242.706 199.772 246.063 199.493C246.302 199.48 246.302 199.108 246.063 199.121C242.613 199.413 239.388 201.099 237.212 203.806C237.066 203.991 237.332 204.257 237.477 204.071Z" fill="#4A260F"/>
<g clip-path="url(#clip0_109_65932)">
<path d="M161.075 198.036L163.77 177.518L201.268 199.042L198.573 219.56L161.075 198.036Z" fill="#D9B059"/>
<path d="M201.268 199.042L233.551 190.524L230.856 211.042L198.573 219.56L201.268 199.042Z" fill="#BF8A39"/>
<path d="M163.76 177.517L201.268 199.042L233.552 190.517L196.044 168.992L163.76 177.517Z" fill="#FACB6B"/>
<path d="M215.486 215.823L218.252 194.774C218.318 194.271 218 193.752 217.421 193.416L181.655 172.794C180.597 172.184 179.121 172.573 179.001 173.491L180.105 173.369L215.752 193.92C216.285 194.228 216.579 194.702 216.518 195.164L213.857 215.427L212.213 215.962L213.098 216.457C214.056 216.997 215.388 216.646 215.497 215.818L215.486 215.823Z" fill="#17353D"/>
<path d="M177.972 208.958C177.881 209.648 178.876 210.214 179.756 209.986L181.211 209.608L179.688 208.7L182.389 188.14C182.427 187.851 182.675 187.617 183.044 187.518L213.618 179.287L214.656 179.669C214.775 178.759 213.459 178.01 212.289 178.327L181.685 186.567C181.193 186.699 180.854 187.019 180.803 187.406L177.972 208.958Z" fill="#17353D"/>
<path d="M176.272 198.559L164.649 191.916C164.29 191.714 163.798 191.846 163.758 192.149L163.143 196.827C163.088 197.248 163.358 197.676 163.836 197.957L175.458 204.6C175.818 204.801 176.31 204.669 176.35 204.366L176.964 199.688C177.02 199.267 176.749 198.839 176.272 198.559Z" fill="#00B8FF"/>
<path d="M165.075 193.494L169.363 195.946L168.874 199.671L164.585 197.22L165.075 193.494Z" fill="white"/>
<path d="M165.938 193.482L166.609 193.865L166.385 195.576L165.713 195.193L165.938 193.482Z" fill="#00B8FF"/>
<path d="M166.578 197.868L167.434 198.352L167.337 199.09L166.481 198.606L166.578 197.868Z" fill="#00B8FF"/>
<path d="M167.771 195.793L169.271 196.649L169.099 197.96L167.598 197.103L167.771 195.793Z" fill="#00B8FF"/>
<path d="M164.995 196.137L166.1 196.766L165.974 197.725L164.869 197.096L164.995 196.137Z" fill="#00B8FF"/>
<path d="M166.591 196.038L167.125 196.339L167.064 196.802L166.53 196.5L166.591 196.038Z" fill="#00B8FF"/>
<path d="M167.334 194.746L167.868 195.055L167.771 195.793L167.236 195.491L167.334 194.746Z" fill="#00B8FF"/>
<path d="M167.533 197.6L168.057 197.908L167.96 198.646L167.435 198.345L167.533 197.6Z" fill="#00B8FF"/>
<path d="M165.42 195.386L165.954 195.687L165.893 196.15L165.359 195.848L165.42 195.386Z" fill="#00B8FF"/>
<path d="M166.13 196.539L166.387 196.685L166.357 196.919L166.1 196.766L166.13 196.539Z" fill="#00B8FF"/>
<path d="M167.155 196.112L167.422 196.266L167.392 196.494L167.125 196.34L167.155 196.112Z" fill="#00B8FF"/>
<path d="M165.893 196.15L166.161 196.297L166.13 196.532L165.863 196.377L165.893 196.15Z" fill="#00B8FF"/>
<path d="M165.542 195.591L165.808 195.745L165.778 195.973L165.512 195.819L165.542 195.591Z" fill="white"/>
<path d="M168.106 198.433L168.972 198.926L168.874 199.671L168.008 199.179L168.106 198.433Z" fill="#00B8FF"/>
<path d="M168.29 198.766L168.723 199.013L168.673 199.392L168.24 199.146L168.29 198.766Z" fill="white"/>
<path d="M166.4 196.588L166.52 196.653L166.507 196.75L166.387 196.685L166.4 196.588Z" fill="#00B8FF"/>
<path d="M166.302 196.428L166.413 196.492L166.4 196.588L166.29 196.524L166.302 196.428Z" fill="#00B8FF"/>
<path d="M166.425 196.395L166.545 196.46L166.533 196.557L166.413 196.492L166.425 196.395Z" fill="#00B8FF"/>
<path d="M167.064 196.802L167.599 197.103L167.538 197.566L167.004 197.264L167.064 196.802Z" fill="#00B8FF"/>
<path d="M165.191 196.45L165.853 196.832L165.777 197.412L165.115 197.03L165.191 196.45Z" fill="white"/>
<path d="M165.497 194.125L166.159 194.507L166.083 195.087L165.42 194.712L165.497 194.125Z" fill="white"/>
<path d="M166.179 195.106L166.851 195.489L166.775 196.069L166.103 195.686L166.179 195.106Z" fill="white"/>
<path d="M168.108 196.616L168.77 196.998L168.694 197.577L168.032 197.196L168.108 196.616Z" fill="white"/>
<path d="M167.872 196.073L169.241 196.877L169.164 197.457L167.796 196.652L167.872 196.073Z" fill="white"/>
<path d="M166.303 194.386L167.662 195.189L167.586 195.768L166.226 194.972L166.303 194.386Z" fill="white"/>
<path d="M170.626 196.729L174.904 199.179L174.834 199.71L170.556 197.26L170.626 196.729Z" fill="white"/>
<path d="M170.489 197.771L174.767 200.221L174.738 200.442L170.46 197.992L170.489 197.771Z" fill="white"/>
<path d="M170.406 198.399L174.685 200.849L174.655 201.076L170.376 198.627L170.406 198.399Z" fill="white"/>
<path d="M170.324 199.027L174.602 201.477L174.572 201.704L170.294 199.254L170.324 199.027Z" fill="white"/>
<path d="M170.173 200.172L172.142 201.301L172.113 201.521L170.144 200.392L170.173 200.172Z" fill="white"/>
</g>
<g clip-path="url(#clip1_109_65932)">
<path d="M163.849 176.918L166.544 156.4L204.042 177.924L201.347 198.441L163.849 176.918Z" fill="#0686B7"/>
<path d="M204.042 177.924L236.325 169.406L233.63 189.923L201.347 198.441L204.042 177.924Z" fill="#03596E"/>
<path d="M166.534 156.399L204.042 177.924L236.326 169.399L198.818 147.874L166.534 156.399Z" fill="#00B8FF"/>
<path d="M218.26 194.705L221.025 173.656C221.092 173.152 220.774 172.633 220.195 172.298L184.429 151.675C183.371 151.066 181.895 151.455 181.775 152.372L182.879 152.25L218.526 172.801C219.059 173.11 219.353 173.584 219.292 174.046L216.631 194.308L214.987 194.843L215.872 195.339C216.83 195.878 218.162 195.527 218.271 194.699L218.26 194.705Z" fill="#17353D"/>
<path d="M180.746 187.84C180.655 188.53 181.65 189.095 182.53 188.867L183.985 188.49L182.462 187.581L185.163 167.022C185.201 166.732 185.449 166.498 185.818 166.399L216.392 158.169L217.43 158.551C217.549 157.64 216.233 156.892 215.063 157.208L184.459 165.449C183.967 165.58 183.628 165.901 183.577 166.287L180.746 187.84Z" fill="#17353D"/>
<path d="M179.046 177.44L167.423 170.797C167.064 170.596 166.572 170.727 166.532 171.031L165.917 175.708C165.862 176.129 166.132 176.558 166.61 176.838L178.232 183.481C178.592 183.683 179.084 183.551 179.124 183.247L179.738 178.57C179.794 178.149 179.523 177.72 179.046 177.44Z" fill="#00B8FF"/>
<path d="M167.849 172.376L172.137 174.827L171.648 178.553L167.359 176.101L167.849 172.376Z" fill="white"/>
<path d="M168.711 172.363L169.383 172.746L169.159 174.457L168.487 174.074L168.711 172.363Z" fill="#00B8FF"/>
<path d="M169.352 176.749L170.208 177.234L170.111 177.972L169.255 177.487L169.352 176.749Z" fill="#00B8FF"/>
<path d="M170.545 174.674L172.045 175.531L171.872 176.842L170.372 175.985L170.545 174.674Z" fill="#00B8FF"/>
<path d="M167.769 175.018L168.874 175.648L168.748 176.607L167.643 175.977L167.769 175.018Z" fill="#00B8FF"/>
<path d="M169.365 174.919L169.899 175.221L169.838 175.683L169.304 175.381L169.365 174.919Z" fill="#00B8FF"/>
<path d="M170.108 173.627L170.642 173.936L170.545 174.674L170.01 174.372L170.108 173.627Z" fill="#00B8FF"/>
<path d="M170.307 176.482L170.831 176.789L170.734 177.527L170.209 177.227L170.307 176.482Z" fill="#00B8FF"/>
<path d="M168.194 174.267L168.728 174.569L168.667 175.031L168.133 174.729L168.194 174.267Z" fill="#00B8FF"/>
<path d="M168.903 175.42L169.161 175.566L169.13 175.801L168.874 175.648L168.903 175.42Z" fill="#00B8FF"/>
<path d="M169.929 174.993L170.196 175.148L170.166 175.375L169.899 175.221L169.929 174.993Z" fill="#00B8FF"/>
<path d="M168.667 175.031L168.935 175.178L168.904 175.413L168.637 175.259L168.667 175.031Z" fill="#00B8FF"/>
<path d="M168.316 174.472L168.582 174.627L168.552 174.854L168.286 174.7L168.316 174.472Z" fill="white"/>
<path d="M170.88 177.315L171.745 177.807L171.648 178.553L170.782 178.06L170.88 177.315Z" fill="#00B8FF"/>
<path d="M171.064 177.648L171.497 177.894L171.447 178.274L171.015 178.027L171.064 177.648Z" fill="white"/>
<path d="M169.174 175.47L169.294 175.534L169.281 175.631L169.161 175.566L169.174 175.47Z" fill="#00B8FF"/>
<path d="M169.076 175.309L169.187 175.373L169.174 175.469L169.063 175.406L169.076 175.309Z" fill="#00B8FF"/>
<path d="M169.199 175.276L169.319 175.341L169.307 175.438L169.187 175.373L169.199 175.276Z" fill="#00B8FF"/>
<path d="M169.838 175.683L170.372 175.985L170.312 176.447L169.778 176.145L169.838 175.683Z" fill="#00B8FF"/>
<path d="M167.965 175.332L168.627 175.714L168.551 176.293L167.889 175.911L167.965 175.332Z" fill="white"/>
<path d="M168.27 173.007L168.933 173.389L168.857 173.968L168.193 173.593L168.27 173.007Z" fill="white"/>
<path d="M168.953 173.988L169.625 174.371L169.549 174.95L168.877 174.567L168.953 173.988Z" fill="white"/>
<path d="M170.882 175.497L171.544 175.879L171.468 176.459L170.806 176.077L170.882 175.497Z" fill="white"/>
<path d="M170.646 174.954L172.015 175.759L171.938 176.338L170.57 175.534L170.646 174.954Z" fill="white"/>
<path d="M169.077 173.267L170.436 174.07L170.36 174.65L169 173.854L169.077 173.267Z" fill="white"/>
<path d="M173.4 175.611L177.678 178.061L177.608 178.592L173.33 176.142L173.4 175.611Z" fill="white"/>
<path d="M173.263 176.652L177.541 179.102L177.512 179.323L173.234 176.873L173.263 176.652Z" fill="white"/>
<path d="M173.18 177.28L177.459 179.73L177.429 179.958L173.15 177.508L173.18 177.28Z" fill="white"/>
<path d="M173.098 177.908L177.376 180.358L177.346 180.586L173.068 178.136L173.098 177.908Z" fill="white"/>
<path d="M172.947 179.053L174.916 180.182L174.887 180.403L172.918 179.274L172.947 179.053Z" fill="white"/>
<g clip-path="url(#clip2_109_65932)">
<path d="M176.466 157.256L178.37 142.761L204.863 157.967L202.958 172.463L176.466 157.256Z" fill="#D9B059"/>
<path d="M204.863 157.967L227.671 151.949L225.767 166.445L202.958 172.463L204.863 157.967Z" fill="#BF8A39"/>
<path d="M178.363 142.76L204.862 157.967L227.671 151.944L201.172 136.737L178.363 142.76Z" fill="#FACB6B"/>
<path d="M214.908 169.823L216.862 154.952C216.909 154.596 216.684 154.23 216.275 153.992L191.006 139.422C190.259 138.992 189.216 139.267 189.131 139.915L189.911 139.829L215.096 154.348C215.473 154.566 215.68 154.901 215.637 155.227L213.757 169.543L212.596 169.921L213.221 170.271C213.898 170.652 214.839 170.404 214.916 169.819L214.908 169.823Z" fill="#17353D"/>
<path d="M188.404 164.973C188.34 165.46 189.042 165.86 189.665 165.699L190.692 165.432L189.616 164.79L191.524 150.265C191.551 150.06 191.727 149.895 191.988 149.825L213.588 144.01L214.321 144.28C214.406 143.637 213.476 143.108 212.649 143.332L191.027 149.154C190.68 149.247 190.44 149.473 190.404 149.746L188.404 164.973Z" fill="#17353D"/>
<path d="M187.203 157.626L178.991 152.932C178.737 152.79 178.389 152.883 178.361 153.098L177.927 156.402C177.888 156.7 178.079 157.002 178.416 157.2L186.628 161.894C186.882 162.036 187.23 161.943 187.258 161.728L187.692 158.424C187.731 158.126 187.54 157.824 187.203 157.626Z" fill="#00B8FF"/>
<path d="M179.292 154.048L182.321 155.78L181.976 158.412L178.946 156.68L179.292 154.048Z" fill="white"/>
<path d="M179.901 154.039L180.376 154.309L180.217 155.519L179.742 155.248L179.901 154.039Z" fill="#00B8FF"/>
<path d="M180.353 157.137L180.959 157.48L180.89 158.002L180.285 157.659L180.353 157.137Z" fill="#00B8FF"/>
<path d="M181.196 155.671L182.256 156.277L182.134 157.204L181.074 156.598L181.196 155.671Z" fill="#00B8FF"/>
<path d="M179.235 155.915L180.016 156.359L179.927 157.037L179.146 156.593L179.235 155.915Z" fill="#00B8FF"/>
<path d="M180.362 155.845L180.74 156.058L180.697 156.385L180.32 156.171L180.362 155.845Z" fill="#00B8FF"/>
<path d="M180.888 154.932L181.265 155.15L181.196 155.672L180.819 155.459L180.888 154.932Z" fill="#00B8FF"/>
<path d="M181.029 156.949L181.399 157.166L181.33 157.688L180.959 157.475L181.029 156.949Z" fill="#00B8FF"/>
<path d="M179.535 155.384L179.913 155.597L179.87 155.924L179.492 155.711L179.535 155.384Z" fill="#00B8FF"/>
<path d="M180.037 156.198L180.219 156.302L180.197 156.468L180.016 156.359L180.037 156.198Z" fill="#00B8FF"/>
<path d="M180.761 155.897L180.95 156.006L180.928 156.167L180.74 156.058L180.761 155.897Z" fill="#00B8FF"/>
<path d="M179.87 155.924L180.059 156.028L180.037 156.194L179.849 156.085L179.87 155.924Z" fill="#00B8FF"/>
<path d="M179.621 155.529L179.81 155.638L179.789 155.799L179.6 155.69L179.621 155.529Z" fill="white"/>
<path d="M181.433 157.537L182.045 157.885L181.976 158.412L181.364 158.064L181.433 157.537Z" fill="#00B8FF"/>
<path d="M181.563 157.772L181.869 157.947L181.834 158.215L181.528 158.041L181.563 157.772Z" fill="white"/>
<path d="M180.228 156.234L180.313 156.279L180.304 156.348L180.219 156.302L180.228 156.234Z" fill="#00B8FF"/>
<path d="M180.159 156.12L180.237 156.165L180.228 156.233L180.15 156.189L180.159 156.12Z" fill="#00B8FF"/>
<path d="M180.246 156.097L180.331 156.143L180.322 156.211L180.237 156.165L180.246 156.097Z" fill="#00B8FF"/>
<path d="M180.697 156.384L181.075 156.598L181.032 156.924L180.654 156.711L180.697 156.384Z" fill="#00B8FF"/>
<path d="M179.374 156.136L179.842 156.406L179.788 156.816L179.32 156.546L179.374 156.136Z" fill="white"/>
<path d="M179.589 154.493L180.058 154.763L180.004 155.173L179.535 154.908L179.589 154.493Z" fill="white"/>
<path d="M180.072 155.187L180.547 155.457L180.493 155.867L180.018 155.596L180.072 155.187Z" fill="white"/>
<path d="M181.434 156.253L181.902 156.523L181.848 156.933L181.38 156.663L181.434 156.253Z" fill="white"/>
<path d="M181.268 155.869L182.235 156.438L182.181 156.848L181.214 156.279L181.268 155.869Z" fill="white"/>
<path d="M180.159 154.677L181.12 155.245L181.066 155.655L180.105 155.092L180.159 154.677Z" fill="white"/>
<path d="M183.214 156.333L186.236 158.064L186.187 158.439L183.164 156.708L183.214 156.333Z" fill="white"/>
<path d="M183.117 157.069L186.14 158.8L186.119 158.956L183.096 157.225L183.117 157.069Z" fill="white"/>
<path d="M183.059 157.513L186.082 159.244L186.061 159.404L183.038 157.673L183.059 157.513Z" fill="white"/>
<path d="M183 157.956L186.023 159.687L186.002 159.848L182.979 158.117L183 157.956Z" fill="white"/>
<path d="M182.893 158.765L184.285 159.563L184.264 159.719L182.872 158.921L182.893 158.765Z" fill="white"/>
</g>
</g>
<defs>
<linearGradient id="paint0_linear_109_65932" x1="336.245" y1="254.85" x2="336.245" y2="234.346" gradientUnits="userSpaceOnUse">
<stop stop-color="#16D1FF"/>
<stop offset="1" stop-color="#67D3EE"/>
</linearGradient>
<linearGradient id="paint1_linear_109_65932" x1="306.497" y1="191.507" x2="306.497" y2="164.032" gradientUnits="userSpaceOnUse">
<stop stop-color="#16D1FF"/>
<stop offset="1" stop-color="#67D3EE"/>
</linearGradient>
<linearGradient id="paint2_linear_109_65932" x1="227.942" y1="263.947" x2="227.942" y2="213.136" gradientUnits="userSpaceOnUse">
<stop stop-color="#16D1FF"/>
<stop offset="1" stop-color="#67D3EE"/>
</linearGradient>
<linearGradient id="paint3_linear_109_65932" x1="288.995" y1="266.658" x2="288.995" y2="191.104" gradientUnits="userSpaceOnUse">
<stop stop-color="#16D1FF"/>
<stop offset="1" stop-color="#67D3EE"/>
</linearGradient>
<linearGradient id="paint4_linear_109_65932" x1="212.933" y1="259.051" x2="212.933" y2="222.045" gradientUnits="userSpaceOnUse">
<stop stop-color="#16D1FF"/>
<stop offset="1" stop-color="#67D3EE"/>
</linearGradient>
<linearGradient id="paint5_linear_109_65932" x1="252.063" y1="109.547" x2="252.063" y2="151.558" gradientUnits="userSpaceOnUse">
<stop stop-color="#04B7E3"/>
<stop offset="1" stop-color="#02657D"/>
</linearGradient>
<linearGradient id="paint6_linear_109_65932" x1="290.783" y1="173.668" x2="287.671" y2="173.639" gradientUnits="userSpaceOnUse">
<stop stop-color="#E8E8E9"/>
<stop offset="0.09065" stop-color="#F0F0F0"/>
<stop offset="0.2953" stop-color="#FBFBFB"/>
<stop offset="0.5094" stop-color="white"/>
<stop offset="0.7092" stop-color="#FCFCFC"/>
<stop offset="0.8507" stop-color="#F3F3F3"/>
<stop offset="0.9737" stop-color="#E3E4E4"/>
<stop offset="1" stop-color="#DFE0E0"/>
</linearGradient>
<linearGradient id="paint7_linear_109_65932" x1="289.163" y1="170.7" x2="289.163" y2="176.645" gradientUnits="userSpaceOnUse">
<stop stop-color="#04B7E3"/>
<stop offset="1" stop-color="#02657D"/>
</linearGradient>
<linearGradient id="paint8_linear_109_65932" x1="246.048" y1="153.476" x2="246.048" y2="207.204" gradientUnits="userSpaceOnUse">
<stop stop-color="#04B7E3"/>
<stop offset="1" stop-color="#02657D"/>
</linearGradient>
<linearGradient id="paint9_linear_109_65932" x1="256.966" y1="155.896" x2="244.429" y2="155.896" gradientUnits="userSpaceOnUse">
<stop stop-color="#E8E8E9"/>
<stop offset="0.09065" stop-color="#F0F0F0"/>
<stop offset="0.2953" stop-color="#FBFBFB"/>
<stop offset="0.5094" stop-color="white"/>
<stop offset="0.7092" stop-color="#FCFCFC"/>
<stop offset="0.8507" stop-color="#F3F3F3"/>
<stop offset="0.9737" stop-color="#E3E4E4"/>
<stop offset="1" stop-color="#DFE0E0"/>
</linearGradient>
<linearGradient id="paint10_linear_109_65932" x1="290.303" y1="176.783" x2="287.191" y2="176.783" gradientUnits="userSpaceOnUse">
<stop stop-color="#E8E8E9"/>
<stop offset="0.09065" stop-color="#F0F0F0"/>
<stop offset="0.2953" stop-color="#FBFBFB"/>
<stop offset="0.5094" stop-color="white"/>
<stop offset="0.7092" stop-color="#FCFCFC"/>
<stop offset="0.8507" stop-color="#F3F3F3"/>
<stop offset="0.9737" stop-color="#E3E4E4"/>
<stop offset="1" stop-color="#DFE0E0"/>
</linearGradient>
<linearGradient id="paint11_linear_109_65932" x1="288.685" y1="173.817" x2="288.685" y2="179.776" gradientUnits="userSpaceOnUse">
<stop stop-color="#04B7E3"/>
<stop offset="1" stop-color="#02657D"/>
</linearGradient>
<clipPath id="clip0_109_65932">
<rect width="71" height="49.7" fill="white" transform="matrix(-0.991482 -0.130247 -0.130247 0.991482 235.869 174.366)"/>
</clipPath>
<clipPath id="clip1_109_65932">
<rect width="71" height="80.8108" fill="white" transform="matrix(-0.991482 -0.130247 -0.130247 0.991482 242.695 122.402)"/>
</clipPath>
<clipPath id="clip2_109_65932">
<rect width="50.162" height="35.1134" fill="white" transform="matrix(-0.991482 -0.130247 -0.130247 0.991482 229.308 140.533)"/>
</clipPath>
</defs>
</svg>
